G04 #@! TF.FileFunction,Soldermask,Bot*
%FSLAX46Y46*%
G04 Gerber Fmt 4.6, Leading zero omitted, Abs format (unit mm)*
G04 Created by KiCad (PCBNEW 4.0.6) date 08/05/17 18:52:37*
%MOMM*%
%LPD*%
G01*
G04 APERTURE LIST*
%ADD10C,0.100000*%
%ADD11R,1.700000X1.700000*%
%ADD12O,1.700000X1.700000*%
%ADD13C,2.750000*%
%ADD14C,6.200000*%
%ADD15C,1.800000*%
%ADD16O,1.800000X1.800000*%
%ADD17R,1.800000X1.800000*%
%ADD18C,2.286000*%
G04 APERTURE END LIST*
D10*
D11*
X52370000Y-78270000D03*
D12*
X52370000Y-75730000D03*
X54910000Y-78270000D03*
X54910000Y-75730000D03*
X57450000Y-78270000D03*
X57450000Y-75730000D03*
X59990000Y-78270000D03*
X59990000Y-75730000D03*
X62530000Y-78270000D03*
X62530000Y-75730000D03*
X65070000Y-78270000D03*
X65070000Y-75730000D03*
X67610000Y-78270000D03*
X67610000Y-75730000D03*
X70150000Y-78270000D03*
X70150000Y-75730000D03*
X72690000Y-78270000D03*
X72690000Y-75730000D03*
X75230000Y-78270000D03*
X75230000Y-75730000D03*
X77770000Y-78270000D03*
X77770000Y-75730000D03*
X80310000Y-78270000D03*
X80310000Y-75730000D03*
X82850000Y-78270000D03*
X82850000Y-75730000D03*
X85390000Y-78270000D03*
X85390000Y-75730000D03*
X87930000Y-78270000D03*
X87930000Y-75730000D03*
X90470000Y-78270000D03*
X90470000Y-75730000D03*
X93010000Y-78270000D03*
X93010000Y-75730000D03*
X95550000Y-78270000D03*
X95550000Y-75730000D03*
X98090000Y-78270000D03*
X98090000Y-75730000D03*
X100630000Y-78270000D03*
X100630000Y-75730000D03*
D13*
X105500000Y-126000000D03*
X47500000Y-126000000D03*
X47500000Y-77000000D03*
D14*
X105500000Y-77000000D03*
D15*
X65000000Y-89000000D03*
D16*
X65000000Y-86460000D03*
X65000000Y-83920000D03*
D14*
X47500000Y-126000000D03*
X105500000Y-126000000D03*
D13*
X105500000Y-77000000D03*
D15*
X77250000Y-99000000D03*
D17*
X79790000Y-99000000D03*
D15*
X58250000Y-118000000D03*
D17*
X60790000Y-118000000D03*
D15*
X77250000Y-118000000D03*
D17*
X79790000Y-118000000D03*
D15*
X96250000Y-118000000D03*
D17*
X98790000Y-118000000D03*
D18*
X81040000Y-88920000D03*
X74690000Y-91460000D03*
X62040000Y-107920000D03*
X55690000Y-110460000D03*
X81040000Y-107920000D03*
X74690000Y-110460000D03*
X100040000Y-107920000D03*
X93690000Y-110460000D03*
D14*
X47500000Y-77000000D03*
D15*
X90000000Y-90250000D03*
X90000000Y-97870000D03*
X82500000Y-82500000D03*
X74880000Y-82500000D03*
X52500000Y-102000000D03*
X52500000Y-94380000D03*
X57000000Y-102000000D03*
X57000000Y-94380000D03*
X62500000Y-102000000D03*
X62500000Y-94380000D03*
X67000000Y-102000000D03*
X67000000Y-94380000D03*
M02*
