G04 #@! TF.FileFunction,Copper,L1,Top,Signal*
%FSLAX46Y46*%
G04 Gerber Fmt 4.6, Leading zero omitted, Abs format (unit mm)*
G04 Created by KiCad (PCBNEW 4.0.6) date 07/21/17 15:12:10*
%MOMM*%
%LPD*%
G01*
G04 APERTURE LIST*
%ADD10C,0.100000*%
%ADD11O,4.500000X4.500000*%
%ADD12R,1.800000X1.800000*%
%ADD13O,1.800000X1.800000*%
%ADD14C,6.200000*%
%ADD15C,1.800000*%
%ADD16R,1.700000X1.700000*%
%ADD17O,1.700000X1.700000*%
%ADD18C,2.286000*%
%ADD19C,1.600000*%
%ADD20O,1.600000X1.600000*%
%ADD21C,0.375000*%
%ADD22C,0.500000*%
G04 APERTURE END LIST*
D10*
D11*
X48340000Y-86460000D03*
D12*
X65000000Y-89000000D03*
D13*
X65000000Y-86460000D03*
X65000000Y-83920000D03*
D14*
X47500000Y-126000000D03*
X105500000Y-126000000D03*
X105500000Y-77000000D03*
D12*
X77250000Y-99000000D03*
D15*
X79790000Y-99000000D03*
D12*
X58250000Y-118000000D03*
D15*
X60790000Y-118000000D03*
D12*
X77250000Y-118000000D03*
D15*
X79790000Y-118000000D03*
D12*
X96250000Y-118000000D03*
D15*
X98790000Y-118000000D03*
D16*
X52400000Y-78200000D03*
D17*
X52400000Y-75660000D03*
X54940000Y-78200000D03*
X54940000Y-75660000D03*
X57480000Y-78200000D03*
X57480000Y-75660000D03*
X60020000Y-78200000D03*
X60020000Y-75660000D03*
X62560000Y-78200000D03*
X62560000Y-75660000D03*
X65100000Y-78200000D03*
X65100000Y-75660000D03*
X67640000Y-78200000D03*
X67640000Y-75660000D03*
X70180000Y-78200000D03*
X70180000Y-75660000D03*
X72720000Y-78200000D03*
X72720000Y-75660000D03*
X75260000Y-78200000D03*
X75260000Y-75660000D03*
X77800000Y-78200000D03*
X77800000Y-75660000D03*
X80340000Y-78200000D03*
X80340000Y-75660000D03*
X82880000Y-78200000D03*
X82880000Y-75660000D03*
X85420000Y-78200000D03*
X85420000Y-75660000D03*
X87960000Y-78200000D03*
X87960000Y-75660000D03*
X90500000Y-78200000D03*
X90500000Y-75660000D03*
X93040000Y-78200000D03*
X93040000Y-75660000D03*
X95580000Y-78200000D03*
X95580000Y-75660000D03*
X98120000Y-78200000D03*
X98120000Y-75660000D03*
X100660000Y-78200000D03*
X100660000Y-75660000D03*
D18*
X81040000Y-88920000D03*
X74690000Y-91460000D03*
X62040000Y-107920000D03*
X55690000Y-110460000D03*
X81040000Y-107920000D03*
X74690000Y-110460000D03*
X100040000Y-107920000D03*
X93690000Y-110460000D03*
D14*
X47500000Y-77000000D03*
D19*
X90000000Y-90250000D03*
D20*
X90000000Y-97870000D03*
D19*
X82500000Y-82500000D03*
D20*
X74880000Y-82500000D03*
D19*
X62500000Y-102000000D03*
D20*
X62500000Y-94380000D03*
D19*
X67000000Y-102000000D03*
D20*
X67000000Y-94380000D03*
D19*
X52500000Y-102000000D03*
D20*
X52500000Y-94380000D03*
D19*
X57000000Y-102000000D03*
D20*
X57000000Y-94380000D03*
D21*
X90000000Y-90250000D02*
X90000000Y-87750000D01*
X53670000Y-76930000D02*
X52400000Y-78200000D01*
X53670000Y-74700000D02*
X53670000Y-76930000D01*
X54150000Y-74220000D02*
X53670000Y-74700000D01*
X80880000Y-74220000D02*
X54150000Y-74220000D01*
X81610000Y-74950000D02*
X80880000Y-74220000D01*
X81610000Y-79360000D02*
X81610000Y-74950000D01*
X90000000Y-87750000D02*
X81610000Y-79360000D01*
X65100000Y-75660000D02*
X65160000Y-75660000D01*
X65160000Y-75660000D02*
X66425000Y-76925000D01*
X66425000Y-76925000D02*
X71075000Y-76925000D01*
X71075000Y-76925000D02*
X71450000Y-77300000D01*
X71450000Y-77300000D02*
X71450000Y-81150000D01*
X71450000Y-81150000D02*
X73000000Y-82700000D01*
X73000000Y-82700000D02*
X73000000Y-89770000D01*
X73000000Y-89770000D02*
X74690000Y-91460000D01*
D22*
X55690000Y-110460000D02*
X55690000Y-107810000D01*
X67640000Y-82640000D02*
X67640000Y-78200000D01*
X69500000Y-84500000D02*
X67640000Y-82640000D01*
X69500000Y-95500000D02*
X69500000Y-84500000D01*
X66500000Y-98500000D02*
X69500000Y-95500000D01*
X62000000Y-98500000D02*
X66500000Y-98500000D01*
X60000000Y-100500000D02*
X62000000Y-98500000D01*
X60000000Y-103500000D02*
X60000000Y-100500000D01*
X55690000Y-107810000D02*
X60000000Y-103500000D01*
X55690000Y-110460000D02*
X56040000Y-110460000D01*
X74690000Y-110460000D02*
X61460000Y-110460000D01*
X70180000Y-81680000D02*
X70180000Y-78200000D01*
X71500000Y-83000000D02*
X70180000Y-81680000D01*
X71500000Y-100500000D02*
X71500000Y-83000000D01*
X68000000Y-104000000D02*
X71500000Y-100500000D01*
X62500000Y-104000000D02*
X68000000Y-104000000D01*
X59500000Y-107000000D02*
X62500000Y-104000000D01*
X59500000Y-108500000D02*
X59500000Y-107000000D01*
X61460000Y-110460000D02*
X59500000Y-108500000D01*
X93690000Y-110460000D02*
X94540000Y-110460000D01*
X67000000Y-94380000D02*
X67000000Y-91000000D01*
X67000000Y-91000000D02*
X65000000Y-89000000D01*
X62500000Y-94380000D02*
X67000000Y-94380000D01*
X57000000Y-94380000D02*
X62500000Y-94380000D01*
X52500000Y-94380000D02*
X57000000Y-94380000D01*
X81040000Y-105500000D02*
X64460000Y-105500000D01*
X64460000Y-105500000D02*
X62040000Y-107920000D01*
X90000000Y-97870000D02*
X88630000Y-97870000D01*
X81040000Y-105460000D02*
X81040000Y-105500000D01*
X81040000Y-105500000D02*
X81040000Y-107920000D01*
X88630000Y-97870000D02*
X81040000Y-105460000D01*
X90000000Y-97870000D02*
X90000000Y-97880000D01*
X90000000Y-97880000D02*
X100040000Y-107920000D01*
X90000000Y-97870000D02*
X84870000Y-97870000D01*
X81500000Y-94500000D02*
X81500000Y-89380000D01*
X84870000Y-97870000D02*
X81500000Y-94500000D01*
X81500000Y-89380000D02*
X81040000Y-88920000D01*
G36*
X102234226Y-79178001D02*
X103316303Y-80261968D01*
X104730828Y-80849330D01*
X106262453Y-80850667D01*
X107678001Y-80265774D01*
X108200000Y-79744685D01*
X108200000Y-123255237D01*
X107683697Y-122738032D01*
X106269172Y-122150670D01*
X104737547Y-122149333D01*
X103321999Y-122734226D01*
X102238032Y-123816303D01*
X101650670Y-125230828D01*
X101649333Y-126762453D01*
X102234226Y-128178001D01*
X102755315Y-128700000D01*
X50244763Y-128700000D01*
X50761968Y-128183697D01*
X51349330Y-126769172D01*
X51350667Y-125237547D01*
X50765774Y-123821999D01*
X49683697Y-122738032D01*
X48269172Y-122150670D01*
X46737547Y-122149333D01*
X45321999Y-122734226D01*
X44800000Y-123255315D01*
X44800000Y-117100000D01*
X56585307Y-117100000D01*
X56585307Y-118900000D01*
X56637604Y-119177933D01*
X56801862Y-119433198D01*
X57052492Y-119604446D01*
X57350000Y-119664693D01*
X59150000Y-119664693D01*
X59427933Y-119612396D01*
X59683198Y-119448138D01*
X59772998Y-119316712D01*
X59854130Y-119397986D01*
X60460355Y-119649713D01*
X61116765Y-119650285D01*
X61723429Y-119399617D01*
X62187986Y-118935870D01*
X62439713Y-118329645D01*
X62440285Y-117673235D01*
X62203430Y-117100000D01*
X75585307Y-117100000D01*
X75585307Y-118900000D01*
X75637604Y-119177933D01*
X75801862Y-119433198D01*
X76052492Y-119604446D01*
X76350000Y-119664693D01*
X78150000Y-119664693D01*
X78427933Y-119612396D01*
X78683198Y-119448138D01*
X78772998Y-119316712D01*
X78854130Y-119397986D01*
X79460355Y-119649713D01*
X80116765Y-119650285D01*
X80723429Y-119399617D01*
X81187986Y-118935870D01*
X81439713Y-118329645D01*
X81440285Y-117673235D01*
X81189617Y-117066571D01*
X80725870Y-116602014D01*
X80119645Y-116350287D01*
X79463235Y-116349715D01*
X78856571Y-116600383D01*
X78773261Y-116683547D01*
X78698138Y-116566802D01*
X78447508Y-116395554D01*
X78150000Y-116335307D01*
X76350000Y-116335307D01*
X76072067Y-116387604D01*
X75816802Y-116551862D01*
X75645554Y-116802492D01*
X75585307Y-117100000D01*
X62203430Y-117100000D01*
X62189617Y-117066571D01*
X61725870Y-116602014D01*
X61119645Y-116350287D01*
X60463235Y-116349715D01*
X59856571Y-116600383D01*
X59773261Y-116683547D01*
X59698138Y-116566802D01*
X59447508Y-116395554D01*
X59150000Y-116335307D01*
X57350000Y-116335307D01*
X57072067Y-116387604D01*
X56816802Y-116551862D01*
X56645554Y-116802492D01*
X56585307Y-117100000D01*
X44800000Y-117100000D01*
X44800000Y-111078791D01*
X44829703Y-110929462D01*
X44869661Y-110869661D01*
X44929462Y-110829703D01*
X45078791Y-110800000D01*
X48000000Y-110800000D01*
X48077281Y-110784628D01*
X48156072Y-110784628D01*
X48538749Y-110708509D01*
X48538755Y-110708509D01*
X48827139Y-110589056D01*
X49151561Y-110372284D01*
X49151564Y-110372283D01*
X49261923Y-110261923D01*
X49372283Y-110151564D01*
X49372284Y-110151561D01*
X49589056Y-109827139D01*
X49708509Y-109538755D01*
X49708509Y-109538750D01*
X49784628Y-109156072D01*
X49784628Y-109077281D01*
X49800000Y-109000000D01*
X49800000Y-102306961D01*
X50949732Y-102306961D01*
X51185208Y-102876857D01*
X51620849Y-103313260D01*
X52190333Y-103549730D01*
X52806961Y-103550268D01*
X53376857Y-103314792D01*
X53813260Y-102879151D01*
X54049730Y-102309667D01*
X54049732Y-102306961D01*
X55449732Y-102306961D01*
X55685208Y-102876857D01*
X56120849Y-103313260D01*
X56690333Y-103549730D01*
X57306961Y-103550268D01*
X57876857Y-103314792D01*
X58313260Y-102879151D01*
X58549730Y-102309667D01*
X58550268Y-101693039D01*
X58314792Y-101123143D01*
X57879151Y-100686740D01*
X57309667Y-100450270D01*
X56693039Y-100449732D01*
X56123143Y-100685208D01*
X55686740Y-101120849D01*
X55450270Y-101690333D01*
X55449732Y-102306961D01*
X54049732Y-102306961D01*
X54050268Y-101693039D01*
X53814792Y-101123143D01*
X53379151Y-100686740D01*
X52809667Y-100450270D01*
X52193039Y-100449732D01*
X51623143Y-100685208D01*
X51186740Y-101120849D01*
X50950270Y-101690333D01*
X50949732Y-102306961D01*
X49800000Y-102306961D01*
X49800000Y-94000000D01*
X49784628Y-93922719D01*
X49784628Y-93843928D01*
X49708509Y-93461250D01*
X49708509Y-93461245D01*
X49589056Y-93172861D01*
X49372283Y-92848437D01*
X49372283Y-92848436D01*
X49261923Y-92738077D01*
X49151564Y-92627717D01*
X49151561Y-92627716D01*
X48827139Y-92410944D01*
X48538755Y-92291491D01*
X48538749Y-92291491D01*
X48156072Y-92215372D01*
X48077281Y-92215372D01*
X48000000Y-92200000D01*
X45078791Y-92200000D01*
X44929462Y-92170297D01*
X44869661Y-92130339D01*
X44829703Y-92070538D01*
X44800000Y-91921209D01*
X44800000Y-86401227D01*
X45340000Y-86401227D01*
X45340000Y-86518773D01*
X45568361Y-87666823D01*
X46218680Y-88640093D01*
X47191950Y-89290412D01*
X48340000Y-89518773D01*
X49488050Y-89290412D01*
X50461320Y-88640093D01*
X51111639Y-87666823D01*
X51340000Y-86518773D01*
X51340000Y-86401227D01*
X51111639Y-85253177D01*
X50461320Y-84279907D01*
X49488050Y-83629588D01*
X48340000Y-83401227D01*
X47191950Y-83629588D01*
X46218680Y-84279907D01*
X45568361Y-85253177D01*
X45340000Y-86401227D01*
X44800000Y-86401227D01*
X44800000Y-79744763D01*
X45316303Y-80261968D01*
X46730828Y-80849330D01*
X48262453Y-80850667D01*
X49678001Y-80265774D01*
X50761968Y-79183697D01*
X50795341Y-79103326D01*
X50837604Y-79327933D01*
X51001862Y-79583198D01*
X51252492Y-79754446D01*
X51550000Y-79814693D01*
X53250000Y-79814693D01*
X53527933Y-79762396D01*
X53783198Y-79598138D01*
X53901606Y-79424842D01*
X54327707Y-79709553D01*
X54940000Y-79831346D01*
X55552293Y-79709553D01*
X56071371Y-79362717D01*
X56210000Y-79155244D01*
X56348629Y-79362717D01*
X56867707Y-79709553D01*
X57480000Y-79831346D01*
X58092293Y-79709553D01*
X58611371Y-79362717D01*
X58750000Y-79155244D01*
X58888629Y-79362717D01*
X59407707Y-79709553D01*
X60020000Y-79831346D01*
X60632293Y-79709553D01*
X61151371Y-79362717D01*
X61290000Y-79155244D01*
X61428629Y-79362717D01*
X61947707Y-79709553D01*
X62560000Y-79831346D01*
X63172293Y-79709553D01*
X63691371Y-79362717D01*
X63830000Y-79155244D01*
X63968629Y-79362717D01*
X64487707Y-79709553D01*
X65100000Y-79831346D01*
X65712293Y-79709553D01*
X66231371Y-79362717D01*
X66370000Y-79155244D01*
X66508629Y-79362717D01*
X66640000Y-79450496D01*
X66640000Y-82640000D01*
X66716120Y-83022684D01*
X66932893Y-83347107D01*
X68500000Y-84914214D01*
X68500000Y-94098268D01*
X68432013Y-93756475D01*
X68096016Y-93253618D01*
X68000000Y-93189462D01*
X68000000Y-91000000D01*
X67923880Y-90617317D01*
X67707107Y-90292893D01*
X66664693Y-89250479D01*
X66664693Y-88100000D01*
X66612396Y-87822067D01*
X66448138Y-87566802D01*
X66297252Y-87463706D01*
X66524401Y-87123753D01*
X66650000Y-86492325D01*
X66650000Y-86427675D01*
X66524401Y-85796247D01*
X66166726Y-85260949D01*
X66060543Y-85190000D01*
X66166726Y-85119051D01*
X66524401Y-84583753D01*
X66650000Y-83952325D01*
X66650000Y-83887675D01*
X66524401Y-83256247D01*
X66166726Y-82720949D01*
X65631428Y-82363274D01*
X65000000Y-82237675D01*
X64368572Y-82363274D01*
X63833274Y-82720949D01*
X63475599Y-83256247D01*
X63350000Y-83887675D01*
X63350000Y-83952325D01*
X63475599Y-84583753D01*
X63833274Y-85119051D01*
X63939457Y-85190000D01*
X63833274Y-85260949D01*
X63475599Y-85796247D01*
X63350000Y-86427675D01*
X63350000Y-86492325D01*
X63475599Y-87123753D01*
X63703065Y-87464179D01*
X63566802Y-87551862D01*
X63395554Y-87802492D01*
X63335307Y-88100000D01*
X63335307Y-89900000D01*
X63387604Y-90177933D01*
X63551862Y-90433198D01*
X63802492Y-90604446D01*
X64100000Y-90664693D01*
X65250479Y-90664693D01*
X66000000Y-91414214D01*
X66000000Y-93189462D01*
X65903984Y-93253618D01*
X65819539Y-93380000D01*
X63680461Y-93380000D01*
X63596016Y-93253618D01*
X63093159Y-92917621D01*
X62500000Y-92799634D01*
X61906841Y-92917621D01*
X61403984Y-93253618D01*
X61319539Y-93380000D01*
X58180461Y-93380000D01*
X58096016Y-93253618D01*
X57593159Y-92917621D01*
X57000000Y-92799634D01*
X56406841Y-92917621D01*
X55903984Y-93253618D01*
X55819539Y-93380000D01*
X53680461Y-93380000D01*
X53596016Y-93253618D01*
X53093159Y-92917621D01*
X52500000Y-92799634D01*
X51906841Y-92917621D01*
X51403984Y-93253618D01*
X51067987Y-93756475D01*
X50950000Y-94349634D01*
X50950000Y-94410366D01*
X51067987Y-95003525D01*
X51403984Y-95506382D01*
X51906841Y-95842379D01*
X52500000Y-95960366D01*
X53093159Y-95842379D01*
X53596016Y-95506382D01*
X53680461Y-95380000D01*
X55819539Y-95380000D01*
X55903984Y-95506382D01*
X56406841Y-95842379D01*
X57000000Y-95960366D01*
X57593159Y-95842379D01*
X58096016Y-95506382D01*
X58180461Y-95380000D01*
X61319539Y-95380000D01*
X61403984Y-95506382D01*
X61906841Y-95842379D01*
X62500000Y-95960366D01*
X63093159Y-95842379D01*
X63596016Y-95506382D01*
X63680461Y-95380000D01*
X65819539Y-95380000D01*
X65903984Y-95506382D01*
X66406841Y-95842379D01*
X67000000Y-95960366D01*
X67593159Y-95842379D01*
X68045953Y-95539833D01*
X66085786Y-97500000D01*
X62000000Y-97500000D01*
X61617317Y-97576120D01*
X61617315Y-97576121D01*
X61617316Y-97576121D01*
X61292893Y-97792893D01*
X59292893Y-99792893D01*
X59076120Y-100117316D01*
X59076120Y-100117317D01*
X59000000Y-100500000D01*
X59000000Y-103085787D01*
X54982893Y-107102893D01*
X54766120Y-107427316D01*
X54742689Y-107545111D01*
X54690000Y-107810000D01*
X54690000Y-108824963D01*
X54619103Y-108854257D01*
X54086129Y-109386302D01*
X53797329Y-110081807D01*
X53796672Y-110834889D01*
X54040370Y-111424684D01*
X53514348Y-111642032D01*
X53063615Y-112091979D01*
X52819379Y-112680164D01*
X52818823Y-113317042D01*
X53062032Y-113905652D01*
X53511979Y-114356385D01*
X54100164Y-114600621D01*
X54737042Y-114601177D01*
X55325652Y-114357968D01*
X55776385Y-113908021D01*
X56020621Y-113319836D01*
X56021177Y-112682958D01*
X55884912Y-112353171D01*
X56064889Y-112353328D01*
X56760897Y-112065743D01*
X57027324Y-111799781D01*
X56756578Y-112451810D01*
X56755625Y-113543401D01*
X57172479Y-114552264D01*
X57943676Y-115324809D01*
X58951810Y-115743422D01*
X60043401Y-115744375D01*
X61052264Y-115327521D01*
X61824809Y-114556324D01*
X62243422Y-113548190D01*
X62244375Y-112456599D01*
X61832588Y-111460000D01*
X64114899Y-111460000D01*
X63674348Y-111642032D01*
X63223615Y-112091979D01*
X62979379Y-112680164D01*
X62978823Y-113317042D01*
X63222032Y-113905652D01*
X63671979Y-114356385D01*
X64260164Y-114600621D01*
X64897042Y-114601177D01*
X65485652Y-114357968D01*
X65936385Y-113908021D01*
X66180621Y-113319836D01*
X66181177Y-112682958D01*
X65937968Y-112094348D01*
X65488021Y-111643615D01*
X65045827Y-111460000D01*
X72954899Y-111460000D01*
X72514348Y-111642032D01*
X72063615Y-112091979D01*
X71819379Y-112680164D01*
X71818823Y-113317042D01*
X72062032Y-113905652D01*
X72511979Y-114356385D01*
X73100164Y-114600621D01*
X73737042Y-114601177D01*
X74325652Y-114357968D01*
X74776385Y-113908021D01*
X75020621Y-113319836D01*
X75021177Y-112682958D01*
X74884912Y-112353171D01*
X75064889Y-112353328D01*
X75760897Y-112065743D01*
X76027324Y-111799781D01*
X75756578Y-112451810D01*
X75755625Y-113543401D01*
X76172479Y-114552264D01*
X76943676Y-115324809D01*
X77951810Y-115743422D01*
X79043401Y-115744375D01*
X80052264Y-115327521D01*
X80824809Y-114556324D01*
X81243422Y-113548190D01*
X81243623Y-113317042D01*
X81978823Y-113317042D01*
X82222032Y-113905652D01*
X82671979Y-114356385D01*
X83260164Y-114600621D01*
X83897042Y-114601177D01*
X84485652Y-114357968D01*
X84936385Y-113908021D01*
X85180621Y-113319836D01*
X85181177Y-112682958D01*
X84937968Y-112094348D01*
X84488021Y-111643615D01*
X83899836Y-111399379D01*
X83262958Y-111398823D01*
X82674348Y-111642032D01*
X82223615Y-112091979D01*
X81979379Y-112680164D01*
X81978823Y-113317042D01*
X81243623Y-113317042D01*
X81244375Y-112456599D01*
X80827521Y-111447736D01*
X80056324Y-110675191D01*
X79197995Y-110318782D01*
X87250000Y-110318782D01*
X87250000Y-125681218D01*
X87383211Y-126350914D01*
X87762563Y-126918655D01*
X88330304Y-127298007D01*
X89000000Y-127431218D01*
X89669696Y-127298007D01*
X90237437Y-126918655D01*
X90616789Y-126350914D01*
X90750000Y-125681218D01*
X90750000Y-117100000D01*
X94585307Y-117100000D01*
X94585307Y-118900000D01*
X94637604Y-119177933D01*
X94801862Y-119433198D01*
X95052492Y-119604446D01*
X95350000Y-119664693D01*
X97150000Y-119664693D01*
X97427933Y-119612396D01*
X97683198Y-119448138D01*
X97772998Y-119316712D01*
X97854130Y-119397986D01*
X98460355Y-119649713D01*
X99116765Y-119650285D01*
X99723429Y-119399617D01*
X100187986Y-118935870D01*
X100439713Y-118329645D01*
X100440285Y-117673235D01*
X100189617Y-117066571D01*
X99725870Y-116602014D01*
X99119645Y-116350287D01*
X98463235Y-116349715D01*
X97856571Y-116600383D01*
X97773261Y-116683547D01*
X97698138Y-116566802D01*
X97447508Y-116395554D01*
X97150000Y-116335307D01*
X95350000Y-116335307D01*
X95072067Y-116387604D01*
X94816802Y-116551862D01*
X94645554Y-116802492D01*
X94585307Y-117100000D01*
X90750000Y-117100000D01*
X90750000Y-113317042D01*
X90818823Y-113317042D01*
X91062032Y-113905652D01*
X91511979Y-114356385D01*
X92100164Y-114600621D01*
X92737042Y-114601177D01*
X93325652Y-114357968D01*
X93776385Y-113908021D01*
X94020621Y-113319836D01*
X94021177Y-112682958D01*
X93884912Y-112353171D01*
X94064889Y-112353328D01*
X94760897Y-112065743D01*
X95027324Y-111799781D01*
X94756578Y-112451810D01*
X94755625Y-113543401D01*
X95172479Y-114552264D01*
X95943676Y-115324809D01*
X96951810Y-115743422D01*
X98043401Y-115744375D01*
X99052264Y-115327521D01*
X99824809Y-114556324D01*
X100243422Y-113548190D01*
X100243623Y-113317042D01*
X100978823Y-113317042D01*
X101222032Y-113905652D01*
X101671979Y-114356385D01*
X102260164Y-114600621D01*
X102897042Y-114601177D01*
X103485652Y-114357968D01*
X103936385Y-113908021D01*
X104180621Y-113319836D01*
X104181177Y-112682958D01*
X103937968Y-112094348D01*
X103488021Y-111643615D01*
X102899836Y-111399379D01*
X102262958Y-111398823D01*
X101674348Y-111642032D01*
X101223615Y-112091979D01*
X100979379Y-112680164D01*
X100978823Y-113317042D01*
X100243623Y-113317042D01*
X100244375Y-112456599D01*
X99827521Y-111447736D01*
X99056324Y-110675191D01*
X98048190Y-110256578D01*
X96956599Y-110255625D01*
X95947736Y-110672479D01*
X95441739Y-111177593D01*
X95582671Y-110838193D01*
X95583328Y-110085111D01*
X95295743Y-109389103D01*
X94763698Y-108856129D01*
X94068193Y-108567329D01*
X93315111Y-108566672D01*
X92619103Y-108854257D01*
X92086129Y-109386302D01*
X91797329Y-110081807D01*
X91796672Y-110834889D01*
X92040370Y-111424684D01*
X91514348Y-111642032D01*
X91063615Y-112091979D01*
X90819379Y-112680164D01*
X90818823Y-113317042D01*
X90750000Y-113317042D01*
X90750000Y-110318782D01*
X90616789Y-109649086D01*
X90237437Y-109081345D01*
X89669696Y-108701993D01*
X89000000Y-108568782D01*
X88330304Y-108701993D01*
X87762563Y-109081345D01*
X87383211Y-109649086D01*
X87250000Y-110318782D01*
X79197995Y-110318782D01*
X79048190Y-110256578D01*
X77956599Y-110255625D01*
X76947736Y-110672479D01*
X76441739Y-111177593D01*
X76582671Y-110838193D01*
X76583328Y-110085111D01*
X76295743Y-109389103D01*
X75763698Y-108856129D01*
X75068193Y-108567329D01*
X74315111Y-108566672D01*
X73619103Y-108854257D01*
X73086129Y-109386302D01*
X73055527Y-109460000D01*
X63176755Y-109460000D01*
X63643871Y-108993698D01*
X63932671Y-108298193D01*
X63933328Y-107545111D01*
X63902854Y-107471360D01*
X64874214Y-106500000D01*
X79783036Y-106500000D01*
X79436129Y-106846302D01*
X79147329Y-107541807D01*
X79146672Y-108294889D01*
X79434257Y-108990897D01*
X79966302Y-109523871D01*
X80661807Y-109812671D01*
X81414889Y-109813328D01*
X82110897Y-109525743D01*
X82643871Y-108993698D01*
X82932671Y-108298193D01*
X82933328Y-107545111D01*
X82645743Y-106849103D01*
X82113698Y-106316129D01*
X82040000Y-106285527D01*
X82040000Y-105874214D01*
X88912285Y-99001929D01*
X89406841Y-99332379D01*
X90000000Y-99450366D01*
X90130245Y-99424459D01*
X98176747Y-107470961D01*
X98147329Y-107541807D01*
X98146672Y-108294889D01*
X98434257Y-108990897D01*
X98966302Y-109523871D01*
X99661807Y-109812671D01*
X100414889Y-109813328D01*
X101110897Y-109525743D01*
X101643871Y-108993698D01*
X101932671Y-108298193D01*
X101933328Y-107545111D01*
X101645743Y-106849103D01*
X101113698Y-106316129D01*
X100418193Y-106027329D01*
X99665111Y-106026672D01*
X99591360Y-106057146D01*
X91530851Y-97996637D01*
X91550000Y-97900366D01*
X91550000Y-97839634D01*
X91432013Y-97246475D01*
X91096016Y-96743618D01*
X90593159Y-96407621D01*
X90000000Y-96289634D01*
X89406841Y-96407621D01*
X88903984Y-96743618D01*
X88819539Y-96870000D01*
X85284214Y-96870000D01*
X83980788Y-95566574D01*
X84485652Y-95357968D01*
X84936385Y-94908021D01*
X85180621Y-94319836D01*
X85181177Y-93682958D01*
X84937968Y-93094348D01*
X84488021Y-92643615D01*
X83899836Y-92399379D01*
X83262958Y-92398823D01*
X82674348Y-92642032D01*
X82500000Y-92816076D01*
X82500000Y-90137318D01*
X82643871Y-89993698D01*
X82932671Y-89298193D01*
X82933328Y-88545111D01*
X82645743Y-87849103D01*
X82113698Y-87316129D01*
X81418193Y-87027329D01*
X80665111Y-87026672D01*
X79969103Y-87314257D01*
X79436129Y-87846302D01*
X79147329Y-88541807D01*
X79146672Y-89294889D01*
X79434257Y-89990897D01*
X79966302Y-90523871D01*
X80500000Y-90745483D01*
X80500000Y-92119643D01*
X80056324Y-91675191D01*
X79048190Y-91256578D01*
X77956599Y-91255625D01*
X76947736Y-91672479D01*
X76441739Y-92177593D01*
X76582671Y-91838193D01*
X76583328Y-91085111D01*
X76295743Y-90389103D01*
X75763698Y-89856129D01*
X75068193Y-89567329D01*
X74315111Y-89566672D01*
X74178815Y-89622989D01*
X73937500Y-89381674D01*
X73937500Y-83718882D01*
X74256475Y-83932013D01*
X74849634Y-84050000D01*
X74910366Y-84050000D01*
X75503525Y-83932013D01*
X76006382Y-83596016D01*
X76342379Y-83093159D01*
X76460366Y-82500000D01*
X76342379Y-81906841D01*
X76006382Y-81403984D01*
X75503525Y-81067987D01*
X74910366Y-80950000D01*
X74849634Y-80950000D01*
X74256475Y-81067987D01*
X73753618Y-81403984D01*
X73463702Y-81837876D01*
X72387500Y-80761674D01*
X72387500Y-79765207D01*
X72720000Y-79831346D01*
X73332293Y-79709553D01*
X73851371Y-79362717D01*
X73990000Y-79155244D01*
X74128629Y-79362717D01*
X74647707Y-79709553D01*
X75260000Y-79831346D01*
X75872293Y-79709553D01*
X76391371Y-79362717D01*
X76530000Y-79155244D01*
X76668629Y-79362717D01*
X77187707Y-79709553D01*
X77800000Y-79831346D01*
X78412293Y-79709553D01*
X78931371Y-79362717D01*
X79070000Y-79155244D01*
X79208629Y-79362717D01*
X79727707Y-79709553D01*
X80340000Y-79831346D01*
X80762882Y-79747229D01*
X80947087Y-80022913D01*
X81967215Y-81043041D01*
X81623143Y-81185208D01*
X81186740Y-81620849D01*
X80950270Y-82190333D01*
X80949732Y-82806961D01*
X81185208Y-83376857D01*
X81620849Y-83813260D01*
X82190333Y-84049730D01*
X82806961Y-84050268D01*
X83376857Y-83814792D01*
X83813260Y-83379151D01*
X83957047Y-83032873D01*
X89062500Y-88138325D01*
X89062500Y-88995745D01*
X88686740Y-89370849D01*
X88450270Y-89940333D01*
X88449732Y-90556961D01*
X88685208Y-91126857D01*
X89120849Y-91563260D01*
X89690333Y-91799730D01*
X90306961Y-91800268D01*
X90876857Y-91564792D01*
X91313260Y-91129151D01*
X91549730Y-90559667D01*
X91550268Y-89943039D01*
X91314792Y-89373143D01*
X90937500Y-88995191D01*
X90937500Y-87750005D01*
X90937501Y-87750000D01*
X90866137Y-87391235D01*
X90866137Y-87391234D01*
X90662913Y-87087087D01*
X90662910Y-87087085D01*
X83319708Y-79743882D01*
X83492293Y-79709553D01*
X84011371Y-79362717D01*
X84150000Y-79155244D01*
X84288629Y-79362717D01*
X84807707Y-79709553D01*
X85420000Y-79831346D01*
X86032293Y-79709553D01*
X86551371Y-79362717D01*
X86690000Y-79155244D01*
X86828629Y-79362717D01*
X87347707Y-79709553D01*
X87960000Y-79831346D01*
X88572293Y-79709553D01*
X89091371Y-79362717D01*
X89230000Y-79155244D01*
X89368629Y-79362717D01*
X89887707Y-79709553D01*
X90500000Y-79831346D01*
X91112293Y-79709553D01*
X91631371Y-79362717D01*
X91770000Y-79155244D01*
X91908629Y-79362717D01*
X92427707Y-79709553D01*
X93040000Y-79831346D01*
X93652293Y-79709553D01*
X94171371Y-79362717D01*
X94310000Y-79155244D01*
X94448629Y-79362717D01*
X94967707Y-79709553D01*
X95580000Y-79831346D01*
X96192293Y-79709553D01*
X96711371Y-79362717D01*
X96850000Y-79155244D01*
X96988629Y-79362717D01*
X97507707Y-79709553D01*
X98120000Y-79831346D01*
X98732293Y-79709553D01*
X99251371Y-79362717D01*
X99390000Y-79155244D01*
X99528629Y-79362717D01*
X100047707Y-79709553D01*
X100660000Y-79831346D01*
X101272293Y-79709553D01*
X101791371Y-79362717D01*
X102112171Y-78882605D01*
X102234226Y-79178001D01*
X102234226Y-79178001D01*
G37*
X102234226Y-79178001D02*
X103316303Y-80261968D01*
X104730828Y-80849330D01*
X106262453Y-80850667D01*
X107678001Y-80265774D01*
X108200000Y-79744685D01*
X108200000Y-123255237D01*
X107683697Y-122738032D01*
X106269172Y-122150670D01*
X104737547Y-122149333D01*
X103321999Y-122734226D01*
X102238032Y-123816303D01*
X101650670Y-125230828D01*
X101649333Y-126762453D01*
X102234226Y-128178001D01*
X102755315Y-128700000D01*
X50244763Y-128700000D01*
X50761968Y-128183697D01*
X51349330Y-126769172D01*
X51350667Y-125237547D01*
X50765774Y-123821999D01*
X49683697Y-122738032D01*
X48269172Y-122150670D01*
X46737547Y-122149333D01*
X45321999Y-122734226D01*
X44800000Y-123255315D01*
X44800000Y-117100000D01*
X56585307Y-117100000D01*
X56585307Y-118900000D01*
X56637604Y-119177933D01*
X56801862Y-119433198D01*
X57052492Y-119604446D01*
X57350000Y-119664693D01*
X59150000Y-119664693D01*
X59427933Y-119612396D01*
X59683198Y-119448138D01*
X59772998Y-119316712D01*
X59854130Y-119397986D01*
X60460355Y-119649713D01*
X61116765Y-119650285D01*
X61723429Y-119399617D01*
X62187986Y-118935870D01*
X62439713Y-118329645D01*
X62440285Y-117673235D01*
X62203430Y-117100000D01*
X75585307Y-117100000D01*
X75585307Y-118900000D01*
X75637604Y-119177933D01*
X75801862Y-119433198D01*
X76052492Y-119604446D01*
X76350000Y-119664693D01*
X78150000Y-119664693D01*
X78427933Y-119612396D01*
X78683198Y-119448138D01*
X78772998Y-119316712D01*
X78854130Y-119397986D01*
X79460355Y-119649713D01*
X80116765Y-119650285D01*
X80723429Y-119399617D01*
X81187986Y-118935870D01*
X81439713Y-118329645D01*
X81440285Y-117673235D01*
X81189617Y-117066571D01*
X80725870Y-116602014D01*
X80119645Y-116350287D01*
X79463235Y-116349715D01*
X78856571Y-116600383D01*
X78773261Y-116683547D01*
X78698138Y-116566802D01*
X78447508Y-116395554D01*
X78150000Y-116335307D01*
X76350000Y-116335307D01*
X76072067Y-116387604D01*
X75816802Y-116551862D01*
X75645554Y-116802492D01*
X75585307Y-117100000D01*
X62203430Y-117100000D01*
X62189617Y-117066571D01*
X61725870Y-116602014D01*
X61119645Y-116350287D01*
X60463235Y-116349715D01*
X59856571Y-116600383D01*
X59773261Y-116683547D01*
X59698138Y-116566802D01*
X59447508Y-116395554D01*
X59150000Y-116335307D01*
X57350000Y-116335307D01*
X57072067Y-116387604D01*
X56816802Y-116551862D01*
X56645554Y-116802492D01*
X56585307Y-117100000D01*
X44800000Y-117100000D01*
X44800000Y-111078791D01*
X44829703Y-110929462D01*
X44869661Y-110869661D01*
X44929462Y-110829703D01*
X45078791Y-110800000D01*
X48000000Y-110800000D01*
X48077281Y-110784628D01*
X48156072Y-110784628D01*
X48538749Y-110708509D01*
X48538755Y-110708509D01*
X48827139Y-110589056D01*
X49151561Y-110372284D01*
X49151564Y-110372283D01*
X49261923Y-110261923D01*
X49372283Y-110151564D01*
X49372284Y-110151561D01*
X49589056Y-109827139D01*
X49708509Y-109538755D01*
X49708509Y-109538750D01*
X49784628Y-109156072D01*
X49784628Y-109077281D01*
X49800000Y-109000000D01*
X49800000Y-102306961D01*
X50949732Y-102306961D01*
X51185208Y-102876857D01*
X51620849Y-103313260D01*
X52190333Y-103549730D01*
X52806961Y-103550268D01*
X53376857Y-103314792D01*
X53813260Y-102879151D01*
X54049730Y-102309667D01*
X54049732Y-102306961D01*
X55449732Y-102306961D01*
X55685208Y-102876857D01*
X56120849Y-103313260D01*
X56690333Y-103549730D01*
X57306961Y-103550268D01*
X57876857Y-103314792D01*
X58313260Y-102879151D01*
X58549730Y-102309667D01*
X58550268Y-101693039D01*
X58314792Y-101123143D01*
X57879151Y-100686740D01*
X57309667Y-100450270D01*
X56693039Y-100449732D01*
X56123143Y-100685208D01*
X55686740Y-101120849D01*
X55450270Y-101690333D01*
X55449732Y-102306961D01*
X54049732Y-102306961D01*
X54050268Y-101693039D01*
X53814792Y-101123143D01*
X53379151Y-100686740D01*
X52809667Y-100450270D01*
X52193039Y-100449732D01*
X51623143Y-100685208D01*
X51186740Y-101120849D01*
X50950270Y-101690333D01*
X50949732Y-102306961D01*
X49800000Y-102306961D01*
X49800000Y-94000000D01*
X49784628Y-93922719D01*
X49784628Y-93843928D01*
X49708509Y-93461250D01*
X49708509Y-93461245D01*
X49589056Y-93172861D01*
X49372283Y-92848437D01*
X49372283Y-92848436D01*
X49261923Y-92738077D01*
X49151564Y-92627717D01*
X49151561Y-92627716D01*
X48827139Y-92410944D01*
X48538755Y-92291491D01*
X48538749Y-92291491D01*
X48156072Y-92215372D01*
X48077281Y-92215372D01*
X48000000Y-92200000D01*
X45078791Y-92200000D01*
X44929462Y-92170297D01*
X44869661Y-92130339D01*
X44829703Y-92070538D01*
X44800000Y-91921209D01*
X44800000Y-86401227D01*
X45340000Y-86401227D01*
X45340000Y-86518773D01*
X45568361Y-87666823D01*
X46218680Y-88640093D01*
X47191950Y-89290412D01*
X48340000Y-89518773D01*
X49488050Y-89290412D01*
X50461320Y-88640093D01*
X51111639Y-87666823D01*
X51340000Y-86518773D01*
X51340000Y-86401227D01*
X51111639Y-85253177D01*
X50461320Y-84279907D01*
X49488050Y-83629588D01*
X48340000Y-83401227D01*
X47191950Y-83629588D01*
X46218680Y-84279907D01*
X45568361Y-85253177D01*
X45340000Y-86401227D01*
X44800000Y-86401227D01*
X44800000Y-79744763D01*
X45316303Y-80261968D01*
X46730828Y-80849330D01*
X48262453Y-80850667D01*
X49678001Y-80265774D01*
X50761968Y-79183697D01*
X50795341Y-79103326D01*
X50837604Y-79327933D01*
X51001862Y-79583198D01*
X51252492Y-79754446D01*
X51550000Y-79814693D01*
X53250000Y-79814693D01*
X53527933Y-79762396D01*
X53783198Y-79598138D01*
X53901606Y-79424842D01*
X54327707Y-79709553D01*
X54940000Y-79831346D01*
X55552293Y-79709553D01*
X56071371Y-79362717D01*
X56210000Y-79155244D01*
X56348629Y-79362717D01*
X56867707Y-79709553D01*
X57480000Y-79831346D01*
X58092293Y-79709553D01*
X58611371Y-79362717D01*
X58750000Y-79155244D01*
X58888629Y-79362717D01*
X59407707Y-79709553D01*
X60020000Y-79831346D01*
X60632293Y-79709553D01*
X61151371Y-79362717D01*
X61290000Y-79155244D01*
X61428629Y-79362717D01*
X61947707Y-79709553D01*
X62560000Y-79831346D01*
X63172293Y-79709553D01*
X63691371Y-79362717D01*
X63830000Y-79155244D01*
X63968629Y-79362717D01*
X64487707Y-79709553D01*
X65100000Y-79831346D01*
X65712293Y-79709553D01*
X66231371Y-79362717D01*
X66370000Y-79155244D01*
X66508629Y-79362717D01*
X66640000Y-79450496D01*
X66640000Y-82640000D01*
X66716120Y-83022684D01*
X66932893Y-83347107D01*
X68500000Y-84914214D01*
X68500000Y-94098268D01*
X68432013Y-93756475D01*
X68096016Y-93253618D01*
X68000000Y-93189462D01*
X68000000Y-91000000D01*
X67923880Y-90617317D01*
X67707107Y-90292893D01*
X66664693Y-89250479D01*
X66664693Y-88100000D01*
X66612396Y-87822067D01*
X66448138Y-87566802D01*
X66297252Y-87463706D01*
X66524401Y-87123753D01*
X66650000Y-86492325D01*
X66650000Y-86427675D01*
X66524401Y-85796247D01*
X66166726Y-85260949D01*
X66060543Y-85190000D01*
X66166726Y-85119051D01*
X66524401Y-84583753D01*
X66650000Y-83952325D01*
X66650000Y-83887675D01*
X66524401Y-83256247D01*
X66166726Y-82720949D01*
X65631428Y-82363274D01*
X65000000Y-82237675D01*
X64368572Y-82363274D01*
X63833274Y-82720949D01*
X63475599Y-83256247D01*
X63350000Y-83887675D01*
X63350000Y-83952325D01*
X63475599Y-84583753D01*
X63833274Y-85119051D01*
X63939457Y-85190000D01*
X63833274Y-85260949D01*
X63475599Y-85796247D01*
X63350000Y-86427675D01*
X63350000Y-86492325D01*
X63475599Y-87123753D01*
X63703065Y-87464179D01*
X63566802Y-87551862D01*
X63395554Y-87802492D01*
X63335307Y-88100000D01*
X63335307Y-89900000D01*
X63387604Y-90177933D01*
X63551862Y-90433198D01*
X63802492Y-90604446D01*
X64100000Y-90664693D01*
X65250479Y-90664693D01*
X66000000Y-91414214D01*
X66000000Y-93189462D01*
X65903984Y-93253618D01*
X65819539Y-93380000D01*
X63680461Y-93380000D01*
X63596016Y-93253618D01*
X63093159Y-92917621D01*
X62500000Y-92799634D01*
X61906841Y-92917621D01*
X61403984Y-93253618D01*
X61319539Y-93380000D01*
X58180461Y-93380000D01*
X58096016Y-93253618D01*
X57593159Y-92917621D01*
X57000000Y-92799634D01*
X56406841Y-92917621D01*
X55903984Y-93253618D01*
X55819539Y-93380000D01*
X53680461Y-93380000D01*
X53596016Y-93253618D01*
X53093159Y-92917621D01*
X52500000Y-92799634D01*
X51906841Y-92917621D01*
X51403984Y-93253618D01*
X51067987Y-93756475D01*
X50950000Y-94349634D01*
X50950000Y-94410366D01*
X51067987Y-95003525D01*
X51403984Y-95506382D01*
X51906841Y-95842379D01*
X52500000Y-95960366D01*
X53093159Y-95842379D01*
X53596016Y-95506382D01*
X53680461Y-95380000D01*
X55819539Y-95380000D01*
X55903984Y-95506382D01*
X56406841Y-95842379D01*
X57000000Y-95960366D01*
X57593159Y-95842379D01*
X58096016Y-95506382D01*
X58180461Y-95380000D01*
X61319539Y-95380000D01*
X61403984Y-95506382D01*
X61906841Y-95842379D01*
X62500000Y-95960366D01*
X63093159Y-95842379D01*
X63596016Y-95506382D01*
X63680461Y-95380000D01*
X65819539Y-95380000D01*
X65903984Y-95506382D01*
X66406841Y-95842379D01*
X67000000Y-95960366D01*
X67593159Y-95842379D01*
X68045953Y-95539833D01*
X66085786Y-97500000D01*
X62000000Y-97500000D01*
X61617317Y-97576120D01*
X61617315Y-97576121D01*
X61617316Y-97576121D01*
X61292893Y-97792893D01*
X59292893Y-99792893D01*
X59076120Y-100117316D01*
X59076120Y-100117317D01*
X59000000Y-100500000D01*
X59000000Y-103085787D01*
X54982893Y-107102893D01*
X54766120Y-107427316D01*
X54742689Y-107545111D01*
X54690000Y-107810000D01*
X54690000Y-108824963D01*
X54619103Y-108854257D01*
X54086129Y-109386302D01*
X53797329Y-110081807D01*
X53796672Y-110834889D01*
X54040370Y-111424684D01*
X53514348Y-111642032D01*
X53063615Y-112091979D01*
X52819379Y-112680164D01*
X52818823Y-113317042D01*
X53062032Y-113905652D01*
X53511979Y-114356385D01*
X54100164Y-114600621D01*
X54737042Y-114601177D01*
X55325652Y-114357968D01*
X55776385Y-113908021D01*
X56020621Y-113319836D01*
X56021177Y-112682958D01*
X55884912Y-112353171D01*
X56064889Y-112353328D01*
X56760897Y-112065743D01*
X57027324Y-111799781D01*
X56756578Y-112451810D01*
X56755625Y-113543401D01*
X57172479Y-114552264D01*
X57943676Y-115324809D01*
X58951810Y-115743422D01*
X60043401Y-115744375D01*
X61052264Y-115327521D01*
X61824809Y-114556324D01*
X62243422Y-113548190D01*
X62244375Y-112456599D01*
X61832588Y-111460000D01*
X64114899Y-111460000D01*
X63674348Y-111642032D01*
X63223615Y-112091979D01*
X62979379Y-112680164D01*
X62978823Y-113317042D01*
X63222032Y-113905652D01*
X63671979Y-114356385D01*
X64260164Y-114600621D01*
X64897042Y-114601177D01*
X65485652Y-114357968D01*
X65936385Y-113908021D01*
X66180621Y-113319836D01*
X66181177Y-112682958D01*
X65937968Y-112094348D01*
X65488021Y-111643615D01*
X65045827Y-111460000D01*
X72954899Y-111460000D01*
X72514348Y-111642032D01*
X72063615Y-112091979D01*
X71819379Y-112680164D01*
X71818823Y-113317042D01*
X72062032Y-113905652D01*
X72511979Y-114356385D01*
X73100164Y-114600621D01*
X73737042Y-114601177D01*
X74325652Y-114357968D01*
X74776385Y-113908021D01*
X75020621Y-113319836D01*
X75021177Y-112682958D01*
X74884912Y-112353171D01*
X75064889Y-112353328D01*
X75760897Y-112065743D01*
X76027324Y-111799781D01*
X75756578Y-112451810D01*
X75755625Y-113543401D01*
X76172479Y-114552264D01*
X76943676Y-115324809D01*
X77951810Y-115743422D01*
X79043401Y-115744375D01*
X80052264Y-115327521D01*
X80824809Y-114556324D01*
X81243422Y-113548190D01*
X81243623Y-113317042D01*
X81978823Y-113317042D01*
X82222032Y-113905652D01*
X82671979Y-114356385D01*
X83260164Y-114600621D01*
X83897042Y-114601177D01*
X84485652Y-114357968D01*
X84936385Y-113908021D01*
X85180621Y-113319836D01*
X85181177Y-112682958D01*
X84937968Y-112094348D01*
X84488021Y-111643615D01*
X83899836Y-111399379D01*
X83262958Y-111398823D01*
X82674348Y-111642032D01*
X82223615Y-112091979D01*
X81979379Y-112680164D01*
X81978823Y-113317042D01*
X81243623Y-113317042D01*
X81244375Y-112456599D01*
X80827521Y-111447736D01*
X80056324Y-110675191D01*
X79197995Y-110318782D01*
X87250000Y-110318782D01*
X87250000Y-125681218D01*
X87383211Y-126350914D01*
X87762563Y-126918655D01*
X88330304Y-127298007D01*
X89000000Y-127431218D01*
X89669696Y-127298007D01*
X90237437Y-126918655D01*
X90616789Y-126350914D01*
X90750000Y-125681218D01*
X90750000Y-117100000D01*
X94585307Y-117100000D01*
X94585307Y-118900000D01*
X94637604Y-119177933D01*
X94801862Y-119433198D01*
X95052492Y-119604446D01*
X95350000Y-119664693D01*
X97150000Y-119664693D01*
X97427933Y-119612396D01*
X97683198Y-119448138D01*
X97772998Y-119316712D01*
X97854130Y-119397986D01*
X98460355Y-119649713D01*
X99116765Y-119650285D01*
X99723429Y-119399617D01*
X100187986Y-118935870D01*
X100439713Y-118329645D01*
X100440285Y-117673235D01*
X100189617Y-117066571D01*
X99725870Y-116602014D01*
X99119645Y-116350287D01*
X98463235Y-116349715D01*
X97856571Y-116600383D01*
X97773261Y-116683547D01*
X97698138Y-116566802D01*
X97447508Y-116395554D01*
X97150000Y-116335307D01*
X95350000Y-116335307D01*
X95072067Y-116387604D01*
X94816802Y-116551862D01*
X94645554Y-116802492D01*
X94585307Y-117100000D01*
X90750000Y-117100000D01*
X90750000Y-113317042D01*
X90818823Y-113317042D01*
X91062032Y-113905652D01*
X91511979Y-114356385D01*
X92100164Y-114600621D01*
X92737042Y-114601177D01*
X93325652Y-114357968D01*
X93776385Y-113908021D01*
X94020621Y-113319836D01*
X94021177Y-112682958D01*
X93884912Y-112353171D01*
X94064889Y-112353328D01*
X94760897Y-112065743D01*
X95027324Y-111799781D01*
X94756578Y-112451810D01*
X94755625Y-113543401D01*
X95172479Y-114552264D01*
X95943676Y-115324809D01*
X96951810Y-115743422D01*
X98043401Y-115744375D01*
X99052264Y-115327521D01*
X99824809Y-114556324D01*
X100243422Y-113548190D01*
X100243623Y-113317042D01*
X100978823Y-113317042D01*
X101222032Y-113905652D01*
X101671979Y-114356385D01*
X102260164Y-114600621D01*
X102897042Y-114601177D01*
X103485652Y-114357968D01*
X103936385Y-113908021D01*
X104180621Y-113319836D01*
X104181177Y-112682958D01*
X103937968Y-112094348D01*
X103488021Y-111643615D01*
X102899836Y-111399379D01*
X102262958Y-111398823D01*
X101674348Y-111642032D01*
X101223615Y-112091979D01*
X100979379Y-112680164D01*
X100978823Y-113317042D01*
X100243623Y-113317042D01*
X100244375Y-112456599D01*
X99827521Y-111447736D01*
X99056324Y-110675191D01*
X98048190Y-110256578D01*
X96956599Y-110255625D01*
X95947736Y-110672479D01*
X95441739Y-111177593D01*
X95582671Y-110838193D01*
X95583328Y-110085111D01*
X95295743Y-109389103D01*
X94763698Y-108856129D01*
X94068193Y-108567329D01*
X93315111Y-108566672D01*
X92619103Y-108854257D01*
X92086129Y-109386302D01*
X91797329Y-110081807D01*
X91796672Y-110834889D01*
X92040370Y-111424684D01*
X91514348Y-111642032D01*
X91063615Y-112091979D01*
X90819379Y-112680164D01*
X90818823Y-113317042D01*
X90750000Y-113317042D01*
X90750000Y-110318782D01*
X90616789Y-109649086D01*
X90237437Y-109081345D01*
X89669696Y-108701993D01*
X89000000Y-108568782D01*
X88330304Y-108701993D01*
X87762563Y-109081345D01*
X87383211Y-109649086D01*
X87250000Y-110318782D01*
X79197995Y-110318782D01*
X79048190Y-110256578D01*
X77956599Y-110255625D01*
X76947736Y-110672479D01*
X76441739Y-111177593D01*
X76582671Y-110838193D01*
X76583328Y-110085111D01*
X76295743Y-109389103D01*
X75763698Y-108856129D01*
X75068193Y-108567329D01*
X74315111Y-108566672D01*
X73619103Y-108854257D01*
X73086129Y-109386302D01*
X73055527Y-109460000D01*
X63176755Y-109460000D01*
X63643871Y-108993698D01*
X63932671Y-108298193D01*
X63933328Y-107545111D01*
X63902854Y-107471360D01*
X64874214Y-106500000D01*
X79783036Y-106500000D01*
X79436129Y-106846302D01*
X79147329Y-107541807D01*
X79146672Y-108294889D01*
X79434257Y-108990897D01*
X79966302Y-109523871D01*
X80661807Y-109812671D01*
X81414889Y-109813328D01*
X82110897Y-109525743D01*
X82643871Y-108993698D01*
X82932671Y-108298193D01*
X82933328Y-107545111D01*
X82645743Y-106849103D01*
X82113698Y-106316129D01*
X82040000Y-106285527D01*
X82040000Y-105874214D01*
X88912285Y-99001929D01*
X89406841Y-99332379D01*
X90000000Y-99450366D01*
X90130245Y-99424459D01*
X98176747Y-107470961D01*
X98147329Y-107541807D01*
X98146672Y-108294889D01*
X98434257Y-108990897D01*
X98966302Y-109523871D01*
X99661807Y-109812671D01*
X100414889Y-109813328D01*
X101110897Y-109525743D01*
X101643871Y-108993698D01*
X101932671Y-108298193D01*
X101933328Y-107545111D01*
X101645743Y-106849103D01*
X101113698Y-106316129D01*
X100418193Y-106027329D01*
X99665111Y-106026672D01*
X99591360Y-106057146D01*
X91530851Y-97996637D01*
X91550000Y-97900366D01*
X91550000Y-97839634D01*
X91432013Y-97246475D01*
X91096016Y-96743618D01*
X90593159Y-96407621D01*
X90000000Y-96289634D01*
X89406841Y-96407621D01*
X88903984Y-96743618D01*
X88819539Y-96870000D01*
X85284214Y-96870000D01*
X83980788Y-95566574D01*
X84485652Y-95357968D01*
X84936385Y-94908021D01*
X85180621Y-94319836D01*
X85181177Y-93682958D01*
X84937968Y-93094348D01*
X84488021Y-92643615D01*
X83899836Y-92399379D01*
X83262958Y-92398823D01*
X82674348Y-92642032D01*
X82500000Y-92816076D01*
X82500000Y-90137318D01*
X82643871Y-89993698D01*
X82932671Y-89298193D01*
X82933328Y-88545111D01*
X82645743Y-87849103D01*
X82113698Y-87316129D01*
X81418193Y-87027329D01*
X80665111Y-87026672D01*
X79969103Y-87314257D01*
X79436129Y-87846302D01*
X79147329Y-88541807D01*
X79146672Y-89294889D01*
X79434257Y-89990897D01*
X79966302Y-90523871D01*
X80500000Y-90745483D01*
X80500000Y-92119643D01*
X80056324Y-91675191D01*
X79048190Y-91256578D01*
X77956599Y-91255625D01*
X76947736Y-91672479D01*
X76441739Y-92177593D01*
X76582671Y-91838193D01*
X76583328Y-91085111D01*
X76295743Y-90389103D01*
X75763698Y-89856129D01*
X75068193Y-89567329D01*
X74315111Y-89566672D01*
X74178815Y-89622989D01*
X73937500Y-89381674D01*
X73937500Y-83718882D01*
X74256475Y-83932013D01*
X74849634Y-84050000D01*
X74910366Y-84050000D01*
X75503525Y-83932013D01*
X76006382Y-83596016D01*
X76342379Y-83093159D01*
X76460366Y-82500000D01*
X76342379Y-81906841D01*
X76006382Y-81403984D01*
X75503525Y-81067987D01*
X74910366Y-80950000D01*
X74849634Y-80950000D01*
X74256475Y-81067987D01*
X73753618Y-81403984D01*
X73463702Y-81837876D01*
X72387500Y-80761674D01*
X72387500Y-79765207D01*
X72720000Y-79831346D01*
X73332293Y-79709553D01*
X73851371Y-79362717D01*
X73990000Y-79155244D01*
X74128629Y-79362717D01*
X74647707Y-79709553D01*
X75260000Y-79831346D01*
X75872293Y-79709553D01*
X76391371Y-79362717D01*
X76530000Y-79155244D01*
X76668629Y-79362717D01*
X77187707Y-79709553D01*
X77800000Y-79831346D01*
X78412293Y-79709553D01*
X78931371Y-79362717D01*
X79070000Y-79155244D01*
X79208629Y-79362717D01*
X79727707Y-79709553D01*
X80340000Y-79831346D01*
X80762882Y-79747229D01*
X80947087Y-80022913D01*
X81967215Y-81043041D01*
X81623143Y-81185208D01*
X81186740Y-81620849D01*
X80950270Y-82190333D01*
X80949732Y-82806961D01*
X81185208Y-83376857D01*
X81620849Y-83813260D01*
X82190333Y-84049730D01*
X82806961Y-84050268D01*
X83376857Y-83814792D01*
X83813260Y-83379151D01*
X83957047Y-83032873D01*
X89062500Y-88138325D01*
X89062500Y-88995745D01*
X88686740Y-89370849D01*
X88450270Y-89940333D01*
X88449732Y-90556961D01*
X88685208Y-91126857D01*
X89120849Y-91563260D01*
X89690333Y-91799730D01*
X90306961Y-91800268D01*
X90876857Y-91564792D01*
X91313260Y-91129151D01*
X91549730Y-90559667D01*
X91550268Y-89943039D01*
X91314792Y-89373143D01*
X90937500Y-88995191D01*
X90937500Y-87750005D01*
X90937501Y-87750000D01*
X90866137Y-87391235D01*
X90866137Y-87391234D01*
X90662913Y-87087087D01*
X90662910Y-87087085D01*
X83319708Y-79743882D01*
X83492293Y-79709553D01*
X84011371Y-79362717D01*
X84150000Y-79155244D01*
X84288629Y-79362717D01*
X84807707Y-79709553D01*
X85420000Y-79831346D01*
X86032293Y-79709553D01*
X86551371Y-79362717D01*
X86690000Y-79155244D01*
X86828629Y-79362717D01*
X87347707Y-79709553D01*
X87960000Y-79831346D01*
X88572293Y-79709553D01*
X89091371Y-79362717D01*
X89230000Y-79155244D01*
X89368629Y-79362717D01*
X89887707Y-79709553D01*
X90500000Y-79831346D01*
X91112293Y-79709553D01*
X91631371Y-79362717D01*
X91770000Y-79155244D01*
X91908629Y-79362717D01*
X92427707Y-79709553D01*
X93040000Y-79831346D01*
X93652293Y-79709553D01*
X94171371Y-79362717D01*
X94310000Y-79155244D01*
X94448629Y-79362717D01*
X94967707Y-79709553D01*
X95580000Y-79831346D01*
X96192293Y-79709553D01*
X96711371Y-79362717D01*
X96850000Y-79155244D01*
X96988629Y-79362717D01*
X97507707Y-79709553D01*
X98120000Y-79831346D01*
X98732293Y-79709553D01*
X99251371Y-79362717D01*
X99390000Y-79155244D01*
X99528629Y-79362717D01*
X100047707Y-79709553D01*
X100660000Y-79831346D01*
X101272293Y-79709553D01*
X101791371Y-79362717D01*
X102112171Y-78882605D01*
X102234226Y-79178001D01*
G36*
X61185208Y-102876857D02*
X61620849Y-103313260D01*
X61728023Y-103357763D01*
X58792893Y-106292893D01*
X58576120Y-106617316D01*
X58576120Y-106617317D01*
X58500000Y-107000000D01*
X58500000Y-108500000D01*
X58576120Y-108882684D01*
X58792893Y-109207107D01*
X59842185Y-110256398D01*
X58956599Y-110255625D01*
X57947736Y-110672479D01*
X57441739Y-111177593D01*
X57582671Y-110838193D01*
X57583328Y-110085111D01*
X57295743Y-109389103D01*
X56763698Y-108856129D01*
X56690000Y-108825527D01*
X56690000Y-108224214D01*
X60707104Y-104207109D01*
X60707107Y-104207107D01*
X60923880Y-103882683D01*
X61000000Y-103500000D01*
X61000000Y-102428619D01*
X61185208Y-102876857D01*
X61185208Y-102876857D01*
G37*
X61185208Y-102876857D02*
X61620849Y-103313260D01*
X61728023Y-103357763D01*
X58792893Y-106292893D01*
X58576120Y-106617316D01*
X58576120Y-106617317D01*
X58500000Y-107000000D01*
X58500000Y-108500000D01*
X58576120Y-108882684D01*
X58792893Y-109207107D01*
X59842185Y-110256398D01*
X58956599Y-110255625D01*
X57947736Y-110672479D01*
X57441739Y-111177593D01*
X57582671Y-110838193D01*
X57583328Y-110085111D01*
X57295743Y-109389103D01*
X56763698Y-108856129D01*
X56690000Y-108825527D01*
X56690000Y-108224214D01*
X60707104Y-104207109D01*
X60707107Y-104207107D01*
X60923880Y-103882683D01*
X61000000Y-103500000D01*
X61000000Y-102428619D01*
X61185208Y-102876857D01*
G36*
X62489039Y-106056747D02*
X62418193Y-106027329D01*
X61887348Y-106026866D01*
X62914214Y-105000000D01*
X63545786Y-105000000D01*
X62489039Y-106056747D01*
X62489039Y-106056747D01*
G37*
X62489039Y-106056747D02*
X62418193Y-106027329D01*
X61887348Y-106026866D01*
X62914214Y-105000000D01*
X63545786Y-105000000D01*
X62489039Y-106056747D01*
G36*
X75756578Y-93451810D02*
X75755625Y-94543401D01*
X76172479Y-95552264D01*
X76943676Y-96324809D01*
X77951810Y-96743422D01*
X79043401Y-96744375D01*
X80052264Y-96327521D01*
X80824809Y-95556324D01*
X80917906Y-95332120D01*
X84162893Y-98577107D01*
X84487316Y-98793880D01*
X84870000Y-98870001D01*
X84870005Y-98870000D01*
X86215786Y-98870000D01*
X80585786Y-104500000D01*
X68914214Y-104500000D01*
X72207104Y-101207109D01*
X72207107Y-101207107D01*
X72423880Y-100882683D01*
X72500000Y-100500000D01*
X72500000Y-98100000D01*
X75585307Y-98100000D01*
X75585307Y-99900000D01*
X75637604Y-100177933D01*
X75801862Y-100433198D01*
X76052492Y-100604446D01*
X76350000Y-100664693D01*
X78150000Y-100664693D01*
X78427933Y-100612396D01*
X78683198Y-100448138D01*
X78772998Y-100316712D01*
X78854130Y-100397986D01*
X79460355Y-100649713D01*
X80116765Y-100650285D01*
X80723429Y-100399617D01*
X81187986Y-99935870D01*
X81439713Y-99329645D01*
X81440285Y-98673235D01*
X81189617Y-98066571D01*
X80725870Y-97602014D01*
X80119645Y-97350287D01*
X79463235Y-97349715D01*
X78856571Y-97600383D01*
X78773261Y-97683547D01*
X78698138Y-97566802D01*
X78447508Y-97395554D01*
X78150000Y-97335307D01*
X76350000Y-97335307D01*
X76072067Y-97387604D01*
X75816802Y-97551862D01*
X75645554Y-97802492D01*
X75585307Y-98100000D01*
X72500000Y-98100000D01*
X72500000Y-95344385D01*
X72511979Y-95356385D01*
X73100164Y-95600621D01*
X73737042Y-95601177D01*
X74325652Y-95357968D01*
X74776385Y-94908021D01*
X75020621Y-94319836D01*
X75021177Y-93682958D01*
X74884912Y-93353171D01*
X75064889Y-93353328D01*
X75760897Y-93065743D01*
X76027324Y-92799781D01*
X75756578Y-93451810D01*
X75756578Y-93451810D01*
G37*
X75756578Y-93451810D02*
X75755625Y-94543401D01*
X76172479Y-95552264D01*
X76943676Y-96324809D01*
X77951810Y-96743422D01*
X79043401Y-96744375D01*
X80052264Y-96327521D01*
X80824809Y-95556324D01*
X80917906Y-95332120D01*
X84162893Y-98577107D01*
X84487316Y-98793880D01*
X84870000Y-98870001D01*
X84870005Y-98870000D01*
X86215786Y-98870000D01*
X80585786Y-104500000D01*
X68914214Y-104500000D01*
X72207104Y-101207109D01*
X72207107Y-101207107D01*
X72423880Y-100882683D01*
X72500000Y-100500000D01*
X72500000Y-98100000D01*
X75585307Y-98100000D01*
X75585307Y-99900000D01*
X75637604Y-100177933D01*
X75801862Y-100433198D01*
X76052492Y-100604446D01*
X76350000Y-100664693D01*
X78150000Y-100664693D01*
X78427933Y-100612396D01*
X78683198Y-100448138D01*
X78772998Y-100316712D01*
X78854130Y-100397986D01*
X79460355Y-100649713D01*
X80116765Y-100650285D01*
X80723429Y-100399617D01*
X81187986Y-99935870D01*
X81439713Y-99329645D01*
X81440285Y-98673235D01*
X81189617Y-98066571D01*
X80725870Y-97602014D01*
X80119645Y-97350287D01*
X79463235Y-97349715D01*
X78856571Y-97600383D01*
X78773261Y-97683547D01*
X78698138Y-97566802D01*
X78447508Y-97395554D01*
X78150000Y-97335307D01*
X76350000Y-97335307D01*
X76072067Y-97387604D01*
X75816802Y-97551862D01*
X75645554Y-97802492D01*
X75585307Y-98100000D01*
X72500000Y-98100000D01*
X72500000Y-95344385D01*
X72511979Y-95356385D01*
X73100164Y-95600621D01*
X73737042Y-95601177D01*
X74325652Y-95357968D01*
X74776385Y-94908021D01*
X75020621Y-94319836D01*
X75021177Y-93682958D01*
X74884912Y-93353171D01*
X75064889Y-93353328D01*
X75760897Y-93065743D01*
X76027324Y-92799781D01*
X75756578Y-93451810D01*
G36*
X70500000Y-100085787D02*
X68549969Y-102035817D01*
X68550268Y-101693039D01*
X68314792Y-101123143D01*
X67879151Y-100686740D01*
X67309667Y-100450270D01*
X66693039Y-100449732D01*
X66123143Y-100685208D01*
X65686740Y-101120849D01*
X65450270Y-101690333D01*
X65449732Y-102306961D01*
X65685208Y-102876857D01*
X65808136Y-103000000D01*
X63692200Y-103000000D01*
X63813260Y-102879151D01*
X64049730Y-102309667D01*
X64050268Y-101693039D01*
X63814792Y-101123143D01*
X63379151Y-100686740D01*
X62809667Y-100450270D01*
X62193039Y-100449732D01*
X61623143Y-100685208D01*
X61186740Y-101120849D01*
X61000000Y-101570570D01*
X61000000Y-100914214D01*
X62414214Y-99500000D01*
X66500000Y-99500000D01*
X66882684Y-99423880D01*
X67207107Y-99207107D01*
X70207107Y-96207107D01*
X70423880Y-95882684D01*
X70500000Y-95500005D01*
X70500000Y-100085787D01*
X70500000Y-100085787D01*
G37*
X70500000Y-100085787D02*
X68549969Y-102035817D01*
X68550268Y-101693039D01*
X68314792Y-101123143D01*
X67879151Y-100686740D01*
X67309667Y-100450270D01*
X66693039Y-100449732D01*
X66123143Y-100685208D01*
X65686740Y-101120849D01*
X65450270Y-101690333D01*
X65449732Y-102306961D01*
X65685208Y-102876857D01*
X65808136Y-103000000D01*
X63692200Y-103000000D01*
X63813260Y-102879151D01*
X64049730Y-102309667D01*
X64050268Y-101693039D01*
X63814792Y-101123143D01*
X63379151Y-100686740D01*
X62809667Y-100450270D01*
X62193039Y-100449732D01*
X61623143Y-100685208D01*
X61186740Y-101120849D01*
X61000000Y-101570570D01*
X61000000Y-100914214D01*
X62414214Y-99500000D01*
X66500000Y-99500000D01*
X66882684Y-99423880D01*
X67207107Y-99207107D01*
X70207107Y-96207107D01*
X70423880Y-95882684D01*
X70500000Y-95500005D01*
X70500000Y-100085787D01*
G36*
X68500000Y-95085786D02*
X68129467Y-95456319D01*
X68432013Y-95003525D01*
X68500000Y-94661732D01*
X68500000Y-95085786D01*
X68500000Y-95085786D01*
G37*
X68500000Y-95085786D02*
X68129467Y-95456319D01*
X68432013Y-95003525D01*
X68500000Y-94661732D01*
X68500000Y-95085786D01*
G36*
X72852680Y-90948506D02*
X72797329Y-91081807D01*
X72796672Y-91834889D01*
X73040370Y-92424684D01*
X72514348Y-92642032D01*
X72500000Y-92656355D01*
X72500000Y-90595826D01*
X72852680Y-90948506D01*
X72852680Y-90948506D01*
G37*
X72852680Y-90948506D02*
X72797329Y-91081807D01*
X72796672Y-91834889D01*
X73040370Y-92424684D01*
X72514348Y-92642032D01*
X72500000Y-92656355D01*
X72500000Y-90595826D01*
X72852680Y-90948506D01*
G36*
X69048629Y-79362717D02*
X69180000Y-79450496D01*
X69180000Y-81680000D01*
X69256120Y-82062684D01*
X69472893Y-82387107D01*
X70500000Y-83414214D01*
X70500000Y-84500000D01*
X70423880Y-84117317D01*
X70207107Y-83792893D01*
X68640000Y-82225786D01*
X68640000Y-79450496D01*
X68771371Y-79362717D01*
X68910000Y-79155244D01*
X69048629Y-79362717D01*
X69048629Y-79362717D01*
G37*
X69048629Y-79362717D02*
X69180000Y-79450496D01*
X69180000Y-81680000D01*
X69256120Y-82062684D01*
X69472893Y-82387107D01*
X70500000Y-83414214D01*
X70500000Y-84500000D01*
X70423880Y-84117317D01*
X70207107Y-83792893D01*
X68640000Y-82225786D01*
X68640000Y-79450496D01*
X68771371Y-79362717D01*
X68910000Y-79155244D01*
X69048629Y-79362717D01*
G36*
X99528629Y-76822717D02*
X99689190Y-76930000D01*
X99528629Y-77037283D01*
X99390000Y-77244756D01*
X99251371Y-77037283D01*
X99090810Y-76930000D01*
X99251371Y-76822717D01*
X99390000Y-76615244D01*
X99528629Y-76822717D01*
X99528629Y-76822717D01*
G37*
X99528629Y-76822717D02*
X99689190Y-76930000D01*
X99528629Y-77037283D01*
X99390000Y-77244756D01*
X99251371Y-77037283D01*
X99090810Y-76930000D01*
X99251371Y-76822717D01*
X99390000Y-76615244D01*
X99528629Y-76822717D01*
G36*
X96988629Y-76822717D02*
X97149190Y-76930000D01*
X96988629Y-77037283D01*
X96850000Y-77244756D01*
X96711371Y-77037283D01*
X96550810Y-76930000D01*
X96711371Y-76822717D01*
X96850000Y-76615244D01*
X96988629Y-76822717D01*
X96988629Y-76822717D01*
G37*
X96988629Y-76822717D02*
X97149190Y-76930000D01*
X96988629Y-77037283D01*
X96850000Y-77244756D01*
X96711371Y-77037283D01*
X96550810Y-76930000D01*
X96711371Y-76822717D01*
X96850000Y-76615244D01*
X96988629Y-76822717D01*
G36*
X56348629Y-76822717D02*
X56509190Y-76930000D01*
X56348629Y-77037283D01*
X56210000Y-77244756D01*
X56071371Y-77037283D01*
X55910810Y-76930000D01*
X56071371Y-76822717D01*
X56210000Y-76615244D01*
X56348629Y-76822717D01*
X56348629Y-76822717D01*
G37*
X56348629Y-76822717D02*
X56509190Y-76930000D01*
X56348629Y-77037283D01*
X56210000Y-77244756D01*
X56071371Y-77037283D01*
X55910810Y-76930000D01*
X56071371Y-76822717D01*
X56210000Y-76615244D01*
X56348629Y-76822717D01*
G36*
X61428629Y-76822717D02*
X61589190Y-76930000D01*
X61428629Y-77037283D01*
X61290000Y-77244756D01*
X61151371Y-77037283D01*
X60990810Y-76930000D01*
X61151371Y-76822717D01*
X61290000Y-76615244D01*
X61428629Y-76822717D01*
X61428629Y-76822717D01*
G37*
X61428629Y-76822717D02*
X61589190Y-76930000D01*
X61428629Y-77037283D01*
X61290000Y-77244756D01*
X61151371Y-77037283D01*
X60990810Y-76930000D01*
X61151371Y-76822717D01*
X61290000Y-76615244D01*
X61428629Y-76822717D01*
G36*
X63968629Y-76822717D02*
X64129190Y-76930000D01*
X63968629Y-77037283D01*
X63830000Y-77244756D01*
X63691371Y-77037283D01*
X63530810Y-76930000D01*
X63691371Y-76822717D01*
X63830000Y-76615244D01*
X63968629Y-76822717D01*
X63968629Y-76822717D01*
G37*
X63968629Y-76822717D02*
X64129190Y-76930000D01*
X63968629Y-77037283D01*
X63830000Y-77244756D01*
X63691371Y-77037283D01*
X63530810Y-76930000D01*
X63691371Y-76822717D01*
X63830000Y-76615244D01*
X63968629Y-76822717D01*
G36*
X94448629Y-76822717D02*
X94609190Y-76930000D01*
X94448629Y-77037283D01*
X94310000Y-77244756D01*
X94171371Y-77037283D01*
X94010810Y-76930000D01*
X94171371Y-76822717D01*
X94310000Y-76615244D01*
X94448629Y-76822717D01*
X94448629Y-76822717D01*
G37*
X94448629Y-76822717D02*
X94609190Y-76930000D01*
X94448629Y-77037283D01*
X94310000Y-77244756D01*
X94171371Y-77037283D01*
X94010810Y-76930000D01*
X94171371Y-76822717D01*
X94310000Y-76615244D01*
X94448629Y-76822717D01*
G36*
X74128629Y-76822717D02*
X74289190Y-76930000D01*
X74128629Y-77037283D01*
X73990000Y-77244756D01*
X73851371Y-77037283D01*
X73690810Y-76930000D01*
X73851371Y-76822717D01*
X73990000Y-76615244D01*
X74128629Y-76822717D01*
X74128629Y-76822717D01*
G37*
X74128629Y-76822717D02*
X74289190Y-76930000D01*
X74128629Y-77037283D01*
X73990000Y-77244756D01*
X73851371Y-77037283D01*
X73690810Y-76930000D01*
X73851371Y-76822717D01*
X73990000Y-76615244D01*
X74128629Y-76822717D01*
G36*
X76668629Y-76822717D02*
X76829190Y-76930000D01*
X76668629Y-77037283D01*
X76530000Y-77244756D01*
X76391371Y-77037283D01*
X76230810Y-76930000D01*
X76391371Y-76822717D01*
X76530000Y-76615244D01*
X76668629Y-76822717D01*
X76668629Y-76822717D01*
G37*
X76668629Y-76822717D02*
X76829190Y-76930000D01*
X76668629Y-77037283D01*
X76530000Y-77244756D01*
X76391371Y-77037283D01*
X76230810Y-76930000D01*
X76391371Y-76822717D01*
X76530000Y-76615244D01*
X76668629Y-76822717D01*
G36*
X79208629Y-76822717D02*
X79369190Y-76930000D01*
X79208629Y-77037283D01*
X79070000Y-77244756D01*
X78931371Y-77037283D01*
X78770810Y-76930000D01*
X78931371Y-76822717D01*
X79070000Y-76615244D01*
X79208629Y-76822717D01*
X79208629Y-76822717D01*
G37*
X79208629Y-76822717D02*
X79369190Y-76930000D01*
X79208629Y-77037283D01*
X79070000Y-77244756D01*
X78931371Y-77037283D01*
X78770810Y-76930000D01*
X78931371Y-76822717D01*
X79070000Y-76615244D01*
X79208629Y-76822717D01*
G36*
X84288629Y-76822717D02*
X84449190Y-76930000D01*
X84288629Y-77037283D01*
X84150000Y-77244756D01*
X84011371Y-77037283D01*
X83850810Y-76930000D01*
X84011371Y-76822717D01*
X84150000Y-76615244D01*
X84288629Y-76822717D01*
X84288629Y-76822717D01*
G37*
X84288629Y-76822717D02*
X84449190Y-76930000D01*
X84288629Y-77037283D01*
X84150000Y-77244756D01*
X84011371Y-77037283D01*
X83850810Y-76930000D01*
X84011371Y-76822717D01*
X84150000Y-76615244D01*
X84288629Y-76822717D01*
G36*
X86828629Y-76822717D02*
X86989190Y-76930000D01*
X86828629Y-77037283D01*
X86690000Y-77244756D01*
X86551371Y-77037283D01*
X86390810Y-76930000D01*
X86551371Y-76822717D01*
X86690000Y-76615244D01*
X86828629Y-76822717D01*
X86828629Y-76822717D01*
G37*
X86828629Y-76822717D02*
X86989190Y-76930000D01*
X86828629Y-77037283D01*
X86690000Y-77244756D01*
X86551371Y-77037283D01*
X86390810Y-76930000D01*
X86551371Y-76822717D01*
X86690000Y-76615244D01*
X86828629Y-76822717D01*
G36*
X89368629Y-76822717D02*
X89529190Y-76930000D01*
X89368629Y-77037283D01*
X89230000Y-77244756D01*
X89091371Y-77037283D01*
X88930810Y-76930000D01*
X89091371Y-76822717D01*
X89230000Y-76615244D01*
X89368629Y-76822717D01*
X89368629Y-76822717D01*
G37*
X89368629Y-76822717D02*
X89529190Y-76930000D01*
X89368629Y-77037283D01*
X89230000Y-77244756D01*
X89091371Y-77037283D01*
X88930810Y-76930000D01*
X89091371Y-76822717D01*
X89230000Y-76615244D01*
X89368629Y-76822717D01*
G36*
X58888629Y-76822717D02*
X59049190Y-76930000D01*
X58888629Y-77037283D01*
X58750000Y-77244756D01*
X58611371Y-77037283D01*
X58450810Y-76930000D01*
X58611371Y-76822717D01*
X58750000Y-76615244D01*
X58888629Y-76822717D01*
X58888629Y-76822717D01*
G37*
X58888629Y-76822717D02*
X59049190Y-76930000D01*
X58888629Y-77037283D01*
X58750000Y-77244756D01*
X58611371Y-77037283D01*
X58450810Y-76930000D01*
X58611371Y-76822717D01*
X58750000Y-76615244D01*
X58888629Y-76822717D01*
G36*
X91908629Y-76822717D02*
X92069190Y-76930000D01*
X91908629Y-77037283D01*
X91770000Y-77244756D01*
X91631371Y-77037283D01*
X91470810Y-76930000D01*
X91631371Y-76822717D01*
X91770000Y-76615244D01*
X91908629Y-76822717D01*
X91908629Y-76822717D01*
G37*
X91908629Y-76822717D02*
X92069190Y-76930000D01*
X91908629Y-77037283D01*
X91770000Y-77244756D01*
X91631371Y-77037283D01*
X91470810Y-76930000D01*
X91631371Y-76822717D01*
X91770000Y-76615244D01*
X91908629Y-76822717D01*
G36*
X101650048Y-76942855D02*
X101630810Y-76930000D01*
X101650071Y-76917130D01*
X101650048Y-76942855D01*
X101650048Y-76942855D01*
G37*
X101650048Y-76942855D02*
X101630810Y-76930000D01*
X101650071Y-76917130D01*
X101650048Y-76942855D01*
G36*
X53007087Y-74037087D02*
X52940839Y-74136234D01*
X52400000Y-74028654D01*
X51787707Y-74150447D01*
X51268629Y-74497283D01*
X50921793Y-75016361D01*
X50897190Y-75140049D01*
X50765774Y-74821999D01*
X49745557Y-73800000D01*
X53244174Y-73800000D01*
X53007087Y-74037087D01*
X53007087Y-74037087D01*
G37*
X53007087Y-74037087D02*
X52940839Y-74136234D01*
X52400000Y-74028654D01*
X51787707Y-74150447D01*
X51268629Y-74497283D01*
X50921793Y-75016361D01*
X50897190Y-75140049D01*
X50765774Y-74821999D01*
X49745557Y-73800000D01*
X53244174Y-73800000D01*
X53007087Y-74037087D01*
G36*
X102238032Y-74816303D02*
X102143633Y-75043640D01*
X102138207Y-75016361D01*
X101791371Y-74497283D01*
X101272293Y-74150447D01*
X100660000Y-74028654D01*
X100047707Y-74150447D01*
X99528629Y-74497283D01*
X99390000Y-74704756D01*
X99251371Y-74497283D01*
X98732293Y-74150447D01*
X98120000Y-74028654D01*
X97507707Y-74150447D01*
X96988629Y-74497283D01*
X96850000Y-74704756D01*
X96711371Y-74497283D01*
X96192293Y-74150447D01*
X95580000Y-74028654D01*
X94967707Y-74150447D01*
X94448629Y-74497283D01*
X94310000Y-74704756D01*
X94171371Y-74497283D01*
X93652293Y-74150447D01*
X93040000Y-74028654D01*
X92427707Y-74150447D01*
X91908629Y-74497283D01*
X91770000Y-74704756D01*
X91631371Y-74497283D01*
X91112293Y-74150447D01*
X90500000Y-74028654D01*
X89887707Y-74150447D01*
X89368629Y-74497283D01*
X89230000Y-74704756D01*
X89091371Y-74497283D01*
X88572293Y-74150447D01*
X87960000Y-74028654D01*
X87347707Y-74150447D01*
X86828629Y-74497283D01*
X86690000Y-74704756D01*
X86551371Y-74497283D01*
X86032293Y-74150447D01*
X85420000Y-74028654D01*
X84807707Y-74150447D01*
X84288629Y-74497283D01*
X84150000Y-74704756D01*
X84011371Y-74497283D01*
X83492293Y-74150447D01*
X82880000Y-74028654D01*
X82267707Y-74150447D01*
X82188918Y-74203092D01*
X81785826Y-73800000D01*
X103256110Y-73800000D01*
X102238032Y-74816303D01*
X102238032Y-74816303D01*
G37*
X102238032Y-74816303D02*
X102143633Y-75043640D01*
X102138207Y-75016361D01*
X101791371Y-74497283D01*
X101272293Y-74150447D01*
X100660000Y-74028654D01*
X100047707Y-74150447D01*
X99528629Y-74497283D01*
X99390000Y-74704756D01*
X99251371Y-74497283D01*
X98732293Y-74150447D01*
X98120000Y-74028654D01*
X97507707Y-74150447D01*
X96988629Y-74497283D01*
X96850000Y-74704756D01*
X96711371Y-74497283D01*
X96192293Y-74150447D01*
X95580000Y-74028654D01*
X94967707Y-74150447D01*
X94448629Y-74497283D01*
X94310000Y-74704756D01*
X94171371Y-74497283D01*
X93652293Y-74150447D01*
X93040000Y-74028654D01*
X92427707Y-74150447D01*
X91908629Y-74497283D01*
X91770000Y-74704756D01*
X91631371Y-74497283D01*
X91112293Y-74150447D01*
X90500000Y-74028654D01*
X89887707Y-74150447D01*
X89368629Y-74497283D01*
X89230000Y-74704756D01*
X89091371Y-74497283D01*
X88572293Y-74150447D01*
X87960000Y-74028654D01*
X87347707Y-74150447D01*
X86828629Y-74497283D01*
X86690000Y-74704756D01*
X86551371Y-74497283D01*
X86032293Y-74150447D01*
X85420000Y-74028654D01*
X84807707Y-74150447D01*
X84288629Y-74497283D01*
X84150000Y-74704756D01*
X84011371Y-74497283D01*
X83492293Y-74150447D01*
X82880000Y-74028654D01*
X82267707Y-74150447D01*
X82188918Y-74203092D01*
X81785826Y-73800000D01*
X103256110Y-73800000D01*
X102238032Y-74816303D01*
M02*
