G04 #@! TF.FileFunction,Legend,Top*
%FSLAX46Y46*%
G04 Gerber Fmt 4.6, Leading zero omitted, Abs format (unit mm)*
G04 Created by KiCad (PCBNEW 4.0.6) date 07/20/17 19:11:30*
%MOMM*%
%LPD*%
G01*
G04 APERTURE LIST*
%ADD10C,0.100000*%
%ADD11C,0.150000*%
%ADD12C,0.400000*%
%ADD13C,0.120000*%
%ADD14C,0.381000*%
G04 APERTURE END LIST*
D10*
D11*
X134052381Y-97388095D02*
X133619048Y-96769048D01*
X133309524Y-97388095D02*
X133309524Y-96088095D01*
X133804762Y-96088095D01*
X133928571Y-96150000D01*
X133990476Y-96211905D01*
X134052381Y-96335714D01*
X134052381Y-96521429D01*
X133990476Y-96645238D01*
X133928571Y-96707143D01*
X133804762Y-96769048D01*
X133309524Y-96769048D01*
X135166667Y-97388095D02*
X135166667Y-96707143D01*
X135104762Y-96583333D01*
X134980952Y-96521429D01*
X134733333Y-96521429D01*
X134609524Y-96583333D01*
X135166667Y-97326190D02*
X135042857Y-97388095D01*
X134733333Y-97388095D01*
X134609524Y-97326190D01*
X134547619Y-97202381D01*
X134547619Y-97078571D01*
X134609524Y-96954762D01*
X134733333Y-96892857D01*
X135042857Y-96892857D01*
X135166667Y-96830952D01*
X135723809Y-97326190D02*
X135847619Y-97388095D01*
X136095238Y-97388095D01*
X136219047Y-97326190D01*
X136280952Y-97202381D01*
X136280952Y-97140476D01*
X136219047Y-97016667D01*
X136095238Y-96954762D01*
X135909523Y-96954762D01*
X135785714Y-96892857D01*
X135723809Y-96769048D01*
X135723809Y-96707143D01*
X135785714Y-96583333D01*
X135909523Y-96521429D01*
X136095238Y-96521429D01*
X136219047Y-96583333D01*
X136838095Y-96521429D02*
X136838095Y-97821429D01*
X136838095Y-96583333D02*
X136961904Y-96521429D01*
X137209523Y-96521429D01*
X137333333Y-96583333D01*
X137395238Y-96645238D01*
X137457142Y-96769048D01*
X137457142Y-97140476D01*
X137395238Y-97264286D01*
X137333333Y-97326190D01*
X137209523Y-97388095D01*
X136961904Y-97388095D01*
X136838095Y-97326190D01*
X138014285Y-97388095D02*
X138014285Y-96088095D01*
X138014285Y-96583333D02*
X138138094Y-96521429D01*
X138385713Y-96521429D01*
X138509523Y-96583333D01*
X138571428Y-96645238D01*
X138633332Y-96769048D01*
X138633332Y-97140476D01*
X138571428Y-97264286D01*
X138509523Y-97326190D01*
X138385713Y-97388095D01*
X138138094Y-97388095D01*
X138014285Y-97326190D01*
X139685713Y-97326190D02*
X139561903Y-97388095D01*
X139314284Y-97388095D01*
X139190475Y-97326190D01*
X139128570Y-97202381D01*
X139128570Y-96707143D01*
X139190475Y-96583333D01*
X139314284Y-96521429D01*
X139561903Y-96521429D01*
X139685713Y-96583333D01*
X139747618Y-96707143D01*
X139747618Y-96830952D01*
X139128570Y-96954762D01*
X140304761Y-97388095D02*
X140304761Y-96521429D01*
X140304761Y-96769048D02*
X140366666Y-96645238D01*
X140428570Y-96583333D01*
X140552380Y-96521429D01*
X140676189Y-96521429D01*
X141109523Y-97388095D02*
X141109523Y-96521429D01*
X141109523Y-96769048D02*
X141171428Y-96645238D01*
X141233332Y-96583333D01*
X141357142Y-96521429D01*
X141480951Y-96521429D01*
X141790475Y-96521429D02*
X142099999Y-97388095D01*
X142409523Y-96521429D02*
X142099999Y-97388095D01*
X141976190Y-97697619D01*
X141914285Y-97759524D01*
X141790475Y-97821429D01*
X143895237Y-97388095D02*
X143895237Y-96088095D01*
X144390475Y-96088095D01*
X144514284Y-96150000D01*
X144576189Y-96211905D01*
X144638094Y-96335714D01*
X144638094Y-96521429D01*
X144576189Y-96645238D01*
X144514284Y-96707143D01*
X144390475Y-96769048D01*
X143895237Y-96769048D01*
X145195237Y-97388095D02*
X145195237Y-96521429D01*
X145195237Y-96088095D02*
X145133332Y-96150000D01*
X145195237Y-96211905D01*
X145257142Y-96150000D01*
X145195237Y-96088095D01*
X145195237Y-96211905D01*
X133866667Y-99488095D02*
X133866667Y-98807143D01*
X133804762Y-98683333D01*
X133680952Y-98621429D01*
X133433333Y-98621429D01*
X133309524Y-98683333D01*
X133866667Y-99426190D02*
X133742857Y-99488095D01*
X133433333Y-99488095D01*
X133309524Y-99426190D01*
X133247619Y-99302381D01*
X133247619Y-99178571D01*
X133309524Y-99054762D01*
X133433333Y-98992857D01*
X133742857Y-98992857D01*
X133866667Y-98930952D01*
X135042857Y-99488095D02*
X135042857Y-98188095D01*
X135042857Y-99426190D02*
X134919047Y-99488095D01*
X134671428Y-99488095D01*
X134547619Y-99426190D01*
X134485714Y-99364286D01*
X134423809Y-99240476D01*
X134423809Y-98869048D01*
X134485714Y-98745238D01*
X134547619Y-98683333D01*
X134671428Y-98621429D01*
X134919047Y-98621429D01*
X135042857Y-98683333D01*
X136219047Y-99488095D02*
X136219047Y-98188095D01*
X136219047Y-99426190D02*
X136095237Y-99488095D01*
X135847618Y-99488095D01*
X135723809Y-99426190D01*
X135661904Y-99364286D01*
X135599999Y-99240476D01*
X135599999Y-98869048D01*
X135661904Y-98745238D01*
X135723809Y-98683333D01*
X135847618Y-98621429D01*
X136095237Y-98621429D01*
X136219047Y-98683333D01*
X136838094Y-98992857D02*
X137828570Y-98992857D01*
X138633332Y-99488095D02*
X138509523Y-99426190D01*
X138447618Y-99364286D01*
X138385713Y-99240476D01*
X138385713Y-98869048D01*
X138447618Y-98745238D01*
X138509523Y-98683333D01*
X138633332Y-98621429D01*
X138819046Y-98621429D01*
X138942856Y-98683333D01*
X139004761Y-98745238D01*
X139066665Y-98869048D01*
X139066665Y-99240476D01*
X139004761Y-99364286D01*
X138942856Y-99426190D01*
X138819046Y-99488095D01*
X138633332Y-99488095D01*
X139623808Y-98621429D02*
X139623808Y-99488095D01*
X139623808Y-98745238D02*
X139685713Y-98683333D01*
X139809522Y-98621429D01*
X139995236Y-98621429D01*
X140119046Y-98683333D01*
X140180951Y-98807143D01*
X140180951Y-99488095D01*
X141790474Y-99488095D02*
X141790474Y-98188095D01*
X141790474Y-98683333D02*
X141914283Y-98621429D01*
X142161902Y-98621429D01*
X142285712Y-98683333D01*
X142347617Y-98745238D01*
X142409521Y-98869048D01*
X142409521Y-99240476D01*
X142347617Y-99364286D01*
X142285712Y-99426190D01*
X142161902Y-99488095D01*
X141914283Y-99488095D01*
X141790474Y-99426190D01*
X143152378Y-99488095D02*
X143028569Y-99426190D01*
X142966664Y-99364286D01*
X142904759Y-99240476D01*
X142904759Y-98869048D01*
X142966664Y-98745238D01*
X143028569Y-98683333D01*
X143152378Y-98621429D01*
X143338092Y-98621429D01*
X143461902Y-98683333D01*
X143523807Y-98745238D01*
X143585711Y-98869048D01*
X143585711Y-99240476D01*
X143523807Y-99364286D01*
X143461902Y-99426190D01*
X143338092Y-99488095D01*
X143152378Y-99488095D01*
X144699997Y-99488095D02*
X144699997Y-98807143D01*
X144638092Y-98683333D01*
X144514282Y-98621429D01*
X144266663Y-98621429D01*
X144142854Y-98683333D01*
X144699997Y-99426190D02*
X144576187Y-99488095D01*
X144266663Y-99488095D01*
X144142854Y-99426190D01*
X144080949Y-99302381D01*
X144080949Y-99178571D01*
X144142854Y-99054762D01*
X144266663Y-98992857D01*
X144576187Y-98992857D01*
X144699997Y-98930952D01*
X145319044Y-99488095D02*
X145319044Y-98621429D01*
X145319044Y-98869048D02*
X145380949Y-98745238D01*
X145442853Y-98683333D01*
X145566663Y-98621429D01*
X145690472Y-98621429D01*
X146680949Y-99488095D02*
X146680949Y-98188095D01*
X146680949Y-99426190D02*
X146557139Y-99488095D01*
X146309520Y-99488095D01*
X146185711Y-99426190D01*
X146123806Y-99364286D01*
X146061901Y-99240476D01*
X146061901Y-98869048D01*
X146123806Y-98745238D01*
X146185711Y-98683333D01*
X146309520Y-98621429D01*
X146557139Y-98621429D01*
X146680949Y-98683333D01*
X133123810Y-100721429D02*
X133619048Y-100721429D01*
X133309524Y-101588095D02*
X133309524Y-100473810D01*
X133371429Y-100350000D01*
X133495238Y-100288095D01*
X133619048Y-100288095D01*
X134238095Y-101588095D02*
X134114286Y-101526190D01*
X134052381Y-101464286D01*
X133990476Y-101340476D01*
X133990476Y-100969048D01*
X134052381Y-100845238D01*
X134114286Y-100783333D01*
X134238095Y-100721429D01*
X134423809Y-100721429D01*
X134547619Y-100783333D01*
X134609524Y-100845238D01*
X134671428Y-100969048D01*
X134671428Y-101340476D01*
X134609524Y-101464286D01*
X134547619Y-101526190D01*
X134423809Y-101588095D01*
X134238095Y-101588095D01*
X135228571Y-101588095D02*
X135228571Y-100721429D01*
X135228571Y-100969048D02*
X135290476Y-100845238D01*
X135352380Y-100783333D01*
X135476190Y-100721429D01*
X135599999Y-100721429D01*
X137023809Y-101588095D02*
X137023809Y-100721429D01*
X137023809Y-100845238D02*
X137085714Y-100783333D01*
X137209523Y-100721429D01*
X137395237Y-100721429D01*
X137519047Y-100783333D01*
X137580952Y-100907143D01*
X137580952Y-101588095D01*
X137580952Y-100907143D02*
X137642856Y-100783333D01*
X137766666Y-100721429D01*
X137952380Y-100721429D01*
X138076190Y-100783333D01*
X138138095Y-100907143D01*
X138138095Y-101588095D01*
X139252380Y-101526190D02*
X139128570Y-101588095D01*
X138880951Y-101588095D01*
X138757142Y-101526190D01*
X138695237Y-101402381D01*
X138695237Y-100907143D01*
X138757142Y-100783333D01*
X138880951Y-100721429D01*
X139128570Y-100721429D01*
X139252380Y-100783333D01*
X139314285Y-100907143D01*
X139314285Y-101030952D01*
X138695237Y-101154762D01*
X140428571Y-101526190D02*
X140304761Y-101588095D01*
X140057142Y-101588095D01*
X139933333Y-101526190D01*
X139871428Y-101464286D01*
X139809523Y-101340476D01*
X139809523Y-100969048D01*
X139871428Y-100845238D01*
X139933333Y-100783333D01*
X140057142Y-100721429D01*
X140304761Y-100721429D01*
X140428571Y-100783333D01*
X140985714Y-101588095D02*
X140985714Y-100288095D01*
X141542857Y-101588095D02*
X141542857Y-100907143D01*
X141480952Y-100783333D01*
X141357142Y-100721429D01*
X141171428Y-100721429D01*
X141047619Y-100783333D01*
X140985714Y-100845238D01*
X142719047Y-101588095D02*
X142719047Y-100907143D01*
X142657142Y-100783333D01*
X142533332Y-100721429D01*
X142285713Y-100721429D01*
X142161904Y-100783333D01*
X142719047Y-101526190D02*
X142595237Y-101588095D01*
X142285713Y-101588095D01*
X142161904Y-101526190D01*
X142099999Y-101402381D01*
X142099999Y-101278571D01*
X142161904Y-101154762D01*
X142285713Y-101092857D01*
X142595237Y-101092857D01*
X142719047Y-101030952D01*
X143338094Y-100721429D02*
X143338094Y-101588095D01*
X143338094Y-100845238D02*
X143399999Y-100783333D01*
X143523808Y-100721429D01*
X143709522Y-100721429D01*
X143833332Y-100783333D01*
X143895237Y-100907143D01*
X143895237Y-101588095D01*
X144514284Y-101588095D02*
X144514284Y-100721429D01*
X144514284Y-100288095D02*
X144452379Y-100350000D01*
X144514284Y-100411905D01*
X144576189Y-100350000D01*
X144514284Y-100288095D01*
X144514284Y-100411905D01*
X145690475Y-101526190D02*
X145566665Y-101588095D01*
X145319046Y-101588095D01*
X145195237Y-101526190D01*
X145133332Y-101464286D01*
X145071427Y-101340476D01*
X145071427Y-100969048D01*
X145133332Y-100845238D01*
X145195237Y-100783333D01*
X145319046Y-100721429D01*
X145566665Y-100721429D01*
X145690475Y-100783333D01*
X146804761Y-101588095D02*
X146804761Y-100907143D01*
X146742856Y-100783333D01*
X146619046Y-100721429D01*
X146371427Y-100721429D01*
X146247618Y-100783333D01*
X146804761Y-101526190D02*
X146680951Y-101588095D01*
X146371427Y-101588095D01*
X146247618Y-101526190D01*
X146185713Y-101402381D01*
X146185713Y-101278571D01*
X146247618Y-101154762D01*
X146371427Y-101092857D01*
X146680951Y-101092857D01*
X146804761Y-101030952D01*
X147609522Y-101588095D02*
X147485713Y-101526190D01*
X147423808Y-101402381D01*
X147423808Y-100288095D01*
X133309524Y-103688095D02*
X133309524Y-102388095D01*
X133433333Y-103192857D02*
X133804762Y-103688095D01*
X133804762Y-102821429D02*
X133309524Y-103316667D01*
X134857143Y-103626190D02*
X134733333Y-103688095D01*
X134485714Y-103688095D01*
X134361905Y-103626190D01*
X134300000Y-103502381D01*
X134300000Y-103007143D01*
X134361905Y-102883333D01*
X134485714Y-102821429D01*
X134733333Y-102821429D01*
X134857143Y-102883333D01*
X134919048Y-103007143D01*
X134919048Y-103130952D01*
X134300000Y-103254762D01*
X135352381Y-102821429D02*
X135661905Y-103688095D01*
X135971429Y-102821429D02*
X135661905Y-103688095D01*
X135538096Y-103997619D01*
X135476191Y-104059524D01*
X135352381Y-104121429D01*
X136466667Y-103688095D02*
X136466667Y-102388095D01*
X136466667Y-102883333D02*
X136590476Y-102821429D01*
X136838095Y-102821429D01*
X136961905Y-102883333D01*
X137023810Y-102945238D01*
X137085714Y-103069048D01*
X137085714Y-103440476D01*
X137023810Y-103564286D01*
X136961905Y-103626190D01*
X136838095Y-103688095D01*
X136590476Y-103688095D01*
X136466667Y-103626190D01*
X137828571Y-103688095D02*
X137704762Y-103626190D01*
X137642857Y-103564286D01*
X137580952Y-103440476D01*
X137580952Y-103069048D01*
X137642857Y-102945238D01*
X137704762Y-102883333D01*
X137828571Y-102821429D01*
X138014285Y-102821429D01*
X138138095Y-102883333D01*
X138200000Y-102945238D01*
X138261904Y-103069048D01*
X138261904Y-103440476D01*
X138200000Y-103564286D01*
X138138095Y-103626190D01*
X138014285Y-103688095D01*
X137828571Y-103688095D01*
X139376190Y-103688095D02*
X139376190Y-103007143D01*
X139314285Y-102883333D01*
X139190475Y-102821429D01*
X138942856Y-102821429D01*
X138819047Y-102883333D01*
X139376190Y-103626190D02*
X139252380Y-103688095D01*
X138942856Y-103688095D01*
X138819047Y-103626190D01*
X138757142Y-103502381D01*
X138757142Y-103378571D01*
X138819047Y-103254762D01*
X138942856Y-103192857D01*
X139252380Y-103192857D01*
X139376190Y-103130952D01*
X139995237Y-103688095D02*
X139995237Y-102821429D01*
X139995237Y-103069048D02*
X140057142Y-102945238D01*
X140119046Y-102883333D01*
X140242856Y-102821429D01*
X140366665Y-102821429D01*
X141357142Y-103688095D02*
X141357142Y-102388095D01*
X141357142Y-103626190D02*
X141233332Y-103688095D01*
X140985713Y-103688095D01*
X140861904Y-103626190D01*
X140799999Y-103564286D01*
X140738094Y-103440476D01*
X140738094Y-103069048D01*
X140799999Y-102945238D01*
X140861904Y-102883333D01*
X140985713Y-102821429D01*
X141233332Y-102821429D01*
X141357142Y-102883333D01*
X133247619Y-105726190D02*
X133371429Y-105788095D01*
X133619048Y-105788095D01*
X133742857Y-105726190D01*
X133804762Y-105602381D01*
X133804762Y-105540476D01*
X133742857Y-105416667D01*
X133619048Y-105354762D01*
X133433333Y-105354762D01*
X133309524Y-105292857D01*
X133247619Y-105169048D01*
X133247619Y-105107143D01*
X133309524Y-104983333D01*
X133433333Y-104921429D01*
X133619048Y-104921429D01*
X133742857Y-104983333D01*
X134238095Y-104921429D02*
X134485714Y-105788095D01*
X134733333Y-105169048D01*
X134980952Y-105788095D01*
X135228571Y-104921429D01*
X135723810Y-105788095D02*
X135723810Y-104921429D01*
X135723810Y-104488095D02*
X135661905Y-104550000D01*
X135723810Y-104611905D01*
X135785715Y-104550000D01*
X135723810Y-104488095D01*
X135723810Y-104611905D01*
X136157144Y-104921429D02*
X136652382Y-104921429D01*
X136342858Y-104488095D02*
X136342858Y-105602381D01*
X136404763Y-105726190D01*
X136528572Y-105788095D01*
X136652382Y-105788095D01*
X137642858Y-105726190D02*
X137519048Y-105788095D01*
X137271429Y-105788095D01*
X137147620Y-105726190D01*
X137085715Y-105664286D01*
X137023810Y-105540476D01*
X137023810Y-105169048D01*
X137085715Y-105045238D01*
X137147620Y-104983333D01*
X137271429Y-104921429D01*
X137519048Y-104921429D01*
X137642858Y-104983333D01*
X138200001Y-105788095D02*
X138200001Y-104488095D01*
X138757144Y-105788095D02*
X138757144Y-105107143D01*
X138695239Y-104983333D01*
X138571429Y-104921429D01*
X138385715Y-104921429D01*
X138261906Y-104983333D01*
X138200001Y-105045238D01*
X139871429Y-105726190D02*
X139747619Y-105788095D01*
X139500000Y-105788095D01*
X139376191Y-105726190D01*
X139314286Y-105602381D01*
X139314286Y-105107143D01*
X139376191Y-104983333D01*
X139500000Y-104921429D01*
X139747619Y-104921429D01*
X139871429Y-104983333D01*
X139933334Y-105107143D01*
X139933334Y-105230952D01*
X139314286Y-105354762D01*
X140428572Y-105726190D02*
X140552382Y-105788095D01*
X140800001Y-105788095D01*
X140923810Y-105726190D01*
X140985715Y-105602381D01*
X140985715Y-105540476D01*
X140923810Y-105416667D01*
X140800001Y-105354762D01*
X140614286Y-105354762D01*
X140490477Y-105292857D01*
X140428572Y-105169048D01*
X140428572Y-105107143D01*
X140490477Y-104983333D01*
X140614286Y-104921429D01*
X140800001Y-104921429D01*
X140923810Y-104983333D01*
D12*
X132333333Y-93011905D02*
X132142857Y-93130952D01*
X131761905Y-93130952D01*
X131571429Y-93011905D01*
X131476190Y-92892857D01*
X131380952Y-92654762D01*
X131380952Y-91940476D01*
X131476190Y-91702381D01*
X131571429Y-91583333D01*
X131761905Y-91464286D01*
X132142857Y-91464286D01*
X132333333Y-91583333D01*
X133476191Y-93130952D02*
X133285715Y-93011905D01*
X133190476Y-92773810D01*
X133190476Y-90630952D01*
X134238095Y-93130952D02*
X134238095Y-91464286D01*
X134238095Y-90630952D02*
X134142857Y-90750000D01*
X134238095Y-90869048D01*
X134333334Y-90750000D01*
X134238095Y-90630952D01*
X134238095Y-90869048D01*
X136047619Y-93011905D02*
X135857143Y-93130952D01*
X135476191Y-93130952D01*
X135285715Y-93011905D01*
X135190476Y-92892857D01*
X135095238Y-92654762D01*
X135095238Y-91940476D01*
X135190476Y-91702381D01*
X135285715Y-91583333D01*
X135476191Y-91464286D01*
X135857143Y-91464286D01*
X136047619Y-91583333D01*
X136904762Y-93130952D02*
X136904762Y-90630952D01*
X137095239Y-92178571D02*
X137666667Y-93130952D01*
X137666667Y-91464286D02*
X136904762Y-92416667D01*
X138333334Y-91464286D02*
X138809525Y-93130952D01*
X139285715Y-91464286D02*
X138809525Y-93130952D01*
X138619049Y-93726190D01*
X138523810Y-93845238D01*
X138333334Y-93964286D01*
X140714287Y-91821429D02*
X141000001Y-91940476D01*
X141095240Y-92059524D01*
X141190478Y-92297619D01*
X141190478Y-92654762D01*
X141095240Y-92892857D01*
X141000001Y-93011905D01*
X140809525Y-93130952D01*
X140047620Y-93130952D01*
X140047620Y-90630952D01*
X140714287Y-90630952D01*
X140904763Y-90750000D01*
X141000001Y-90869048D01*
X141095240Y-91107143D01*
X141095240Y-91345238D01*
X141000001Y-91583333D01*
X140904763Y-91702381D01*
X140714287Y-91821429D01*
X140047620Y-91821429D01*
X142333335Y-93130952D02*
X142142859Y-93011905D01*
X142047620Y-92892857D01*
X141952382Y-92654762D01*
X141952382Y-91940476D01*
X142047620Y-91702381D01*
X142142859Y-91583333D01*
X142333335Y-91464286D01*
X142619049Y-91464286D01*
X142809525Y-91583333D01*
X142904763Y-91702381D01*
X143000001Y-91940476D01*
X143000001Y-92654762D01*
X142904763Y-92892857D01*
X142809525Y-93011905D01*
X142619049Y-93130952D01*
X142333335Y-93130952D01*
X144714287Y-93130952D02*
X144714287Y-91821429D01*
X144619049Y-91583333D01*
X144428573Y-91464286D01*
X144047621Y-91464286D01*
X143857144Y-91583333D01*
X144714287Y-93011905D02*
X144523811Y-93130952D01*
X144047621Y-93130952D01*
X143857144Y-93011905D01*
X143761906Y-92773810D01*
X143761906Y-92535714D01*
X143857144Y-92297619D01*
X144047621Y-92178571D01*
X144523811Y-92178571D01*
X144714287Y-92059524D01*
X145666668Y-93130952D02*
X145666668Y-91464286D01*
X145666668Y-91940476D02*
X145761907Y-91702381D01*
X145857145Y-91583333D01*
X146047621Y-91464286D01*
X146238097Y-91464286D01*
X147761906Y-93130952D02*
X147761906Y-90630952D01*
X147761906Y-93011905D02*
X147571430Y-93130952D01*
X147190478Y-93130952D01*
X147000002Y-93011905D01*
X146904763Y-92892857D01*
X146809525Y-92654762D01*
X146809525Y-91940476D01*
X146904763Y-91702381D01*
X147000002Y-91583333D01*
X147190478Y-91464286D01*
X147571430Y-91464286D01*
X147761906Y-91583333D01*
D13*
X132286000Y-125000000D02*
G75*
G03X132286000Y-125000000I-2286000J0D01*
G01*
X102310000Y-98580000D02*
X102310000Y-88340000D01*
X86420000Y-98580000D02*
X86420000Y-88340000D01*
X86420000Y-98580000D02*
X102310000Y-98580000D01*
X86420000Y-88340000D02*
X102310000Y-88340000D01*
X102310000Y-96000000D02*
X104950000Y-96000000D01*
X102310000Y-93460000D02*
X104934000Y-93460000D01*
X102310000Y-90920000D02*
X104934000Y-90920000D01*
X90786000Y-133000000D02*
G75*
G03X90786000Y-133000000I-2286000J0D01*
G01*
X148786000Y-133000000D02*
G75*
G03X148786000Y-133000000I-2286000J0D01*
G01*
X148786000Y-84000000D02*
G75*
G03X148786000Y-84000000I-2286000J0D01*
G01*
X121192335Y-104921392D02*
G75*
G03X117960000Y-104764484I-1672335J-1078608D01*
G01*
X121192335Y-107078608D02*
G75*
G02X117960000Y-107235516I-1672335J1078608D01*
G01*
X120561130Y-104920163D02*
G75*
G03X118479039Y-104920000I-1041130J-1079837D01*
G01*
X120561130Y-107079837D02*
G75*
G02X118479039Y-107080000I-1041130J1079837D01*
G01*
X117960000Y-104764000D02*
X117960000Y-104920000D01*
X117960000Y-107080000D02*
X117960000Y-107236000D01*
X102192335Y-123921392D02*
G75*
G03X98960000Y-123764484I-1672335J-1078608D01*
G01*
X102192335Y-126078608D02*
G75*
G02X98960000Y-126235516I-1672335J1078608D01*
G01*
X101561130Y-123920163D02*
G75*
G03X99479039Y-123920000I-1041130J-1079837D01*
G01*
X101561130Y-126079837D02*
G75*
G02X99479039Y-126080000I-1041130J1079837D01*
G01*
X98960000Y-123764000D02*
X98960000Y-123920000D01*
X98960000Y-126080000D02*
X98960000Y-126236000D01*
X121192335Y-123921392D02*
G75*
G03X117960000Y-123764484I-1672335J-1078608D01*
G01*
X121192335Y-126078608D02*
G75*
G02X117960000Y-126235516I-1672335J1078608D01*
G01*
X120561130Y-123920163D02*
G75*
G03X118479039Y-123920000I-1041130J-1079837D01*
G01*
X120561130Y-126079837D02*
G75*
G02X118479039Y-126080000I-1041130J1079837D01*
G01*
X117960000Y-123764000D02*
X117960000Y-123920000D01*
X117960000Y-126080000D02*
X117960000Y-126236000D01*
X140192335Y-123921392D02*
G75*
G03X136960000Y-123764484I-1672335J-1078608D01*
G01*
X140192335Y-126078608D02*
G75*
G02X136960000Y-126235516I-1672335J1078608D01*
G01*
X139561130Y-123920163D02*
G75*
G03X137479039Y-123920000I-1041130J-1079837D01*
G01*
X139561130Y-126079837D02*
G75*
G02X137479039Y-126080000I-1041130J1079837D01*
G01*
X136960000Y-123764000D02*
X136960000Y-123920000D01*
X136960000Y-126080000D02*
X136960000Y-126236000D01*
X142990000Y-86530000D02*
X142990000Y-81330000D01*
X94670000Y-86530000D02*
X142990000Y-86530000D01*
X92070000Y-81330000D02*
X142990000Y-81330000D01*
X94670000Y-86530000D02*
X94670000Y-83930000D01*
X94670000Y-83930000D02*
X92070000Y-83930000D01*
X92070000Y-83930000D02*
X92070000Y-81330000D01*
X93400000Y-86530000D02*
X92070000Y-86530000D01*
X92070000Y-86530000D02*
X92070000Y-85200000D01*
D14*
X113150000Y-94650000D02*
X114928000Y-94650000D01*
X124072000Y-94650000D02*
X125850000Y-94650000D01*
X125850000Y-94650000D02*
X125850000Y-96428000D01*
X125850000Y-105572000D02*
X125850000Y-107350000D01*
X125850000Y-107350000D02*
X124072000Y-107350000D01*
X114928000Y-107350000D02*
X113150000Y-107350000D01*
X113150000Y-107350000D02*
X113150000Y-105572000D01*
X113150000Y-96428000D02*
X113150000Y-94650000D01*
X94150000Y-113650000D02*
X95928000Y-113650000D01*
X105072000Y-113650000D02*
X106850000Y-113650000D01*
X106850000Y-113650000D02*
X106850000Y-115428000D01*
X106850000Y-124572000D02*
X106850000Y-126350000D01*
X106850000Y-126350000D02*
X105072000Y-126350000D01*
X95928000Y-126350000D02*
X94150000Y-126350000D01*
X94150000Y-126350000D02*
X94150000Y-124572000D01*
X94150000Y-115428000D02*
X94150000Y-113650000D01*
X113150000Y-113650000D02*
X114928000Y-113650000D01*
X124072000Y-113650000D02*
X125850000Y-113650000D01*
X125850000Y-113650000D02*
X125850000Y-115428000D01*
X125850000Y-124572000D02*
X125850000Y-126350000D01*
X125850000Y-126350000D02*
X124072000Y-126350000D01*
X114928000Y-126350000D02*
X113150000Y-126350000D01*
X113150000Y-126350000D02*
X113150000Y-124572000D01*
X113150000Y-115428000D02*
X113150000Y-113650000D01*
X132150000Y-113650000D02*
X133928000Y-113650000D01*
X143072000Y-113650000D02*
X144850000Y-113650000D01*
X144850000Y-113650000D02*
X144850000Y-115428000D01*
X144850000Y-124572000D02*
X144850000Y-126350000D01*
X144850000Y-126350000D02*
X143072000Y-126350000D01*
X133928000Y-126350000D02*
X132150000Y-126350000D01*
X132150000Y-126350000D02*
X132150000Y-124572000D01*
X132150000Y-115428000D02*
X132150000Y-113650000D01*
D13*
X90786000Y-84000000D02*
G75*
G03X90786000Y-84000000I-2286000J0D01*
G01*
X131980000Y-97850000D02*
X132310000Y-97850000D01*
X132310000Y-97850000D02*
X132310000Y-104270000D01*
X132310000Y-104270000D02*
X131980000Y-104270000D01*
X130020000Y-97850000D02*
X129690000Y-97850000D01*
X129690000Y-97850000D02*
X129690000Y-104270000D01*
X129690000Y-104270000D02*
X130020000Y-104270000D01*
X122900000Y-90480000D02*
X122900000Y-90810000D01*
X122900000Y-90810000D02*
X116480000Y-90810000D01*
X116480000Y-90810000D02*
X116480000Y-90480000D01*
X122900000Y-88520000D02*
X122900000Y-88190000D01*
X122900000Y-88190000D02*
X116480000Y-88190000D01*
X116480000Y-88190000D02*
X116480000Y-88520000D01*
X102520000Y-108400000D02*
X102190000Y-108400000D01*
X102190000Y-108400000D02*
X102190000Y-101980000D01*
X102190000Y-101980000D02*
X102520000Y-101980000D01*
X104480000Y-108400000D02*
X104810000Y-108400000D01*
X104810000Y-108400000D02*
X104810000Y-101980000D01*
X104810000Y-101980000D02*
X104480000Y-101980000D01*
X107020000Y-108400000D02*
X106690000Y-108400000D01*
X106690000Y-108400000D02*
X106690000Y-101980000D01*
X106690000Y-101980000D02*
X107020000Y-101980000D01*
X108980000Y-108400000D02*
X109310000Y-108400000D01*
X109310000Y-108400000D02*
X109310000Y-101980000D01*
X109310000Y-101980000D02*
X108980000Y-101980000D01*
X92520000Y-108400000D02*
X92190000Y-108400000D01*
X92190000Y-108400000D02*
X92190000Y-101980000D01*
X92190000Y-101980000D02*
X92520000Y-101980000D01*
X94480000Y-108400000D02*
X94810000Y-108400000D01*
X94810000Y-108400000D02*
X94810000Y-101980000D01*
X94810000Y-101980000D02*
X94480000Y-101980000D01*
X97020000Y-108400000D02*
X96690000Y-108400000D01*
X96690000Y-108400000D02*
X96690000Y-101980000D01*
X96690000Y-101980000D02*
X97020000Y-101980000D01*
X98980000Y-108400000D02*
X99310000Y-108400000D01*
X99310000Y-108400000D02*
X99310000Y-101980000D01*
X99310000Y-101980000D02*
X98980000Y-101980000D01*
D11*
X103732762Y-98043619D02*
X103637524Y-97996000D01*
X103542286Y-97900762D01*
X103399429Y-97757905D01*
X103304190Y-97710286D01*
X103208952Y-97710286D01*
X103256571Y-97948381D02*
X103161333Y-97900762D01*
X103066095Y-97805524D01*
X103018476Y-97615048D01*
X103018476Y-97281714D01*
X103066095Y-97091238D01*
X103161333Y-96996000D01*
X103256571Y-96948381D01*
X103447048Y-96948381D01*
X103542286Y-96996000D01*
X103637524Y-97091238D01*
X103685143Y-97281714D01*
X103685143Y-97615048D01*
X103637524Y-97805524D01*
X103542286Y-97900762D01*
X103447048Y-97948381D01*
X103256571Y-97948381D01*
X104637524Y-97948381D02*
X104066095Y-97948381D01*
X104351809Y-97948381D02*
X104351809Y-96948381D01*
X104256571Y-97091238D01*
X104161333Y-97186476D01*
X104066095Y-97234095D01*
X118761905Y-109452381D02*
X118761905Y-108452381D01*
X119000000Y-108452381D01*
X119142858Y-108500000D01*
X119238096Y-108595238D01*
X119285715Y-108690476D01*
X119333334Y-108880952D01*
X119333334Y-109023810D01*
X119285715Y-109214286D01*
X119238096Y-109309524D01*
X119142858Y-109404762D01*
X119000000Y-109452381D01*
X118761905Y-109452381D01*
X120285715Y-109452381D02*
X119714286Y-109452381D01*
X120000000Y-109452381D02*
X120000000Y-108452381D01*
X119904762Y-108595238D01*
X119809524Y-108690476D01*
X119714286Y-108738095D01*
X99761905Y-128452381D02*
X99761905Y-127452381D01*
X100000000Y-127452381D01*
X100142858Y-127500000D01*
X100238096Y-127595238D01*
X100285715Y-127690476D01*
X100333334Y-127880952D01*
X100333334Y-128023810D01*
X100285715Y-128214286D01*
X100238096Y-128309524D01*
X100142858Y-128404762D01*
X100000000Y-128452381D01*
X99761905Y-128452381D01*
X100714286Y-127547619D02*
X100761905Y-127500000D01*
X100857143Y-127452381D01*
X101095239Y-127452381D01*
X101190477Y-127500000D01*
X101238096Y-127547619D01*
X101285715Y-127642857D01*
X101285715Y-127738095D01*
X101238096Y-127880952D01*
X100666667Y-128452381D01*
X101285715Y-128452381D01*
X118761905Y-128452381D02*
X118761905Y-127452381D01*
X119000000Y-127452381D01*
X119142858Y-127500000D01*
X119238096Y-127595238D01*
X119285715Y-127690476D01*
X119333334Y-127880952D01*
X119333334Y-128023810D01*
X119285715Y-128214286D01*
X119238096Y-128309524D01*
X119142858Y-128404762D01*
X119000000Y-128452381D01*
X118761905Y-128452381D01*
X119666667Y-127452381D02*
X120285715Y-127452381D01*
X119952381Y-127833333D01*
X120095239Y-127833333D01*
X120190477Y-127880952D01*
X120238096Y-127928571D01*
X120285715Y-128023810D01*
X120285715Y-128261905D01*
X120238096Y-128357143D01*
X120190477Y-128404762D01*
X120095239Y-128452381D01*
X119809524Y-128452381D01*
X119714286Y-128404762D01*
X119666667Y-128357143D01*
X137761905Y-128452381D02*
X137761905Y-127452381D01*
X138000000Y-127452381D01*
X138142858Y-127500000D01*
X138238096Y-127595238D01*
X138285715Y-127690476D01*
X138333334Y-127880952D01*
X138333334Y-128023810D01*
X138285715Y-128214286D01*
X138238096Y-128309524D01*
X138142858Y-128404762D01*
X138000000Y-128452381D01*
X137761905Y-128452381D01*
X139190477Y-127785714D02*
X139190477Y-128452381D01*
X138952381Y-127404762D02*
X138714286Y-128119048D01*
X139333334Y-128119048D01*
X141666667Y-86952381D02*
X141666667Y-87666667D01*
X141619047Y-87809524D01*
X141523809Y-87904762D01*
X141380952Y-87952381D01*
X141285714Y-87952381D01*
X142666667Y-87952381D02*
X142095238Y-87952381D01*
X142380952Y-87952381D02*
X142380952Y-86952381D01*
X142285714Y-87095238D01*
X142190476Y-87190476D01*
X142095238Y-87238095D01*
X117833334Y-94255952D02*
X118011906Y-94315476D01*
X118309525Y-94315476D01*
X118428572Y-94255952D01*
X118488096Y-94196429D01*
X118547620Y-94077381D01*
X118547620Y-93958333D01*
X118488096Y-93839286D01*
X118428572Y-93779762D01*
X118309525Y-93720238D01*
X118071429Y-93660714D01*
X117952382Y-93601190D01*
X117892858Y-93541667D01*
X117833334Y-93422619D01*
X117833334Y-93303571D01*
X117892858Y-93184524D01*
X117952382Y-93125000D01*
X118071429Y-93065476D01*
X118369049Y-93065476D01*
X118547620Y-93125000D01*
X118964286Y-93065476D02*
X119261905Y-94315476D01*
X119500001Y-93422619D01*
X119738096Y-94315476D01*
X120035715Y-93065476D01*
X121166667Y-94315476D02*
X120452381Y-94315476D01*
X120809524Y-94315476D02*
X120809524Y-93065476D01*
X120690476Y-93244048D01*
X120571429Y-93363095D01*
X120452381Y-93422619D01*
X98833334Y-113255952D02*
X99011906Y-113315476D01*
X99309525Y-113315476D01*
X99428572Y-113255952D01*
X99488096Y-113196429D01*
X99547620Y-113077381D01*
X99547620Y-112958333D01*
X99488096Y-112839286D01*
X99428572Y-112779762D01*
X99309525Y-112720238D01*
X99071429Y-112660714D01*
X98952382Y-112601190D01*
X98892858Y-112541667D01*
X98833334Y-112422619D01*
X98833334Y-112303571D01*
X98892858Y-112184524D01*
X98952382Y-112125000D01*
X99071429Y-112065476D01*
X99369049Y-112065476D01*
X99547620Y-112125000D01*
X99964286Y-112065476D02*
X100261905Y-113315476D01*
X100500001Y-112422619D01*
X100738096Y-113315476D01*
X101035715Y-112065476D01*
X101452381Y-112184524D02*
X101511905Y-112125000D01*
X101630953Y-112065476D01*
X101928572Y-112065476D01*
X102047619Y-112125000D01*
X102107143Y-112184524D01*
X102166667Y-112303571D01*
X102166667Y-112422619D01*
X102107143Y-112601190D01*
X101392857Y-113315476D01*
X102166667Y-113315476D01*
X117833334Y-113255952D02*
X118011906Y-113315476D01*
X118309525Y-113315476D01*
X118428572Y-113255952D01*
X118488096Y-113196429D01*
X118547620Y-113077381D01*
X118547620Y-112958333D01*
X118488096Y-112839286D01*
X118428572Y-112779762D01*
X118309525Y-112720238D01*
X118071429Y-112660714D01*
X117952382Y-112601190D01*
X117892858Y-112541667D01*
X117833334Y-112422619D01*
X117833334Y-112303571D01*
X117892858Y-112184524D01*
X117952382Y-112125000D01*
X118071429Y-112065476D01*
X118369049Y-112065476D01*
X118547620Y-112125000D01*
X118964286Y-112065476D02*
X119261905Y-113315476D01*
X119500001Y-112422619D01*
X119738096Y-113315476D01*
X120035715Y-112065476D01*
X120392857Y-112065476D02*
X121166667Y-112065476D01*
X120750000Y-112541667D01*
X120928572Y-112541667D01*
X121047619Y-112601190D01*
X121107143Y-112660714D01*
X121166667Y-112779762D01*
X121166667Y-113077381D01*
X121107143Y-113196429D01*
X121047619Y-113255952D01*
X120928572Y-113315476D01*
X120571429Y-113315476D01*
X120452381Y-113255952D01*
X120392857Y-113196429D01*
X136833334Y-113255952D02*
X137011906Y-113315476D01*
X137309525Y-113315476D01*
X137428572Y-113255952D01*
X137488096Y-113196429D01*
X137547620Y-113077381D01*
X137547620Y-112958333D01*
X137488096Y-112839286D01*
X137428572Y-112779762D01*
X137309525Y-112720238D01*
X137071429Y-112660714D01*
X136952382Y-112601190D01*
X136892858Y-112541667D01*
X136833334Y-112422619D01*
X136833334Y-112303571D01*
X136892858Y-112184524D01*
X136952382Y-112125000D01*
X137071429Y-112065476D01*
X137369049Y-112065476D01*
X137547620Y-112125000D01*
X137964286Y-112065476D02*
X138261905Y-113315476D01*
X138500001Y-112422619D01*
X138738096Y-113315476D01*
X139035715Y-112065476D01*
X140047619Y-112482143D02*
X140047619Y-113315476D01*
X139750000Y-112005952D02*
X139452381Y-112898810D01*
X140226191Y-112898810D01*
X129202381Y-101166666D02*
X128726190Y-101500000D01*
X129202381Y-101738095D02*
X128202381Y-101738095D01*
X128202381Y-101357142D01*
X128250000Y-101261904D01*
X128297619Y-101214285D01*
X128392857Y-101166666D01*
X128535714Y-101166666D01*
X128630952Y-101214285D01*
X128678571Y-101261904D01*
X128726190Y-101357142D01*
X128726190Y-101738095D01*
X129202381Y-100214285D02*
X129202381Y-100785714D01*
X129202381Y-100500000D02*
X128202381Y-100500000D01*
X128345238Y-100595238D01*
X128440476Y-100690476D01*
X128488095Y-100785714D01*
X119583334Y-92202381D02*
X119250000Y-91726190D01*
X119011905Y-92202381D02*
X119011905Y-91202381D01*
X119392858Y-91202381D01*
X119488096Y-91250000D01*
X119535715Y-91297619D01*
X119583334Y-91392857D01*
X119583334Y-91535714D01*
X119535715Y-91630952D01*
X119488096Y-91678571D01*
X119392858Y-91726190D01*
X119011905Y-91726190D01*
X119964286Y-91297619D02*
X120011905Y-91250000D01*
X120107143Y-91202381D01*
X120345239Y-91202381D01*
X120440477Y-91250000D01*
X120488096Y-91297619D01*
X120535715Y-91392857D01*
X120535715Y-91488095D01*
X120488096Y-91630952D01*
X119916667Y-92202381D01*
X120535715Y-92202381D01*
X101702381Y-105166666D02*
X101226190Y-105500000D01*
X101702381Y-105738095D02*
X100702381Y-105738095D01*
X100702381Y-105357142D01*
X100750000Y-105261904D01*
X100797619Y-105214285D01*
X100892857Y-105166666D01*
X101035714Y-105166666D01*
X101130952Y-105214285D01*
X101178571Y-105261904D01*
X101226190Y-105357142D01*
X101226190Y-105738095D01*
X100702381Y-104833333D02*
X100702381Y-104214285D01*
X101083333Y-104547619D01*
X101083333Y-104404761D01*
X101130952Y-104309523D01*
X101178571Y-104261904D01*
X101273810Y-104214285D01*
X101511905Y-104214285D01*
X101607143Y-104261904D01*
X101654762Y-104309523D01*
X101702381Y-104404761D01*
X101702381Y-104690476D01*
X101654762Y-104785714D01*
X101607143Y-104833333D01*
X106202381Y-105166666D02*
X105726190Y-105500000D01*
X106202381Y-105738095D02*
X105202381Y-105738095D01*
X105202381Y-105357142D01*
X105250000Y-105261904D01*
X105297619Y-105214285D01*
X105392857Y-105166666D01*
X105535714Y-105166666D01*
X105630952Y-105214285D01*
X105678571Y-105261904D01*
X105726190Y-105357142D01*
X105726190Y-105738095D01*
X105535714Y-104309523D02*
X106202381Y-104309523D01*
X105154762Y-104547619D02*
X105869048Y-104785714D01*
X105869048Y-104166666D01*
X91702381Y-105166666D02*
X91226190Y-105500000D01*
X91702381Y-105738095D02*
X90702381Y-105738095D01*
X90702381Y-105357142D01*
X90750000Y-105261904D01*
X90797619Y-105214285D01*
X90892857Y-105166666D01*
X91035714Y-105166666D01*
X91130952Y-105214285D01*
X91178571Y-105261904D01*
X91226190Y-105357142D01*
X91226190Y-105738095D01*
X90702381Y-104261904D02*
X90702381Y-104738095D01*
X91178571Y-104785714D01*
X91130952Y-104738095D01*
X91083333Y-104642857D01*
X91083333Y-104404761D01*
X91130952Y-104309523D01*
X91178571Y-104261904D01*
X91273810Y-104214285D01*
X91511905Y-104214285D01*
X91607143Y-104261904D01*
X91654762Y-104309523D01*
X91702381Y-104404761D01*
X91702381Y-104642857D01*
X91654762Y-104738095D01*
X91607143Y-104785714D01*
X96202381Y-105166666D02*
X95726190Y-105500000D01*
X96202381Y-105738095D02*
X95202381Y-105738095D01*
X95202381Y-105357142D01*
X95250000Y-105261904D01*
X95297619Y-105214285D01*
X95392857Y-105166666D01*
X95535714Y-105166666D01*
X95630952Y-105214285D01*
X95678571Y-105261904D01*
X95726190Y-105357142D01*
X95726190Y-105738095D01*
X95202381Y-104309523D02*
X95202381Y-104500000D01*
X95250000Y-104595238D01*
X95297619Y-104642857D01*
X95440476Y-104738095D01*
X95630952Y-104785714D01*
X96011905Y-104785714D01*
X96107143Y-104738095D01*
X96154762Y-104690476D01*
X96202381Y-104595238D01*
X96202381Y-104404761D01*
X96154762Y-104309523D01*
X96107143Y-104261904D01*
X96011905Y-104214285D01*
X95773810Y-104214285D01*
X95678571Y-104261904D01*
X95630952Y-104309523D01*
X95583333Y-104404761D01*
X95583333Y-104595238D01*
X95630952Y-104690476D01*
X95678571Y-104738095D01*
X95773810Y-104785714D01*
M02*
