G04 #@! TF.FileFunction,Soldermask,Top*
%FSLAX46Y46*%
G04 Gerber Fmt 4.6, Leading zero omitted, Abs format (unit mm)*
G04 Created by KiCad (PCBNEW 4.0.6) date 08/05/17 18:52:37*
%MOMM*%
%LPD*%
G01*
G04 APERTURE LIST*
%ADD10C,0.100000*%
%ADD11C,0.400000*%
%ADD12R,1.700000X1.700000*%
%ADD13O,1.700000X1.700000*%
%ADD14C,2.750000*%
%ADD15C,6.200000*%
%ADD16R,6.000000X9.500000*%
%ADD17C,1.800000*%
%ADD18O,1.800000X1.800000*%
%ADD19R,1.800000X1.800000*%
%ADD20C,2.286000*%
G04 APERTURE END LIST*
D10*
D11*
X81952381Y-126011905D02*
X81714285Y-126130952D01*
X81238095Y-126130952D01*
X81000000Y-126011905D01*
X80880952Y-125892857D01*
X80761904Y-125654762D01*
X80761904Y-124940476D01*
X80880952Y-124702381D01*
X81000000Y-124583333D01*
X81238095Y-124464286D01*
X81714285Y-124464286D01*
X81952381Y-124583333D01*
X83380952Y-126130952D02*
X83142857Y-126011905D01*
X83023809Y-125773810D01*
X83023809Y-123630952D01*
X84333333Y-126130952D02*
X84333333Y-124464286D01*
X84333333Y-123630952D02*
X84214285Y-123750000D01*
X84333333Y-123869048D01*
X84452381Y-123750000D01*
X84333333Y-123630952D01*
X84333333Y-123869048D01*
X86595238Y-126011905D02*
X86357142Y-126130952D01*
X85880952Y-126130952D01*
X85642857Y-126011905D01*
X85523809Y-125892857D01*
X85404761Y-125654762D01*
X85404761Y-124940476D01*
X85523809Y-124702381D01*
X85642857Y-124583333D01*
X85880952Y-124464286D01*
X86357142Y-124464286D01*
X86595238Y-124583333D01*
X87666666Y-126130952D02*
X87666666Y-123630952D01*
X87904761Y-125178571D02*
X88619047Y-126130952D01*
X88619047Y-124464286D02*
X87666666Y-125416667D01*
X89452381Y-124464286D02*
X90047619Y-126130952D01*
X90642857Y-124464286D02*
X90047619Y-126130952D01*
X89809524Y-126726190D01*
X89690476Y-126845238D01*
X89452381Y-126964286D01*
X92428571Y-124821429D02*
X92785714Y-124940476D01*
X92904762Y-125059524D01*
X93023810Y-125297619D01*
X93023810Y-125654762D01*
X92904762Y-125892857D01*
X92785714Y-126011905D01*
X92547619Y-126130952D01*
X91595238Y-126130952D01*
X91595238Y-123630952D01*
X92428571Y-123630952D01*
X92666667Y-123750000D01*
X92785714Y-123869048D01*
X92904762Y-124107143D01*
X92904762Y-124345238D01*
X92785714Y-124583333D01*
X92666667Y-124702381D01*
X92428571Y-124821429D01*
X91595238Y-124821429D01*
X94452381Y-126130952D02*
X94214286Y-126011905D01*
X94095238Y-125892857D01*
X93976190Y-125654762D01*
X93976190Y-124940476D01*
X94095238Y-124702381D01*
X94214286Y-124583333D01*
X94452381Y-124464286D01*
X94809524Y-124464286D01*
X95047619Y-124583333D01*
X95166667Y-124702381D01*
X95285714Y-124940476D01*
X95285714Y-125654762D01*
X95166667Y-125892857D01*
X95047619Y-126011905D01*
X94809524Y-126130952D01*
X94452381Y-126130952D01*
X97428572Y-126130952D02*
X97428572Y-124821429D01*
X97309524Y-124583333D01*
X97071429Y-124464286D01*
X96595238Y-124464286D01*
X96357143Y-124583333D01*
X97428572Y-126011905D02*
X97190476Y-126130952D01*
X96595238Y-126130952D01*
X96357143Y-126011905D01*
X96238095Y-125773810D01*
X96238095Y-125535714D01*
X96357143Y-125297619D01*
X96595238Y-125178571D01*
X97190476Y-125178571D01*
X97428572Y-125059524D01*
X98619048Y-126130952D02*
X98619048Y-124464286D01*
X98619048Y-124940476D02*
X98738096Y-124702381D01*
X98857143Y-124583333D01*
X99095239Y-124464286D01*
X99333334Y-124464286D01*
X101238096Y-126130952D02*
X101238096Y-123630952D01*
X101238096Y-126011905D02*
X101000000Y-126130952D01*
X100523810Y-126130952D01*
X100285715Y-126011905D01*
X100166667Y-125892857D01*
X100047619Y-125654762D01*
X100047619Y-124940476D01*
X100166667Y-124702381D01*
X100285715Y-124583333D01*
X100523810Y-124464286D01*
X101000000Y-124464286D01*
X101238096Y-124583333D01*
D12*
X52370000Y-78270000D03*
D13*
X52370000Y-75730000D03*
X54910000Y-78270000D03*
X54910000Y-75730000D03*
X57450000Y-78270000D03*
X57450000Y-75730000D03*
X59990000Y-78270000D03*
X59990000Y-75730000D03*
X62530000Y-78270000D03*
X62530000Y-75730000D03*
X65070000Y-78270000D03*
X65070000Y-75730000D03*
X67610000Y-78270000D03*
X67610000Y-75730000D03*
X70150000Y-78270000D03*
X70150000Y-75730000D03*
X72690000Y-78270000D03*
X72690000Y-75730000D03*
X75230000Y-78270000D03*
X75230000Y-75730000D03*
X77770000Y-78270000D03*
X77770000Y-75730000D03*
X80310000Y-78270000D03*
X80310000Y-75730000D03*
X82850000Y-78270000D03*
X82850000Y-75730000D03*
X85390000Y-78270000D03*
X85390000Y-75730000D03*
X87930000Y-78270000D03*
X87930000Y-75730000D03*
X90470000Y-78270000D03*
X90470000Y-75730000D03*
X93010000Y-78270000D03*
X93010000Y-75730000D03*
X95550000Y-78270000D03*
X95550000Y-75730000D03*
X98090000Y-78270000D03*
X98090000Y-75730000D03*
X100630000Y-78270000D03*
X100630000Y-75730000D03*
D14*
X105500000Y-126000000D03*
X47500000Y-126000000D03*
X47500000Y-77000000D03*
D15*
X105500000Y-77000000D03*
D16*
X48700000Y-86400000D03*
D17*
X65000000Y-89000000D03*
D18*
X65000000Y-86460000D03*
X65000000Y-83920000D03*
D15*
X47500000Y-126000000D03*
X105500000Y-126000000D03*
D14*
X105500000Y-77000000D03*
D17*
X77250000Y-99000000D03*
D19*
X79790000Y-99000000D03*
D17*
X58250000Y-118000000D03*
D19*
X60790000Y-118000000D03*
D17*
X77250000Y-118000000D03*
D19*
X79790000Y-118000000D03*
D17*
X96250000Y-118000000D03*
D19*
X98790000Y-118000000D03*
D20*
X81040000Y-88920000D03*
X74690000Y-91460000D03*
X62040000Y-107920000D03*
X55690000Y-110460000D03*
X81040000Y-107920000D03*
X74690000Y-110460000D03*
X100040000Y-107920000D03*
X93690000Y-110460000D03*
D15*
X47500000Y-77000000D03*
D17*
X90000000Y-90250000D03*
X90000000Y-97870000D03*
X82500000Y-82500000D03*
X74880000Y-82500000D03*
X52500000Y-102000000D03*
X52500000Y-94380000D03*
X57000000Y-102000000D03*
X57000000Y-94380000D03*
X62500000Y-102000000D03*
X62500000Y-94380000D03*
X67000000Y-102000000D03*
X67000000Y-94380000D03*
M02*
