G04 #@! TF.FileFunction,Legend,Bot*
%FSLAX46Y46*%
G04 Gerber Fmt 4.6, Leading zero omitted, Abs format (unit mm)*
G04 Created by KiCad (PCBNEW 4.0.6) date 08/05/17 18:52:37*
%MOMM*%
%LPD*%
G01*
G04 APERTURE LIST*
%ADD10C,0.100000*%
%ADD11C,0.150000*%
%ADD12C,0.010000*%
%ADD13R,1.700000X1.700000*%
%ADD14O,1.700000X1.700000*%
%ADD15C,2.750000*%
%ADD16C,6.200000*%
%ADD17C,1.800000*%
%ADD18O,1.800000X1.800000*%
%ADD19R,1.800000X1.800000*%
%ADD20C,2.286000*%
G04 APERTURE END LIST*
D10*
D11*
X73976191Y-102047619D02*
X73500000Y-102047619D01*
X73500000Y-103047619D01*
X74309524Y-102571429D02*
X74642858Y-102571429D01*
X74785715Y-102047619D02*
X74309524Y-102047619D01*
X74309524Y-103047619D01*
X74785715Y-103047619D01*
X75214286Y-102047619D02*
X75214286Y-103047619D01*
X75452381Y-103047619D01*
X75595239Y-103000000D01*
X75690477Y-102904762D01*
X75738096Y-102809524D01*
X75785715Y-102619048D01*
X75785715Y-102476190D01*
X75738096Y-102285714D01*
X75690477Y-102190476D01*
X75595239Y-102095238D01*
X75452381Y-102047619D01*
X75214286Y-102047619D01*
X76166667Y-102095238D02*
X76261905Y-102047619D01*
X76452381Y-102047619D01*
X76547620Y-102095238D01*
X76595239Y-102190476D01*
X76595239Y-102238095D01*
X76547620Y-102333333D01*
X76452381Y-102380952D01*
X76309524Y-102380952D01*
X76214286Y-102428571D01*
X76166667Y-102523810D01*
X76166667Y-102571429D01*
X76214286Y-102666667D01*
X76309524Y-102714286D01*
X76452381Y-102714286D01*
X76547620Y-102666667D01*
X78309525Y-103000000D02*
X78214287Y-103047619D01*
X78071430Y-103047619D01*
X77928572Y-103000000D01*
X77833334Y-102904762D01*
X77785715Y-102809524D01*
X77738096Y-102619048D01*
X77738096Y-102476190D01*
X77785715Y-102285714D01*
X77833334Y-102190476D01*
X77928572Y-102095238D01*
X78071430Y-102047619D01*
X78166668Y-102047619D01*
X78309525Y-102095238D01*
X78357144Y-102142857D01*
X78357144Y-102476190D01*
X78166668Y-102476190D01*
X78785715Y-102047619D02*
X78785715Y-103047619D01*
X79166668Y-103047619D01*
X79261906Y-103000000D01*
X79309525Y-102952381D01*
X79357144Y-102857143D01*
X79357144Y-102714286D01*
X79309525Y-102619048D01*
X79261906Y-102571429D01*
X79166668Y-102523810D01*
X78785715Y-102523810D01*
X79785715Y-102047619D02*
X79785715Y-103047619D01*
X80452381Y-103047619D02*
X80642858Y-103047619D01*
X80738096Y-103000000D01*
X80833334Y-102904762D01*
X80880953Y-102714286D01*
X80880953Y-102380952D01*
X80833334Y-102190476D01*
X80738096Y-102095238D01*
X80642858Y-102047619D01*
X80452381Y-102047619D01*
X80357143Y-102095238D01*
X80261905Y-102190476D01*
X80214286Y-102380952D01*
X80214286Y-102714286D01*
X80261905Y-102904762D01*
X80357143Y-103000000D01*
X80452381Y-103047619D01*
X82595239Y-102047619D02*
X82023810Y-102047619D01*
X82309524Y-102047619D02*
X82309524Y-103047619D01*
X82214286Y-102904762D01*
X82119048Y-102809524D01*
X82023810Y-102761905D01*
X83547620Y-102047619D02*
X82976191Y-102047619D01*
X83261905Y-102047619D02*
X83261905Y-103047619D01*
X83166667Y-102904762D01*
X83071429Y-102809524D01*
X82976191Y-102761905D01*
X95166667Y-105500000D02*
X95071429Y-105547619D01*
X94928572Y-105547619D01*
X94785714Y-105500000D01*
X94690476Y-105404762D01*
X94642857Y-105309524D01*
X94595238Y-105119048D01*
X94595238Y-104976190D01*
X94642857Y-104785714D01*
X94690476Y-104690476D01*
X94785714Y-104595238D01*
X94928572Y-104547619D01*
X95023810Y-104547619D01*
X95166667Y-104595238D01*
X95214286Y-104642857D01*
X95214286Y-104976190D01*
X95023810Y-104976190D01*
X95642857Y-104547619D02*
X95642857Y-105547619D01*
X96023810Y-105547619D01*
X96119048Y-105500000D01*
X96166667Y-105452381D01*
X96214286Y-105357143D01*
X96214286Y-105214286D01*
X96166667Y-105119048D01*
X96119048Y-105071429D01*
X96023810Y-105023810D01*
X95642857Y-105023810D01*
X96642857Y-104547619D02*
X96642857Y-105547619D01*
X97309523Y-105547619D02*
X97500000Y-105547619D01*
X97595238Y-105500000D01*
X97690476Y-105404762D01*
X97738095Y-105214286D01*
X97738095Y-104880952D01*
X97690476Y-104690476D01*
X97595238Y-104595238D01*
X97500000Y-104547619D01*
X97309523Y-104547619D01*
X97214285Y-104595238D01*
X97119047Y-104690476D01*
X97071428Y-104880952D01*
X97071428Y-105214286D01*
X97119047Y-105404762D01*
X97214285Y-105500000D01*
X97309523Y-105547619D01*
X99452381Y-104547619D02*
X98880952Y-104547619D01*
X99166666Y-104547619D02*
X99166666Y-105547619D01*
X99071428Y-105404762D01*
X98976190Y-105309524D01*
X98880952Y-105261905D01*
X100309524Y-105547619D02*
X100119047Y-105547619D01*
X100023809Y-105500000D01*
X99976190Y-105452381D01*
X99880952Y-105309524D01*
X99833333Y-105119048D01*
X99833333Y-104738095D01*
X99880952Y-104642857D01*
X99928571Y-104595238D01*
X100023809Y-104547619D01*
X100214286Y-104547619D01*
X100309524Y-104595238D01*
X100357143Y-104642857D01*
X100404762Y-104738095D01*
X100404762Y-104976190D01*
X100357143Y-105071429D01*
X100309524Y-105119048D01*
X100214286Y-105166667D01*
X100023809Y-105166667D01*
X99928571Y-105119048D01*
X99880952Y-105071429D01*
X99833333Y-104976190D01*
X76166667Y-105500000D02*
X76071429Y-105547619D01*
X75928572Y-105547619D01*
X75785714Y-105500000D01*
X75690476Y-105404762D01*
X75642857Y-105309524D01*
X75595238Y-105119048D01*
X75595238Y-104976190D01*
X75642857Y-104785714D01*
X75690476Y-104690476D01*
X75785714Y-104595238D01*
X75928572Y-104547619D01*
X76023810Y-104547619D01*
X76166667Y-104595238D01*
X76214286Y-104642857D01*
X76214286Y-104976190D01*
X76023810Y-104976190D01*
X76642857Y-104547619D02*
X76642857Y-105547619D01*
X77023810Y-105547619D01*
X77119048Y-105500000D01*
X77166667Y-105452381D01*
X77214286Y-105357143D01*
X77214286Y-105214286D01*
X77166667Y-105119048D01*
X77119048Y-105071429D01*
X77023810Y-105023810D01*
X76642857Y-105023810D01*
X77642857Y-104547619D02*
X77642857Y-105547619D01*
X78309523Y-105547619D02*
X78500000Y-105547619D01*
X78595238Y-105500000D01*
X78690476Y-105404762D01*
X78738095Y-105214286D01*
X78738095Y-104880952D01*
X78690476Y-104690476D01*
X78595238Y-104595238D01*
X78500000Y-104547619D01*
X78309523Y-104547619D01*
X78214285Y-104595238D01*
X78119047Y-104690476D01*
X78071428Y-104880952D01*
X78071428Y-105214286D01*
X78119047Y-105404762D01*
X78214285Y-105500000D01*
X78309523Y-105547619D01*
X80452381Y-104547619D02*
X79880952Y-104547619D01*
X80166666Y-104547619D02*
X80166666Y-105547619D01*
X80071428Y-105404762D01*
X79976190Y-105309524D01*
X79880952Y-105261905D01*
X81357143Y-105547619D02*
X80880952Y-105547619D01*
X80833333Y-105071429D01*
X80880952Y-105119048D01*
X80976190Y-105166667D01*
X81214286Y-105166667D01*
X81309524Y-105119048D01*
X81357143Y-105071429D01*
X81404762Y-104976190D01*
X81404762Y-104738095D01*
X81357143Y-104642857D01*
X81309524Y-104595238D01*
X81214286Y-104547619D01*
X80976190Y-104547619D01*
X80880952Y-104595238D01*
X80833333Y-104642857D01*
X57166667Y-105500000D02*
X57071429Y-105547619D01*
X56928572Y-105547619D01*
X56785714Y-105500000D01*
X56690476Y-105404762D01*
X56642857Y-105309524D01*
X56595238Y-105119048D01*
X56595238Y-104976190D01*
X56642857Y-104785714D01*
X56690476Y-104690476D01*
X56785714Y-104595238D01*
X56928572Y-104547619D01*
X57023810Y-104547619D01*
X57166667Y-104595238D01*
X57214286Y-104642857D01*
X57214286Y-104976190D01*
X57023810Y-104976190D01*
X57642857Y-104547619D02*
X57642857Y-105547619D01*
X58023810Y-105547619D01*
X58119048Y-105500000D01*
X58166667Y-105452381D01*
X58214286Y-105357143D01*
X58214286Y-105214286D01*
X58166667Y-105119048D01*
X58119048Y-105071429D01*
X58023810Y-105023810D01*
X57642857Y-105023810D01*
X58642857Y-104547619D02*
X58642857Y-105547619D01*
X59309523Y-105547619D02*
X59500000Y-105547619D01*
X59595238Y-105500000D01*
X59690476Y-105404762D01*
X59738095Y-105214286D01*
X59738095Y-104880952D01*
X59690476Y-104690476D01*
X59595238Y-104595238D01*
X59500000Y-104547619D01*
X59309523Y-104547619D01*
X59214285Y-104595238D01*
X59119047Y-104690476D01*
X59071428Y-104880952D01*
X59071428Y-105214286D01*
X59119047Y-105404762D01*
X59214285Y-105500000D01*
X59309523Y-105547619D01*
X61452381Y-104547619D02*
X60880952Y-104547619D01*
X61166666Y-104547619D02*
X61166666Y-105547619D01*
X61071428Y-105404762D01*
X60976190Y-105309524D01*
X60880952Y-105261905D01*
X61785714Y-105547619D02*
X62404762Y-105547619D01*
X62071428Y-105166667D01*
X62214286Y-105166667D01*
X62309524Y-105119048D01*
X62357143Y-105071429D01*
X62404762Y-104976190D01*
X62404762Y-104738095D01*
X62357143Y-104642857D01*
X62309524Y-104595238D01*
X62214286Y-104547619D01*
X61928571Y-104547619D01*
X61833333Y-104595238D01*
X61785714Y-104642857D01*
X76166667Y-86500000D02*
X76071429Y-86547619D01*
X75928572Y-86547619D01*
X75785714Y-86500000D01*
X75690476Y-86404762D01*
X75642857Y-86309524D01*
X75595238Y-86119048D01*
X75595238Y-85976190D01*
X75642857Y-85785714D01*
X75690476Y-85690476D01*
X75785714Y-85595238D01*
X75928572Y-85547619D01*
X76023810Y-85547619D01*
X76166667Y-85595238D01*
X76214286Y-85642857D01*
X76214286Y-85976190D01*
X76023810Y-85976190D01*
X76642857Y-85547619D02*
X76642857Y-86547619D01*
X77023810Y-86547619D01*
X77119048Y-86500000D01*
X77166667Y-86452381D01*
X77214286Y-86357143D01*
X77214286Y-86214286D01*
X77166667Y-86119048D01*
X77119048Y-86071429D01*
X77023810Y-86023810D01*
X76642857Y-86023810D01*
X77642857Y-85547619D02*
X77642857Y-86547619D01*
X78309523Y-86547619D02*
X78500000Y-86547619D01*
X78595238Y-86500000D01*
X78690476Y-86404762D01*
X78738095Y-86214286D01*
X78738095Y-85880952D01*
X78690476Y-85690476D01*
X78595238Y-85595238D01*
X78500000Y-85547619D01*
X78309523Y-85547619D01*
X78214285Y-85595238D01*
X78119047Y-85690476D01*
X78071428Y-85880952D01*
X78071428Y-86214286D01*
X78119047Y-86404762D01*
X78214285Y-86500000D01*
X78309523Y-86547619D01*
X80452381Y-85547619D02*
X79880952Y-85547619D01*
X80166666Y-85547619D02*
X80166666Y-86547619D01*
X80071428Y-86404762D01*
X79976190Y-86309524D01*
X79880952Y-86261905D01*
X80833333Y-86452381D02*
X80880952Y-86500000D01*
X80976190Y-86547619D01*
X81214286Y-86547619D01*
X81309524Y-86500000D01*
X81357143Y-86452381D01*
X81404762Y-86357143D01*
X81404762Y-86261905D01*
X81357143Y-86119048D01*
X80785714Y-85547619D01*
X81404762Y-85547619D01*
X92761904Y-82547619D02*
X92761904Y-83547619D01*
X92761904Y-82595238D02*
X92666666Y-82547619D01*
X92476189Y-82547619D01*
X92380951Y-82595238D01*
X92333332Y-82642857D01*
X92285713Y-82738095D01*
X92285713Y-83023810D01*
X92333332Y-83119048D01*
X92380951Y-83166667D01*
X92476189Y-83214286D01*
X92666666Y-83214286D01*
X92761904Y-83166667D01*
X93619047Y-82595238D02*
X93523809Y-82547619D01*
X93333332Y-82547619D01*
X93238094Y-82595238D01*
X93190475Y-82690476D01*
X93190475Y-83071429D01*
X93238094Y-83166667D01*
X93333332Y-83214286D01*
X93523809Y-83214286D01*
X93619047Y-83166667D01*
X93666666Y-83071429D01*
X93666666Y-82976190D01*
X93190475Y-82880952D01*
X94047618Y-82595238D02*
X94142856Y-82547619D01*
X94333332Y-82547619D01*
X94428571Y-82595238D01*
X94476190Y-82690476D01*
X94476190Y-82738095D01*
X94428571Y-82833333D01*
X94333332Y-82880952D01*
X94190475Y-82880952D01*
X94095237Y-82928571D01*
X94047618Y-83023810D01*
X94047618Y-83071429D01*
X94095237Y-83166667D01*
X94190475Y-83214286D01*
X94333332Y-83214286D01*
X94428571Y-83166667D01*
X94904761Y-82547619D02*
X94904761Y-83214286D01*
X94904761Y-83547619D02*
X94857142Y-83500000D01*
X94904761Y-83452381D01*
X94952380Y-83500000D01*
X94904761Y-83547619D01*
X94904761Y-83452381D01*
X95809523Y-83214286D02*
X95809523Y-82404762D01*
X95761904Y-82309524D01*
X95714285Y-82261905D01*
X95619046Y-82214286D01*
X95476189Y-82214286D01*
X95380951Y-82261905D01*
X95809523Y-82595238D02*
X95714285Y-82547619D01*
X95523808Y-82547619D01*
X95428570Y-82595238D01*
X95380951Y-82642857D01*
X95333332Y-82738095D01*
X95333332Y-83023810D01*
X95380951Y-83119048D01*
X95428570Y-83166667D01*
X95523808Y-83214286D01*
X95714285Y-83214286D01*
X95809523Y-83166667D01*
X96285713Y-83214286D02*
X96285713Y-82547619D01*
X96285713Y-83119048D02*
X96333332Y-83166667D01*
X96428570Y-83214286D01*
X96571428Y-83214286D01*
X96666666Y-83166667D01*
X96714285Y-83071429D01*
X96714285Y-82547619D01*
X97952380Y-82547619D02*
X97952380Y-83547619D01*
X97952380Y-83166667D02*
X98047618Y-83214286D01*
X98238095Y-83214286D01*
X98333333Y-83166667D01*
X98380952Y-83119048D01*
X98428571Y-83023810D01*
X98428571Y-82738095D01*
X98380952Y-82642857D01*
X98333333Y-82595238D01*
X98238095Y-82547619D01*
X98047618Y-82547619D01*
X97952380Y-82595238D01*
X98761904Y-83214286D02*
X98999999Y-82547619D01*
X99238095Y-83214286D02*
X98999999Y-82547619D01*
X98904761Y-82309524D01*
X98857142Y-82261905D01*
X98761904Y-82214286D01*
X100666667Y-83547619D02*
X100666667Y-82833333D01*
X100619047Y-82690476D01*
X100523809Y-82595238D01*
X100380952Y-82547619D01*
X100285714Y-82547619D01*
X101571429Y-82547619D02*
X101571429Y-83071429D01*
X101523810Y-83166667D01*
X101428572Y-83214286D01*
X101238095Y-83214286D01*
X101142857Y-83166667D01*
X101571429Y-82595238D02*
X101476191Y-82547619D01*
X101238095Y-82547619D01*
X101142857Y-82595238D01*
X101095238Y-82690476D01*
X101095238Y-82785714D01*
X101142857Y-82880952D01*
X101238095Y-82928571D01*
X101476191Y-82928571D01*
X101571429Y-82976190D01*
X102476191Y-82595238D02*
X102380953Y-82547619D01*
X102190476Y-82547619D01*
X102095238Y-82595238D01*
X102047619Y-82642857D01*
X102000000Y-82738095D01*
X102000000Y-83023810D01*
X102047619Y-83119048D01*
X102095238Y-83166667D01*
X102190476Y-83214286D01*
X102380953Y-83214286D01*
X102476191Y-83166667D01*
X102904762Y-82547619D02*
X102904762Y-83547619D01*
X103000000Y-82928571D02*
X103285715Y-82547619D01*
X103285715Y-83214286D02*
X102904762Y-82833333D01*
X104476191Y-82547619D02*
X104476191Y-83547619D01*
X105047620Y-82547619D02*
X104619048Y-83119048D01*
X105047620Y-83547619D02*
X104476191Y-82976190D01*
X105857144Y-82595238D02*
X105761906Y-82547619D01*
X105571429Y-82547619D01*
X105476191Y-82595238D01*
X105428572Y-82690476D01*
X105428572Y-83071429D01*
X105476191Y-83166667D01*
X105571429Y-83214286D01*
X105761906Y-83214286D01*
X105857144Y-83166667D01*
X105904763Y-83071429D01*
X105904763Y-82976190D01*
X105428572Y-82880952D01*
X106476191Y-82547619D02*
X106380953Y-82595238D01*
X106333334Y-82690476D01*
X106333334Y-83547619D01*
X107000001Y-82547619D02*
X106904763Y-82595238D01*
X106857144Y-82690476D01*
X106857144Y-83547619D01*
X107285716Y-83214286D02*
X107523811Y-82547619D01*
X107761907Y-83214286D02*
X107523811Y-82547619D01*
X107428573Y-82309524D01*
X107380954Y-82261905D01*
X107285716Y-82214286D01*
X94485715Y-84464286D02*
X94428572Y-84392857D01*
X94257143Y-84321429D01*
X94142857Y-84321429D01*
X93971429Y-84392857D01*
X93857143Y-84535714D01*
X93800000Y-84678571D01*
X93742857Y-84964286D01*
X93742857Y-85178571D01*
X93800000Y-85464286D01*
X93857143Y-85607143D01*
X93971429Y-85750000D01*
X94142857Y-85821429D01*
X94257143Y-85821429D01*
X94428572Y-85750000D01*
X94485715Y-85678571D01*
X95685715Y-84464286D02*
X95628572Y-84392857D01*
X95457143Y-84321429D01*
X95342857Y-84321429D01*
X95171429Y-84392857D01*
X95057143Y-84535714D01*
X95000000Y-84678571D01*
X94942857Y-84964286D01*
X94942857Y-85178571D01*
X95000000Y-85464286D01*
X95057143Y-85607143D01*
X95171429Y-85750000D01*
X95342857Y-85821429D01*
X95457143Y-85821429D01*
X95628572Y-85750000D01*
X95685715Y-85678571D01*
X97514286Y-85107143D02*
X97685715Y-85035714D01*
X97742858Y-84964286D01*
X97800001Y-84821429D01*
X97800001Y-84607143D01*
X97742858Y-84464286D01*
X97685715Y-84392857D01*
X97571429Y-84321429D01*
X97114286Y-84321429D01*
X97114286Y-85821429D01*
X97514286Y-85821429D01*
X97628572Y-85750000D01*
X97685715Y-85678571D01*
X97742858Y-85535714D01*
X97742858Y-85392857D01*
X97685715Y-85250000D01*
X97628572Y-85178571D01*
X97514286Y-85107143D01*
X97114286Y-85107143D01*
X98542858Y-85035714D02*
X98542858Y-84321429D01*
X98142858Y-85821429D02*
X98542858Y-85035714D01*
X98942858Y-85821429D01*
X99342857Y-84892857D02*
X100257143Y-84892857D01*
X100771428Y-84392857D02*
X100942857Y-84321429D01*
X101228571Y-84321429D01*
X101342857Y-84392857D01*
X101400000Y-84464286D01*
X101457143Y-84607143D01*
X101457143Y-84750000D01*
X101400000Y-84892857D01*
X101342857Y-84964286D01*
X101228571Y-85035714D01*
X101000000Y-85107143D01*
X100885714Y-85178571D01*
X100828571Y-85250000D01*
X100771428Y-85392857D01*
X100771428Y-85535714D01*
X100828571Y-85678571D01*
X100885714Y-85750000D01*
X101000000Y-85821429D01*
X101285714Y-85821429D01*
X101457143Y-85750000D01*
X101914285Y-84750000D02*
X102485714Y-84750000D01*
X101800000Y-84321429D02*
X102200000Y-85821429D01*
X102600000Y-84321429D01*
X104428571Y-85321429D02*
X104428571Y-84321429D01*
X104142857Y-85892857D02*
X103857142Y-84821429D01*
X104600000Y-84821429D01*
X105057142Y-84464286D02*
X105114285Y-84392857D01*
X105057142Y-84321429D01*
X104999999Y-84392857D01*
X105057142Y-84464286D01*
X105057142Y-84321429D01*
X105857143Y-85821429D02*
X105971428Y-85821429D01*
X106085714Y-85750000D01*
X106142857Y-85678571D01*
X106200000Y-85535714D01*
X106257143Y-85250000D01*
X106257143Y-84892857D01*
X106200000Y-84607143D01*
X106142857Y-84464286D01*
X106085714Y-84392857D01*
X105971428Y-84321429D01*
X105857143Y-84321429D01*
X105742857Y-84392857D01*
X105685714Y-84464286D01*
X105628571Y-84607143D01*
X105571428Y-84892857D01*
X105571428Y-85250000D01*
X105628571Y-85535714D01*
X105685714Y-85678571D01*
X105742857Y-85750000D01*
X105857143Y-85821429D01*
D12*
G36*
X96219909Y-92090440D02*
X96272412Y-92064501D01*
X96337158Y-92019300D01*
X96384347Y-91970009D01*
X96416665Y-91908115D01*
X96436797Y-91825104D01*
X96447430Y-91712462D01*
X96451247Y-91561676D01*
X96451470Y-91496851D01*
X96450818Y-91354779D01*
X96448112Y-91253243D01*
X96442224Y-91182985D01*
X96432027Y-91134744D01*
X96416394Y-91099262D01*
X96400128Y-91075057D01*
X96296295Y-90972071D01*
X96174021Y-90910126D01*
X96042114Y-90891494D01*
X95909384Y-90918451D01*
X95867333Y-90937514D01*
X95766666Y-90989985D01*
X95766666Y-90167741D01*
X95840135Y-90205733D01*
X95936941Y-90235128D01*
X96055928Y-90242658D01*
X96174745Y-90228755D01*
X96264473Y-90197524D01*
X96338899Y-90138046D01*
X96402490Y-90052934D01*
X96407271Y-90044195D01*
X96427437Y-90003034D01*
X96442165Y-89961546D01*
X96452303Y-89911287D01*
X96458699Y-89843816D01*
X96462201Y-89750691D01*
X96463658Y-89623469D01*
X96463921Y-89480299D01*
X96463921Y-89023529D01*
X96190000Y-89023529D01*
X96190000Y-89865769D01*
X96113383Y-89930237D01*
X96033793Y-89981806D01*
X95958422Y-89991182D01*
X95882633Y-89967053D01*
X95842241Y-89943426D01*
X95812179Y-89909773D01*
X95790797Y-89858913D01*
X95776450Y-89783666D01*
X95767490Y-89676854D01*
X95762270Y-89531296D01*
X95760431Y-89434412D01*
X95754215Y-89035980D01*
X95623480Y-89028453D01*
X95492745Y-89020927D01*
X95492745Y-91493418D01*
X95766666Y-91493418D01*
X95773650Y-91355577D01*
X95797182Y-91259893D01*
X95841135Y-91200359D01*
X95909382Y-91170971D01*
X95978333Y-91165098D01*
X96056386Y-91171846D01*
X96108189Y-91198406D01*
X96140583Y-91233501D01*
X96166084Y-91271248D01*
X96181265Y-91313300D01*
X96188019Y-91372221D01*
X96188241Y-91460572D01*
X96185968Y-91534552D01*
X96180749Y-91646000D01*
X96172979Y-91719167D01*
X96159895Y-91765578D01*
X96138732Y-91796756D01*
X96118760Y-91814777D01*
X96035314Y-91854075D01*
X95936551Y-91860421D01*
X95879841Y-91846884D01*
X95823692Y-91798767D01*
X95786499Y-91705167D01*
X95768472Y-91566746D01*
X95766666Y-91493418D01*
X95492745Y-91493418D01*
X95492745Y-92111372D01*
X95629705Y-92111372D01*
X95711935Y-92108121D01*
X95754360Y-92096574D01*
X95766661Y-92074048D01*
X95766666Y-92073380D01*
X95772374Y-92051319D01*
X95797547Y-92053824D01*
X95847598Y-92078065D01*
X95964219Y-92115149D01*
X96095429Y-92119047D01*
X96219909Y-92090440D01*
X96219909Y-92090440D01*
G37*
X96219909Y-92090440D02*
X96272412Y-92064501D01*
X96337158Y-92019300D01*
X96384347Y-91970009D01*
X96416665Y-91908115D01*
X96436797Y-91825104D01*
X96447430Y-91712462D01*
X96451247Y-91561676D01*
X96451470Y-91496851D01*
X96450818Y-91354779D01*
X96448112Y-91253243D01*
X96442224Y-91182985D01*
X96432027Y-91134744D01*
X96416394Y-91099262D01*
X96400128Y-91075057D01*
X96296295Y-90972071D01*
X96174021Y-90910126D01*
X96042114Y-90891494D01*
X95909384Y-90918451D01*
X95867333Y-90937514D01*
X95766666Y-90989985D01*
X95766666Y-90167741D01*
X95840135Y-90205733D01*
X95936941Y-90235128D01*
X96055928Y-90242658D01*
X96174745Y-90228755D01*
X96264473Y-90197524D01*
X96338899Y-90138046D01*
X96402490Y-90052934D01*
X96407271Y-90044195D01*
X96427437Y-90003034D01*
X96442165Y-89961546D01*
X96452303Y-89911287D01*
X96458699Y-89843816D01*
X96462201Y-89750691D01*
X96463658Y-89623469D01*
X96463921Y-89480299D01*
X96463921Y-89023529D01*
X96190000Y-89023529D01*
X96190000Y-89865769D01*
X96113383Y-89930237D01*
X96033793Y-89981806D01*
X95958422Y-89991182D01*
X95882633Y-89967053D01*
X95842241Y-89943426D01*
X95812179Y-89909773D01*
X95790797Y-89858913D01*
X95776450Y-89783666D01*
X95767490Y-89676854D01*
X95762270Y-89531296D01*
X95760431Y-89434412D01*
X95754215Y-89035980D01*
X95623480Y-89028453D01*
X95492745Y-89020927D01*
X95492745Y-91493418D01*
X95766666Y-91493418D01*
X95773650Y-91355577D01*
X95797182Y-91259893D01*
X95841135Y-91200359D01*
X95909382Y-91170971D01*
X95978333Y-91165098D01*
X96056386Y-91171846D01*
X96108189Y-91198406D01*
X96140583Y-91233501D01*
X96166084Y-91271248D01*
X96181265Y-91313300D01*
X96188019Y-91372221D01*
X96188241Y-91460572D01*
X96185968Y-91534552D01*
X96180749Y-91646000D01*
X96172979Y-91719167D01*
X96159895Y-91765578D01*
X96138732Y-91796756D01*
X96118760Y-91814777D01*
X96035314Y-91854075D01*
X95936551Y-91860421D01*
X95879841Y-91846884D01*
X95823692Y-91798767D01*
X95786499Y-91705167D01*
X95768472Y-91566746D01*
X95766666Y-91493418D01*
X95492745Y-91493418D01*
X95492745Y-92111372D01*
X95629705Y-92111372D01*
X95711935Y-92108121D01*
X95754360Y-92096574D01*
X95766661Y-92074048D01*
X95766666Y-92073380D01*
X95772374Y-92051319D01*
X95797547Y-92053824D01*
X95847598Y-92078065D01*
X95964219Y-92115149D01*
X96095429Y-92119047D01*
X96219909Y-92090440D01*
G36*
X97258720Y-90234078D02*
X97375870Y-90202820D01*
X97465051Y-90146163D01*
X97527984Y-90071955D01*
X97547548Y-90040284D01*
X97561992Y-90007109D01*
X97572089Y-89964671D01*
X97578615Y-89905212D01*
X97582342Y-89820971D01*
X97584046Y-89704190D01*
X97584500Y-89547110D01*
X97584509Y-89505435D01*
X97584509Y-89023529D01*
X97464980Y-89023529D01*
X97388739Y-89028869D01*
X97332366Y-89042396D01*
X97318242Y-89050738D01*
X97279630Y-89065136D01*
X97240192Y-89050738D01*
X97175262Y-89032763D01*
X97080945Y-89025528D01*
X96976407Y-89028667D01*
X96880811Y-89041814D01*
X96825000Y-89058682D01*
X96716998Y-89128014D01*
X96649503Y-89224228D01*
X96619159Y-89352156D01*
X96618877Y-89355441D01*
X96621540Y-89412192D01*
X96862353Y-89412192D01*
X96883405Y-89347642D01*
X96917697Y-89311314D01*
X96986532Y-89283838D01*
X97077390Y-89272871D01*
X97170042Y-89278269D01*
X97244256Y-89299890D01*
X97265049Y-89313761D01*
X97301381Y-89377857D01*
X97310588Y-89450722D01*
X97310588Y-89546470D01*
X97172827Y-89546470D01*
X97041953Y-89536395D01*
X96942741Y-89507852D01*
X96881023Y-89463361D01*
X96862353Y-89412192D01*
X96621540Y-89412192D01*
X96625436Y-89495210D01*
X96671534Y-89605718D01*
X96758200Y-89689288D01*
X96770179Y-89696890D01*
X96821655Y-89721643D01*
X96885368Y-89736632D01*
X96974435Y-89743918D01*
X97080245Y-89745593D01*
X97310588Y-89745686D01*
X97310588Y-89842245D01*
X97300817Y-89917164D01*
X97275884Y-89967356D01*
X97272965Y-89970028D01*
X97217481Y-89991985D01*
X97133727Y-90000495D01*
X97041167Y-89996313D01*
X96959270Y-89980191D01*
X96910673Y-89956010D01*
X96884341Y-89936641D01*
X96856535Y-89932943D01*
X96818161Y-89948812D01*
X96760125Y-89988145D01*
X96673331Y-90054836D01*
X96665365Y-90061084D01*
X96669447Y-90084200D01*
X96703501Y-90122648D01*
X96755260Y-90165373D01*
X96812455Y-90201321D01*
X96830425Y-90209809D01*
X96895972Y-90226748D01*
X96992020Y-90238830D01*
X97099329Y-90243677D01*
X97104347Y-90243687D01*
X97258720Y-90234078D01*
X97258720Y-90234078D01*
G37*
X97258720Y-90234078D02*
X97375870Y-90202820D01*
X97465051Y-90146163D01*
X97527984Y-90071955D01*
X97547548Y-90040284D01*
X97561992Y-90007109D01*
X97572089Y-89964671D01*
X97578615Y-89905212D01*
X97582342Y-89820971D01*
X97584046Y-89704190D01*
X97584500Y-89547110D01*
X97584509Y-89505435D01*
X97584509Y-89023529D01*
X97464980Y-89023529D01*
X97388739Y-89028869D01*
X97332366Y-89042396D01*
X97318242Y-89050738D01*
X97279630Y-89065136D01*
X97240192Y-89050738D01*
X97175262Y-89032763D01*
X97080945Y-89025528D01*
X96976407Y-89028667D01*
X96880811Y-89041814D01*
X96825000Y-89058682D01*
X96716998Y-89128014D01*
X96649503Y-89224228D01*
X96619159Y-89352156D01*
X96618877Y-89355441D01*
X96621540Y-89412192D01*
X96862353Y-89412192D01*
X96883405Y-89347642D01*
X96917697Y-89311314D01*
X96986532Y-89283838D01*
X97077390Y-89272871D01*
X97170042Y-89278269D01*
X97244256Y-89299890D01*
X97265049Y-89313761D01*
X97301381Y-89377857D01*
X97310588Y-89450722D01*
X97310588Y-89546470D01*
X97172827Y-89546470D01*
X97041953Y-89536395D01*
X96942741Y-89507852D01*
X96881023Y-89463361D01*
X96862353Y-89412192D01*
X96621540Y-89412192D01*
X96625436Y-89495210D01*
X96671534Y-89605718D01*
X96758200Y-89689288D01*
X96770179Y-89696890D01*
X96821655Y-89721643D01*
X96885368Y-89736632D01*
X96974435Y-89743918D01*
X97080245Y-89745593D01*
X97310588Y-89745686D01*
X97310588Y-89842245D01*
X97300817Y-89917164D01*
X97275884Y-89967356D01*
X97272965Y-89970028D01*
X97217481Y-89991985D01*
X97133727Y-90000495D01*
X97041167Y-89996313D01*
X96959270Y-89980191D01*
X96910673Y-89956010D01*
X96884341Y-89936641D01*
X96856535Y-89932943D01*
X96818161Y-89948812D01*
X96760125Y-89988145D01*
X96673331Y-90054836D01*
X96665365Y-90061084D01*
X96669447Y-90084200D01*
X96703501Y-90122648D01*
X96755260Y-90165373D01*
X96812455Y-90201321D01*
X96830425Y-90209809D01*
X96895972Y-90226748D01*
X96992020Y-90238830D01*
X97099329Y-90243677D01*
X97104347Y-90243687D01*
X97258720Y-90234078D01*
G36*
X98032764Y-90241079D02*
X98070030Y-90229909D01*
X98082043Y-90205367D01*
X98082549Y-90194288D01*
X98084704Y-90163428D01*
X98099551Y-90158583D01*
X98139657Y-90179740D01*
X98163480Y-90194194D01*
X98238638Y-90225150D01*
X98328406Y-90240456D01*
X98422529Y-90241633D01*
X98510754Y-90230201D01*
X98582826Y-90207680D01*
X98628492Y-90175591D01*
X98637498Y-90135455D01*
X98632953Y-90124585D01*
X98599821Y-90079466D01*
X98548445Y-90023974D01*
X98539152Y-90015004D01*
X98490182Y-89973755D01*
X98447931Y-89960428D01*
X98388841Y-89969729D01*
X98365169Y-89975910D01*
X98291504Y-89990754D01*
X98239710Y-89984079D01*
X98195969Y-89960535D01*
X98155902Y-89928939D01*
X98126392Y-89889202D01*
X98105884Y-89833748D01*
X98092824Y-89754997D01*
X98085656Y-89645371D01*
X98082824Y-89497294D01*
X98082549Y-89407889D01*
X98082549Y-89023529D01*
X97833529Y-89023529D01*
X97833529Y-90243725D01*
X97958039Y-90243725D01*
X98032764Y-90241079D01*
X98032764Y-90241079D01*
G37*
X98032764Y-90241079D02*
X98070030Y-90229909D01*
X98082043Y-90205367D01*
X98082549Y-90194288D01*
X98084704Y-90163428D01*
X98099551Y-90158583D01*
X98139657Y-90179740D01*
X98163480Y-90194194D01*
X98238638Y-90225150D01*
X98328406Y-90240456D01*
X98422529Y-90241633D01*
X98510754Y-90230201D01*
X98582826Y-90207680D01*
X98628492Y-90175591D01*
X98637498Y-90135455D01*
X98632953Y-90124585D01*
X98599821Y-90079466D01*
X98548445Y-90023974D01*
X98539152Y-90015004D01*
X98490182Y-89973755D01*
X98447931Y-89960428D01*
X98388841Y-89969729D01*
X98365169Y-89975910D01*
X98291504Y-89990754D01*
X98239710Y-89984079D01*
X98195969Y-89960535D01*
X98155902Y-89928939D01*
X98126392Y-89889202D01*
X98105884Y-89833748D01*
X98092824Y-89754997D01*
X98085656Y-89645371D01*
X98082824Y-89497294D01*
X98082549Y-89407889D01*
X98082549Y-89023529D01*
X97833529Y-89023529D01*
X97833529Y-90243725D01*
X97958039Y-90243725D01*
X98032764Y-90241079D01*
G36*
X99601568Y-89023529D02*
X99464607Y-89023529D01*
X99385111Y-89025860D01*
X99343708Y-89035512D01*
X99328801Y-89056475D01*
X99327647Y-89070649D01*
X99325133Y-89099073D01*
X99309280Y-89104525D01*
X99267621Y-89087002D01*
X99235224Y-89070649D01*
X99110849Y-89031897D01*
X98975646Y-89029654D01*
X98865726Y-89058556D01*
X98763366Y-89128381D01*
X98685340Y-89231445D01*
X98642614Y-89353011D01*
X98641526Y-89359808D01*
X98635178Y-89433968D01*
X98632021Y-89540430D01*
X98632275Y-89620948D01*
X98904289Y-89620948D01*
X98910590Y-89513930D01*
X98924925Y-89425722D01*
X98944331Y-89375910D01*
X99017746Y-89307838D01*
X99104914Y-89283436D01*
X99194804Y-89303169D01*
X99271617Y-89362032D01*
X99300708Y-89401621D01*
X99317717Y-89448862D01*
X99325684Y-89517819D01*
X99327647Y-89621393D01*
X99324134Y-89723961D01*
X99314857Y-89814079D01*
X99301706Y-89874387D01*
X99299514Y-89879792D01*
X99246478Y-89944060D01*
X99169067Y-89979344D01*
X99082454Y-89985041D01*
X99001807Y-89960547D01*
X98942297Y-89905258D01*
X98936124Y-89894257D01*
X98916801Y-89827173D01*
X98906274Y-89730716D01*
X98904289Y-89620948D01*
X98632275Y-89620948D01*
X98632404Y-89661775D01*
X98634194Y-89727082D01*
X98646373Y-89888645D01*
X98671685Y-90009947D01*
X98713793Y-90099621D01*
X98776359Y-90166301D01*
X98837100Y-90205443D01*
X98921964Y-90232960D01*
X99027515Y-90242397D01*
X99135598Y-90234710D01*
X99228058Y-90210854D01*
X99276910Y-90182315D01*
X99327647Y-90136399D01*
X99327647Y-90716863D01*
X99601568Y-90716863D01*
X99601568Y-89023529D01*
X99601568Y-89023529D01*
G37*
X99601568Y-89023529D02*
X99464607Y-89023529D01*
X99385111Y-89025860D01*
X99343708Y-89035512D01*
X99328801Y-89056475D01*
X99327647Y-89070649D01*
X99325133Y-89099073D01*
X99309280Y-89104525D01*
X99267621Y-89087002D01*
X99235224Y-89070649D01*
X99110849Y-89031897D01*
X98975646Y-89029654D01*
X98865726Y-89058556D01*
X98763366Y-89128381D01*
X98685340Y-89231445D01*
X98642614Y-89353011D01*
X98641526Y-89359808D01*
X98635178Y-89433968D01*
X98632021Y-89540430D01*
X98632275Y-89620948D01*
X98904289Y-89620948D01*
X98910590Y-89513930D01*
X98924925Y-89425722D01*
X98944331Y-89375910D01*
X99017746Y-89307838D01*
X99104914Y-89283436D01*
X99194804Y-89303169D01*
X99271617Y-89362032D01*
X99300708Y-89401621D01*
X99317717Y-89448862D01*
X99325684Y-89517819D01*
X99327647Y-89621393D01*
X99324134Y-89723961D01*
X99314857Y-89814079D01*
X99301706Y-89874387D01*
X99299514Y-89879792D01*
X99246478Y-89944060D01*
X99169067Y-89979344D01*
X99082454Y-89985041D01*
X99001807Y-89960547D01*
X98942297Y-89905258D01*
X98936124Y-89894257D01*
X98916801Y-89827173D01*
X98906274Y-89730716D01*
X98904289Y-89620948D01*
X98632275Y-89620948D01*
X98632404Y-89661775D01*
X98634194Y-89727082D01*
X98646373Y-89888645D01*
X98671685Y-90009947D01*
X98713793Y-90099621D01*
X98776359Y-90166301D01*
X98837100Y-90205443D01*
X98921964Y-90232960D01*
X99027515Y-90242397D01*
X99135598Y-90234710D01*
X99228058Y-90210854D01*
X99276910Y-90182315D01*
X99327647Y-90136399D01*
X99327647Y-90716863D01*
X99601568Y-90716863D01*
X99601568Y-89023529D01*
G36*
X100557528Y-90238668D02*
X100656014Y-90231274D01*
X100784776Y-89845294D01*
X100913537Y-89459314D01*
X100953911Y-89596274D01*
X100978207Y-89680917D01*
X101010167Y-89795303D01*
X101044679Y-89921037D01*
X101062928Y-89988480D01*
X101131571Y-90243725D01*
X101414773Y-90243725D01*
X101330122Y-89976029D01*
X101288435Y-89844362D01*
X101238074Y-89685542D01*
X101185481Y-89519872D01*
X101138530Y-89372157D01*
X101031589Y-89035980D01*
X100800661Y-89020956D01*
X100738050Y-89227684D01*
X100699438Y-89356104D01*
X100657300Y-89497678D01*
X100620472Y-89622715D01*
X100619018Y-89627691D01*
X100591511Y-89712414D01*
X100567242Y-89770222D01*
X100550243Y-89792082D01*
X100546750Y-89789554D01*
X100534490Y-89755664D01*
X100511195Y-89683070D01*
X100479700Y-89580899D01*
X100442842Y-89458280D01*
X100422899Y-89390833D01*
X100314895Y-89023529D01*
X100085679Y-89023529D01*
X99902439Y-89602500D01*
X99850963Y-89764909D01*
X99804070Y-89912398D01*
X99763977Y-90038040D01*
X99732897Y-90134905D01*
X99713045Y-90196066D01*
X99707011Y-90213935D01*
X99711788Y-90232232D01*
X99749297Y-90240245D01*
X99827355Y-90239443D01*
X99839574Y-90238837D01*
X99984326Y-90231274D01*
X100079130Y-89882647D01*
X100113977Y-89755503D01*
X100145117Y-89643735D01*
X100169809Y-89557047D01*
X100185312Y-89505144D01*
X100188176Y-89496682D01*
X100200046Y-89506413D01*
X100223983Y-89556828D01*
X100257239Y-89641065D01*
X100297064Y-89752259D01*
X100330730Y-89852703D01*
X100459041Y-90246061D01*
X100557528Y-90238668D01*
X100557528Y-90238668D01*
G37*
X100557528Y-90238668D02*
X100656014Y-90231274D01*
X100784776Y-89845294D01*
X100913537Y-89459314D01*
X100953911Y-89596274D01*
X100978207Y-89680917D01*
X101010167Y-89795303D01*
X101044679Y-89921037D01*
X101062928Y-89988480D01*
X101131571Y-90243725D01*
X101414773Y-90243725D01*
X101330122Y-89976029D01*
X101288435Y-89844362D01*
X101238074Y-89685542D01*
X101185481Y-89519872D01*
X101138530Y-89372157D01*
X101031589Y-89035980D01*
X100800661Y-89020956D01*
X100738050Y-89227684D01*
X100699438Y-89356104D01*
X100657300Y-89497678D01*
X100620472Y-89622715D01*
X100619018Y-89627691D01*
X100591511Y-89712414D01*
X100567242Y-89770222D01*
X100550243Y-89792082D01*
X100546750Y-89789554D01*
X100534490Y-89755664D01*
X100511195Y-89683070D01*
X100479700Y-89580899D01*
X100442842Y-89458280D01*
X100422899Y-89390833D01*
X100314895Y-89023529D01*
X100085679Y-89023529D01*
X99902439Y-89602500D01*
X99850963Y-89764909D01*
X99804070Y-89912398D01*
X99763977Y-90038040D01*
X99732897Y-90134905D01*
X99713045Y-90196066D01*
X99707011Y-90213935D01*
X99711788Y-90232232D01*
X99749297Y-90240245D01*
X99827355Y-90239443D01*
X99839574Y-90238837D01*
X99984326Y-90231274D01*
X100079130Y-89882647D01*
X100113977Y-89755503D01*
X100145117Y-89643735D01*
X100169809Y-89557047D01*
X100185312Y-89505144D01*
X100188176Y-89496682D01*
X100200046Y-89506413D01*
X100223983Y-89556828D01*
X100257239Y-89641065D01*
X100297064Y-89752259D01*
X100330730Y-89852703D01*
X100459041Y-90246061D01*
X100557528Y-90238668D01*
G36*
X102056459Y-90236331D02*
X102161420Y-90210837D01*
X102191761Y-90197331D01*
X102250573Y-90161954D01*
X102295709Y-90122110D01*
X102329106Y-90070880D01*
X102352701Y-90001346D01*
X102368433Y-89906591D01*
X102378239Y-89779695D01*
X102384057Y-89613742D01*
X102386266Y-89502892D01*
X102394396Y-89023529D01*
X102255531Y-89023529D01*
X102171287Y-89027062D01*
X102127884Y-89039134D01*
X102116666Y-89059406D01*
X102110744Y-89081326D01*
X102084266Y-89077135D01*
X102048186Y-89059559D01*
X101957862Y-89032618D01*
X101841777Y-89025358D01*
X101719680Y-89037233D01*
X101611321Y-89067695D01*
X101601602Y-89071923D01*
X101502568Y-89141495D01*
X101437281Y-89238211D01*
X101407240Y-89351262D01*
X101409535Y-89391878D01*
X101654633Y-89391878D01*
X101676229Y-89337218D01*
X101740259Y-89298048D01*
X101843565Y-89277026D01*
X101898774Y-89274234D01*
X101990782Y-89281380D01*
X102051941Y-89309152D01*
X102066862Y-89322353D01*
X102107287Y-89394171D01*
X102116666Y-89459314D01*
X102116666Y-89546470D01*
X101995269Y-89546470D01*
X101854153Y-89539278D01*
X101755173Y-89516655D01*
X101692633Y-89477036D01*
X101678631Y-89459372D01*
X101654633Y-89391878D01*
X101409535Y-89391878D01*
X101413941Y-89469843D01*
X101458880Y-89583145D01*
X101520196Y-89659715D01*
X101557332Y-89692819D01*
X101593687Y-89714575D01*
X101640990Y-89727839D01*
X101710973Y-89735472D01*
X101815364Y-89740330D01*
X101856770Y-89741727D01*
X102116666Y-89750220D01*
X102116285Y-89828884D01*
X102106219Y-89911572D01*
X102069829Y-89961569D01*
X101996311Y-89993511D01*
X101994339Y-89994080D01*
X101890105Y-90006639D01*
X101788108Y-89990234D01*
X101712305Y-89950343D01*
X101681890Y-89930646D01*
X101649132Y-89933371D01*
X101598721Y-89961909D01*
X101569119Y-89982050D01*
X101511218Y-90025081D01*
X101475352Y-90057338D01*
X101469597Y-90066573D01*
X101493295Y-90114364D01*
X101563313Y-90171438D01*
X101593725Y-90190695D01*
X101681155Y-90223860D01*
X101798983Y-90242650D01*
X101929866Y-90246871D01*
X102056459Y-90236331D01*
X102056459Y-90236331D01*
G37*
X102056459Y-90236331D02*
X102161420Y-90210837D01*
X102191761Y-90197331D01*
X102250573Y-90161954D01*
X102295709Y-90122110D01*
X102329106Y-90070880D01*
X102352701Y-90001346D01*
X102368433Y-89906591D01*
X102378239Y-89779695D01*
X102384057Y-89613742D01*
X102386266Y-89502892D01*
X102394396Y-89023529D01*
X102255531Y-89023529D01*
X102171287Y-89027062D01*
X102127884Y-89039134D01*
X102116666Y-89059406D01*
X102110744Y-89081326D01*
X102084266Y-89077135D01*
X102048186Y-89059559D01*
X101957862Y-89032618D01*
X101841777Y-89025358D01*
X101719680Y-89037233D01*
X101611321Y-89067695D01*
X101601602Y-89071923D01*
X101502568Y-89141495D01*
X101437281Y-89238211D01*
X101407240Y-89351262D01*
X101409535Y-89391878D01*
X101654633Y-89391878D01*
X101676229Y-89337218D01*
X101740259Y-89298048D01*
X101843565Y-89277026D01*
X101898774Y-89274234D01*
X101990782Y-89281380D01*
X102051941Y-89309152D01*
X102066862Y-89322353D01*
X102107287Y-89394171D01*
X102116666Y-89459314D01*
X102116666Y-89546470D01*
X101995269Y-89546470D01*
X101854153Y-89539278D01*
X101755173Y-89516655D01*
X101692633Y-89477036D01*
X101678631Y-89459372D01*
X101654633Y-89391878D01*
X101409535Y-89391878D01*
X101413941Y-89469843D01*
X101458880Y-89583145D01*
X101520196Y-89659715D01*
X101557332Y-89692819D01*
X101593687Y-89714575D01*
X101640990Y-89727839D01*
X101710973Y-89735472D01*
X101815364Y-89740330D01*
X101856770Y-89741727D01*
X102116666Y-89750220D01*
X102116285Y-89828884D01*
X102106219Y-89911572D01*
X102069829Y-89961569D01*
X101996311Y-89993511D01*
X101994339Y-89994080D01*
X101890105Y-90006639D01*
X101788108Y-89990234D01*
X101712305Y-89950343D01*
X101681890Y-89930646D01*
X101649132Y-89933371D01*
X101598721Y-89961909D01*
X101569119Y-89982050D01*
X101511218Y-90025081D01*
X101475352Y-90057338D01*
X101469597Y-90066573D01*
X101493295Y-90114364D01*
X101563313Y-90171438D01*
X101593725Y-90190695D01*
X101681155Y-90223860D01*
X101798983Y-90242650D01*
X101929866Y-90246871D01*
X102056459Y-90236331D01*
G36*
X103238446Y-90244117D02*
X103334177Y-90225245D01*
X103388677Y-90197301D01*
X103446008Y-90150877D01*
X103364441Y-90047889D01*
X103314150Y-89985521D01*
X103280001Y-89955093D01*
X103246063Y-89950445D01*
X103196406Y-89965414D01*
X103173096Y-89973883D01*
X103078063Y-89986378D01*
X102991032Y-89959594D01*
X102927138Y-89899085D01*
X102916759Y-89879792D01*
X102905456Y-89828686D01*
X102896732Y-89734500D01*
X102890997Y-89603911D01*
X102888660Y-89443595D01*
X102888627Y-89420789D01*
X102888627Y-89023529D01*
X102614705Y-89023529D01*
X102614705Y-90243725D01*
X102751666Y-90243725D01*
X102830638Y-90241663D01*
X102871779Y-90232487D01*
X102886992Y-90211710D01*
X102888627Y-90192114D01*
X102888627Y-90140503D01*
X102954240Y-90192114D01*
X103029475Y-90227325D01*
X103130544Y-90244735D01*
X103238446Y-90244117D01*
X103238446Y-90244117D01*
G37*
X103238446Y-90244117D02*
X103334177Y-90225245D01*
X103388677Y-90197301D01*
X103446008Y-90150877D01*
X103364441Y-90047889D01*
X103314150Y-89985521D01*
X103280001Y-89955093D01*
X103246063Y-89950445D01*
X103196406Y-89965414D01*
X103173096Y-89973883D01*
X103078063Y-89986378D01*
X102991032Y-89959594D01*
X102927138Y-89899085D01*
X102916759Y-89879792D01*
X102905456Y-89828686D01*
X102896732Y-89734500D01*
X102890997Y-89603911D01*
X102888660Y-89443595D01*
X102888627Y-89420789D01*
X102888627Y-89023529D01*
X102614705Y-89023529D01*
X102614705Y-90243725D01*
X102751666Y-90243725D01*
X102830638Y-90241663D01*
X102871779Y-90232487D01*
X102886992Y-90211710D01*
X102888627Y-90192114D01*
X102888627Y-90140503D01*
X102954240Y-90192114D01*
X103029475Y-90227325D01*
X103130544Y-90244735D01*
X103238446Y-90244117D01*
G36*
X104025307Y-90237216D02*
X104144337Y-90206269D01*
X104244021Y-90142400D01*
X104292288Y-90094687D01*
X104371408Y-89981894D01*
X104416752Y-89851050D01*
X104432330Y-89690208D01*
X104432410Y-89677206D01*
X104432549Y-89546470D01*
X103680091Y-89546470D01*
X103696130Y-89477990D01*
X103725091Y-89415969D01*
X103775778Y-89351346D01*
X103786379Y-89341029D01*
X103877494Y-89285195D01*
X103981400Y-89275725D01*
X104101000Y-89312460D01*
X104121274Y-89322353D01*
X104183456Y-89352426D01*
X104225106Y-89369560D01*
X104232373Y-89371145D01*
X104257740Y-89355758D01*
X104306120Y-89318113D01*
X104330679Y-89297541D01*
X104381570Y-89250286D01*
X104398281Y-89219083D01*
X104386683Y-89190380D01*
X104380483Y-89182532D01*
X104338493Y-89148181D01*
X104269206Y-89106435D01*
X104220882Y-89082065D01*
X104083711Y-89039127D01*
X103931847Y-89025214D01*
X103788024Y-89041700D01*
X103747745Y-89053504D01*
X103623078Y-89120311D01*
X103530671Y-89223108D01*
X103469990Y-89362895D01*
X103440498Y-89540670D01*
X103437260Y-89633627D01*
X103446714Y-89768967D01*
X103685490Y-89768967D01*
X103708584Y-89758962D01*
X103770662Y-89751112D01*
X103860914Y-89746479D01*
X103922058Y-89745686D01*
X104032040Y-89746451D01*
X104101457Y-89750030D01*
X104139538Y-89758351D01*
X104155515Y-89773343D01*
X104158627Y-89795097D01*
X104137278Y-89862108D01*
X104083529Y-89928336D01*
X104012822Y-89979168D01*
X103942089Y-89999962D01*
X103846016Y-89981516D01*
X103762849Y-89928189D01*
X103705186Y-89851323D01*
X103685490Y-89768967D01*
X103446714Y-89768967D01*
X103451028Y-89830709D01*
X103493520Y-89987729D01*
X103565635Y-90105931D01*
X103668273Y-90186560D01*
X103802332Y-90230861D01*
X103874957Y-90239393D01*
X104025307Y-90237216D01*
X104025307Y-90237216D01*
G37*
X104025307Y-90237216D02*
X104144337Y-90206269D01*
X104244021Y-90142400D01*
X104292288Y-90094687D01*
X104371408Y-89981894D01*
X104416752Y-89851050D01*
X104432330Y-89690208D01*
X104432410Y-89677206D01*
X104432549Y-89546470D01*
X103680091Y-89546470D01*
X103696130Y-89477990D01*
X103725091Y-89415969D01*
X103775778Y-89351346D01*
X103786379Y-89341029D01*
X103877494Y-89285195D01*
X103981400Y-89275725D01*
X104101000Y-89312460D01*
X104121274Y-89322353D01*
X104183456Y-89352426D01*
X104225106Y-89369560D01*
X104232373Y-89371145D01*
X104257740Y-89355758D01*
X104306120Y-89318113D01*
X104330679Y-89297541D01*
X104381570Y-89250286D01*
X104398281Y-89219083D01*
X104386683Y-89190380D01*
X104380483Y-89182532D01*
X104338493Y-89148181D01*
X104269206Y-89106435D01*
X104220882Y-89082065D01*
X104083711Y-89039127D01*
X103931847Y-89025214D01*
X103788024Y-89041700D01*
X103747745Y-89053504D01*
X103623078Y-89120311D01*
X103530671Y-89223108D01*
X103469990Y-89362895D01*
X103440498Y-89540670D01*
X103437260Y-89633627D01*
X103446714Y-89768967D01*
X103685490Y-89768967D01*
X103708584Y-89758962D01*
X103770662Y-89751112D01*
X103860914Y-89746479D01*
X103922058Y-89745686D01*
X104032040Y-89746451D01*
X104101457Y-89750030D01*
X104139538Y-89758351D01*
X104155515Y-89773343D01*
X104158627Y-89795097D01*
X104137278Y-89862108D01*
X104083529Y-89928336D01*
X104012822Y-89979168D01*
X103942089Y-89999962D01*
X103846016Y-89981516D01*
X103762849Y-89928189D01*
X103705186Y-89851323D01*
X103685490Y-89768967D01*
X103446714Y-89768967D01*
X103451028Y-89830709D01*
X103493520Y-89987729D01*
X103565635Y-90105931D01*
X103668273Y-90186560D01*
X103802332Y-90230861D01*
X103874957Y-90239393D01*
X104025307Y-90237216D01*
G36*
X94973247Y-92098432D02*
X95103522Y-92040837D01*
X95202419Y-91944666D01*
X95270082Y-91809771D01*
X95306655Y-91636004D01*
X95309276Y-91608874D01*
X95311330Y-91417592D01*
X95284699Y-91249927D01*
X95231001Y-91114033D01*
X95202247Y-91070319D01*
X95102091Y-90977802D01*
X94974537Y-90917881D01*
X94831837Y-90893015D01*
X94686240Y-90905661D01*
X94575562Y-90944609D01*
X94480384Y-91010245D01*
X94402594Y-91096301D01*
X94401249Y-91098315D01*
X94369657Y-91151430D01*
X94349127Y-91204840D01*
X94336695Y-91272246D01*
X94329397Y-91367347D01*
X94326182Y-91445334D01*
X94324844Y-91516056D01*
X94573814Y-91516056D01*
X94576247Y-91445652D01*
X94585080Y-91351932D01*
X94600664Y-91291786D01*
X94628766Y-91248994D01*
X94655086Y-91223998D01*
X94748392Y-91171662D01*
X94846020Y-91164667D01*
X94936942Y-91202324D01*
X94982402Y-91244521D01*
X95015162Y-91287044D01*
X95034323Y-91327733D01*
X95042733Y-91380686D01*
X95043237Y-91460003D01*
X95040645Y-91533050D01*
X95035071Y-91637399D01*
X95026234Y-91705080D01*
X95010307Y-91749226D01*
X94983462Y-91782969D01*
X94962189Y-91802254D01*
X94873206Y-91852914D01*
X94777211Y-91855440D01*
X94696719Y-91825433D01*
X94628053Y-91762769D01*
X94587144Y-91659832D01*
X94573814Y-91516056D01*
X94324844Y-91516056D01*
X94323246Y-91600418D01*
X94328260Y-91716400D01*
X94343283Y-91803633D01*
X94370376Y-91872470D01*
X94411600Y-91933263D01*
X94426885Y-91951314D01*
X94522454Y-92041254D01*
X94624961Y-92093789D01*
X94750321Y-92115799D01*
X94811450Y-92117598D01*
X94973247Y-92098432D01*
X94973247Y-92098432D01*
G37*
X94973247Y-92098432D02*
X95103522Y-92040837D01*
X95202419Y-91944666D01*
X95270082Y-91809771D01*
X95306655Y-91636004D01*
X95309276Y-91608874D01*
X95311330Y-91417592D01*
X95284699Y-91249927D01*
X95231001Y-91114033D01*
X95202247Y-91070319D01*
X95102091Y-90977802D01*
X94974537Y-90917881D01*
X94831837Y-90893015D01*
X94686240Y-90905661D01*
X94575562Y-90944609D01*
X94480384Y-91010245D01*
X94402594Y-91096301D01*
X94401249Y-91098315D01*
X94369657Y-91151430D01*
X94349127Y-91204840D01*
X94336695Y-91272246D01*
X94329397Y-91367347D01*
X94326182Y-91445334D01*
X94324844Y-91516056D01*
X94573814Y-91516056D01*
X94576247Y-91445652D01*
X94585080Y-91351932D01*
X94600664Y-91291786D01*
X94628766Y-91248994D01*
X94655086Y-91223998D01*
X94748392Y-91171662D01*
X94846020Y-91164667D01*
X94936942Y-91202324D01*
X94982402Y-91244521D01*
X95015162Y-91287044D01*
X95034323Y-91327733D01*
X95042733Y-91380686D01*
X95043237Y-91460003D01*
X95040645Y-91533050D01*
X95035071Y-91637399D01*
X95026234Y-91705080D01*
X95010307Y-91749226D01*
X94983462Y-91782969D01*
X94962189Y-91802254D01*
X94873206Y-91852914D01*
X94777211Y-91855440D01*
X94696719Y-91825433D01*
X94628053Y-91762769D01*
X94587144Y-91659832D01*
X94573814Y-91516056D01*
X94324844Y-91516056D01*
X94323246Y-91600418D01*
X94328260Y-91716400D01*
X94343283Y-91803633D01*
X94370376Y-91872470D01*
X94411600Y-91933263D01*
X94426885Y-91951314D01*
X94522454Y-92041254D01*
X94624961Y-92093789D01*
X94750321Y-92115799D01*
X94811450Y-92117598D01*
X94973247Y-92098432D01*
G36*
X97313204Y-92083646D02*
X97338019Y-92071963D01*
X97423906Y-92009049D01*
X97505121Y-91917231D01*
X97565764Y-91816132D01*
X97583012Y-91769651D01*
X97598749Y-91686624D01*
X97608133Y-91586287D01*
X97609272Y-91544853D01*
X97609411Y-91414118D01*
X96856953Y-91414118D01*
X96872993Y-91345637D01*
X96912363Y-91264645D01*
X96981194Y-91194649D01*
X97063081Y-91149559D01*
X97115263Y-91140196D01*
X97186029Y-91151559D01*
X97270460Y-91180057D01*
X97299142Y-91193169D01*
X97405209Y-91246142D01*
X97495728Y-91177099D01*
X97547961Y-91130403D01*
X97575753Y-91091860D01*
X97577160Y-91080548D01*
X97552332Y-91053132D01*
X97497917Y-91011468D01*
X97448528Y-90978963D01*
X97315252Y-90920532D01*
X97165839Y-90894085D01*
X97017751Y-90900961D01*
X96899705Y-90936904D01*
X96778018Y-91013899D01*
X96691540Y-91115272D01*
X96637441Y-91246430D01*
X96612891Y-91412776D01*
X96610714Y-91488892D01*
X96619427Y-91663315D01*
X96620497Y-91668389D01*
X96869827Y-91668389D01*
X96876694Y-91652032D01*
X96904917Y-91643012D01*
X96963127Y-91639146D01*
X97059958Y-91638251D01*
X97097243Y-91638235D01*
X97210683Y-91639587D01*
X97282622Y-91644495D01*
X97321313Y-91654240D01*
X97335005Y-91670101D01*
X97335490Y-91675195D01*
X97319863Y-91715674D01*
X97280753Y-91772379D01*
X97263939Y-91792234D01*
X97201519Y-91848389D01*
X97136453Y-91870468D01*
X97101397Y-91872314D01*
X97006558Y-91849234D01*
X96927027Y-91787241D01*
X96876577Y-91697198D01*
X96875683Y-91694265D01*
X96869827Y-91668389D01*
X96620497Y-91668389D01*
X96648399Y-91800657D01*
X96700590Y-91910539D01*
X96764421Y-91988539D01*
X96882433Y-92073118D01*
X97021158Y-92118314D01*
X97168710Y-92122400D01*
X97313204Y-92083646D01*
X97313204Y-92083646D01*
G37*
X97313204Y-92083646D02*
X97338019Y-92071963D01*
X97423906Y-92009049D01*
X97505121Y-91917231D01*
X97565764Y-91816132D01*
X97583012Y-91769651D01*
X97598749Y-91686624D01*
X97608133Y-91586287D01*
X97609272Y-91544853D01*
X97609411Y-91414118D01*
X96856953Y-91414118D01*
X96872993Y-91345637D01*
X96912363Y-91264645D01*
X96981194Y-91194649D01*
X97063081Y-91149559D01*
X97115263Y-91140196D01*
X97186029Y-91151559D01*
X97270460Y-91180057D01*
X97299142Y-91193169D01*
X97405209Y-91246142D01*
X97495728Y-91177099D01*
X97547961Y-91130403D01*
X97575753Y-91091860D01*
X97577160Y-91080548D01*
X97552332Y-91053132D01*
X97497917Y-91011468D01*
X97448528Y-90978963D01*
X97315252Y-90920532D01*
X97165839Y-90894085D01*
X97017751Y-90900961D01*
X96899705Y-90936904D01*
X96778018Y-91013899D01*
X96691540Y-91115272D01*
X96637441Y-91246430D01*
X96612891Y-91412776D01*
X96610714Y-91488892D01*
X96619427Y-91663315D01*
X96620497Y-91668389D01*
X96869827Y-91668389D01*
X96876694Y-91652032D01*
X96904917Y-91643012D01*
X96963127Y-91639146D01*
X97059958Y-91638251D01*
X97097243Y-91638235D01*
X97210683Y-91639587D01*
X97282622Y-91644495D01*
X97321313Y-91654240D01*
X97335005Y-91670101D01*
X97335490Y-91675195D01*
X97319863Y-91715674D01*
X97280753Y-91772379D01*
X97263939Y-91792234D01*
X97201519Y-91848389D01*
X97136453Y-91870468D01*
X97101397Y-91872314D01*
X97006558Y-91849234D01*
X96927027Y-91787241D01*
X96876577Y-91697198D01*
X96875683Y-91694265D01*
X96869827Y-91668389D01*
X96620497Y-91668389D01*
X96648399Y-91800657D01*
X96700590Y-91910539D01*
X96764421Y-91988539D01*
X96882433Y-92073118D01*
X97021158Y-92118314D01*
X97168710Y-92122400D01*
X97313204Y-92083646D01*
G36*
X100027759Y-92115655D02*
X100122059Y-92097771D01*
X100219890Y-92060367D01*
X100230343Y-92055598D01*
X100304531Y-92016588D01*
X100355910Y-91980336D01*
X100372517Y-91957113D01*
X100356702Y-91919239D01*
X100318288Y-91863356D01*
X100301237Y-91842495D01*
X100230969Y-91760382D01*
X100140379Y-91813832D01*
X100054164Y-91849439D01*
X99954549Y-91868471D01*
X99859019Y-91869674D01*
X99785061Y-91851790D01*
X99767312Y-91840627D01*
X99733512Y-91789447D01*
X99729404Y-91730491D01*
X99754696Y-91684433D01*
X99769656Y-91675501D01*
X99814486Y-91664408D01*
X99893286Y-91651370D01*
X99990426Y-91638912D01*
X100008346Y-91636958D01*
X100164365Y-91609970D01*
X100277523Y-91564127D01*
X100352569Y-91495197D01*
X100394253Y-91398946D01*
X100407238Y-91281383D01*
X100389299Y-91147746D01*
X100331050Y-91042805D01*
X100232255Y-90966370D01*
X100092682Y-90918252D01*
X99937745Y-90899268D01*
X99811398Y-90899496D01*
X99708913Y-90916738D01*
X99638921Y-90940543D01*
X99550483Y-90982022D01*
X99468754Y-91030158D01*
X99439705Y-91051345D01*
X99365000Y-91112324D01*
X99455098Y-91203492D01*
X99545196Y-91294661D01*
X99647632Y-91226872D01*
X99750374Y-91175958D01*
X99860087Y-91149327D01*
X99965551Y-91146517D01*
X100055546Y-91167065D01*
X100118854Y-91210507D01*
X100139296Y-91247162D01*
X100136229Y-91305947D01*
X100085434Y-91350901D01*
X99987048Y-91381943D01*
X99879256Y-91396290D01*
X99713365Y-91423663D01*
X99590124Y-91475307D01*
X99507886Y-91552734D01*
X99465001Y-91657456D01*
X99459060Y-91781613D01*
X99488406Y-91911298D01*
X99555309Y-92009323D01*
X99660371Y-92076134D01*
X99804190Y-92112180D01*
X99910738Y-92119246D01*
X100027759Y-92115655D01*
X100027759Y-92115655D01*
G37*
X100027759Y-92115655D02*
X100122059Y-92097771D01*
X100219890Y-92060367D01*
X100230343Y-92055598D01*
X100304531Y-92016588D01*
X100355910Y-91980336D01*
X100372517Y-91957113D01*
X100356702Y-91919239D01*
X100318288Y-91863356D01*
X100301237Y-91842495D01*
X100230969Y-91760382D01*
X100140379Y-91813832D01*
X100054164Y-91849439D01*
X99954549Y-91868471D01*
X99859019Y-91869674D01*
X99785061Y-91851790D01*
X99767312Y-91840627D01*
X99733512Y-91789447D01*
X99729404Y-91730491D01*
X99754696Y-91684433D01*
X99769656Y-91675501D01*
X99814486Y-91664408D01*
X99893286Y-91651370D01*
X99990426Y-91638912D01*
X100008346Y-91636958D01*
X100164365Y-91609970D01*
X100277523Y-91564127D01*
X100352569Y-91495197D01*
X100394253Y-91398946D01*
X100407238Y-91281383D01*
X100389299Y-91147746D01*
X100331050Y-91042805D01*
X100232255Y-90966370D01*
X100092682Y-90918252D01*
X99937745Y-90899268D01*
X99811398Y-90899496D01*
X99708913Y-90916738D01*
X99638921Y-90940543D01*
X99550483Y-90982022D01*
X99468754Y-91030158D01*
X99439705Y-91051345D01*
X99365000Y-91112324D01*
X99455098Y-91203492D01*
X99545196Y-91294661D01*
X99647632Y-91226872D01*
X99750374Y-91175958D01*
X99860087Y-91149327D01*
X99965551Y-91146517D01*
X100055546Y-91167065D01*
X100118854Y-91210507D01*
X100139296Y-91247162D01*
X100136229Y-91305947D01*
X100085434Y-91350901D01*
X99987048Y-91381943D01*
X99879256Y-91396290D01*
X99713365Y-91423663D01*
X99590124Y-91475307D01*
X99507886Y-91552734D01*
X99465001Y-91657456D01*
X99459060Y-91781613D01*
X99488406Y-91911298D01*
X99555309Y-92009323D01*
X99660371Y-92076134D01*
X99804190Y-92112180D01*
X99910738Y-92119246D01*
X100027759Y-92115655D01*
G36*
X101209547Y-92096636D02*
X101335502Y-92028041D01*
X101434047Y-91919755D01*
X101480478Y-91831685D01*
X101500412Y-91753899D01*
X101513328Y-91643007D01*
X101518863Y-91515262D01*
X101516654Y-91386916D01*
X101506337Y-91274221D01*
X101494286Y-91214031D01*
X101453634Y-91131689D01*
X101383230Y-91044230D01*
X101298382Y-90967749D01*
X101214397Y-90918345D01*
X101212349Y-90917561D01*
X101108134Y-90895973D01*
X100984627Y-90895438D01*
X100867261Y-90915092D01*
X100821942Y-90930845D01*
X100705220Y-90997034D01*
X100621624Y-91083754D01*
X100566701Y-91198562D01*
X100535995Y-91349018D01*
X100529047Y-91427827D01*
X100529933Y-91526855D01*
X100796862Y-91526855D01*
X100805854Y-91382355D01*
X100831736Y-91272240D01*
X100872868Y-91201884D01*
X100902172Y-91181765D01*
X100977251Y-91167735D01*
X101066494Y-91171889D01*
X101143650Y-91192078D01*
X101163883Y-91203185D01*
X101217265Y-91267877D01*
X101252500Y-91366881D01*
X101267498Y-91487368D01*
X101260172Y-91616506D01*
X101243799Y-91694225D01*
X101196790Y-91784229D01*
X101122582Y-91840491D01*
X101033209Y-91859943D01*
X100940707Y-91839519D01*
X100869653Y-91789563D01*
X100832312Y-91748345D01*
X100810518Y-91707719D01*
X100800130Y-91652736D01*
X100797006Y-91568451D01*
X100796862Y-91526855D01*
X100529933Y-91526855D01*
X100530930Y-91638126D01*
X100565180Y-91810577D01*
X100631802Y-91945186D01*
X100730799Y-92041960D01*
X100862175Y-92100906D01*
X100890385Y-92107741D01*
X101059926Y-92123787D01*
X101209547Y-92096636D01*
X101209547Y-92096636D01*
G37*
X101209547Y-92096636D02*
X101335502Y-92028041D01*
X101434047Y-91919755D01*
X101480478Y-91831685D01*
X101500412Y-91753899D01*
X101513328Y-91643007D01*
X101518863Y-91515262D01*
X101516654Y-91386916D01*
X101506337Y-91274221D01*
X101494286Y-91214031D01*
X101453634Y-91131689D01*
X101383230Y-91044230D01*
X101298382Y-90967749D01*
X101214397Y-90918345D01*
X101212349Y-90917561D01*
X101108134Y-90895973D01*
X100984627Y-90895438D01*
X100867261Y-90915092D01*
X100821942Y-90930845D01*
X100705220Y-90997034D01*
X100621624Y-91083754D01*
X100566701Y-91198562D01*
X100535995Y-91349018D01*
X100529047Y-91427827D01*
X100529933Y-91526855D01*
X100796862Y-91526855D01*
X100805854Y-91382355D01*
X100831736Y-91272240D01*
X100872868Y-91201884D01*
X100902172Y-91181765D01*
X100977251Y-91167735D01*
X101066494Y-91171889D01*
X101143650Y-91192078D01*
X101163883Y-91203185D01*
X101217265Y-91267877D01*
X101252500Y-91366881D01*
X101267498Y-91487368D01*
X101260172Y-91616506D01*
X101243799Y-91694225D01*
X101196790Y-91784229D01*
X101122582Y-91840491D01*
X101033209Y-91859943D01*
X100940707Y-91839519D01*
X100869653Y-91789563D01*
X100832312Y-91748345D01*
X100810518Y-91707719D01*
X100800130Y-91652736D01*
X100797006Y-91568451D01*
X100796862Y-91526855D01*
X100529933Y-91526855D01*
X100530930Y-91638126D01*
X100565180Y-91810577D01*
X100631802Y-91945186D01*
X100730799Y-92041960D01*
X100862175Y-92100906D01*
X100890385Y-92107741D01*
X101059926Y-92123787D01*
X101209547Y-92096636D01*
G36*
X101967254Y-91723755D02*
X101969608Y-91541121D01*
X101978207Y-91402400D01*
X101995360Y-91301853D01*
X102023374Y-91233746D01*
X102064557Y-91192341D01*
X102121217Y-91171903D01*
X102191372Y-91166682D01*
X102264848Y-91172532D01*
X102320657Y-91193907D01*
X102361109Y-91236542D01*
X102388509Y-91306175D01*
X102405167Y-91408540D01*
X102413389Y-91549376D01*
X102415490Y-91723755D01*
X102415490Y-92111372D01*
X102689411Y-92111372D01*
X102689411Y-90916078D01*
X102552451Y-90916078D01*
X102469884Y-90919424D01*
X102427368Y-90931174D01*
X102415490Y-90953480D01*
X102408336Y-90973346D01*
X102379865Y-90969143D01*
X102322476Y-90941029D01*
X102190945Y-90897658D01*
X102051438Y-90900730D01*
X101917765Y-90947826D01*
X101854108Y-90985029D01*
X101805553Y-91025309D01*
X101770081Y-91075709D01*
X101745674Y-91143271D01*
X101730313Y-91235035D01*
X101721982Y-91358045D01*
X101718662Y-91519341D01*
X101718235Y-91644072D01*
X101718235Y-92111372D01*
X101967254Y-92111372D01*
X101967254Y-91723755D01*
X101967254Y-91723755D01*
G37*
X101967254Y-91723755D02*
X101969608Y-91541121D01*
X101978207Y-91402400D01*
X101995360Y-91301853D01*
X102023374Y-91233746D01*
X102064557Y-91192341D01*
X102121217Y-91171903D01*
X102191372Y-91166682D01*
X102264848Y-91172532D01*
X102320657Y-91193907D01*
X102361109Y-91236542D01*
X102388509Y-91306175D01*
X102405167Y-91408540D01*
X102413389Y-91549376D01*
X102415490Y-91723755D01*
X102415490Y-92111372D01*
X102689411Y-92111372D01*
X102689411Y-90916078D01*
X102552451Y-90916078D01*
X102469884Y-90919424D01*
X102427368Y-90931174D01*
X102415490Y-90953480D01*
X102408336Y-90973346D01*
X102379865Y-90969143D01*
X102322476Y-90941029D01*
X102190945Y-90897658D01*
X102051438Y-90900730D01*
X101917765Y-90947826D01*
X101854108Y-90985029D01*
X101805553Y-91025309D01*
X101770081Y-91075709D01*
X101745674Y-91143271D01*
X101730313Y-91235035D01*
X101721982Y-91358045D01*
X101718662Y-91519341D01*
X101718235Y-91644072D01*
X101718235Y-92111372D01*
X101967254Y-92111372D01*
X101967254Y-91723755D01*
G36*
X104390976Y-92100944D02*
X104535256Y-92039652D01*
X104580699Y-92009815D01*
X104638779Y-91963964D01*
X104675238Y-91927911D01*
X104681568Y-91916168D01*
X104663693Y-91890111D01*
X104617950Y-91845895D01*
X104581328Y-91815035D01*
X104481088Y-91734480D01*
X104401935Y-91801082D01*
X104340769Y-91844079D01*
X104281129Y-91858921D01*
X104212872Y-91855296D01*
X104104482Y-91828348D01*
X104029872Y-91772413D01*
X103984530Y-91681986D01*
X103963947Y-91551565D01*
X103963942Y-91551483D01*
X103965722Y-91405710D01*
X103993387Y-91298755D01*
X104048571Y-91225936D01*
X104086192Y-91201277D01*
X104186105Y-91170569D01*
X104292822Y-91170551D01*
X104385669Y-91200345D01*
X104407647Y-91214902D01*
X104462765Y-91252086D01*
X104505859Y-91258180D01*
X104552335Y-91230504D01*
X104603716Y-91180795D01*
X104685046Y-91096884D01*
X104594749Y-91022454D01*
X104455236Y-90938451D01*
X104297912Y-90897053D01*
X104133503Y-90900050D01*
X104025531Y-90927500D01*
X103899331Y-90995380D01*
X103798401Y-91102169D01*
X103752548Y-91177549D01*
X103715410Y-91285703D01*
X103696827Y-91422682D01*
X103696684Y-91571136D01*
X103714865Y-91713719D01*
X103751255Y-91833082D01*
X103756987Y-91845320D01*
X103841865Y-91965345D01*
X103956782Y-92052733D01*
X104092659Y-92105671D01*
X104240417Y-92122346D01*
X104390976Y-92100944D01*
X104390976Y-92100944D01*
G37*
X104390976Y-92100944D02*
X104535256Y-92039652D01*
X104580699Y-92009815D01*
X104638779Y-91963964D01*
X104675238Y-91927911D01*
X104681568Y-91916168D01*
X104663693Y-91890111D01*
X104617950Y-91845895D01*
X104581328Y-91815035D01*
X104481088Y-91734480D01*
X104401935Y-91801082D01*
X104340769Y-91844079D01*
X104281129Y-91858921D01*
X104212872Y-91855296D01*
X104104482Y-91828348D01*
X104029872Y-91772413D01*
X103984530Y-91681986D01*
X103963947Y-91551565D01*
X103963942Y-91551483D01*
X103965722Y-91405710D01*
X103993387Y-91298755D01*
X104048571Y-91225936D01*
X104086192Y-91201277D01*
X104186105Y-91170569D01*
X104292822Y-91170551D01*
X104385669Y-91200345D01*
X104407647Y-91214902D01*
X104462765Y-91252086D01*
X104505859Y-91258180D01*
X104552335Y-91230504D01*
X104603716Y-91180795D01*
X104685046Y-91096884D01*
X104594749Y-91022454D01*
X104455236Y-90938451D01*
X104297912Y-90897053D01*
X104133503Y-90900050D01*
X104025531Y-90927500D01*
X103899331Y-90995380D01*
X103798401Y-91102169D01*
X103752548Y-91177549D01*
X103715410Y-91285703D01*
X103696827Y-91422682D01*
X103696684Y-91571136D01*
X103714865Y-91713719D01*
X103751255Y-91833082D01*
X103756987Y-91845320D01*
X103841865Y-91965345D01*
X103956782Y-92052733D01*
X104092659Y-92105671D01*
X104240417Y-92122346D01*
X104390976Y-92100944D01*
G36*
X105303287Y-92115645D02*
X105367051Y-92100155D01*
X105489300Y-92043431D01*
X105593834Y-91956798D01*
X105666180Y-91852926D01*
X105676119Y-91829604D01*
X105689754Y-91768516D01*
X105699298Y-91678147D01*
X105702549Y-91586810D01*
X105702549Y-91414118D01*
X105341470Y-91414118D01*
X105192546Y-91413555D01*
X105087632Y-91410136D01*
X105020937Y-91401269D01*
X104986666Y-91384359D01*
X104979028Y-91356811D01*
X104992229Y-91316032D01*
X105015877Y-91268317D01*
X105081843Y-91188686D01*
X105173512Y-91149013D01*
X105285555Y-91150305D01*
X105412472Y-91193486D01*
X105522158Y-91246776D01*
X105613173Y-91174809D01*
X105704188Y-91102843D01*
X105618563Y-91023731D01*
X105504250Y-90948983D01*
X105363666Y-90903916D01*
X105212449Y-90891304D01*
X105066236Y-90913921D01*
X105042647Y-90921595D01*
X104914141Y-90988704D01*
X104818551Y-91088753D01*
X104753861Y-91224729D01*
X104718057Y-91399620D01*
X104717640Y-91403368D01*
X104714434Y-91593968D01*
X104727393Y-91661965D01*
X104980392Y-91661965D01*
X105003627Y-91651509D01*
X105066710Y-91643500D01*
X105159706Y-91638927D01*
X105218638Y-91638235D01*
X105328537Y-91638668D01*
X105397252Y-91641422D01*
X105433405Y-91648679D01*
X105445615Y-91662624D01*
X105442504Y-91685438D01*
X105439894Y-91694265D01*
X105395344Y-91777200D01*
X105325279Y-91844040D01*
X105263446Y-91873411D01*
X105181301Y-91871638D01*
X105098062Y-91835010D01*
X105028238Y-91774366D01*
X104986337Y-91700544D01*
X104980392Y-91661965D01*
X104727393Y-91661965D01*
X104746385Y-91761605D01*
X104809773Y-91902289D01*
X104900878Y-92012026D01*
X105015978Y-92086826D01*
X105151355Y-92122696D01*
X105303287Y-92115645D01*
X105303287Y-92115645D01*
G37*
X105303287Y-92115645D02*
X105367051Y-92100155D01*
X105489300Y-92043431D01*
X105593834Y-91956798D01*
X105666180Y-91852926D01*
X105676119Y-91829604D01*
X105689754Y-91768516D01*
X105699298Y-91678147D01*
X105702549Y-91586810D01*
X105702549Y-91414118D01*
X105341470Y-91414118D01*
X105192546Y-91413555D01*
X105087632Y-91410136D01*
X105020937Y-91401269D01*
X104986666Y-91384359D01*
X104979028Y-91356811D01*
X104992229Y-91316032D01*
X105015877Y-91268317D01*
X105081843Y-91188686D01*
X105173512Y-91149013D01*
X105285555Y-91150305D01*
X105412472Y-91193486D01*
X105522158Y-91246776D01*
X105613173Y-91174809D01*
X105704188Y-91102843D01*
X105618563Y-91023731D01*
X105504250Y-90948983D01*
X105363666Y-90903916D01*
X105212449Y-90891304D01*
X105066236Y-90913921D01*
X105042647Y-90921595D01*
X104914141Y-90988704D01*
X104818551Y-91088753D01*
X104753861Y-91224729D01*
X104718057Y-91399620D01*
X104717640Y-91403368D01*
X104714434Y-91593968D01*
X104727393Y-91661965D01*
X104980392Y-91661965D01*
X105003627Y-91651509D01*
X105066710Y-91643500D01*
X105159706Y-91638927D01*
X105218638Y-91638235D01*
X105328537Y-91638668D01*
X105397252Y-91641422D01*
X105433405Y-91648679D01*
X105445615Y-91662624D01*
X105442504Y-91685438D01*
X105439894Y-91694265D01*
X105395344Y-91777200D01*
X105325279Y-91844040D01*
X105263446Y-91873411D01*
X105181301Y-91871638D01*
X105098062Y-91835010D01*
X105028238Y-91774366D01*
X104986337Y-91700544D01*
X104980392Y-91661965D01*
X104727393Y-91661965D01*
X104746385Y-91761605D01*
X104809773Y-91902289D01*
X104900878Y-92012026D01*
X105015978Y-92086826D01*
X105151355Y-92122696D01*
X105303287Y-92115645D01*
G36*
X98506760Y-92090801D02*
X98568736Y-92061198D01*
X98628759Y-92018439D01*
X98674486Y-91969225D01*
X98707793Y-91906456D01*
X98730555Y-91823029D01*
X98744647Y-91711841D01*
X98751942Y-91565791D01*
X98754318Y-91377777D01*
X98754355Y-91358088D01*
X98754902Y-90916078D01*
X98480980Y-90916078D01*
X98480980Y-91323565D01*
X98480785Y-91474529D01*
X98479436Y-91583944D01*
X98475788Y-91660067D01*
X98468696Y-91711152D01*
X98457013Y-91745455D01*
X98439594Y-91771232D01*
X98415329Y-91796702D01*
X98330435Y-91851429D01*
X98237761Y-91861584D01*
X98149473Y-91826983D01*
X98118770Y-91801230D01*
X98096229Y-91777018D01*
X98080046Y-91751088D01*
X98069168Y-91715292D01*
X98062542Y-91661481D01*
X98059115Y-91581507D01*
X98057834Y-91467221D01*
X98057647Y-91328093D01*
X98057647Y-90916078D01*
X97783725Y-90916078D01*
X97783725Y-92111372D01*
X97920686Y-92111372D01*
X98002916Y-92108121D01*
X98045340Y-92096574D01*
X98057641Y-92074048D01*
X98057647Y-92073380D01*
X98063354Y-92051319D01*
X98088527Y-92053823D01*
X98138578Y-92078063D01*
X98252094Y-92113729D01*
X98381945Y-92117695D01*
X98506760Y-92090801D01*
X98506760Y-92090801D01*
G37*
X98506760Y-92090801D02*
X98568736Y-92061198D01*
X98628759Y-92018439D01*
X98674486Y-91969225D01*
X98707793Y-91906456D01*
X98730555Y-91823029D01*
X98744647Y-91711841D01*
X98751942Y-91565791D01*
X98754318Y-91377777D01*
X98754355Y-91358088D01*
X98754902Y-90916078D01*
X98480980Y-90916078D01*
X98480980Y-91323565D01*
X98480785Y-91474529D01*
X98479436Y-91583944D01*
X98475788Y-91660067D01*
X98468696Y-91711152D01*
X98457013Y-91745455D01*
X98439594Y-91771232D01*
X98415329Y-91796702D01*
X98330435Y-91851429D01*
X98237761Y-91861584D01*
X98149473Y-91826983D01*
X98118770Y-91801230D01*
X98096229Y-91777018D01*
X98080046Y-91751088D01*
X98069168Y-91715292D01*
X98062542Y-91661481D01*
X98059115Y-91581507D01*
X98057834Y-91467221D01*
X98057647Y-91328093D01*
X98057647Y-90916078D01*
X97783725Y-90916078D01*
X97783725Y-92111372D01*
X97920686Y-92111372D01*
X98002916Y-92108121D01*
X98045340Y-92096574D01*
X98057641Y-92074048D01*
X98057647Y-92073380D01*
X98063354Y-92051319D01*
X98088527Y-92053823D01*
X98138578Y-92078063D01*
X98252094Y-92113729D01*
X98381945Y-92117695D01*
X98506760Y-92090801D01*
G36*
X103563637Y-92112528D02*
X103649290Y-92086359D01*
X103704437Y-92053293D01*
X103722401Y-92027145D01*
X103717457Y-91996148D01*
X103685372Y-91947453D01*
X103658243Y-91912965D01*
X103602317Y-91850617D01*
X103560299Y-91824385D01*
X103524480Y-91826097D01*
X103418224Y-91853137D01*
X103340189Y-91851909D01*
X103276820Y-91821265D01*
X103255546Y-91803330D01*
X103187451Y-91740221D01*
X103187451Y-90916078D01*
X102913529Y-90916078D01*
X102913529Y-92111372D01*
X103050490Y-92111372D01*
X103132719Y-92108121D01*
X103175144Y-92096574D01*
X103187445Y-92074048D01*
X103187451Y-92073380D01*
X103193260Y-92049785D01*
X103219531Y-92052862D01*
X103255931Y-92069885D01*
X103331111Y-92101561D01*
X103392158Y-92120619D01*
X103470708Y-92125504D01*
X103563637Y-92112528D01*
X103563637Y-92112528D01*
G37*
X103563637Y-92112528D02*
X103649290Y-92086359D01*
X103704437Y-92053293D01*
X103722401Y-92027145D01*
X103717457Y-91996148D01*
X103685372Y-91947453D01*
X103658243Y-91912965D01*
X103602317Y-91850617D01*
X103560299Y-91824385D01*
X103524480Y-91826097D01*
X103418224Y-91853137D01*
X103340189Y-91851909D01*
X103276820Y-91821265D01*
X103255546Y-91803330D01*
X103187451Y-91740221D01*
X103187451Y-90916078D01*
X102913529Y-90916078D01*
X102913529Y-92111372D01*
X103050490Y-92111372D01*
X103132719Y-92108121D01*
X103175144Y-92096574D01*
X103187445Y-92074048D01*
X103187451Y-92073380D01*
X103193260Y-92049785D01*
X103219531Y-92052862D01*
X103255931Y-92069885D01*
X103331111Y-92101561D01*
X103392158Y-92120619D01*
X103470708Y-92125504D01*
X103563637Y-92112528D01*
G36*
X100746535Y-100366828D02*
X100859117Y-99769637D01*
X101274531Y-99598390D01*
X101689944Y-99427143D01*
X102188302Y-99766022D01*
X102327868Y-99860378D01*
X102454028Y-99944625D01*
X102560895Y-100014917D01*
X102642582Y-100067408D01*
X102693201Y-100098251D01*
X102706986Y-100104902D01*
X102731820Y-100087797D01*
X102784888Y-100040511D01*
X102860240Y-99969083D01*
X102951929Y-99879555D01*
X103054007Y-99777966D01*
X103160526Y-99670357D01*
X103265536Y-99562768D01*
X103363091Y-99461240D01*
X103447242Y-99371814D01*
X103512040Y-99300529D01*
X103551538Y-99253427D01*
X103560980Y-99237663D01*
X103547391Y-99208602D01*
X103509293Y-99144934D01*
X103450694Y-99052888D01*
X103375597Y-98938691D01*
X103288009Y-98808571D01*
X103237254Y-98734354D01*
X103144745Y-98598833D01*
X103062540Y-98476539D01*
X102994630Y-98373560D01*
X102945000Y-98295982D01*
X102917640Y-98249894D01*
X102913529Y-98240208D01*
X102922849Y-98212681D01*
X102948254Y-98148527D01*
X102985911Y-98056765D01*
X103031986Y-97946416D01*
X103082646Y-97826500D01*
X103134059Y-97706036D01*
X103182389Y-97594046D01*
X103223806Y-97499548D01*
X103254474Y-97431563D01*
X103270562Y-97399112D01*
X103271511Y-97397835D01*
X103296772Y-97391638D01*
X103364046Y-97377815D01*
X103466360Y-97357723D01*
X103596741Y-97332721D01*
X103748216Y-97304169D01*
X103836594Y-97287704D01*
X103998452Y-97256886D01*
X104144649Y-97227561D01*
X104267787Y-97201334D01*
X104360469Y-97179809D01*
X104415301Y-97164590D01*
X104426323Y-97159762D01*
X104437119Y-97127081D01*
X104445829Y-97053270D01*
X104452460Y-96946963D01*
X104457018Y-96816788D01*
X104459509Y-96671379D01*
X104459938Y-96519365D01*
X104458311Y-96369378D01*
X104454635Y-96230049D01*
X104448915Y-96110010D01*
X104441158Y-96017890D01*
X104431368Y-95962323D01*
X104425496Y-95950755D01*
X104390399Y-95936890D01*
X104316028Y-95917067D01*
X104212223Y-95893616D01*
X104088819Y-95868864D01*
X104045741Y-95860857D01*
X103838047Y-95822814D01*
X103673984Y-95792176D01*
X103548130Y-95767726D01*
X103455065Y-95748246D01*
X103389367Y-95732519D01*
X103345617Y-95719327D01*
X103318392Y-95707451D01*
X103302272Y-95695675D01*
X103300017Y-95693347D01*
X103277503Y-95655855D01*
X103243158Y-95582890D01*
X103200411Y-95483388D01*
X103152692Y-95366282D01*
X103103430Y-95240507D01*
X103056055Y-95114998D01*
X103013995Y-94998690D01*
X102980680Y-94900516D01*
X102959541Y-94829412D01*
X102954005Y-94794313D01*
X102954466Y-94793083D01*
X102973223Y-94764394D01*
X103015776Y-94701270D01*
X103077653Y-94610282D01*
X103154382Y-94498000D01*
X103241491Y-94370995D01*
X103266299Y-94334902D01*
X103354753Y-94204052D01*
X103432588Y-94084664D01*
X103495566Y-93983593D01*
X103539445Y-93907696D01*
X103559985Y-93863828D01*
X103560980Y-93858438D01*
X103543722Y-93830111D01*
X103496036Y-93773994D01*
X103424050Y-93696118D01*
X103333897Y-93602515D01*
X103231705Y-93499214D01*
X103123606Y-93392249D01*
X103015728Y-93287649D01*
X102914204Y-93191446D01*
X102825162Y-93109671D01*
X102754733Y-93048355D01*
X102709047Y-93013529D01*
X102696409Y-93007843D01*
X102666991Y-93021235D01*
X102606761Y-93057356D01*
X102525530Y-93110119D01*
X102463030Y-93152588D01*
X102349785Y-93230515D01*
X102215674Y-93322271D01*
X102081155Y-93413880D01*
X102008833Y-93462909D01*
X101764038Y-93628485D01*
X101558551Y-93517380D01*
X101464936Y-93468707D01*
X101385330Y-93430874D01*
X101331467Y-93409297D01*
X101317757Y-93406294D01*
X101301270Y-93428462D01*
X101268745Y-93491106D01*
X101222609Y-93588446D01*
X101165290Y-93714706D01*
X101099216Y-93864105D01*
X101026815Y-94030867D01*
X100950516Y-94209213D01*
X100872746Y-94393364D01*
X100795934Y-94577543D01*
X100722506Y-94755970D01*
X100654892Y-94922868D01*
X100595520Y-95072458D01*
X100546816Y-95198962D01*
X100511210Y-95296601D01*
X100491130Y-95359598D01*
X100487900Y-95381234D01*
X100513496Y-95408831D01*
X100569539Y-95453630D01*
X100644311Y-95506321D01*
X100650587Y-95510490D01*
X100843845Y-95665186D01*
X100999674Y-95845664D01*
X101116724Y-96046153D01*
X101193645Y-96260881D01*
X101229086Y-96484078D01*
X101221697Y-96709974D01*
X101170127Y-96932796D01*
X101073026Y-97146776D01*
X101044458Y-97193591D01*
X100895868Y-97382637D01*
X100720327Y-97534443D01*
X100523910Y-97648221D01*
X100312693Y-97723180D01*
X100092753Y-97758533D01*
X99870163Y-97753488D01*
X99651001Y-97707256D01*
X99441342Y-97619049D01*
X99247261Y-97488076D01*
X99187226Y-97434918D01*
X99034435Y-97268516D01*
X98923097Y-97093343D01*
X98846723Y-96896989D01*
X98804187Y-96702538D01*
X98793686Y-96483913D01*
X98828701Y-96264203D01*
X98905673Y-96050835D01*
X99021047Y-95851233D01*
X99171266Y-95672826D01*
X99352773Y-95523038D01*
X99376627Y-95507249D01*
X99452201Y-95455543D01*
X99509651Y-95410743D01*
X99537117Y-95382138D01*
X99537517Y-95381234D01*
X99531620Y-95350291D01*
X99508245Y-95280064D01*
X99469821Y-95176330D01*
X99418777Y-95044865D01*
X99357542Y-94891448D01*
X99288544Y-94721854D01*
X99214214Y-94541862D01*
X99136978Y-94357247D01*
X99059268Y-94173787D01*
X98983511Y-93997259D01*
X98912137Y-93833441D01*
X98847574Y-93688108D01*
X98792252Y-93567038D01*
X98748600Y-93476008D01*
X98719046Y-93420795D01*
X98707144Y-93406294D01*
X98670777Y-93417586D01*
X98602730Y-93447870D01*
X98514737Y-93491735D01*
X98466351Y-93517380D01*
X98260863Y-93628485D01*
X98016068Y-93462909D01*
X97891106Y-93378085D01*
X97754295Y-93284739D01*
X97626089Y-93196847D01*
X97561871Y-93152588D01*
X97471551Y-93091937D01*
X97395071Y-93043874D01*
X97342407Y-93014485D01*
X97325302Y-93008273D01*
X97300405Y-93025032D01*
X97245305Y-93071819D01*
X97165343Y-93143775D01*
X97065861Y-93236043D01*
X96952200Y-93343765D01*
X96880315Y-93412929D01*
X96754551Y-93536498D01*
X96645863Y-93647021D01*
X96558645Y-93739770D01*
X96497289Y-93810018D01*
X96466191Y-93853035D01*
X96463208Y-93861765D01*
X96477053Y-93894971D01*
X96515312Y-93962113D01*
X96573742Y-94056392D01*
X96648097Y-94171010D01*
X96734135Y-94299172D01*
X96758603Y-94334902D01*
X96847755Y-94464766D01*
X96927738Y-94581686D01*
X96994080Y-94679093D01*
X97042311Y-94750416D01*
X97067957Y-94789085D01*
X97070435Y-94793083D01*
X97066729Y-94823900D01*
X97047061Y-94891656D01*
X97014860Y-94987416D01*
X96973555Y-95102246D01*
X96926575Y-95227211D01*
X96877349Y-95353376D01*
X96829308Y-95471807D01*
X96785881Y-95573570D01*
X96750496Y-95649729D01*
X96726584Y-95691351D01*
X96724884Y-95693347D01*
X96710262Y-95705242D01*
X96685565Y-95717005D01*
X96645372Y-95729854D01*
X96584263Y-95745006D01*
X96496817Y-95763679D01*
X96377612Y-95787090D01*
X96221227Y-95816458D01*
X96022243Y-95853000D01*
X95979160Y-95860857D01*
X95851471Y-95885528D01*
X95740153Y-95909662D01*
X95655045Y-95930931D01*
X95605983Y-95947007D01*
X95599405Y-95950755D01*
X95588564Y-95983982D01*
X95579753Y-96058234D01*
X95572976Y-96164879D01*
X95568240Y-96295288D01*
X95565550Y-96440828D01*
X95564913Y-96592869D01*
X95566334Y-96742779D01*
X95569820Y-96881927D01*
X95575376Y-97001683D01*
X95583008Y-97093414D01*
X95592722Y-97148489D01*
X95598578Y-97159762D01*
X95631180Y-97171132D01*
X95705418Y-97189631D01*
X95813896Y-97213653D01*
X95949217Y-97241593D01*
X96103985Y-97271847D01*
X96188308Y-97287704D01*
X96348296Y-97317611D01*
X96490967Y-97344705D01*
X96609348Y-97367624D01*
X96696465Y-97385012D01*
X96745345Y-97395508D01*
X96753390Y-97397835D01*
X96766987Y-97424069D01*
X96795729Y-97487260D01*
X96835785Y-97578378D01*
X96883324Y-97688398D01*
X96934515Y-97808290D01*
X96985526Y-97929028D01*
X97032526Y-98041584D01*
X97071684Y-98136929D01*
X97099169Y-98206038D01*
X97111149Y-98239881D01*
X97111372Y-98241360D01*
X97097791Y-98268058D01*
X97059715Y-98329495D01*
X97001147Y-98419566D01*
X96926088Y-98532165D01*
X96838540Y-98661185D01*
X96787647Y-98735294D01*
X96694909Y-98871178D01*
X96612541Y-98994546D01*
X96544561Y-99099158D01*
X96494988Y-99178772D01*
X96467842Y-99227148D01*
X96463921Y-99237993D01*
X96480775Y-99263235D01*
X96527368Y-99317131D01*
X96597749Y-99393642D01*
X96685965Y-99486732D01*
X96786065Y-99590360D01*
X96892098Y-99698491D01*
X96998111Y-99805085D01*
X97098152Y-99904105D01*
X97186270Y-99989513D01*
X97256513Y-100055270D01*
X97302928Y-100095339D01*
X97318456Y-100104902D01*
X97343739Y-100091455D01*
X97404211Y-100053680D01*
X97493992Y-99995420D01*
X97607203Y-99920521D01*
X97737964Y-99832830D01*
X97836600Y-99766022D01*
X98334957Y-99427143D01*
X98750371Y-99598390D01*
X99165784Y-99769637D01*
X99278366Y-100366828D01*
X99390949Y-100964020D01*
X100633952Y-100964020D01*
X100746535Y-100366828D01*
X100746535Y-100366828D01*
G37*
X100746535Y-100366828D02*
X100859117Y-99769637D01*
X101274531Y-99598390D01*
X101689944Y-99427143D01*
X102188302Y-99766022D01*
X102327868Y-99860378D01*
X102454028Y-99944625D01*
X102560895Y-100014917D01*
X102642582Y-100067408D01*
X102693201Y-100098251D01*
X102706986Y-100104902D01*
X102731820Y-100087797D01*
X102784888Y-100040511D01*
X102860240Y-99969083D01*
X102951929Y-99879555D01*
X103054007Y-99777966D01*
X103160526Y-99670357D01*
X103265536Y-99562768D01*
X103363091Y-99461240D01*
X103447242Y-99371814D01*
X103512040Y-99300529D01*
X103551538Y-99253427D01*
X103560980Y-99237663D01*
X103547391Y-99208602D01*
X103509293Y-99144934D01*
X103450694Y-99052888D01*
X103375597Y-98938691D01*
X103288009Y-98808571D01*
X103237254Y-98734354D01*
X103144745Y-98598833D01*
X103062540Y-98476539D01*
X102994630Y-98373560D01*
X102945000Y-98295982D01*
X102917640Y-98249894D01*
X102913529Y-98240208D01*
X102922849Y-98212681D01*
X102948254Y-98148527D01*
X102985911Y-98056765D01*
X103031986Y-97946416D01*
X103082646Y-97826500D01*
X103134059Y-97706036D01*
X103182389Y-97594046D01*
X103223806Y-97499548D01*
X103254474Y-97431563D01*
X103270562Y-97399112D01*
X103271511Y-97397835D01*
X103296772Y-97391638D01*
X103364046Y-97377815D01*
X103466360Y-97357723D01*
X103596741Y-97332721D01*
X103748216Y-97304169D01*
X103836594Y-97287704D01*
X103998452Y-97256886D01*
X104144649Y-97227561D01*
X104267787Y-97201334D01*
X104360469Y-97179809D01*
X104415301Y-97164590D01*
X104426323Y-97159762D01*
X104437119Y-97127081D01*
X104445829Y-97053270D01*
X104452460Y-96946963D01*
X104457018Y-96816788D01*
X104459509Y-96671379D01*
X104459938Y-96519365D01*
X104458311Y-96369378D01*
X104454635Y-96230049D01*
X104448915Y-96110010D01*
X104441158Y-96017890D01*
X104431368Y-95962323D01*
X104425496Y-95950755D01*
X104390399Y-95936890D01*
X104316028Y-95917067D01*
X104212223Y-95893616D01*
X104088819Y-95868864D01*
X104045741Y-95860857D01*
X103838047Y-95822814D01*
X103673984Y-95792176D01*
X103548130Y-95767726D01*
X103455065Y-95748246D01*
X103389367Y-95732519D01*
X103345617Y-95719327D01*
X103318392Y-95707451D01*
X103302272Y-95695675D01*
X103300017Y-95693347D01*
X103277503Y-95655855D01*
X103243158Y-95582890D01*
X103200411Y-95483388D01*
X103152692Y-95366282D01*
X103103430Y-95240507D01*
X103056055Y-95114998D01*
X103013995Y-94998690D01*
X102980680Y-94900516D01*
X102959541Y-94829412D01*
X102954005Y-94794313D01*
X102954466Y-94793083D01*
X102973223Y-94764394D01*
X103015776Y-94701270D01*
X103077653Y-94610282D01*
X103154382Y-94498000D01*
X103241491Y-94370995D01*
X103266299Y-94334902D01*
X103354753Y-94204052D01*
X103432588Y-94084664D01*
X103495566Y-93983593D01*
X103539445Y-93907696D01*
X103559985Y-93863828D01*
X103560980Y-93858438D01*
X103543722Y-93830111D01*
X103496036Y-93773994D01*
X103424050Y-93696118D01*
X103333897Y-93602515D01*
X103231705Y-93499214D01*
X103123606Y-93392249D01*
X103015728Y-93287649D01*
X102914204Y-93191446D01*
X102825162Y-93109671D01*
X102754733Y-93048355D01*
X102709047Y-93013529D01*
X102696409Y-93007843D01*
X102666991Y-93021235D01*
X102606761Y-93057356D01*
X102525530Y-93110119D01*
X102463030Y-93152588D01*
X102349785Y-93230515D01*
X102215674Y-93322271D01*
X102081155Y-93413880D01*
X102008833Y-93462909D01*
X101764038Y-93628485D01*
X101558551Y-93517380D01*
X101464936Y-93468707D01*
X101385330Y-93430874D01*
X101331467Y-93409297D01*
X101317757Y-93406294D01*
X101301270Y-93428462D01*
X101268745Y-93491106D01*
X101222609Y-93588446D01*
X101165290Y-93714706D01*
X101099216Y-93864105D01*
X101026815Y-94030867D01*
X100950516Y-94209213D01*
X100872746Y-94393364D01*
X100795934Y-94577543D01*
X100722506Y-94755970D01*
X100654892Y-94922868D01*
X100595520Y-95072458D01*
X100546816Y-95198962D01*
X100511210Y-95296601D01*
X100491130Y-95359598D01*
X100487900Y-95381234D01*
X100513496Y-95408831D01*
X100569539Y-95453630D01*
X100644311Y-95506321D01*
X100650587Y-95510490D01*
X100843845Y-95665186D01*
X100999674Y-95845664D01*
X101116724Y-96046153D01*
X101193645Y-96260881D01*
X101229086Y-96484078D01*
X101221697Y-96709974D01*
X101170127Y-96932796D01*
X101073026Y-97146776D01*
X101044458Y-97193591D01*
X100895868Y-97382637D01*
X100720327Y-97534443D01*
X100523910Y-97648221D01*
X100312693Y-97723180D01*
X100092753Y-97758533D01*
X99870163Y-97753488D01*
X99651001Y-97707256D01*
X99441342Y-97619049D01*
X99247261Y-97488076D01*
X99187226Y-97434918D01*
X99034435Y-97268516D01*
X98923097Y-97093343D01*
X98846723Y-96896989D01*
X98804187Y-96702538D01*
X98793686Y-96483913D01*
X98828701Y-96264203D01*
X98905673Y-96050835D01*
X99021047Y-95851233D01*
X99171266Y-95672826D01*
X99352773Y-95523038D01*
X99376627Y-95507249D01*
X99452201Y-95455543D01*
X99509651Y-95410743D01*
X99537117Y-95382138D01*
X99537517Y-95381234D01*
X99531620Y-95350291D01*
X99508245Y-95280064D01*
X99469821Y-95176330D01*
X99418777Y-95044865D01*
X99357542Y-94891448D01*
X99288544Y-94721854D01*
X99214214Y-94541862D01*
X99136978Y-94357247D01*
X99059268Y-94173787D01*
X98983511Y-93997259D01*
X98912137Y-93833441D01*
X98847574Y-93688108D01*
X98792252Y-93567038D01*
X98748600Y-93476008D01*
X98719046Y-93420795D01*
X98707144Y-93406294D01*
X98670777Y-93417586D01*
X98602730Y-93447870D01*
X98514737Y-93491735D01*
X98466351Y-93517380D01*
X98260863Y-93628485D01*
X98016068Y-93462909D01*
X97891106Y-93378085D01*
X97754295Y-93284739D01*
X97626089Y-93196847D01*
X97561871Y-93152588D01*
X97471551Y-93091937D01*
X97395071Y-93043874D01*
X97342407Y-93014485D01*
X97325302Y-93008273D01*
X97300405Y-93025032D01*
X97245305Y-93071819D01*
X97165343Y-93143775D01*
X97065861Y-93236043D01*
X96952200Y-93343765D01*
X96880315Y-93412929D01*
X96754551Y-93536498D01*
X96645863Y-93647021D01*
X96558645Y-93739770D01*
X96497289Y-93810018D01*
X96466191Y-93853035D01*
X96463208Y-93861765D01*
X96477053Y-93894971D01*
X96515312Y-93962113D01*
X96573742Y-94056392D01*
X96648097Y-94171010D01*
X96734135Y-94299172D01*
X96758603Y-94334902D01*
X96847755Y-94464766D01*
X96927738Y-94581686D01*
X96994080Y-94679093D01*
X97042311Y-94750416D01*
X97067957Y-94789085D01*
X97070435Y-94793083D01*
X97066729Y-94823900D01*
X97047061Y-94891656D01*
X97014860Y-94987416D01*
X96973555Y-95102246D01*
X96926575Y-95227211D01*
X96877349Y-95353376D01*
X96829308Y-95471807D01*
X96785881Y-95573570D01*
X96750496Y-95649729D01*
X96726584Y-95691351D01*
X96724884Y-95693347D01*
X96710262Y-95705242D01*
X96685565Y-95717005D01*
X96645372Y-95729854D01*
X96584263Y-95745006D01*
X96496817Y-95763679D01*
X96377612Y-95787090D01*
X96221227Y-95816458D01*
X96022243Y-95853000D01*
X95979160Y-95860857D01*
X95851471Y-95885528D01*
X95740153Y-95909662D01*
X95655045Y-95930931D01*
X95605983Y-95947007D01*
X95599405Y-95950755D01*
X95588564Y-95983982D01*
X95579753Y-96058234D01*
X95572976Y-96164879D01*
X95568240Y-96295288D01*
X95565550Y-96440828D01*
X95564913Y-96592869D01*
X95566334Y-96742779D01*
X95569820Y-96881927D01*
X95575376Y-97001683D01*
X95583008Y-97093414D01*
X95592722Y-97148489D01*
X95598578Y-97159762D01*
X95631180Y-97171132D01*
X95705418Y-97189631D01*
X95813896Y-97213653D01*
X95949217Y-97241593D01*
X96103985Y-97271847D01*
X96188308Y-97287704D01*
X96348296Y-97317611D01*
X96490967Y-97344705D01*
X96609348Y-97367624D01*
X96696465Y-97385012D01*
X96745345Y-97395508D01*
X96753390Y-97397835D01*
X96766987Y-97424069D01*
X96795729Y-97487260D01*
X96835785Y-97578378D01*
X96883324Y-97688398D01*
X96934515Y-97808290D01*
X96985526Y-97929028D01*
X97032526Y-98041584D01*
X97071684Y-98136929D01*
X97099169Y-98206038D01*
X97111149Y-98239881D01*
X97111372Y-98241360D01*
X97097791Y-98268058D01*
X97059715Y-98329495D01*
X97001147Y-98419566D01*
X96926088Y-98532165D01*
X96838540Y-98661185D01*
X96787647Y-98735294D01*
X96694909Y-98871178D01*
X96612541Y-98994546D01*
X96544561Y-99099158D01*
X96494988Y-99178772D01*
X96467842Y-99227148D01*
X96463921Y-99237993D01*
X96480775Y-99263235D01*
X96527368Y-99317131D01*
X96597749Y-99393642D01*
X96685965Y-99486732D01*
X96786065Y-99590360D01*
X96892098Y-99698491D01*
X96998111Y-99805085D01*
X97098152Y-99904105D01*
X97186270Y-99989513D01*
X97256513Y-100055270D01*
X97302928Y-100095339D01*
X97318456Y-100104902D01*
X97343739Y-100091455D01*
X97404211Y-100053680D01*
X97493992Y-99995420D01*
X97607203Y-99920521D01*
X97737964Y-99832830D01*
X97836600Y-99766022D01*
X98334957Y-99427143D01*
X98750371Y-99598390D01*
X99165784Y-99769637D01*
X99278366Y-100366828D01*
X99390949Y-100964020D01*
X100633952Y-100964020D01*
X100746535Y-100366828D01*
%LPC*%
D13*
X52370000Y-78270000D03*
D14*
X52370000Y-75730000D03*
X54910000Y-78270000D03*
X54910000Y-75730000D03*
X57450000Y-78270000D03*
X57450000Y-75730000D03*
X59990000Y-78270000D03*
X59990000Y-75730000D03*
X62530000Y-78270000D03*
X62530000Y-75730000D03*
X65070000Y-78270000D03*
X65070000Y-75730000D03*
X67610000Y-78270000D03*
X67610000Y-75730000D03*
X70150000Y-78270000D03*
X70150000Y-75730000D03*
X72690000Y-78270000D03*
X72690000Y-75730000D03*
X75230000Y-78270000D03*
X75230000Y-75730000D03*
X77770000Y-78270000D03*
X77770000Y-75730000D03*
X80310000Y-78270000D03*
X80310000Y-75730000D03*
X82850000Y-78270000D03*
X82850000Y-75730000D03*
X85390000Y-78270000D03*
X85390000Y-75730000D03*
X87930000Y-78270000D03*
X87930000Y-75730000D03*
X90470000Y-78270000D03*
X90470000Y-75730000D03*
X93010000Y-78270000D03*
X93010000Y-75730000D03*
X95550000Y-78270000D03*
X95550000Y-75730000D03*
X98090000Y-78270000D03*
X98090000Y-75730000D03*
X100630000Y-78270000D03*
X100630000Y-75730000D03*
D15*
X105500000Y-126000000D03*
X47500000Y-126000000D03*
X47500000Y-77000000D03*
D16*
X105500000Y-77000000D03*
D17*
X65000000Y-89000000D03*
D18*
X65000000Y-86460000D03*
X65000000Y-83920000D03*
D16*
X47500000Y-126000000D03*
X105500000Y-126000000D03*
D15*
X105500000Y-77000000D03*
D17*
X77250000Y-99000000D03*
D19*
X79790000Y-99000000D03*
D17*
X58250000Y-118000000D03*
D19*
X60790000Y-118000000D03*
D17*
X77250000Y-118000000D03*
D19*
X79790000Y-118000000D03*
D17*
X96250000Y-118000000D03*
D19*
X98790000Y-118000000D03*
D20*
X81040000Y-88920000D03*
X74690000Y-91460000D03*
X62040000Y-107920000D03*
X55690000Y-110460000D03*
X81040000Y-107920000D03*
X74690000Y-110460000D03*
X100040000Y-107920000D03*
X93690000Y-110460000D03*
D16*
X47500000Y-77000000D03*
D17*
X90000000Y-90250000D03*
X90000000Y-97870000D03*
X82500000Y-82500000D03*
X74880000Y-82500000D03*
X52500000Y-102000000D03*
X52500000Y-94380000D03*
X57000000Y-102000000D03*
X57000000Y-94380000D03*
X62500000Y-102000000D03*
X62500000Y-94380000D03*
X67000000Y-102000000D03*
X67000000Y-94380000D03*
M02*
