G04 #@! TF.FileFunction,Legend,Top*
%FSLAX46Y46*%
G04 Gerber Fmt 4.6, Leading zero omitted, Abs format (unit mm)*
G04 Created by KiCad (PCBNEW 4.0.6) date 07/20/17 17:27:26*
%MOMM*%
%LPD*%
G01*
G04 APERTURE LIST*
%ADD10C,0.100000*%
%ADD11C,0.150000*%
%ADD12C,0.400000*%
%ADD13C,0.120000*%
%ADD14C,0.381000*%
%ADD15C,0.010000*%
G04 APERTURE END LIST*
D10*
D11*
X134285714Y-97650000D02*
X135000000Y-97650000D01*
X134142857Y-98078571D02*
X134642857Y-96578571D01*
X135142857Y-98078571D01*
X136785714Y-98078571D02*
X136785714Y-96578571D01*
X136785714Y-97292857D02*
X137642857Y-97292857D01*
X137642857Y-98078571D02*
X137642857Y-96578571D01*
X138285714Y-97650000D02*
X139000000Y-97650000D01*
X138142857Y-98078571D02*
X138642857Y-96578571D01*
X139142857Y-98078571D01*
X139428571Y-96578571D02*
X140285714Y-96578571D01*
X139857143Y-98078571D02*
X139857143Y-96578571D01*
X141714285Y-97078571D02*
X142285714Y-97078571D01*
X141928571Y-98078571D02*
X141928571Y-96792857D01*
X141999999Y-96650000D01*
X142142857Y-96578571D01*
X142285714Y-96578571D01*
X143000000Y-98078571D02*
X142857142Y-98007143D01*
X142785714Y-97935714D01*
X142714285Y-97792857D01*
X142714285Y-97364286D01*
X142785714Y-97221429D01*
X142857142Y-97150000D01*
X143000000Y-97078571D01*
X143214285Y-97078571D01*
X143357142Y-97150000D01*
X143428571Y-97221429D01*
X143500000Y-97364286D01*
X143500000Y-97792857D01*
X143428571Y-97935714D01*
X143357142Y-98007143D01*
X143214285Y-98078571D01*
X143000000Y-98078571D01*
X144142857Y-98078571D02*
X144142857Y-97078571D01*
X144142857Y-97364286D02*
X144214285Y-97221429D01*
X144285714Y-97150000D01*
X144428571Y-97078571D01*
X144571428Y-97078571D01*
X134357143Y-100478571D02*
X134357143Y-99478571D01*
X134357143Y-99621429D02*
X134428571Y-99550000D01*
X134571429Y-99478571D01*
X134785714Y-99478571D01*
X134928571Y-99550000D01*
X135000000Y-99692857D01*
X135000000Y-100478571D01*
X135000000Y-99692857D02*
X135071429Y-99550000D01*
X135214286Y-99478571D01*
X135428571Y-99478571D01*
X135571429Y-99550000D01*
X135642857Y-99692857D01*
X135642857Y-100478571D01*
X136928571Y-100407143D02*
X136785714Y-100478571D01*
X136500000Y-100478571D01*
X136357143Y-100407143D01*
X136285714Y-100264286D01*
X136285714Y-99692857D01*
X136357143Y-99550000D01*
X136500000Y-99478571D01*
X136785714Y-99478571D01*
X136928571Y-99550000D01*
X137000000Y-99692857D01*
X137000000Y-99835714D01*
X136285714Y-99978571D01*
X138285714Y-100407143D02*
X138142857Y-100478571D01*
X137857143Y-100478571D01*
X137714285Y-100407143D01*
X137642857Y-100335714D01*
X137571428Y-100192857D01*
X137571428Y-99764286D01*
X137642857Y-99621429D01*
X137714285Y-99550000D01*
X137857143Y-99478571D01*
X138142857Y-99478571D01*
X138285714Y-99550000D01*
X138928571Y-100478571D02*
X138928571Y-98978571D01*
X139571428Y-100478571D02*
X139571428Y-99692857D01*
X139499999Y-99550000D01*
X139357142Y-99478571D01*
X139142857Y-99478571D01*
X138999999Y-99550000D01*
X138928571Y-99621429D01*
X140928571Y-100478571D02*
X140928571Y-99692857D01*
X140857142Y-99550000D01*
X140714285Y-99478571D01*
X140428571Y-99478571D01*
X140285714Y-99550000D01*
X140928571Y-100407143D02*
X140785714Y-100478571D01*
X140428571Y-100478571D01*
X140285714Y-100407143D01*
X140214285Y-100264286D01*
X140214285Y-100121429D01*
X140285714Y-99978571D01*
X140428571Y-99907143D01*
X140785714Y-99907143D01*
X140928571Y-99835714D01*
X141642857Y-99478571D02*
X141642857Y-100478571D01*
X141642857Y-99621429D02*
X141714285Y-99550000D01*
X141857143Y-99478571D01*
X142071428Y-99478571D01*
X142214285Y-99550000D01*
X142285714Y-99692857D01*
X142285714Y-100478571D01*
X143000000Y-100478571D02*
X143000000Y-99478571D01*
X143000000Y-98978571D02*
X142928571Y-99050000D01*
X143000000Y-99121429D01*
X143071428Y-99050000D01*
X143000000Y-98978571D01*
X143000000Y-99121429D01*
X144357143Y-100407143D02*
X144214286Y-100478571D01*
X143928572Y-100478571D01*
X143785714Y-100407143D01*
X143714286Y-100335714D01*
X143642857Y-100192857D01*
X143642857Y-99764286D01*
X143714286Y-99621429D01*
X143785714Y-99550000D01*
X143928572Y-99478571D01*
X144214286Y-99478571D01*
X144357143Y-99550000D01*
X145642857Y-100478571D02*
X145642857Y-99692857D01*
X145571428Y-99550000D01*
X145428571Y-99478571D01*
X145142857Y-99478571D01*
X145000000Y-99550000D01*
X145642857Y-100407143D02*
X145500000Y-100478571D01*
X145142857Y-100478571D01*
X145000000Y-100407143D01*
X144928571Y-100264286D01*
X144928571Y-100121429D01*
X145000000Y-99978571D01*
X145142857Y-99907143D01*
X145500000Y-99907143D01*
X145642857Y-99835714D01*
X146571429Y-100478571D02*
X146428571Y-100407143D01*
X146357143Y-100264286D01*
X146357143Y-98978571D01*
X134357143Y-102878571D02*
X134357143Y-101378571D01*
X134500000Y-102307143D02*
X134928571Y-102878571D01*
X134928571Y-101878571D02*
X134357143Y-102450000D01*
X136142857Y-102807143D02*
X136000000Y-102878571D01*
X135714286Y-102878571D01*
X135571429Y-102807143D01*
X135500000Y-102664286D01*
X135500000Y-102092857D01*
X135571429Y-101950000D01*
X135714286Y-101878571D01*
X136000000Y-101878571D01*
X136142857Y-101950000D01*
X136214286Y-102092857D01*
X136214286Y-102235714D01*
X135500000Y-102378571D01*
X136714286Y-101878571D02*
X137071429Y-102878571D01*
X137428571Y-101878571D02*
X137071429Y-102878571D01*
X136928571Y-103235714D01*
X136857143Y-103307143D01*
X136714286Y-103378571D01*
X138000000Y-102878571D02*
X138000000Y-101378571D01*
X138000000Y-101950000D02*
X138142857Y-101878571D01*
X138428571Y-101878571D01*
X138571428Y-101950000D01*
X138642857Y-102021429D01*
X138714286Y-102164286D01*
X138714286Y-102592857D01*
X138642857Y-102735714D01*
X138571428Y-102807143D01*
X138428571Y-102878571D01*
X138142857Y-102878571D01*
X138000000Y-102807143D01*
X139571429Y-102878571D02*
X139428571Y-102807143D01*
X139357143Y-102735714D01*
X139285714Y-102592857D01*
X139285714Y-102164286D01*
X139357143Y-102021429D01*
X139428571Y-101950000D01*
X139571429Y-101878571D01*
X139785714Y-101878571D01*
X139928571Y-101950000D01*
X140000000Y-102021429D01*
X140071429Y-102164286D01*
X140071429Y-102592857D01*
X140000000Y-102735714D01*
X139928571Y-102807143D01*
X139785714Y-102878571D01*
X139571429Y-102878571D01*
X141357143Y-102878571D02*
X141357143Y-102092857D01*
X141285714Y-101950000D01*
X141142857Y-101878571D01*
X140857143Y-101878571D01*
X140714286Y-101950000D01*
X141357143Y-102807143D02*
X141214286Y-102878571D01*
X140857143Y-102878571D01*
X140714286Y-102807143D01*
X140642857Y-102664286D01*
X140642857Y-102521429D01*
X140714286Y-102378571D01*
X140857143Y-102307143D01*
X141214286Y-102307143D01*
X141357143Y-102235714D01*
X142071429Y-102878571D02*
X142071429Y-101878571D01*
X142071429Y-102164286D02*
X142142857Y-102021429D01*
X142214286Y-101950000D01*
X142357143Y-101878571D01*
X142500000Y-101878571D01*
X143642857Y-102878571D02*
X143642857Y-101378571D01*
X143642857Y-102807143D02*
X143500000Y-102878571D01*
X143214286Y-102878571D01*
X143071428Y-102807143D01*
X143000000Y-102735714D01*
X142928571Y-102592857D01*
X142928571Y-102164286D01*
X143000000Y-102021429D01*
X143071428Y-101950000D01*
X143214286Y-101878571D01*
X143500000Y-101878571D01*
X143642857Y-101950000D01*
X134285714Y-105207143D02*
X134428571Y-105278571D01*
X134714286Y-105278571D01*
X134857143Y-105207143D01*
X134928571Y-105064286D01*
X134928571Y-104992857D01*
X134857143Y-104850000D01*
X134714286Y-104778571D01*
X134500000Y-104778571D01*
X134357143Y-104707143D01*
X134285714Y-104564286D01*
X134285714Y-104492857D01*
X134357143Y-104350000D01*
X134500000Y-104278571D01*
X134714286Y-104278571D01*
X134857143Y-104350000D01*
X135428572Y-104278571D02*
X135714286Y-105278571D01*
X136000000Y-104564286D01*
X136285715Y-105278571D01*
X136571429Y-104278571D01*
X137142858Y-105278571D02*
X137142858Y-104278571D01*
X137142858Y-103778571D02*
X137071429Y-103850000D01*
X137142858Y-103921429D01*
X137214286Y-103850000D01*
X137142858Y-103778571D01*
X137142858Y-103921429D01*
X137642858Y-104278571D02*
X138214287Y-104278571D01*
X137857144Y-103778571D02*
X137857144Y-105064286D01*
X137928572Y-105207143D01*
X138071430Y-105278571D01*
X138214287Y-105278571D01*
X139357144Y-105207143D02*
X139214287Y-105278571D01*
X138928573Y-105278571D01*
X138785715Y-105207143D01*
X138714287Y-105135714D01*
X138642858Y-104992857D01*
X138642858Y-104564286D01*
X138714287Y-104421429D01*
X138785715Y-104350000D01*
X138928573Y-104278571D01*
X139214287Y-104278571D01*
X139357144Y-104350000D01*
X140000001Y-105278571D02*
X140000001Y-103778571D01*
X140642858Y-105278571D02*
X140642858Y-104492857D01*
X140571429Y-104350000D01*
X140428572Y-104278571D01*
X140214287Y-104278571D01*
X140071429Y-104350000D01*
X140000001Y-104421429D01*
X141928572Y-105207143D02*
X141785715Y-105278571D01*
X141500001Y-105278571D01*
X141357144Y-105207143D01*
X141285715Y-105064286D01*
X141285715Y-104492857D01*
X141357144Y-104350000D01*
X141500001Y-104278571D01*
X141785715Y-104278571D01*
X141928572Y-104350000D01*
X142000001Y-104492857D01*
X142000001Y-104635714D01*
X141285715Y-104778571D01*
X142571429Y-105207143D02*
X142714286Y-105278571D01*
X143000001Y-105278571D01*
X143142858Y-105207143D01*
X143214286Y-105064286D01*
X143214286Y-104992857D01*
X143142858Y-104850000D01*
X143000001Y-104778571D01*
X142785715Y-104778571D01*
X142642858Y-104707143D01*
X142571429Y-104564286D01*
X142571429Y-104492857D01*
X142642858Y-104350000D01*
X142785715Y-104278571D01*
X143000001Y-104278571D01*
X143142858Y-104350000D01*
D12*
X133023810Y-92892857D02*
X132904762Y-93011905D01*
X132547619Y-93130952D01*
X132309524Y-93130952D01*
X131952381Y-93011905D01*
X131714286Y-92773810D01*
X131595238Y-92535714D01*
X131476190Y-92059524D01*
X131476190Y-91702381D01*
X131595238Y-91226190D01*
X131714286Y-90988095D01*
X131952381Y-90750000D01*
X132309524Y-90630952D01*
X132547619Y-90630952D01*
X132904762Y-90750000D01*
X133023810Y-90869048D01*
X134452381Y-93130952D02*
X134214286Y-93011905D01*
X134095238Y-92773810D01*
X134095238Y-90630952D01*
X135404762Y-93130952D02*
X135404762Y-91464286D01*
X135404762Y-90630952D02*
X135285714Y-90750000D01*
X135404762Y-90869048D01*
X135523810Y-90750000D01*
X135404762Y-90630952D01*
X135404762Y-90869048D01*
X137666667Y-93011905D02*
X137428571Y-93130952D01*
X136952381Y-93130952D01*
X136714286Y-93011905D01*
X136595238Y-92892857D01*
X136476190Y-92654762D01*
X136476190Y-91940476D01*
X136595238Y-91702381D01*
X136714286Y-91583333D01*
X136952381Y-91464286D01*
X137428571Y-91464286D01*
X137666667Y-91583333D01*
X138738095Y-93130952D02*
X138738095Y-90630952D01*
X138976190Y-92178571D02*
X139690476Y-93130952D01*
X139690476Y-91464286D02*
X138738095Y-92416667D01*
X140523810Y-91464286D02*
X141119048Y-93130952D01*
X141714286Y-91464286D02*
X141119048Y-93130952D01*
X140880953Y-93726190D01*
X140761905Y-93845238D01*
X140523810Y-93964286D01*
X142666667Y-93130952D02*
X142666667Y-90630952D01*
X142666667Y-91821429D02*
X144095239Y-91821429D01*
X144095239Y-93130952D02*
X144095239Y-90630952D01*
X145166667Y-92416667D02*
X146357144Y-92416667D01*
X144928572Y-93130952D02*
X145761906Y-90630952D01*
X146595239Y-93130952D01*
X147071429Y-90630952D02*
X148500001Y-90630952D01*
X147785715Y-93130952D02*
X147785715Y-90630952D01*
D13*
X102310000Y-98580000D02*
X102310000Y-88340000D01*
X86420000Y-98580000D02*
X86420000Y-88340000D01*
X86420000Y-98580000D02*
X102310000Y-98580000D01*
X86420000Y-88340000D02*
X102310000Y-88340000D01*
X102310000Y-96000000D02*
X104950000Y-96000000D01*
X102310000Y-93460000D02*
X104934000Y-93460000D01*
X102310000Y-90920000D02*
X104934000Y-90920000D01*
X132286000Y-125000000D02*
G75*
G03X132286000Y-125000000I-2286000J0D01*
G01*
X90786000Y-133000000D02*
G75*
G03X90786000Y-133000000I-2286000J0D01*
G01*
X148786000Y-133000000D02*
G75*
G03X148786000Y-133000000I-2286000J0D01*
G01*
X148786000Y-84000000D02*
G75*
G03X148786000Y-84000000I-2286000J0D01*
G01*
X121192335Y-104921392D02*
G75*
G03X117960000Y-104764484I-1672335J-1078608D01*
G01*
X121192335Y-107078608D02*
G75*
G02X117960000Y-107235516I-1672335J1078608D01*
G01*
X120561130Y-104920163D02*
G75*
G03X118479039Y-104920000I-1041130J-1079837D01*
G01*
X120561130Y-107079837D02*
G75*
G02X118479039Y-107080000I-1041130J1079837D01*
G01*
X117960000Y-104764000D02*
X117960000Y-104920000D01*
X117960000Y-107080000D02*
X117960000Y-107236000D01*
X102192335Y-123921392D02*
G75*
G03X98960000Y-123764484I-1672335J-1078608D01*
G01*
X102192335Y-126078608D02*
G75*
G02X98960000Y-126235516I-1672335J1078608D01*
G01*
X101561130Y-123920163D02*
G75*
G03X99479039Y-123920000I-1041130J-1079837D01*
G01*
X101561130Y-126079837D02*
G75*
G02X99479039Y-126080000I-1041130J1079837D01*
G01*
X98960000Y-123764000D02*
X98960000Y-123920000D01*
X98960000Y-126080000D02*
X98960000Y-126236000D01*
X121192335Y-123921392D02*
G75*
G03X117960000Y-123764484I-1672335J-1078608D01*
G01*
X121192335Y-126078608D02*
G75*
G02X117960000Y-126235516I-1672335J1078608D01*
G01*
X120561130Y-123920163D02*
G75*
G03X118479039Y-123920000I-1041130J-1079837D01*
G01*
X120561130Y-126079837D02*
G75*
G02X118479039Y-126080000I-1041130J1079837D01*
G01*
X117960000Y-123764000D02*
X117960000Y-123920000D01*
X117960000Y-126080000D02*
X117960000Y-126236000D01*
X140192335Y-123921392D02*
G75*
G03X136960000Y-123764484I-1672335J-1078608D01*
G01*
X140192335Y-126078608D02*
G75*
G02X136960000Y-126235516I-1672335J1078608D01*
G01*
X139561130Y-123920163D02*
G75*
G03X137479039Y-123920000I-1041130J-1079837D01*
G01*
X139561130Y-126079837D02*
G75*
G02X137479039Y-126080000I-1041130J1079837D01*
G01*
X136960000Y-123764000D02*
X136960000Y-123920000D01*
X136960000Y-126080000D02*
X136960000Y-126236000D01*
X142990000Y-86530000D02*
X142990000Y-81330000D01*
X94670000Y-86530000D02*
X142990000Y-86530000D01*
X92070000Y-81330000D02*
X142990000Y-81330000D01*
X94670000Y-86530000D02*
X94670000Y-83930000D01*
X94670000Y-83930000D02*
X92070000Y-83930000D01*
X92070000Y-83930000D02*
X92070000Y-81330000D01*
X93400000Y-86530000D02*
X92070000Y-86530000D01*
X92070000Y-86530000D02*
X92070000Y-85200000D01*
D14*
X113150000Y-94650000D02*
X114928000Y-94650000D01*
X124072000Y-94650000D02*
X125850000Y-94650000D01*
X125850000Y-94650000D02*
X125850000Y-96428000D01*
X125850000Y-105572000D02*
X125850000Y-107350000D01*
X125850000Y-107350000D02*
X124072000Y-107350000D01*
X114928000Y-107350000D02*
X113150000Y-107350000D01*
X113150000Y-107350000D02*
X113150000Y-105572000D01*
X113150000Y-96428000D02*
X113150000Y-94650000D01*
X94150000Y-113650000D02*
X95928000Y-113650000D01*
X105072000Y-113650000D02*
X106850000Y-113650000D01*
X106850000Y-113650000D02*
X106850000Y-115428000D01*
X106850000Y-124572000D02*
X106850000Y-126350000D01*
X106850000Y-126350000D02*
X105072000Y-126350000D01*
X95928000Y-126350000D02*
X94150000Y-126350000D01*
X94150000Y-126350000D02*
X94150000Y-124572000D01*
X94150000Y-115428000D02*
X94150000Y-113650000D01*
X113150000Y-113650000D02*
X114928000Y-113650000D01*
X124072000Y-113650000D02*
X125850000Y-113650000D01*
X125850000Y-113650000D02*
X125850000Y-115428000D01*
X125850000Y-124572000D02*
X125850000Y-126350000D01*
X125850000Y-126350000D02*
X124072000Y-126350000D01*
X114928000Y-126350000D02*
X113150000Y-126350000D01*
X113150000Y-126350000D02*
X113150000Y-124572000D01*
X113150000Y-115428000D02*
X113150000Y-113650000D01*
X132150000Y-113650000D02*
X133928000Y-113650000D01*
X143072000Y-113650000D02*
X144850000Y-113650000D01*
X144850000Y-113650000D02*
X144850000Y-115428000D01*
X144850000Y-124572000D02*
X144850000Y-126350000D01*
X144850000Y-126350000D02*
X143072000Y-126350000D01*
X133928000Y-126350000D02*
X132150000Y-126350000D01*
X132150000Y-126350000D02*
X132150000Y-124572000D01*
X132150000Y-115428000D02*
X132150000Y-113650000D01*
D13*
X90786000Y-84000000D02*
G75*
G03X90786000Y-84000000I-2286000J0D01*
G01*
X131980000Y-97850000D02*
X132310000Y-97850000D01*
X132310000Y-97850000D02*
X132310000Y-104270000D01*
X132310000Y-104270000D02*
X131980000Y-104270000D01*
X130020000Y-97850000D02*
X129690000Y-97850000D01*
X129690000Y-97850000D02*
X129690000Y-104270000D01*
X129690000Y-104270000D02*
X130020000Y-104270000D01*
X122900000Y-90480000D02*
X122900000Y-90810000D01*
X122900000Y-90810000D02*
X116480000Y-90810000D01*
X116480000Y-90810000D02*
X116480000Y-90480000D01*
X122900000Y-88520000D02*
X122900000Y-88190000D01*
X122900000Y-88190000D02*
X116480000Y-88190000D01*
X116480000Y-88190000D02*
X116480000Y-88520000D01*
X102520000Y-108400000D02*
X102190000Y-108400000D01*
X102190000Y-108400000D02*
X102190000Y-101980000D01*
X102190000Y-101980000D02*
X102520000Y-101980000D01*
X104480000Y-108400000D02*
X104810000Y-108400000D01*
X104810000Y-108400000D02*
X104810000Y-101980000D01*
X104810000Y-101980000D02*
X104480000Y-101980000D01*
X107020000Y-108400000D02*
X106690000Y-108400000D01*
X106690000Y-108400000D02*
X106690000Y-101980000D01*
X106690000Y-101980000D02*
X107020000Y-101980000D01*
X108980000Y-108400000D02*
X109310000Y-108400000D01*
X109310000Y-108400000D02*
X109310000Y-101980000D01*
X109310000Y-101980000D02*
X108980000Y-101980000D01*
X92520000Y-108400000D02*
X92190000Y-108400000D01*
X92190000Y-108400000D02*
X92190000Y-101980000D01*
X92190000Y-101980000D02*
X92520000Y-101980000D01*
X94480000Y-108400000D02*
X94810000Y-108400000D01*
X94810000Y-108400000D02*
X94810000Y-101980000D01*
X94810000Y-101980000D02*
X94480000Y-101980000D01*
X97020000Y-108400000D02*
X96690000Y-108400000D01*
X96690000Y-108400000D02*
X96690000Y-101980000D01*
X96690000Y-101980000D02*
X97020000Y-101980000D01*
X98980000Y-108400000D02*
X99310000Y-108400000D01*
X99310000Y-108400000D02*
X99310000Y-101980000D01*
X99310000Y-101980000D02*
X98980000Y-101980000D01*
D15*
G36*
X120055814Y-129968931D02*
X120139635Y-130413555D01*
X120448920Y-130541053D01*
X120758206Y-130668551D01*
X121129246Y-130416246D01*
X121233157Y-130345996D01*
X121327087Y-130283272D01*
X121406652Y-130230938D01*
X121467470Y-130191857D01*
X121505157Y-130168893D01*
X121515421Y-130163942D01*
X121533910Y-130176676D01*
X121573420Y-130211882D01*
X121629522Y-130265062D01*
X121697787Y-130331718D01*
X121773786Y-130407354D01*
X121853092Y-130487472D01*
X121931275Y-130567574D01*
X122003907Y-130643164D01*
X122066559Y-130709745D01*
X122114803Y-130762818D01*
X122144210Y-130797887D01*
X122151241Y-130809623D01*
X122141123Y-130831260D01*
X122112759Y-130878662D01*
X122069129Y-130947193D01*
X122013218Y-131032215D01*
X121948006Y-131129093D01*
X121910219Y-131184350D01*
X121841343Y-131285248D01*
X121780140Y-131376299D01*
X121729578Y-131452970D01*
X121692628Y-131510728D01*
X121672258Y-131545043D01*
X121669197Y-131552254D01*
X121676136Y-131572748D01*
X121695051Y-131620513D01*
X121723087Y-131688832D01*
X121757391Y-131770989D01*
X121795109Y-131860270D01*
X121833387Y-131949958D01*
X121869370Y-132033338D01*
X121900206Y-132103694D01*
X121923039Y-132154310D01*
X121935017Y-132178471D01*
X121935724Y-132179422D01*
X121954531Y-132184036D01*
X122004618Y-132194328D01*
X122080793Y-132209287D01*
X122177865Y-132227901D01*
X122290643Y-132249159D01*
X122356442Y-132261418D01*
X122476950Y-132284362D01*
X122585797Y-132306195D01*
X122677476Y-132325722D01*
X122746481Y-132341748D01*
X122787304Y-132353079D01*
X122795511Y-132356674D01*
X122803548Y-132381006D01*
X122810033Y-132435959D01*
X122814970Y-132515108D01*
X122818364Y-132612026D01*
X122820218Y-132720287D01*
X122820538Y-132833465D01*
X122819327Y-132945135D01*
X122816590Y-133048868D01*
X122812331Y-133138241D01*
X122806555Y-133206826D01*
X122799267Y-133248197D01*
X122794895Y-133256810D01*
X122768764Y-133267133D01*
X122713393Y-133281892D01*
X122636107Y-133299352D01*
X122544230Y-133317780D01*
X122512158Y-133323741D01*
X122357524Y-133352066D01*
X122235375Y-133374876D01*
X122141673Y-133393080D01*
X122072384Y-133407583D01*
X122023471Y-133419292D01*
X121990897Y-133429115D01*
X121970628Y-133437956D01*
X121958626Y-133446724D01*
X121956947Y-133448457D01*
X121940184Y-133476371D01*
X121914614Y-133530695D01*
X121882788Y-133604777D01*
X121847260Y-133691965D01*
X121810583Y-133785608D01*
X121775311Y-133879052D01*
X121743996Y-133965647D01*
X121719193Y-134038740D01*
X121703454Y-134091678D01*
X121699332Y-134117811D01*
X121699676Y-134118726D01*
X121713641Y-134140086D01*
X121745322Y-134187084D01*
X121791391Y-134254827D01*
X121848518Y-134338423D01*
X121913373Y-134432982D01*
X121931843Y-134459854D01*
X121997699Y-134557275D01*
X122055650Y-134646163D01*
X122102538Y-134721412D01*
X122135207Y-134777920D01*
X122150500Y-134810581D01*
X122151241Y-134814593D01*
X122138392Y-134835684D01*
X122102888Y-134877464D01*
X122049293Y-134935445D01*
X121982171Y-135005135D01*
X121906087Y-135082045D01*
X121825604Y-135161683D01*
X121745287Y-135239561D01*
X121669699Y-135311186D01*
X121603405Y-135372070D01*
X121550969Y-135417721D01*
X121516955Y-135443650D01*
X121507545Y-135447883D01*
X121485643Y-135437912D01*
X121440800Y-135411020D01*
X121380321Y-135371736D01*
X121333789Y-135340117D01*
X121249475Y-135282098D01*
X121149626Y-135213784D01*
X121049473Y-135145579D01*
X120995627Y-135109075D01*
X120813371Y-134985800D01*
X120660381Y-135068520D01*
X120590682Y-135104759D01*
X120531414Y-135132926D01*
X120491311Y-135148991D01*
X120481103Y-135151226D01*
X120468829Y-135134722D01*
X120444613Y-135088082D01*
X120410263Y-135015609D01*
X120367588Y-134921606D01*
X120318394Y-134810374D01*
X120264490Y-134686215D01*
X120207684Y-134553432D01*
X120149782Y-134416327D01*
X120092593Y-134279202D01*
X120037924Y-134146358D01*
X119987584Y-134022098D01*
X119943380Y-133910725D01*
X119907119Y-133816539D01*
X119880609Y-133743844D01*
X119865658Y-133696941D01*
X119863254Y-133680833D01*
X119882311Y-133660286D01*
X119924036Y-133626933D01*
X119979706Y-133587702D01*
X119984378Y-133584599D01*
X120128264Y-133469423D01*
X120244283Y-133335053D01*
X120331430Y-133185784D01*
X120388699Y-133025913D01*
X120415086Y-132859737D01*
X120409585Y-132691552D01*
X120371190Y-132525655D01*
X120298895Y-132366342D01*
X120277626Y-132331487D01*
X120166996Y-132190737D01*
X120036302Y-132077714D01*
X119890064Y-131993003D01*
X119732808Y-131937194D01*
X119569057Y-131910874D01*
X119403333Y-131914630D01*
X119240162Y-131949050D01*
X119084065Y-132014723D01*
X118939567Y-132112235D01*
X118894869Y-132151813D01*
X118781112Y-132275703D01*
X118698218Y-132406124D01*
X118641356Y-132552315D01*
X118609687Y-132697088D01*
X118601869Y-132859860D01*
X118627938Y-133023440D01*
X118685245Y-133182298D01*
X118771144Y-133330906D01*
X118882986Y-133463735D01*
X119018123Y-133575256D01*
X119035883Y-133587011D01*
X119092150Y-133625508D01*
X119134923Y-133658863D01*
X119155372Y-133680160D01*
X119155669Y-133680833D01*
X119151279Y-133703871D01*
X119133876Y-133756157D01*
X119105268Y-133833390D01*
X119067265Y-133931268D01*
X119021674Y-134045491D01*
X118970303Y-134171758D01*
X118914962Y-134305767D01*
X118857458Y-134443218D01*
X118799601Y-134579808D01*
X118743198Y-134711237D01*
X118690058Y-134833205D01*
X118641990Y-134941409D01*
X118600801Y-135031549D01*
X118568301Y-135099323D01*
X118546297Y-135140430D01*
X118537436Y-135151226D01*
X118510360Y-135142819D01*
X118459697Y-135120272D01*
X118394183Y-135087613D01*
X118358159Y-135068520D01*
X118205168Y-134985800D01*
X118022912Y-135109075D01*
X117929875Y-135172228D01*
X117828015Y-135241727D01*
X117732562Y-135307165D01*
X117684750Y-135340117D01*
X117617505Y-135385273D01*
X117560564Y-135421057D01*
X117521354Y-135442938D01*
X117508619Y-135447563D01*
X117490083Y-135435085D01*
X117449059Y-135400252D01*
X117389525Y-135346678D01*
X117315458Y-135277983D01*
X117230835Y-135197781D01*
X117177315Y-135146286D01*
X117083681Y-135054286D01*
X117002759Y-134971999D01*
X116937823Y-134902945D01*
X116892142Y-134850644D01*
X116868989Y-134818616D01*
X116866768Y-134812116D01*
X116877076Y-134787394D01*
X116905561Y-134737405D01*
X116949063Y-134667212D01*
X117004423Y-134581875D01*
X117068480Y-134486456D01*
X117086697Y-134459854D01*
X117153073Y-134363167D01*
X117212622Y-134276117D01*
X117262016Y-134203595D01*
X117297925Y-134150493D01*
X117317019Y-134121703D01*
X117318864Y-134118726D01*
X117316105Y-134095782D01*
X117301462Y-134045336D01*
X117277487Y-133974041D01*
X117246734Y-133888547D01*
X117211756Y-133795507D01*
X117175107Y-133701574D01*
X117139339Y-133613399D01*
X117107006Y-133537634D01*
X117080662Y-133480931D01*
X117062858Y-133449943D01*
X117061593Y-133448457D01*
X117050706Y-133439601D01*
X117032318Y-133430843D01*
X117002394Y-133421277D01*
X116956897Y-133409996D01*
X116891791Y-133396093D01*
X116803039Y-133378663D01*
X116686607Y-133356798D01*
X116538458Y-133329591D01*
X116506382Y-133323741D01*
X116411314Y-133305374D01*
X116328435Y-133287405D01*
X116265070Y-133271569D01*
X116228542Y-133259600D01*
X116223644Y-133256810D01*
X116215573Y-133232072D01*
X116209013Y-133176790D01*
X116203967Y-133097389D01*
X116200441Y-133000296D01*
X116198439Y-132891938D01*
X116197964Y-132778740D01*
X116199023Y-132667128D01*
X116201618Y-132563529D01*
X116205754Y-132474368D01*
X116211437Y-132406072D01*
X116218669Y-132365066D01*
X116223029Y-132356674D01*
X116247302Y-132348208D01*
X116302574Y-132334435D01*
X116383338Y-132316550D01*
X116484088Y-132295748D01*
X116599317Y-132273223D01*
X116662098Y-132261418D01*
X116781213Y-132239151D01*
X116887435Y-132218979D01*
X116975573Y-132201915D01*
X117040434Y-132188969D01*
X117076826Y-132181155D01*
X117082816Y-132179422D01*
X117092939Y-132159890D01*
X117114338Y-132112843D01*
X117144161Y-132045003D01*
X117179555Y-131963091D01*
X117217668Y-131873828D01*
X117255647Y-131783935D01*
X117290640Y-131700135D01*
X117319794Y-131629147D01*
X117340257Y-131577694D01*
X117349177Y-131552497D01*
X117349343Y-131551396D01*
X117339231Y-131531519D01*
X117310883Y-131485777D01*
X117267277Y-131418717D01*
X117211394Y-131334884D01*
X117146213Y-131238826D01*
X117108321Y-131183650D01*
X117039275Y-131082481D01*
X116977950Y-130990630D01*
X116927337Y-130912744D01*
X116890429Y-130853469D01*
X116870218Y-130817451D01*
X116867299Y-130809377D01*
X116879847Y-130790584D01*
X116914537Y-130750457D01*
X116966937Y-130693493D01*
X117032616Y-130624185D01*
X117107144Y-130547031D01*
X117186087Y-130466525D01*
X117265017Y-130387163D01*
X117339500Y-130313440D01*
X117405106Y-130249852D01*
X117457404Y-130200894D01*
X117491961Y-130171061D01*
X117503522Y-130163942D01*
X117522346Y-130173953D01*
X117567369Y-130202078D01*
X117634213Y-130245454D01*
X117718501Y-130301218D01*
X117815856Y-130366506D01*
X117889293Y-130416246D01*
X118260333Y-130668551D01*
X118878905Y-130413555D01*
X118962725Y-129968931D01*
X119046546Y-129524307D01*
X119971994Y-129524307D01*
X120055814Y-129968931D01*
X120055814Y-129968931D01*
G37*
X120055814Y-129968931D02*
X120139635Y-130413555D01*
X120448920Y-130541053D01*
X120758206Y-130668551D01*
X121129246Y-130416246D01*
X121233157Y-130345996D01*
X121327087Y-130283272D01*
X121406652Y-130230938D01*
X121467470Y-130191857D01*
X121505157Y-130168893D01*
X121515421Y-130163942D01*
X121533910Y-130176676D01*
X121573420Y-130211882D01*
X121629522Y-130265062D01*
X121697787Y-130331718D01*
X121773786Y-130407354D01*
X121853092Y-130487472D01*
X121931275Y-130567574D01*
X122003907Y-130643164D01*
X122066559Y-130709745D01*
X122114803Y-130762818D01*
X122144210Y-130797887D01*
X122151241Y-130809623D01*
X122141123Y-130831260D01*
X122112759Y-130878662D01*
X122069129Y-130947193D01*
X122013218Y-131032215D01*
X121948006Y-131129093D01*
X121910219Y-131184350D01*
X121841343Y-131285248D01*
X121780140Y-131376299D01*
X121729578Y-131452970D01*
X121692628Y-131510728D01*
X121672258Y-131545043D01*
X121669197Y-131552254D01*
X121676136Y-131572748D01*
X121695051Y-131620513D01*
X121723087Y-131688832D01*
X121757391Y-131770989D01*
X121795109Y-131860270D01*
X121833387Y-131949958D01*
X121869370Y-132033338D01*
X121900206Y-132103694D01*
X121923039Y-132154310D01*
X121935017Y-132178471D01*
X121935724Y-132179422D01*
X121954531Y-132184036D01*
X122004618Y-132194328D01*
X122080793Y-132209287D01*
X122177865Y-132227901D01*
X122290643Y-132249159D01*
X122356442Y-132261418D01*
X122476950Y-132284362D01*
X122585797Y-132306195D01*
X122677476Y-132325722D01*
X122746481Y-132341748D01*
X122787304Y-132353079D01*
X122795511Y-132356674D01*
X122803548Y-132381006D01*
X122810033Y-132435959D01*
X122814970Y-132515108D01*
X122818364Y-132612026D01*
X122820218Y-132720287D01*
X122820538Y-132833465D01*
X122819327Y-132945135D01*
X122816590Y-133048868D01*
X122812331Y-133138241D01*
X122806555Y-133206826D01*
X122799267Y-133248197D01*
X122794895Y-133256810D01*
X122768764Y-133267133D01*
X122713393Y-133281892D01*
X122636107Y-133299352D01*
X122544230Y-133317780D01*
X122512158Y-133323741D01*
X122357524Y-133352066D01*
X122235375Y-133374876D01*
X122141673Y-133393080D01*
X122072384Y-133407583D01*
X122023471Y-133419292D01*
X121990897Y-133429115D01*
X121970628Y-133437956D01*
X121958626Y-133446724D01*
X121956947Y-133448457D01*
X121940184Y-133476371D01*
X121914614Y-133530695D01*
X121882788Y-133604777D01*
X121847260Y-133691965D01*
X121810583Y-133785608D01*
X121775311Y-133879052D01*
X121743996Y-133965647D01*
X121719193Y-134038740D01*
X121703454Y-134091678D01*
X121699332Y-134117811D01*
X121699676Y-134118726D01*
X121713641Y-134140086D01*
X121745322Y-134187084D01*
X121791391Y-134254827D01*
X121848518Y-134338423D01*
X121913373Y-134432982D01*
X121931843Y-134459854D01*
X121997699Y-134557275D01*
X122055650Y-134646163D01*
X122102538Y-134721412D01*
X122135207Y-134777920D01*
X122150500Y-134810581D01*
X122151241Y-134814593D01*
X122138392Y-134835684D01*
X122102888Y-134877464D01*
X122049293Y-134935445D01*
X121982171Y-135005135D01*
X121906087Y-135082045D01*
X121825604Y-135161683D01*
X121745287Y-135239561D01*
X121669699Y-135311186D01*
X121603405Y-135372070D01*
X121550969Y-135417721D01*
X121516955Y-135443650D01*
X121507545Y-135447883D01*
X121485643Y-135437912D01*
X121440800Y-135411020D01*
X121380321Y-135371736D01*
X121333789Y-135340117D01*
X121249475Y-135282098D01*
X121149626Y-135213784D01*
X121049473Y-135145579D01*
X120995627Y-135109075D01*
X120813371Y-134985800D01*
X120660381Y-135068520D01*
X120590682Y-135104759D01*
X120531414Y-135132926D01*
X120491311Y-135148991D01*
X120481103Y-135151226D01*
X120468829Y-135134722D01*
X120444613Y-135088082D01*
X120410263Y-135015609D01*
X120367588Y-134921606D01*
X120318394Y-134810374D01*
X120264490Y-134686215D01*
X120207684Y-134553432D01*
X120149782Y-134416327D01*
X120092593Y-134279202D01*
X120037924Y-134146358D01*
X119987584Y-134022098D01*
X119943380Y-133910725D01*
X119907119Y-133816539D01*
X119880609Y-133743844D01*
X119865658Y-133696941D01*
X119863254Y-133680833D01*
X119882311Y-133660286D01*
X119924036Y-133626933D01*
X119979706Y-133587702D01*
X119984378Y-133584599D01*
X120128264Y-133469423D01*
X120244283Y-133335053D01*
X120331430Y-133185784D01*
X120388699Y-133025913D01*
X120415086Y-132859737D01*
X120409585Y-132691552D01*
X120371190Y-132525655D01*
X120298895Y-132366342D01*
X120277626Y-132331487D01*
X120166996Y-132190737D01*
X120036302Y-132077714D01*
X119890064Y-131993003D01*
X119732808Y-131937194D01*
X119569057Y-131910874D01*
X119403333Y-131914630D01*
X119240162Y-131949050D01*
X119084065Y-132014723D01*
X118939567Y-132112235D01*
X118894869Y-132151813D01*
X118781112Y-132275703D01*
X118698218Y-132406124D01*
X118641356Y-132552315D01*
X118609687Y-132697088D01*
X118601869Y-132859860D01*
X118627938Y-133023440D01*
X118685245Y-133182298D01*
X118771144Y-133330906D01*
X118882986Y-133463735D01*
X119018123Y-133575256D01*
X119035883Y-133587011D01*
X119092150Y-133625508D01*
X119134923Y-133658863D01*
X119155372Y-133680160D01*
X119155669Y-133680833D01*
X119151279Y-133703871D01*
X119133876Y-133756157D01*
X119105268Y-133833390D01*
X119067265Y-133931268D01*
X119021674Y-134045491D01*
X118970303Y-134171758D01*
X118914962Y-134305767D01*
X118857458Y-134443218D01*
X118799601Y-134579808D01*
X118743198Y-134711237D01*
X118690058Y-134833205D01*
X118641990Y-134941409D01*
X118600801Y-135031549D01*
X118568301Y-135099323D01*
X118546297Y-135140430D01*
X118537436Y-135151226D01*
X118510360Y-135142819D01*
X118459697Y-135120272D01*
X118394183Y-135087613D01*
X118358159Y-135068520D01*
X118205168Y-134985800D01*
X118022912Y-135109075D01*
X117929875Y-135172228D01*
X117828015Y-135241727D01*
X117732562Y-135307165D01*
X117684750Y-135340117D01*
X117617505Y-135385273D01*
X117560564Y-135421057D01*
X117521354Y-135442938D01*
X117508619Y-135447563D01*
X117490083Y-135435085D01*
X117449059Y-135400252D01*
X117389525Y-135346678D01*
X117315458Y-135277983D01*
X117230835Y-135197781D01*
X117177315Y-135146286D01*
X117083681Y-135054286D01*
X117002759Y-134971999D01*
X116937823Y-134902945D01*
X116892142Y-134850644D01*
X116868989Y-134818616D01*
X116866768Y-134812116D01*
X116877076Y-134787394D01*
X116905561Y-134737405D01*
X116949063Y-134667212D01*
X117004423Y-134581875D01*
X117068480Y-134486456D01*
X117086697Y-134459854D01*
X117153073Y-134363167D01*
X117212622Y-134276117D01*
X117262016Y-134203595D01*
X117297925Y-134150493D01*
X117317019Y-134121703D01*
X117318864Y-134118726D01*
X117316105Y-134095782D01*
X117301462Y-134045336D01*
X117277487Y-133974041D01*
X117246734Y-133888547D01*
X117211756Y-133795507D01*
X117175107Y-133701574D01*
X117139339Y-133613399D01*
X117107006Y-133537634D01*
X117080662Y-133480931D01*
X117062858Y-133449943D01*
X117061593Y-133448457D01*
X117050706Y-133439601D01*
X117032318Y-133430843D01*
X117002394Y-133421277D01*
X116956897Y-133409996D01*
X116891791Y-133396093D01*
X116803039Y-133378663D01*
X116686607Y-133356798D01*
X116538458Y-133329591D01*
X116506382Y-133323741D01*
X116411314Y-133305374D01*
X116328435Y-133287405D01*
X116265070Y-133271569D01*
X116228542Y-133259600D01*
X116223644Y-133256810D01*
X116215573Y-133232072D01*
X116209013Y-133176790D01*
X116203967Y-133097389D01*
X116200441Y-133000296D01*
X116198439Y-132891938D01*
X116197964Y-132778740D01*
X116199023Y-132667128D01*
X116201618Y-132563529D01*
X116205754Y-132474368D01*
X116211437Y-132406072D01*
X116218669Y-132365066D01*
X116223029Y-132356674D01*
X116247302Y-132348208D01*
X116302574Y-132334435D01*
X116383338Y-132316550D01*
X116484088Y-132295748D01*
X116599317Y-132273223D01*
X116662098Y-132261418D01*
X116781213Y-132239151D01*
X116887435Y-132218979D01*
X116975573Y-132201915D01*
X117040434Y-132188969D01*
X117076826Y-132181155D01*
X117082816Y-132179422D01*
X117092939Y-132159890D01*
X117114338Y-132112843D01*
X117144161Y-132045003D01*
X117179555Y-131963091D01*
X117217668Y-131873828D01*
X117255647Y-131783935D01*
X117290640Y-131700135D01*
X117319794Y-131629147D01*
X117340257Y-131577694D01*
X117349177Y-131552497D01*
X117349343Y-131551396D01*
X117339231Y-131531519D01*
X117310883Y-131485777D01*
X117267277Y-131418717D01*
X117211394Y-131334884D01*
X117146213Y-131238826D01*
X117108321Y-131183650D01*
X117039275Y-131082481D01*
X116977950Y-130990630D01*
X116927337Y-130912744D01*
X116890429Y-130853469D01*
X116870218Y-130817451D01*
X116867299Y-130809377D01*
X116879847Y-130790584D01*
X116914537Y-130750457D01*
X116966937Y-130693493D01*
X117032616Y-130624185D01*
X117107144Y-130547031D01*
X117186087Y-130466525D01*
X117265017Y-130387163D01*
X117339500Y-130313440D01*
X117405106Y-130249852D01*
X117457404Y-130200894D01*
X117491961Y-130171061D01*
X117503522Y-130163942D01*
X117522346Y-130173953D01*
X117567369Y-130202078D01*
X117634213Y-130245454D01*
X117718501Y-130301218D01*
X117815856Y-130366506D01*
X117889293Y-130416246D01*
X118260333Y-130668551D01*
X118878905Y-130413555D01*
X118962725Y-129968931D01*
X119046546Y-129524307D01*
X119971994Y-129524307D01*
X120055814Y-129968931D01*
D11*
X103732762Y-98043619D02*
X103637524Y-97996000D01*
X103542286Y-97900762D01*
X103399429Y-97757905D01*
X103304190Y-97710286D01*
X103208952Y-97710286D01*
X103256571Y-97948381D02*
X103161333Y-97900762D01*
X103066095Y-97805524D01*
X103018476Y-97615048D01*
X103018476Y-97281714D01*
X103066095Y-97091238D01*
X103161333Y-96996000D01*
X103256571Y-96948381D01*
X103447048Y-96948381D01*
X103542286Y-96996000D01*
X103637524Y-97091238D01*
X103685143Y-97281714D01*
X103685143Y-97615048D01*
X103637524Y-97805524D01*
X103542286Y-97900762D01*
X103447048Y-97948381D01*
X103256571Y-97948381D01*
X104637524Y-97948381D02*
X104066095Y-97948381D01*
X104351809Y-97948381D02*
X104351809Y-96948381D01*
X104256571Y-97091238D01*
X104161333Y-97186476D01*
X104066095Y-97234095D01*
X118761905Y-109452381D02*
X118761905Y-108452381D01*
X119000000Y-108452381D01*
X119142858Y-108500000D01*
X119238096Y-108595238D01*
X119285715Y-108690476D01*
X119333334Y-108880952D01*
X119333334Y-109023810D01*
X119285715Y-109214286D01*
X119238096Y-109309524D01*
X119142858Y-109404762D01*
X119000000Y-109452381D01*
X118761905Y-109452381D01*
X120285715Y-109452381D02*
X119714286Y-109452381D01*
X120000000Y-109452381D02*
X120000000Y-108452381D01*
X119904762Y-108595238D01*
X119809524Y-108690476D01*
X119714286Y-108738095D01*
X99761905Y-128452381D02*
X99761905Y-127452381D01*
X100000000Y-127452381D01*
X100142858Y-127500000D01*
X100238096Y-127595238D01*
X100285715Y-127690476D01*
X100333334Y-127880952D01*
X100333334Y-128023810D01*
X100285715Y-128214286D01*
X100238096Y-128309524D01*
X100142858Y-128404762D01*
X100000000Y-128452381D01*
X99761905Y-128452381D01*
X100714286Y-127547619D02*
X100761905Y-127500000D01*
X100857143Y-127452381D01*
X101095239Y-127452381D01*
X101190477Y-127500000D01*
X101238096Y-127547619D01*
X101285715Y-127642857D01*
X101285715Y-127738095D01*
X101238096Y-127880952D01*
X100666667Y-128452381D01*
X101285715Y-128452381D01*
X118761905Y-128452381D02*
X118761905Y-127452381D01*
X119000000Y-127452381D01*
X119142858Y-127500000D01*
X119238096Y-127595238D01*
X119285715Y-127690476D01*
X119333334Y-127880952D01*
X119333334Y-128023810D01*
X119285715Y-128214286D01*
X119238096Y-128309524D01*
X119142858Y-128404762D01*
X119000000Y-128452381D01*
X118761905Y-128452381D01*
X119666667Y-127452381D02*
X120285715Y-127452381D01*
X119952381Y-127833333D01*
X120095239Y-127833333D01*
X120190477Y-127880952D01*
X120238096Y-127928571D01*
X120285715Y-128023810D01*
X120285715Y-128261905D01*
X120238096Y-128357143D01*
X120190477Y-128404762D01*
X120095239Y-128452381D01*
X119809524Y-128452381D01*
X119714286Y-128404762D01*
X119666667Y-128357143D01*
X137761905Y-128452381D02*
X137761905Y-127452381D01*
X138000000Y-127452381D01*
X138142858Y-127500000D01*
X138238096Y-127595238D01*
X138285715Y-127690476D01*
X138333334Y-127880952D01*
X138333334Y-128023810D01*
X138285715Y-128214286D01*
X138238096Y-128309524D01*
X138142858Y-128404762D01*
X138000000Y-128452381D01*
X137761905Y-128452381D01*
X139190477Y-127785714D02*
X139190477Y-128452381D01*
X138952381Y-127404762D02*
X138714286Y-128119048D01*
X139333334Y-128119048D01*
X141666667Y-86952381D02*
X141666667Y-87666667D01*
X141619047Y-87809524D01*
X141523809Y-87904762D01*
X141380952Y-87952381D01*
X141285714Y-87952381D01*
X142666667Y-87952381D02*
X142095238Y-87952381D01*
X142380952Y-87952381D02*
X142380952Y-86952381D01*
X142285714Y-87095238D01*
X142190476Y-87190476D01*
X142095238Y-87238095D01*
X117833334Y-94255952D02*
X118011906Y-94315476D01*
X118309525Y-94315476D01*
X118428572Y-94255952D01*
X118488096Y-94196429D01*
X118547620Y-94077381D01*
X118547620Y-93958333D01*
X118488096Y-93839286D01*
X118428572Y-93779762D01*
X118309525Y-93720238D01*
X118071429Y-93660714D01*
X117952382Y-93601190D01*
X117892858Y-93541667D01*
X117833334Y-93422619D01*
X117833334Y-93303571D01*
X117892858Y-93184524D01*
X117952382Y-93125000D01*
X118071429Y-93065476D01*
X118369049Y-93065476D01*
X118547620Y-93125000D01*
X118964286Y-93065476D02*
X119261905Y-94315476D01*
X119500001Y-93422619D01*
X119738096Y-94315476D01*
X120035715Y-93065476D01*
X121166667Y-94315476D02*
X120452381Y-94315476D01*
X120809524Y-94315476D02*
X120809524Y-93065476D01*
X120690476Y-93244048D01*
X120571429Y-93363095D01*
X120452381Y-93422619D01*
X98833334Y-113255952D02*
X99011906Y-113315476D01*
X99309525Y-113315476D01*
X99428572Y-113255952D01*
X99488096Y-113196429D01*
X99547620Y-113077381D01*
X99547620Y-112958333D01*
X99488096Y-112839286D01*
X99428572Y-112779762D01*
X99309525Y-112720238D01*
X99071429Y-112660714D01*
X98952382Y-112601190D01*
X98892858Y-112541667D01*
X98833334Y-112422619D01*
X98833334Y-112303571D01*
X98892858Y-112184524D01*
X98952382Y-112125000D01*
X99071429Y-112065476D01*
X99369049Y-112065476D01*
X99547620Y-112125000D01*
X99964286Y-112065476D02*
X100261905Y-113315476D01*
X100500001Y-112422619D01*
X100738096Y-113315476D01*
X101035715Y-112065476D01*
X101452381Y-112184524D02*
X101511905Y-112125000D01*
X101630953Y-112065476D01*
X101928572Y-112065476D01*
X102047619Y-112125000D01*
X102107143Y-112184524D01*
X102166667Y-112303571D01*
X102166667Y-112422619D01*
X102107143Y-112601190D01*
X101392857Y-113315476D01*
X102166667Y-113315476D01*
X117833334Y-113255952D02*
X118011906Y-113315476D01*
X118309525Y-113315476D01*
X118428572Y-113255952D01*
X118488096Y-113196429D01*
X118547620Y-113077381D01*
X118547620Y-112958333D01*
X118488096Y-112839286D01*
X118428572Y-112779762D01*
X118309525Y-112720238D01*
X118071429Y-112660714D01*
X117952382Y-112601190D01*
X117892858Y-112541667D01*
X117833334Y-112422619D01*
X117833334Y-112303571D01*
X117892858Y-112184524D01*
X117952382Y-112125000D01*
X118071429Y-112065476D01*
X118369049Y-112065476D01*
X118547620Y-112125000D01*
X118964286Y-112065476D02*
X119261905Y-113315476D01*
X119500001Y-112422619D01*
X119738096Y-113315476D01*
X120035715Y-112065476D01*
X120392857Y-112065476D02*
X121166667Y-112065476D01*
X120750000Y-112541667D01*
X120928572Y-112541667D01*
X121047619Y-112601190D01*
X121107143Y-112660714D01*
X121166667Y-112779762D01*
X121166667Y-113077381D01*
X121107143Y-113196429D01*
X121047619Y-113255952D01*
X120928572Y-113315476D01*
X120571429Y-113315476D01*
X120452381Y-113255952D01*
X120392857Y-113196429D01*
X136833334Y-113255952D02*
X137011906Y-113315476D01*
X137309525Y-113315476D01*
X137428572Y-113255952D01*
X137488096Y-113196429D01*
X137547620Y-113077381D01*
X137547620Y-112958333D01*
X137488096Y-112839286D01*
X137428572Y-112779762D01*
X137309525Y-112720238D01*
X137071429Y-112660714D01*
X136952382Y-112601190D01*
X136892858Y-112541667D01*
X136833334Y-112422619D01*
X136833334Y-112303571D01*
X136892858Y-112184524D01*
X136952382Y-112125000D01*
X137071429Y-112065476D01*
X137369049Y-112065476D01*
X137547620Y-112125000D01*
X137964286Y-112065476D02*
X138261905Y-113315476D01*
X138500001Y-112422619D01*
X138738096Y-113315476D01*
X139035715Y-112065476D01*
X140047619Y-112482143D02*
X140047619Y-113315476D01*
X139750000Y-112005952D02*
X139452381Y-112898810D01*
X140226191Y-112898810D01*
X129202381Y-101166666D02*
X128726190Y-101500000D01*
X129202381Y-101738095D02*
X128202381Y-101738095D01*
X128202381Y-101357142D01*
X128250000Y-101261904D01*
X128297619Y-101214285D01*
X128392857Y-101166666D01*
X128535714Y-101166666D01*
X128630952Y-101214285D01*
X128678571Y-101261904D01*
X128726190Y-101357142D01*
X128726190Y-101738095D01*
X129202381Y-100214285D02*
X129202381Y-100785714D01*
X129202381Y-100500000D02*
X128202381Y-100500000D01*
X128345238Y-100595238D01*
X128440476Y-100690476D01*
X128488095Y-100785714D01*
X119583334Y-92202381D02*
X119250000Y-91726190D01*
X119011905Y-92202381D02*
X119011905Y-91202381D01*
X119392858Y-91202381D01*
X119488096Y-91250000D01*
X119535715Y-91297619D01*
X119583334Y-91392857D01*
X119583334Y-91535714D01*
X119535715Y-91630952D01*
X119488096Y-91678571D01*
X119392858Y-91726190D01*
X119011905Y-91726190D01*
X119964286Y-91297619D02*
X120011905Y-91250000D01*
X120107143Y-91202381D01*
X120345239Y-91202381D01*
X120440477Y-91250000D01*
X120488096Y-91297619D01*
X120535715Y-91392857D01*
X120535715Y-91488095D01*
X120488096Y-91630952D01*
X119916667Y-92202381D01*
X120535715Y-92202381D01*
X101702381Y-105166666D02*
X101226190Y-105500000D01*
X101702381Y-105738095D02*
X100702381Y-105738095D01*
X100702381Y-105357142D01*
X100750000Y-105261904D01*
X100797619Y-105214285D01*
X100892857Y-105166666D01*
X101035714Y-105166666D01*
X101130952Y-105214285D01*
X101178571Y-105261904D01*
X101226190Y-105357142D01*
X101226190Y-105738095D01*
X100702381Y-104833333D02*
X100702381Y-104214285D01*
X101083333Y-104547619D01*
X101083333Y-104404761D01*
X101130952Y-104309523D01*
X101178571Y-104261904D01*
X101273810Y-104214285D01*
X101511905Y-104214285D01*
X101607143Y-104261904D01*
X101654762Y-104309523D01*
X101702381Y-104404761D01*
X101702381Y-104690476D01*
X101654762Y-104785714D01*
X101607143Y-104833333D01*
X106202381Y-105166666D02*
X105726190Y-105500000D01*
X106202381Y-105738095D02*
X105202381Y-105738095D01*
X105202381Y-105357142D01*
X105250000Y-105261904D01*
X105297619Y-105214285D01*
X105392857Y-105166666D01*
X105535714Y-105166666D01*
X105630952Y-105214285D01*
X105678571Y-105261904D01*
X105726190Y-105357142D01*
X105726190Y-105738095D01*
X105535714Y-104309523D02*
X106202381Y-104309523D01*
X105154762Y-104547619D02*
X105869048Y-104785714D01*
X105869048Y-104166666D01*
X91702381Y-105166666D02*
X91226190Y-105500000D01*
X91702381Y-105738095D02*
X90702381Y-105738095D01*
X90702381Y-105357142D01*
X90750000Y-105261904D01*
X90797619Y-105214285D01*
X90892857Y-105166666D01*
X91035714Y-105166666D01*
X91130952Y-105214285D01*
X91178571Y-105261904D01*
X91226190Y-105357142D01*
X91226190Y-105738095D01*
X90702381Y-104261904D02*
X90702381Y-104738095D01*
X91178571Y-104785714D01*
X91130952Y-104738095D01*
X91083333Y-104642857D01*
X91083333Y-104404761D01*
X91130952Y-104309523D01*
X91178571Y-104261904D01*
X91273810Y-104214285D01*
X91511905Y-104214285D01*
X91607143Y-104261904D01*
X91654762Y-104309523D01*
X91702381Y-104404761D01*
X91702381Y-104642857D01*
X91654762Y-104738095D01*
X91607143Y-104785714D01*
X96202381Y-105166666D02*
X95726190Y-105500000D01*
X96202381Y-105738095D02*
X95202381Y-105738095D01*
X95202381Y-105357142D01*
X95250000Y-105261904D01*
X95297619Y-105214285D01*
X95392857Y-105166666D01*
X95535714Y-105166666D01*
X95630952Y-105214285D01*
X95678571Y-105261904D01*
X95726190Y-105357142D01*
X95726190Y-105738095D01*
X95202381Y-104309523D02*
X95202381Y-104500000D01*
X95250000Y-104595238D01*
X95297619Y-104642857D01*
X95440476Y-104738095D01*
X95630952Y-104785714D01*
X96011905Y-104785714D01*
X96107143Y-104738095D01*
X96154762Y-104690476D01*
X96202381Y-104595238D01*
X96202381Y-104404761D01*
X96154762Y-104309523D01*
X96107143Y-104261904D01*
X96011905Y-104214285D01*
X95773810Y-104214285D01*
X95678571Y-104261904D01*
X95630952Y-104309523D01*
X95583333Y-104404761D01*
X95583333Y-104595238D01*
X95630952Y-104690476D01*
X95678571Y-104738095D01*
X95773810Y-104785714D01*
M02*
