M48
;DRILL file {KiCad 4.0.6} date 07/22/17 01:01:01
;FORMAT={-:-/ absolute / inch / decimal}
FMAT,2
INCH,TZ
T1C0.031
T2C0.035
T3C0.039
T4C0.059
T5C0.138
T6C0.067
T7C0.108
T8C0.157
%
G90
G05
M72
T1
X2.0669Y-3.7157
X2.0669Y-4.0157
X2.2441Y-3.7157
X2.2441Y-4.0157
X2.4606Y-3.7157
X2.4606Y-4.0157
X2.6378Y-3.7157
X2.6378Y-4.0157
X2.948Y-3.248
X3.248Y-3.248
X3.5433Y-3.5531
X3.5433Y-3.8531
T2
X2.2933Y-4.6457
X2.3933Y-4.6457
X3.0413Y-3.8976
X3.0413Y-4.6457
X3.1413Y-3.8976
X3.1413Y-4.6457
X3.7894Y-4.6457
X3.8894Y-4.6457
T3
X2.0618Y-2.9815
X2.0618Y-3.0815
X2.1618Y-2.9815
X2.1618Y-3.0815
X2.2618Y-2.9815
X2.2618Y-3.0815
X2.3618Y-2.9815
X2.3618Y-3.0815
X2.4618Y-2.9815
X2.4618Y-3.0815
X2.5591Y-3.3039
X2.5591Y-3.4039
X2.5591Y-3.5039
X2.5618Y-2.9815
X2.5618Y-3.0815
X2.6618Y-2.9815
X2.6618Y-3.0815
X2.7618Y-2.9815
X2.7618Y-3.0815
X2.8618Y-2.9815
X2.8618Y-3.0815
X2.9618Y-2.9815
X2.9618Y-3.0815
X3.0618Y-2.9815
X3.0618Y-3.0815
X3.1618Y-2.9815
X3.1618Y-3.0815
X3.2618Y-2.9815
X3.2618Y-3.0815
X3.3618Y-2.9815
X3.3618Y-3.0815
X3.4618Y-2.9815
X3.4618Y-3.0815
X3.5618Y-2.9815
X3.5618Y-3.0815
X3.6618Y-2.9815
X3.6618Y-3.0815
X3.7618Y-2.9815
X3.7618Y-3.0815
X3.8618Y-2.9815
X3.8618Y-3.0815
X3.9618Y-2.9815
X3.9618Y-3.0815
T4
X2.1925Y-4.3488
X2.4425Y-4.2488
X2.9406Y-3.6008
X2.9406Y-4.3488
X3.1906Y-3.5008
X3.1906Y-4.2488
X3.6886Y-4.3488
X3.9386Y-4.2488
T5
X1.9031Y-3.4039
T6
X2.1425Y-4.4488
X2.5425Y-4.4488
X2.8906Y-3.7008
X2.8906Y-4.4488
X3.2906Y-3.7008
X3.2906Y-4.4488
X3.6386Y-4.4488
X4.0386Y-4.4488
T7
X1.8701Y-3.0315
X1.8701Y-4.9606
X4.1535Y-3.0315
X4.1535Y-4.9606
T8
X2.3425Y-4.4488
X3.0906Y-3.7008
X3.0906Y-4.4488
X3.8386Y-4.4488
T0
M30
