G04 #@! TF.FileFunction,Soldermask,Bot*
%FSLAX46Y46*%
G04 Gerber Fmt 4.6, Leading zero omitted, Abs format (unit mm)*
G04 Created by KiCad (PCBNEW 4.0.6) date 07/20/17 19:11:30*
%MOMM*%
%LPD*%
G01*
G04 APERTURE LIST*
%ADD10C,0.100000*%
%ADD11O,2.000000X17.000000*%
%ADD12O,4.500000X4.500000*%
%ADD13R,1.800000X1.800000*%
%ADD14O,1.800000X1.800000*%
%ADD15C,6.200000*%
%ADD16C,1.800000*%
%ADD17R,1.700000X1.700000*%
%ADD18O,1.700000X1.700000*%
%ADD19C,2.286000*%
%ADD20C,1.600000*%
%ADD21O,1.600000X1.600000*%
G04 APERTURE END LIST*
D10*
D11*
X130000000Y-125000000D03*
D12*
X89340000Y-93460000D03*
D13*
X106000000Y-96000000D03*
D14*
X106000000Y-93460000D03*
X106000000Y-90920000D03*
D15*
X88500000Y-133000000D03*
X146500000Y-133000000D03*
X146500000Y-84000000D03*
D13*
X118250000Y-106000000D03*
D16*
X120790000Y-106000000D03*
D13*
X99250000Y-125000000D03*
D16*
X101790000Y-125000000D03*
D13*
X118250000Y-125000000D03*
D16*
X120790000Y-125000000D03*
D13*
X137250000Y-125000000D03*
D16*
X139790000Y-125000000D03*
D17*
X93400000Y-85200000D03*
D18*
X93400000Y-82660000D03*
X95940000Y-85200000D03*
X95940000Y-82660000D03*
X98480000Y-85200000D03*
X98480000Y-82660000D03*
X101020000Y-85200000D03*
X101020000Y-82660000D03*
X103560000Y-85200000D03*
X103560000Y-82660000D03*
X106100000Y-85200000D03*
X106100000Y-82660000D03*
X108640000Y-85200000D03*
X108640000Y-82660000D03*
X111180000Y-85200000D03*
X111180000Y-82660000D03*
X113720000Y-85200000D03*
X113720000Y-82660000D03*
X116260000Y-85200000D03*
X116260000Y-82660000D03*
X118800000Y-85200000D03*
X118800000Y-82660000D03*
X121340000Y-85200000D03*
X121340000Y-82660000D03*
X123880000Y-85200000D03*
X123880000Y-82660000D03*
X126420000Y-85200000D03*
X126420000Y-82660000D03*
X128960000Y-85200000D03*
X128960000Y-82660000D03*
X131500000Y-85200000D03*
X131500000Y-82660000D03*
X134040000Y-85200000D03*
X134040000Y-82660000D03*
X136580000Y-85200000D03*
X136580000Y-82660000D03*
X139120000Y-85200000D03*
X139120000Y-82660000D03*
X141660000Y-85200000D03*
X141660000Y-82660000D03*
D19*
X122040000Y-95920000D03*
X115690000Y-98460000D03*
X103040000Y-114920000D03*
X96690000Y-117460000D03*
X122040000Y-114920000D03*
X115690000Y-117460000D03*
X141040000Y-114920000D03*
X134690000Y-117460000D03*
D15*
X88500000Y-84000000D03*
D20*
X131000000Y-97250000D03*
D21*
X131000000Y-104870000D03*
D20*
X123500000Y-89500000D03*
D21*
X115880000Y-89500000D03*
D20*
X103500000Y-109000000D03*
D21*
X103500000Y-101380000D03*
D20*
X108000000Y-109000000D03*
D21*
X108000000Y-101380000D03*
D20*
X93500000Y-109000000D03*
D21*
X93500000Y-101380000D03*
D20*
X98000000Y-109000000D03*
D21*
X98000000Y-101380000D03*
M02*
