G04 #@! TF.FileFunction,Copper,L2,Bot,Signal*
%FSLAX46Y46*%
G04 Gerber Fmt 4.6, Leading zero omitted, Abs format (unit mm)*
G04 Created by KiCad (PCBNEW 4.0.6) date 07/22/17 01:00:57*
%MOMM*%
%LPD*%
G01*
G04 APERTURE LIST*
%ADD10C,0.100000*%
%ADD11O,4.500000X4.500000*%
%ADD12R,1.800000X1.800000*%
%ADD13O,1.800000X1.800000*%
%ADD14C,1.800000*%
%ADD15R,1.700000X1.700000*%
%ADD16O,1.700000X1.700000*%
%ADD17C,2.286000*%
%ADD18C,1.600000*%
%ADD19O,1.600000X1.600000*%
%ADD20C,0.500000*%
%ADD21C,0.375000*%
G04 APERTURE END LIST*
D10*
D11*
X48340000Y-86460000D03*
D12*
X65000000Y-89000000D03*
D13*
X65000000Y-86460000D03*
X65000000Y-83920000D03*
D12*
X77250000Y-99000000D03*
D14*
X79790000Y-99000000D03*
D12*
X58250000Y-118000000D03*
D14*
X60790000Y-118000000D03*
D12*
X77250000Y-118000000D03*
D14*
X79790000Y-118000000D03*
D12*
X96250000Y-118000000D03*
D14*
X98790000Y-118000000D03*
D15*
X52370000Y-78270000D03*
D16*
X52370000Y-75730000D03*
X54910000Y-78270000D03*
X54910000Y-75730000D03*
X57450000Y-78270000D03*
X57450000Y-75730000D03*
X59990000Y-78270000D03*
X59990000Y-75730000D03*
X62530000Y-78270000D03*
X62530000Y-75730000D03*
X65070000Y-78270000D03*
X65070000Y-75730000D03*
X67610000Y-78270000D03*
X67610000Y-75730000D03*
X70150000Y-78270000D03*
X70150000Y-75730000D03*
X72690000Y-78270000D03*
X72690000Y-75730000D03*
X75230000Y-78270000D03*
X75230000Y-75730000D03*
X77770000Y-78270000D03*
X77770000Y-75730000D03*
X80310000Y-78270000D03*
X80310000Y-75730000D03*
X82850000Y-78270000D03*
X82850000Y-75730000D03*
X85390000Y-78270000D03*
X85390000Y-75730000D03*
X87930000Y-78270000D03*
X87930000Y-75730000D03*
X90470000Y-78270000D03*
X90470000Y-75730000D03*
X93010000Y-78270000D03*
X93010000Y-75730000D03*
X95550000Y-78270000D03*
X95550000Y-75730000D03*
X98090000Y-78270000D03*
X98090000Y-75730000D03*
X100630000Y-78270000D03*
X100630000Y-75730000D03*
D17*
X81040000Y-88920000D03*
X74690000Y-91460000D03*
X62040000Y-107920000D03*
X55690000Y-110460000D03*
X81040000Y-107920000D03*
X74690000Y-110460000D03*
X100040000Y-107920000D03*
X93690000Y-110460000D03*
D18*
X90000000Y-90250000D03*
D19*
X90000000Y-97870000D03*
D18*
X82500000Y-82500000D03*
D19*
X74880000Y-82500000D03*
D18*
X62500000Y-102000000D03*
D19*
X62500000Y-94380000D03*
D18*
X67000000Y-102000000D03*
D19*
X67000000Y-94380000D03*
D18*
X52500000Y-102000000D03*
D19*
X52500000Y-94380000D03*
D18*
X57000000Y-102000000D03*
D19*
X57000000Y-94380000D03*
D20*
X77250000Y-99000000D02*
X77250000Y-104750000D01*
X69000000Y-118000000D02*
X60790000Y-118000000D01*
X71500000Y-115500000D02*
X69000000Y-118000000D01*
X71500000Y-110500000D02*
X71500000Y-115500000D01*
X77250000Y-104750000D02*
X71500000Y-110500000D01*
D21*
X54940000Y-75660000D02*
X54940000Y-75940000D01*
X54940000Y-75940000D02*
X56175000Y-77150000D01*
X79790000Y-97590000D02*
X79790000Y-99000000D01*
X79200000Y-97000000D02*
X79790000Y-97590000D01*
X61400000Y-97000000D02*
X79200000Y-97000000D01*
X59700000Y-95300000D02*
X61400000Y-97000000D01*
X59700000Y-92700000D02*
X59700000Y-95300000D01*
X56200000Y-89200000D02*
X59700000Y-92700000D01*
X56175000Y-77150000D02*
X56200000Y-89200000D01*
D20*
X79790000Y-99000000D02*
X79790000Y-100210000D01*
X81500000Y-116290000D02*
X79790000Y-118000000D01*
X81500000Y-111500000D02*
X81500000Y-116290000D01*
X79000000Y-109000000D02*
X81500000Y-111500000D01*
X79000000Y-101000000D02*
X79000000Y-109000000D01*
X79790000Y-100210000D02*
X79000000Y-101000000D01*
X67000000Y-102000000D02*
X62500000Y-102000000D01*
X58250000Y-118000000D02*
X58250000Y-117250000D01*
X58250000Y-117250000D02*
X59500000Y-116000000D01*
X59500000Y-116000000D02*
X61500000Y-116000000D01*
X61500000Y-116000000D02*
X62500000Y-115000000D01*
X62500000Y-115000000D02*
X62500000Y-110500000D01*
X62500000Y-110500000D02*
X67000000Y-106000000D01*
X67000000Y-106000000D02*
X67000000Y-102000000D01*
X77250000Y-118000000D02*
X77250000Y-118750000D01*
X77250000Y-118750000D02*
X86000000Y-127500000D01*
X86000000Y-127500000D02*
X90500000Y-127500000D01*
X90500000Y-127500000D02*
X98790000Y-119210000D01*
X98790000Y-119210000D02*
X98790000Y-118000000D01*
X52500000Y-102000000D02*
X57000000Y-102000000D01*
X96250000Y-118000000D02*
X96250000Y-117250000D01*
X96250000Y-117250000D02*
X97500000Y-116000000D01*
X97500000Y-116000000D02*
X99500000Y-116000000D01*
X99500000Y-116000000D02*
X101000000Y-117500000D01*
X101000000Y-117500000D02*
X101000000Y-118500000D01*
X101000000Y-118500000D02*
X91000000Y-128500000D01*
X91000000Y-128500000D02*
X60500000Y-128500000D01*
X60500000Y-128500000D02*
X52500000Y-120500000D01*
X52500000Y-120500000D02*
X52500000Y-102000000D01*
X65100000Y-78200000D02*
X65100000Y-78850000D01*
X65100000Y-78850000D02*
X67250000Y-81000000D01*
X81000000Y-81000000D02*
X82500000Y-82500000D01*
X67250000Y-81000000D02*
X81000000Y-81000000D01*
X65100000Y-78200000D02*
X65100000Y-78350000D01*
D21*
X70180000Y-75660000D02*
X70180000Y-75780000D01*
X70180000Y-75780000D02*
X71425000Y-77000000D01*
X71425000Y-77000000D02*
X71425000Y-79100000D01*
X71425000Y-79100000D02*
X72250000Y-80000000D01*
X72250000Y-80000000D02*
X84750000Y-80000000D01*
X84750000Y-80000000D02*
X93690000Y-88890000D01*
X93690000Y-88890000D02*
X93690000Y-110460000D01*
D20*
X74880000Y-82500000D02*
X68960000Y-82500000D01*
X68960000Y-82500000D02*
X65000000Y-86460000D01*
X65000000Y-83920000D02*
X65000000Y-82500000D01*
X62560000Y-80060000D02*
X62560000Y-78200000D01*
X65000000Y-82500000D02*
X62560000Y-80060000D01*
M02*
