G04 #@! TF.FileFunction,Copper,L2,Bot,Signal*
%FSLAX46Y46*%
G04 Gerber Fmt 4.6, Leading zero omitted, Abs format (unit mm)*
G04 Created by KiCad (PCBNEW 4.0.6) date 07/20/17 17:27:26*
%MOMM*%
%LPD*%
G01*
G04 APERTURE LIST*
%ADD10C,0.100000*%
%ADD11O,4.500000X4.500000*%
%ADD12R,1.800000X1.800000*%
%ADD13O,1.800000X1.800000*%
%ADD14C,6.200000*%
%ADD15C,1.800000*%
%ADD16R,1.700000X1.700000*%
%ADD17O,1.700000X1.700000*%
%ADD18C,2.286000*%
%ADD19C,1.600000*%
%ADD20O,1.600000X1.600000*%
%ADD21C,0.500000*%
%ADD22C,0.375000*%
G04 APERTURE END LIST*
D10*
D11*
X89340000Y-93460000D03*
D12*
X106000000Y-96000000D03*
D13*
X106000000Y-93460000D03*
X106000000Y-90920000D03*
D14*
X88500000Y-133000000D03*
X146500000Y-133000000D03*
X146500000Y-84000000D03*
D12*
X118250000Y-106000000D03*
D15*
X120790000Y-106000000D03*
D12*
X99250000Y-125000000D03*
D15*
X101790000Y-125000000D03*
D12*
X118250000Y-125000000D03*
D15*
X120790000Y-125000000D03*
D12*
X137250000Y-125000000D03*
D15*
X139790000Y-125000000D03*
D16*
X93400000Y-85200000D03*
D17*
X93400000Y-82660000D03*
X95940000Y-85200000D03*
X95940000Y-82660000D03*
X98480000Y-85200000D03*
X98480000Y-82660000D03*
X101020000Y-85200000D03*
X101020000Y-82660000D03*
X103560000Y-85200000D03*
X103560000Y-82660000D03*
X106100000Y-85200000D03*
X106100000Y-82660000D03*
X108640000Y-85200000D03*
X108640000Y-82660000D03*
X111180000Y-85200000D03*
X111180000Y-82660000D03*
X113720000Y-85200000D03*
X113720000Y-82660000D03*
X116260000Y-85200000D03*
X116260000Y-82660000D03*
X118800000Y-85200000D03*
X118800000Y-82660000D03*
X121340000Y-85200000D03*
X121340000Y-82660000D03*
X123880000Y-85200000D03*
X123880000Y-82660000D03*
X126420000Y-85200000D03*
X126420000Y-82660000D03*
X128960000Y-85200000D03*
X128960000Y-82660000D03*
X131500000Y-85200000D03*
X131500000Y-82660000D03*
X134040000Y-85200000D03*
X134040000Y-82660000D03*
X136580000Y-85200000D03*
X136580000Y-82660000D03*
X139120000Y-85200000D03*
X139120000Y-82660000D03*
X141660000Y-85200000D03*
X141660000Y-82660000D03*
D18*
X122040000Y-95920000D03*
X115690000Y-98460000D03*
X103040000Y-114920000D03*
X96690000Y-117460000D03*
X122040000Y-114920000D03*
X115690000Y-117460000D03*
X141040000Y-114920000D03*
X134690000Y-117460000D03*
D14*
X88500000Y-84000000D03*
D19*
X131000000Y-97250000D03*
D20*
X131000000Y-104870000D03*
D19*
X123500000Y-89500000D03*
D20*
X115880000Y-89500000D03*
D19*
X103500000Y-109000000D03*
D20*
X103500000Y-101380000D03*
D19*
X108000000Y-109000000D03*
D20*
X108000000Y-101380000D03*
D19*
X93500000Y-109000000D03*
D20*
X93500000Y-101380000D03*
D19*
X98000000Y-109000000D03*
D20*
X98000000Y-101380000D03*
D21*
X118250000Y-106000000D02*
X118250000Y-111750000D01*
X110000000Y-125000000D02*
X101790000Y-125000000D01*
X112500000Y-122500000D02*
X110000000Y-125000000D01*
X112500000Y-117500000D02*
X112500000Y-122500000D01*
X118250000Y-111750000D02*
X112500000Y-117500000D01*
D22*
X95940000Y-82660000D02*
X95940000Y-82940000D01*
X95940000Y-82940000D02*
X97200000Y-84200000D01*
X120790000Y-104590000D02*
X120790000Y-106000000D01*
X120200000Y-104000000D02*
X120790000Y-104590000D01*
X102400000Y-104000000D02*
X120200000Y-104000000D01*
X100700000Y-102300000D02*
X102400000Y-104000000D01*
X100700000Y-99700000D02*
X100700000Y-102300000D01*
X97200000Y-96200000D02*
X100700000Y-99700000D01*
X97200000Y-84200000D02*
X97200000Y-96200000D01*
D21*
X120790000Y-106000000D02*
X120790000Y-107210000D01*
X122500000Y-123290000D02*
X120790000Y-125000000D01*
X122500000Y-118500000D02*
X122500000Y-123290000D01*
X120000000Y-116000000D02*
X122500000Y-118500000D01*
X120000000Y-108000000D02*
X120000000Y-116000000D01*
X120790000Y-107210000D02*
X120000000Y-108000000D01*
X108000000Y-109000000D02*
X103500000Y-109000000D01*
X99250000Y-125000000D02*
X99250000Y-124250000D01*
X99250000Y-124250000D02*
X100500000Y-123000000D01*
X100500000Y-123000000D02*
X102500000Y-123000000D01*
X102500000Y-123000000D02*
X103500000Y-122000000D01*
X103500000Y-122000000D02*
X103500000Y-117500000D01*
X103500000Y-117500000D02*
X108000000Y-113000000D01*
X108000000Y-113000000D02*
X108000000Y-109000000D01*
X118250000Y-125000000D02*
X118250000Y-125750000D01*
X118250000Y-125750000D02*
X127000000Y-134500000D01*
X127000000Y-134500000D02*
X131500000Y-134500000D01*
X131500000Y-134500000D02*
X139790000Y-126210000D01*
X139790000Y-126210000D02*
X139790000Y-125000000D01*
X93500000Y-109000000D02*
X98000000Y-109000000D01*
X137250000Y-125000000D02*
X137250000Y-124250000D01*
X137250000Y-124250000D02*
X138500000Y-123000000D01*
X138500000Y-123000000D02*
X140500000Y-123000000D01*
X140500000Y-123000000D02*
X142000000Y-124500000D01*
X142000000Y-124500000D02*
X142000000Y-125500000D01*
X142000000Y-125500000D02*
X132000000Y-135500000D01*
X132000000Y-135500000D02*
X101500000Y-135500000D01*
X101500000Y-135500000D02*
X93500000Y-127500000D01*
X93500000Y-127500000D02*
X93500000Y-109000000D01*
X106100000Y-85200000D02*
X106100000Y-85850000D01*
X106100000Y-85850000D02*
X108250000Y-88000000D01*
X122000000Y-88000000D02*
X123500000Y-89500000D01*
X108250000Y-88000000D02*
X122000000Y-88000000D01*
X106100000Y-85200000D02*
X106100000Y-85350000D01*
D22*
X111180000Y-82660000D02*
X111180000Y-82780000D01*
X111180000Y-82780000D02*
X112450000Y-84050000D01*
X112450000Y-84050000D02*
X112450000Y-86050000D01*
X112450000Y-86050000D02*
X113250000Y-86850000D01*
X113250000Y-86850000D02*
X125650000Y-86850000D01*
X125650000Y-86850000D02*
X134690000Y-95890000D01*
X134690000Y-95890000D02*
X134690000Y-117460000D01*
D21*
X115880000Y-89500000D02*
X109960000Y-89500000D01*
X109960000Y-89500000D02*
X106000000Y-93460000D01*
X106000000Y-90920000D02*
X106000000Y-89500000D01*
X103560000Y-87060000D02*
X103560000Y-85200000D01*
X106000000Y-89500000D02*
X103560000Y-87060000D01*
G36*
X143234226Y-86178001D02*
X144316303Y-87261968D01*
X145730828Y-87849330D01*
X147262453Y-87850667D01*
X148678001Y-87265774D01*
X149200000Y-86744685D01*
X149200000Y-130255237D01*
X148683697Y-129738032D01*
X147269172Y-129150670D01*
X145737547Y-129149333D01*
X144321999Y-129734226D01*
X143238032Y-130816303D01*
X142650670Y-132230828D01*
X142649333Y-133762453D01*
X143234226Y-135178001D01*
X143755315Y-135700000D01*
X133214214Y-135700000D01*
X142707107Y-126207107D01*
X142923880Y-125882684D01*
X143000001Y-125500000D01*
X143000000Y-125499995D01*
X143000000Y-124500000D01*
X142923880Y-124117317D01*
X142707107Y-123792893D01*
X141207107Y-122292893D01*
X140882684Y-122076120D01*
X140500000Y-122000000D01*
X140380357Y-122000000D01*
X140824809Y-121556324D01*
X141243422Y-120548190D01*
X141243623Y-120317042D01*
X141978823Y-120317042D01*
X142222032Y-120905652D01*
X142671979Y-121356385D01*
X143260164Y-121600621D01*
X143897042Y-121601177D01*
X144485652Y-121357968D01*
X144936385Y-120908021D01*
X145180621Y-120319836D01*
X145181177Y-119682958D01*
X144937968Y-119094348D01*
X144488021Y-118643615D01*
X143899836Y-118399379D01*
X143262958Y-118398823D01*
X142674348Y-118642032D01*
X142223615Y-119091979D01*
X141979379Y-119680164D01*
X141978823Y-120317042D01*
X141243623Y-120317042D01*
X141244375Y-119456599D01*
X140827521Y-118447736D01*
X140056324Y-117675191D01*
X139048190Y-117256578D01*
X137956599Y-117255625D01*
X136947736Y-117672479D01*
X136441739Y-118177593D01*
X136582671Y-117838193D01*
X136583328Y-117085111D01*
X136295743Y-116389103D01*
X135763698Y-115856129D01*
X135627500Y-115799574D01*
X135627500Y-115294889D01*
X139146672Y-115294889D01*
X139434257Y-115990897D01*
X139966302Y-116523871D01*
X140661807Y-116812671D01*
X141414889Y-116813328D01*
X142110897Y-116525743D01*
X142643871Y-115993698D01*
X142932671Y-115298193D01*
X142933328Y-114545111D01*
X142645743Y-113849103D01*
X142113698Y-113316129D01*
X141418193Y-113027329D01*
X140665111Y-113026672D01*
X139969103Y-113314257D01*
X139436129Y-113846302D01*
X139147329Y-114541807D01*
X139146672Y-115294889D01*
X135627500Y-115294889D01*
X135627500Y-95890005D01*
X135627501Y-95890000D01*
X135556137Y-95531235D01*
X135556137Y-95531234D01*
X135352913Y-95227087D01*
X135352910Y-95227085D01*
X126868049Y-86742223D01*
X127032293Y-86709553D01*
X127551371Y-86362717D01*
X127690000Y-86155244D01*
X127828629Y-86362717D01*
X128347707Y-86709553D01*
X128960000Y-86831346D01*
X129572293Y-86709553D01*
X130091371Y-86362717D01*
X130230000Y-86155244D01*
X130368629Y-86362717D01*
X130887707Y-86709553D01*
X131500000Y-86831346D01*
X132112293Y-86709553D01*
X132631371Y-86362717D01*
X132770000Y-86155244D01*
X132908629Y-86362717D01*
X133427707Y-86709553D01*
X134040000Y-86831346D01*
X134652293Y-86709553D01*
X135171371Y-86362717D01*
X135310000Y-86155244D01*
X135448629Y-86362717D01*
X135967707Y-86709553D01*
X136580000Y-86831346D01*
X137192293Y-86709553D01*
X137711371Y-86362717D01*
X137850000Y-86155244D01*
X137988629Y-86362717D01*
X138507707Y-86709553D01*
X139120000Y-86831346D01*
X139732293Y-86709553D01*
X140251371Y-86362717D01*
X140390000Y-86155244D01*
X140528629Y-86362717D01*
X141047707Y-86709553D01*
X141660000Y-86831346D01*
X142272293Y-86709553D01*
X142791371Y-86362717D01*
X143112171Y-85882605D01*
X143234226Y-86178001D01*
X143234226Y-86178001D01*
G37*
X143234226Y-86178001D02*
X144316303Y-87261968D01*
X145730828Y-87849330D01*
X147262453Y-87850667D01*
X148678001Y-87265774D01*
X149200000Y-86744685D01*
X149200000Y-130255237D01*
X148683697Y-129738032D01*
X147269172Y-129150670D01*
X145737547Y-129149333D01*
X144321999Y-129734226D01*
X143238032Y-130816303D01*
X142650670Y-132230828D01*
X142649333Y-133762453D01*
X143234226Y-135178001D01*
X143755315Y-135700000D01*
X133214214Y-135700000D01*
X142707107Y-126207107D01*
X142923880Y-125882684D01*
X143000001Y-125500000D01*
X143000000Y-125499995D01*
X143000000Y-124500000D01*
X142923880Y-124117317D01*
X142707107Y-123792893D01*
X141207107Y-122292893D01*
X140882684Y-122076120D01*
X140500000Y-122000000D01*
X140380357Y-122000000D01*
X140824809Y-121556324D01*
X141243422Y-120548190D01*
X141243623Y-120317042D01*
X141978823Y-120317042D01*
X142222032Y-120905652D01*
X142671979Y-121356385D01*
X143260164Y-121600621D01*
X143897042Y-121601177D01*
X144485652Y-121357968D01*
X144936385Y-120908021D01*
X145180621Y-120319836D01*
X145181177Y-119682958D01*
X144937968Y-119094348D01*
X144488021Y-118643615D01*
X143899836Y-118399379D01*
X143262958Y-118398823D01*
X142674348Y-118642032D01*
X142223615Y-119091979D01*
X141979379Y-119680164D01*
X141978823Y-120317042D01*
X141243623Y-120317042D01*
X141244375Y-119456599D01*
X140827521Y-118447736D01*
X140056324Y-117675191D01*
X139048190Y-117256578D01*
X137956599Y-117255625D01*
X136947736Y-117672479D01*
X136441739Y-118177593D01*
X136582671Y-117838193D01*
X136583328Y-117085111D01*
X136295743Y-116389103D01*
X135763698Y-115856129D01*
X135627500Y-115799574D01*
X135627500Y-115294889D01*
X139146672Y-115294889D01*
X139434257Y-115990897D01*
X139966302Y-116523871D01*
X140661807Y-116812671D01*
X141414889Y-116813328D01*
X142110897Y-116525743D01*
X142643871Y-115993698D01*
X142932671Y-115298193D01*
X142933328Y-114545111D01*
X142645743Y-113849103D01*
X142113698Y-113316129D01*
X141418193Y-113027329D01*
X140665111Y-113026672D01*
X139969103Y-113314257D01*
X139436129Y-113846302D01*
X139147329Y-114541807D01*
X139146672Y-115294889D01*
X135627500Y-115294889D01*
X135627500Y-95890005D01*
X135627501Y-95890000D01*
X135556137Y-95531235D01*
X135556137Y-95531234D01*
X135352913Y-95227087D01*
X135352910Y-95227085D01*
X126868049Y-86742223D01*
X127032293Y-86709553D01*
X127551371Y-86362717D01*
X127690000Y-86155244D01*
X127828629Y-86362717D01*
X128347707Y-86709553D01*
X128960000Y-86831346D01*
X129572293Y-86709553D01*
X130091371Y-86362717D01*
X130230000Y-86155244D01*
X130368629Y-86362717D01*
X130887707Y-86709553D01*
X131500000Y-86831346D01*
X132112293Y-86709553D01*
X132631371Y-86362717D01*
X132770000Y-86155244D01*
X132908629Y-86362717D01*
X133427707Y-86709553D01*
X134040000Y-86831346D01*
X134652293Y-86709553D01*
X135171371Y-86362717D01*
X135310000Y-86155244D01*
X135448629Y-86362717D01*
X135967707Y-86709553D01*
X136580000Y-86831346D01*
X137192293Y-86709553D01*
X137711371Y-86362717D01*
X137850000Y-86155244D01*
X137988629Y-86362717D01*
X138507707Y-86709553D01*
X139120000Y-86831346D01*
X139732293Y-86709553D01*
X140251371Y-86362717D01*
X140390000Y-86155244D01*
X140528629Y-86362717D01*
X141047707Y-86709553D01*
X141660000Y-86831346D01*
X142272293Y-86709553D01*
X142791371Y-86362717D01*
X143112171Y-85882605D01*
X143234226Y-86178001D01*
G36*
X91837604Y-86327933D02*
X92001862Y-86583198D01*
X92252492Y-86754446D01*
X92550000Y-86814693D01*
X94250000Y-86814693D01*
X94527933Y-86762396D01*
X94783198Y-86598138D01*
X94901606Y-86424842D01*
X95327707Y-86709553D01*
X95940000Y-86831346D01*
X96262500Y-86767197D01*
X96262500Y-96199995D01*
X96262499Y-96200000D01*
X96296484Y-96370849D01*
X96333863Y-96558766D01*
X96339146Y-96566672D01*
X96537087Y-96862913D01*
X99762500Y-100088325D01*
X99762500Y-102299995D01*
X99762499Y-102300000D01*
X99803552Y-102506382D01*
X99833863Y-102658766D01*
X99956549Y-102842379D01*
X100037087Y-102962913D01*
X101737087Y-104662913D01*
X102041234Y-104866137D01*
X102400000Y-104937501D01*
X102400005Y-104937500D01*
X116618214Y-104937500D01*
X116585307Y-105100000D01*
X116585307Y-106900000D01*
X116637604Y-107177933D01*
X116801862Y-107433198D01*
X117052492Y-107604446D01*
X117250000Y-107644442D01*
X117250000Y-111335786D01*
X111792893Y-116792893D01*
X111576120Y-117117316D01*
X111536046Y-117318782D01*
X111500000Y-117500000D01*
X111500000Y-122085786D01*
X109585786Y-124000000D01*
X103123162Y-124000000D01*
X102981358Y-123857948D01*
X103207107Y-123707107D01*
X104207104Y-122707109D01*
X104207107Y-122707107D01*
X104315494Y-122544895D01*
X104423880Y-122382684D01*
X104500001Y-122000000D01*
X104500000Y-121999995D01*
X104500000Y-121184106D01*
X104671979Y-121356385D01*
X105260164Y-121600621D01*
X105897042Y-121601177D01*
X106485652Y-121357968D01*
X106936385Y-120908021D01*
X107180621Y-120319836D01*
X107181177Y-119682958D01*
X106937968Y-119094348D01*
X106488021Y-118643615D01*
X105899836Y-118399379D01*
X105262958Y-118398823D01*
X104674348Y-118642032D01*
X104500000Y-118816076D01*
X104500000Y-117914214D01*
X108707107Y-113707107D01*
X108923880Y-113382684D01*
X109000000Y-113000000D01*
X109000000Y-110191864D01*
X109313260Y-109879151D01*
X109549730Y-109309667D01*
X109550268Y-108693039D01*
X109314792Y-108123143D01*
X108879151Y-107686740D01*
X108309667Y-107450270D01*
X107693039Y-107449732D01*
X107123143Y-107685208D01*
X106807800Y-108000000D01*
X104691864Y-108000000D01*
X104379151Y-107686740D01*
X103809667Y-107450270D01*
X103193039Y-107449732D01*
X102623143Y-107685208D01*
X102186740Y-108120849D01*
X101950270Y-108690333D01*
X101949732Y-109306961D01*
X102185208Y-109876857D01*
X102620849Y-110313260D01*
X103190333Y-110549730D01*
X103806961Y-110550268D01*
X104376857Y-110314792D01*
X104692200Y-110000000D01*
X106808136Y-110000000D01*
X107000000Y-110192200D01*
X107000000Y-112585786D01*
X104933234Y-114652552D01*
X104933328Y-114545111D01*
X104645743Y-113849103D01*
X104113698Y-113316129D01*
X103418193Y-113027329D01*
X102665111Y-113026672D01*
X101969103Y-113314257D01*
X101436129Y-113846302D01*
X101147329Y-114541807D01*
X101146672Y-115294889D01*
X101434257Y-115990897D01*
X101966302Y-116523871D01*
X102661807Y-116812671D01*
X102779609Y-116812774D01*
X102576120Y-117117316D01*
X102536046Y-117318782D01*
X102500000Y-117500000D01*
X102500000Y-118119643D01*
X102056324Y-117675191D01*
X101048190Y-117256578D01*
X99956599Y-117255625D01*
X98947736Y-117672479D01*
X98441739Y-118177593D01*
X98582671Y-117838193D01*
X98583328Y-117085111D01*
X98295743Y-116389103D01*
X97763698Y-115856129D01*
X97068193Y-115567329D01*
X96315111Y-115566672D01*
X95619103Y-115854257D01*
X95086129Y-116386302D01*
X94797329Y-117081807D01*
X94796672Y-117834889D01*
X95040370Y-118424684D01*
X94514348Y-118642032D01*
X94500000Y-118656355D01*
X94500000Y-110191864D01*
X94692200Y-110000000D01*
X96808136Y-110000000D01*
X97120849Y-110313260D01*
X97690333Y-110549730D01*
X98306961Y-110550268D01*
X98876857Y-110314792D01*
X99313260Y-109879151D01*
X99549730Y-109309667D01*
X99550268Y-108693039D01*
X99314792Y-108123143D01*
X98879151Y-107686740D01*
X98309667Y-107450270D01*
X97693039Y-107449732D01*
X97123143Y-107685208D01*
X96807800Y-108000000D01*
X94691864Y-108000000D01*
X94379151Y-107686740D01*
X93809667Y-107450270D01*
X93193039Y-107449732D01*
X92623143Y-107685208D01*
X92186740Y-108120849D01*
X91950270Y-108690333D01*
X91949732Y-109306961D01*
X92185208Y-109876857D01*
X92500000Y-110192200D01*
X92500000Y-127500000D01*
X92576120Y-127882684D01*
X92792893Y-128207107D01*
X100285787Y-135700000D01*
X91244763Y-135700000D01*
X91761968Y-135183697D01*
X92349330Y-133769172D01*
X92350667Y-132237547D01*
X91765774Y-130821999D01*
X90683697Y-129738032D01*
X89269172Y-129150670D01*
X87737547Y-129149333D01*
X86321999Y-129734226D01*
X85800000Y-130255315D01*
X85800000Y-118078791D01*
X85829703Y-117929462D01*
X85869661Y-117869661D01*
X85929462Y-117829703D01*
X86078791Y-117800000D01*
X89000000Y-117800000D01*
X89077281Y-117784628D01*
X89156072Y-117784628D01*
X89538749Y-117708509D01*
X89538755Y-117708509D01*
X89827139Y-117589056D01*
X90151561Y-117372284D01*
X90151564Y-117372283D01*
X90261923Y-117261923D01*
X90372283Y-117151564D01*
X90372284Y-117151561D01*
X90589056Y-116827139D01*
X90708509Y-116538755D01*
X90708509Y-116538750D01*
X90784628Y-116156072D01*
X90784628Y-116077281D01*
X90800000Y-116000000D01*
X90800000Y-101349634D01*
X91950000Y-101349634D01*
X91950000Y-101410366D01*
X92067987Y-102003525D01*
X92403984Y-102506382D01*
X92906841Y-102842379D01*
X93500000Y-102960366D01*
X94093159Y-102842379D01*
X94596016Y-102506382D01*
X94932013Y-102003525D01*
X95050000Y-101410366D01*
X95050000Y-101349634D01*
X96450000Y-101349634D01*
X96450000Y-101410366D01*
X96567987Y-102003525D01*
X96903984Y-102506382D01*
X97406841Y-102842379D01*
X98000000Y-102960366D01*
X98593159Y-102842379D01*
X99096016Y-102506382D01*
X99432013Y-102003525D01*
X99550000Y-101410366D01*
X99550000Y-101349634D01*
X99432013Y-100756475D01*
X99096016Y-100253618D01*
X98593159Y-99917621D01*
X98000000Y-99799634D01*
X97406841Y-99917621D01*
X96903984Y-100253618D01*
X96567987Y-100756475D01*
X96450000Y-101349634D01*
X95050000Y-101349634D01*
X94932013Y-100756475D01*
X94596016Y-100253618D01*
X94093159Y-99917621D01*
X93500000Y-99799634D01*
X92906841Y-99917621D01*
X92403984Y-100253618D01*
X92067987Y-100756475D01*
X91950000Y-101349634D01*
X90800000Y-101349634D01*
X90800000Y-101000000D01*
X90784628Y-100922719D01*
X90784628Y-100843928D01*
X90708509Y-100461250D01*
X90708509Y-100461245D01*
X90589056Y-100172861D01*
X90372283Y-99848437D01*
X90372283Y-99848436D01*
X90261923Y-99738077D01*
X90151564Y-99627717D01*
X90151561Y-99627716D01*
X89827139Y-99410944D01*
X89538755Y-99291491D01*
X89538749Y-99291491D01*
X89156072Y-99215372D01*
X89077281Y-99215372D01*
X89000000Y-99200000D01*
X86078791Y-99200000D01*
X85929462Y-99170297D01*
X85869661Y-99130339D01*
X85829703Y-99070538D01*
X85800000Y-98921209D01*
X85800000Y-93401227D01*
X86340000Y-93401227D01*
X86340000Y-93518773D01*
X86568361Y-94666823D01*
X87218680Y-95640093D01*
X88191950Y-96290412D01*
X89340000Y-96518773D01*
X90488050Y-96290412D01*
X91461320Y-95640093D01*
X92111639Y-94666823D01*
X92340000Y-93518773D01*
X92340000Y-93401227D01*
X92111639Y-92253177D01*
X91461320Y-91279907D01*
X90488050Y-90629588D01*
X89340000Y-90401227D01*
X88191950Y-90629588D01*
X87218680Y-91279907D01*
X86568361Y-92253177D01*
X86340000Y-93401227D01*
X85800000Y-93401227D01*
X85800000Y-86744763D01*
X86316303Y-87261968D01*
X87730828Y-87849330D01*
X89262453Y-87850667D01*
X90678001Y-87265774D01*
X91761968Y-86183697D01*
X91795341Y-86103326D01*
X91837604Y-86327933D01*
X91837604Y-86327933D01*
G37*
X91837604Y-86327933D02*
X92001862Y-86583198D01*
X92252492Y-86754446D01*
X92550000Y-86814693D01*
X94250000Y-86814693D01*
X94527933Y-86762396D01*
X94783198Y-86598138D01*
X94901606Y-86424842D01*
X95327707Y-86709553D01*
X95940000Y-86831346D01*
X96262500Y-86767197D01*
X96262500Y-96199995D01*
X96262499Y-96200000D01*
X96296484Y-96370849D01*
X96333863Y-96558766D01*
X96339146Y-96566672D01*
X96537087Y-96862913D01*
X99762500Y-100088325D01*
X99762500Y-102299995D01*
X99762499Y-102300000D01*
X99803552Y-102506382D01*
X99833863Y-102658766D01*
X99956549Y-102842379D01*
X100037087Y-102962913D01*
X101737087Y-104662913D01*
X102041234Y-104866137D01*
X102400000Y-104937501D01*
X102400005Y-104937500D01*
X116618214Y-104937500D01*
X116585307Y-105100000D01*
X116585307Y-106900000D01*
X116637604Y-107177933D01*
X116801862Y-107433198D01*
X117052492Y-107604446D01*
X117250000Y-107644442D01*
X117250000Y-111335786D01*
X111792893Y-116792893D01*
X111576120Y-117117316D01*
X111536046Y-117318782D01*
X111500000Y-117500000D01*
X111500000Y-122085786D01*
X109585786Y-124000000D01*
X103123162Y-124000000D01*
X102981358Y-123857948D01*
X103207107Y-123707107D01*
X104207104Y-122707109D01*
X104207107Y-122707107D01*
X104315494Y-122544895D01*
X104423880Y-122382684D01*
X104500001Y-122000000D01*
X104500000Y-121999995D01*
X104500000Y-121184106D01*
X104671979Y-121356385D01*
X105260164Y-121600621D01*
X105897042Y-121601177D01*
X106485652Y-121357968D01*
X106936385Y-120908021D01*
X107180621Y-120319836D01*
X107181177Y-119682958D01*
X106937968Y-119094348D01*
X106488021Y-118643615D01*
X105899836Y-118399379D01*
X105262958Y-118398823D01*
X104674348Y-118642032D01*
X104500000Y-118816076D01*
X104500000Y-117914214D01*
X108707107Y-113707107D01*
X108923880Y-113382684D01*
X109000000Y-113000000D01*
X109000000Y-110191864D01*
X109313260Y-109879151D01*
X109549730Y-109309667D01*
X109550268Y-108693039D01*
X109314792Y-108123143D01*
X108879151Y-107686740D01*
X108309667Y-107450270D01*
X107693039Y-107449732D01*
X107123143Y-107685208D01*
X106807800Y-108000000D01*
X104691864Y-108000000D01*
X104379151Y-107686740D01*
X103809667Y-107450270D01*
X103193039Y-107449732D01*
X102623143Y-107685208D01*
X102186740Y-108120849D01*
X101950270Y-108690333D01*
X101949732Y-109306961D01*
X102185208Y-109876857D01*
X102620849Y-110313260D01*
X103190333Y-110549730D01*
X103806961Y-110550268D01*
X104376857Y-110314792D01*
X104692200Y-110000000D01*
X106808136Y-110000000D01*
X107000000Y-110192200D01*
X107000000Y-112585786D01*
X104933234Y-114652552D01*
X104933328Y-114545111D01*
X104645743Y-113849103D01*
X104113698Y-113316129D01*
X103418193Y-113027329D01*
X102665111Y-113026672D01*
X101969103Y-113314257D01*
X101436129Y-113846302D01*
X101147329Y-114541807D01*
X101146672Y-115294889D01*
X101434257Y-115990897D01*
X101966302Y-116523871D01*
X102661807Y-116812671D01*
X102779609Y-116812774D01*
X102576120Y-117117316D01*
X102536046Y-117318782D01*
X102500000Y-117500000D01*
X102500000Y-118119643D01*
X102056324Y-117675191D01*
X101048190Y-117256578D01*
X99956599Y-117255625D01*
X98947736Y-117672479D01*
X98441739Y-118177593D01*
X98582671Y-117838193D01*
X98583328Y-117085111D01*
X98295743Y-116389103D01*
X97763698Y-115856129D01*
X97068193Y-115567329D01*
X96315111Y-115566672D01*
X95619103Y-115854257D01*
X95086129Y-116386302D01*
X94797329Y-117081807D01*
X94796672Y-117834889D01*
X95040370Y-118424684D01*
X94514348Y-118642032D01*
X94500000Y-118656355D01*
X94500000Y-110191864D01*
X94692200Y-110000000D01*
X96808136Y-110000000D01*
X97120849Y-110313260D01*
X97690333Y-110549730D01*
X98306961Y-110550268D01*
X98876857Y-110314792D01*
X99313260Y-109879151D01*
X99549730Y-109309667D01*
X99550268Y-108693039D01*
X99314792Y-108123143D01*
X98879151Y-107686740D01*
X98309667Y-107450270D01*
X97693039Y-107449732D01*
X97123143Y-107685208D01*
X96807800Y-108000000D01*
X94691864Y-108000000D01*
X94379151Y-107686740D01*
X93809667Y-107450270D01*
X93193039Y-107449732D01*
X92623143Y-107685208D01*
X92186740Y-108120849D01*
X91950270Y-108690333D01*
X91949732Y-109306961D01*
X92185208Y-109876857D01*
X92500000Y-110192200D01*
X92500000Y-127500000D01*
X92576120Y-127882684D01*
X92792893Y-128207107D01*
X100285787Y-135700000D01*
X91244763Y-135700000D01*
X91761968Y-135183697D01*
X92349330Y-133769172D01*
X92350667Y-132237547D01*
X91765774Y-130821999D01*
X90683697Y-129738032D01*
X89269172Y-129150670D01*
X87737547Y-129149333D01*
X86321999Y-129734226D01*
X85800000Y-130255315D01*
X85800000Y-118078791D01*
X85829703Y-117929462D01*
X85869661Y-117869661D01*
X85929462Y-117829703D01*
X86078791Y-117800000D01*
X89000000Y-117800000D01*
X89077281Y-117784628D01*
X89156072Y-117784628D01*
X89538749Y-117708509D01*
X89538755Y-117708509D01*
X89827139Y-117589056D01*
X90151561Y-117372284D01*
X90151564Y-117372283D01*
X90261923Y-117261923D01*
X90372283Y-117151564D01*
X90372284Y-117151561D01*
X90589056Y-116827139D01*
X90708509Y-116538755D01*
X90708509Y-116538750D01*
X90784628Y-116156072D01*
X90784628Y-116077281D01*
X90800000Y-116000000D01*
X90800000Y-101349634D01*
X91950000Y-101349634D01*
X91950000Y-101410366D01*
X92067987Y-102003525D01*
X92403984Y-102506382D01*
X92906841Y-102842379D01*
X93500000Y-102960366D01*
X94093159Y-102842379D01*
X94596016Y-102506382D01*
X94932013Y-102003525D01*
X95050000Y-101410366D01*
X95050000Y-101349634D01*
X96450000Y-101349634D01*
X96450000Y-101410366D01*
X96567987Y-102003525D01*
X96903984Y-102506382D01*
X97406841Y-102842379D01*
X98000000Y-102960366D01*
X98593159Y-102842379D01*
X99096016Y-102506382D01*
X99432013Y-102003525D01*
X99550000Y-101410366D01*
X99550000Y-101349634D01*
X99432013Y-100756475D01*
X99096016Y-100253618D01*
X98593159Y-99917621D01*
X98000000Y-99799634D01*
X97406841Y-99917621D01*
X96903984Y-100253618D01*
X96567987Y-100756475D01*
X96450000Y-101349634D01*
X95050000Y-101349634D01*
X94932013Y-100756475D01*
X94596016Y-100253618D01*
X94093159Y-99917621D01*
X93500000Y-99799634D01*
X92906841Y-99917621D01*
X92403984Y-100253618D01*
X92067987Y-100756475D01*
X91950000Y-101349634D01*
X90800000Y-101349634D01*
X90800000Y-101000000D01*
X90784628Y-100922719D01*
X90784628Y-100843928D01*
X90708509Y-100461250D01*
X90708509Y-100461245D01*
X90589056Y-100172861D01*
X90372283Y-99848437D01*
X90372283Y-99848436D01*
X90261923Y-99738077D01*
X90151564Y-99627717D01*
X90151561Y-99627716D01*
X89827139Y-99410944D01*
X89538755Y-99291491D01*
X89538749Y-99291491D01*
X89156072Y-99215372D01*
X89077281Y-99215372D01*
X89000000Y-99200000D01*
X86078791Y-99200000D01*
X85929462Y-99170297D01*
X85869661Y-99130339D01*
X85829703Y-99070538D01*
X85800000Y-98921209D01*
X85800000Y-93401227D01*
X86340000Y-93401227D01*
X86340000Y-93518773D01*
X86568361Y-94666823D01*
X87218680Y-95640093D01*
X88191950Y-96290412D01*
X89340000Y-96518773D01*
X90488050Y-96290412D01*
X91461320Y-95640093D01*
X92111639Y-94666823D01*
X92340000Y-93518773D01*
X92340000Y-93401227D01*
X92111639Y-92253177D01*
X91461320Y-91279907D01*
X90488050Y-90629588D01*
X89340000Y-90401227D01*
X88191950Y-90629588D01*
X87218680Y-91279907D01*
X86568361Y-92253177D01*
X86340000Y-93401227D01*
X85800000Y-93401227D01*
X85800000Y-86744763D01*
X86316303Y-87261968D01*
X87730828Y-87849330D01*
X89262453Y-87850667D01*
X90678001Y-87265774D01*
X91761968Y-86183697D01*
X91795341Y-86103326D01*
X91837604Y-86327933D01*
G36*
X116756578Y-119451810D02*
X116755625Y-120543401D01*
X117172479Y-121552264D01*
X117943676Y-122324809D01*
X118951810Y-122743422D01*
X120043401Y-122744375D01*
X121052264Y-122327521D01*
X121500000Y-121880566D01*
X121500000Y-122875786D01*
X121025581Y-123350205D01*
X120463235Y-123349715D01*
X119856571Y-123600383D01*
X119773261Y-123683547D01*
X119698138Y-123566802D01*
X119447508Y-123395554D01*
X119150000Y-123335307D01*
X117350000Y-123335307D01*
X117072067Y-123387604D01*
X116816802Y-123551862D01*
X116645554Y-123802492D01*
X116585307Y-124100000D01*
X116585307Y-125900000D01*
X116637604Y-126177933D01*
X116801862Y-126433198D01*
X117052492Y-126604446D01*
X117350000Y-126664693D01*
X117750479Y-126664693D01*
X125585786Y-134500000D01*
X101914213Y-134500000D01*
X94500000Y-127085786D01*
X94500000Y-121344385D01*
X94511979Y-121356385D01*
X95100164Y-121600621D01*
X95737042Y-121601177D01*
X96325652Y-121357968D01*
X96776385Y-120908021D01*
X97020621Y-120319836D01*
X97021177Y-119682958D01*
X96884912Y-119353171D01*
X97064889Y-119353328D01*
X97760897Y-119065743D01*
X98027324Y-118799781D01*
X97756578Y-119451810D01*
X97755625Y-120543401D01*
X98172479Y-121552264D01*
X98943676Y-122324809D01*
X99521178Y-122564608D01*
X98750479Y-123335307D01*
X98350000Y-123335307D01*
X98072067Y-123387604D01*
X97816802Y-123551862D01*
X97645554Y-123802492D01*
X97585307Y-124100000D01*
X97585307Y-125900000D01*
X97637604Y-126177933D01*
X97801862Y-126433198D01*
X98052492Y-126604446D01*
X98350000Y-126664693D01*
X100150000Y-126664693D01*
X100427933Y-126612396D01*
X100683198Y-126448138D01*
X100772998Y-126316712D01*
X100854130Y-126397986D01*
X101460355Y-126649713D01*
X102116765Y-126650285D01*
X102723429Y-126399617D01*
X103123744Y-126000000D01*
X110000000Y-126000000D01*
X110382684Y-125923880D01*
X110707107Y-125707107D01*
X113207107Y-123207107D01*
X113423880Y-122882684D01*
X113500000Y-122500000D01*
X113500000Y-121344385D01*
X113511979Y-121356385D01*
X114100164Y-121600621D01*
X114737042Y-121601177D01*
X115325652Y-121357968D01*
X115776385Y-120908021D01*
X116020621Y-120319836D01*
X116021177Y-119682958D01*
X115884912Y-119353171D01*
X116064889Y-119353328D01*
X116760897Y-119065743D01*
X117027324Y-118799781D01*
X116756578Y-119451810D01*
X116756578Y-119451810D01*
G37*
X116756578Y-119451810D02*
X116755625Y-120543401D01*
X117172479Y-121552264D01*
X117943676Y-122324809D01*
X118951810Y-122743422D01*
X120043401Y-122744375D01*
X121052264Y-122327521D01*
X121500000Y-121880566D01*
X121500000Y-122875786D01*
X121025581Y-123350205D01*
X120463235Y-123349715D01*
X119856571Y-123600383D01*
X119773261Y-123683547D01*
X119698138Y-123566802D01*
X119447508Y-123395554D01*
X119150000Y-123335307D01*
X117350000Y-123335307D01*
X117072067Y-123387604D01*
X116816802Y-123551862D01*
X116645554Y-123802492D01*
X116585307Y-124100000D01*
X116585307Y-125900000D01*
X116637604Y-126177933D01*
X116801862Y-126433198D01*
X117052492Y-126604446D01*
X117350000Y-126664693D01*
X117750479Y-126664693D01*
X125585786Y-134500000D01*
X101914213Y-134500000D01*
X94500000Y-127085786D01*
X94500000Y-121344385D01*
X94511979Y-121356385D01*
X95100164Y-121600621D01*
X95737042Y-121601177D01*
X96325652Y-121357968D01*
X96776385Y-120908021D01*
X97020621Y-120319836D01*
X97021177Y-119682958D01*
X96884912Y-119353171D01*
X97064889Y-119353328D01*
X97760897Y-119065743D01*
X98027324Y-118799781D01*
X97756578Y-119451810D01*
X97755625Y-120543401D01*
X98172479Y-121552264D01*
X98943676Y-122324809D01*
X99521178Y-122564608D01*
X98750479Y-123335307D01*
X98350000Y-123335307D01*
X98072067Y-123387604D01*
X97816802Y-123551862D01*
X97645554Y-123802492D01*
X97585307Y-124100000D01*
X97585307Y-125900000D01*
X97637604Y-126177933D01*
X97801862Y-126433198D01*
X98052492Y-126604446D01*
X98350000Y-126664693D01*
X100150000Y-126664693D01*
X100427933Y-126612396D01*
X100683198Y-126448138D01*
X100772998Y-126316712D01*
X100854130Y-126397986D01*
X101460355Y-126649713D01*
X102116765Y-126650285D01*
X102723429Y-126399617D01*
X103123744Y-126000000D01*
X110000000Y-126000000D01*
X110382684Y-125923880D01*
X110707107Y-125707107D01*
X113207107Y-123207107D01*
X113423880Y-122882684D01*
X113500000Y-122500000D01*
X113500000Y-121344385D01*
X113511979Y-121356385D01*
X114100164Y-121600621D01*
X114737042Y-121601177D01*
X115325652Y-121357968D01*
X115776385Y-120908021D01*
X116020621Y-120319836D01*
X116021177Y-119682958D01*
X115884912Y-119353171D01*
X116064889Y-119353328D01*
X116760897Y-119065743D01*
X117027324Y-118799781D01*
X116756578Y-119451810D01*
G36*
X102428629Y-86362717D02*
X102560000Y-86450496D01*
X102560000Y-87060000D01*
X102636120Y-87442684D01*
X102852893Y-87767107D01*
X104822644Y-89736858D01*
X104475599Y-90256247D01*
X104350000Y-90887675D01*
X104350000Y-90952325D01*
X104475599Y-91583753D01*
X104833274Y-92119051D01*
X104939457Y-92190000D01*
X104833274Y-92260949D01*
X104475599Y-92796247D01*
X104350000Y-93427675D01*
X104350000Y-93492325D01*
X104475599Y-94123753D01*
X104703065Y-94464179D01*
X104566802Y-94551862D01*
X104395554Y-94802492D01*
X104335307Y-95100000D01*
X104335307Y-96900000D01*
X104387604Y-97177933D01*
X104551862Y-97433198D01*
X104802492Y-97604446D01*
X105100000Y-97664693D01*
X106900000Y-97664693D01*
X107177933Y-97612396D01*
X107433198Y-97448138D01*
X107604446Y-97197508D01*
X107664693Y-96900000D01*
X107664693Y-96294889D01*
X120146672Y-96294889D01*
X120434257Y-96990897D01*
X120966302Y-97523871D01*
X121661807Y-97812671D01*
X122414889Y-97813328D01*
X123035343Y-97556961D01*
X129449732Y-97556961D01*
X129685208Y-98126857D01*
X130120849Y-98563260D01*
X130690333Y-98799730D01*
X131306961Y-98800268D01*
X131876857Y-98564792D01*
X132313260Y-98129151D01*
X132549730Y-97559667D01*
X132550268Y-96943039D01*
X132314792Y-96373143D01*
X131879151Y-95936740D01*
X131309667Y-95700270D01*
X130693039Y-95699732D01*
X130123143Y-95935208D01*
X129686740Y-96370849D01*
X129450270Y-96940333D01*
X129449732Y-97556961D01*
X123035343Y-97556961D01*
X123110897Y-97525743D01*
X123643871Y-96993698D01*
X123932671Y-96298193D01*
X123933328Y-95545111D01*
X123645743Y-94849103D01*
X123113698Y-94316129D01*
X122418193Y-94027329D01*
X121665111Y-94026672D01*
X120969103Y-94314257D01*
X120436129Y-94846302D01*
X120147329Y-95541807D01*
X120146672Y-96294889D01*
X107664693Y-96294889D01*
X107664693Y-95100000D01*
X107612396Y-94822067D01*
X107448138Y-94566802D01*
X107297252Y-94463706D01*
X107524401Y-94123753D01*
X107650000Y-93492325D01*
X107650000Y-93427675D01*
X107616244Y-93257970D01*
X110374214Y-90500000D01*
X114689462Y-90500000D01*
X114753618Y-90596016D01*
X115256475Y-90932013D01*
X115849634Y-91050000D01*
X115910366Y-91050000D01*
X116503525Y-90932013D01*
X117006382Y-90596016D01*
X117342379Y-90093159D01*
X117460366Y-89500000D01*
X117360910Y-89000000D01*
X121585786Y-89000000D01*
X121950118Y-89364332D01*
X121949732Y-89806961D01*
X122185208Y-90376857D01*
X122620849Y-90813260D01*
X123190333Y-91049730D01*
X123806961Y-91050268D01*
X124376857Y-90814792D01*
X124813260Y-90379151D01*
X125049730Y-89809667D01*
X125050268Y-89193039D01*
X124814792Y-88623143D01*
X124379151Y-88186740D01*
X123809667Y-87950270D01*
X123364095Y-87949881D01*
X123201714Y-87787500D01*
X125261674Y-87787500D01*
X133752500Y-96278325D01*
X133752500Y-115799138D01*
X133619103Y-115854257D01*
X133086129Y-116386302D01*
X132797329Y-117081807D01*
X132796672Y-117834889D01*
X133040370Y-118424684D01*
X132514348Y-118642032D01*
X132063615Y-119091979D01*
X131819379Y-119680164D01*
X131818823Y-120317042D01*
X132062032Y-120905652D01*
X132511979Y-121356385D01*
X133100164Y-121600621D01*
X133737042Y-121601177D01*
X134325652Y-121357968D01*
X134776385Y-120908021D01*
X135020621Y-120319836D01*
X135021177Y-119682958D01*
X134884912Y-119353171D01*
X135064889Y-119353328D01*
X135760897Y-119065743D01*
X136027324Y-118799781D01*
X135756578Y-119451810D01*
X135755625Y-120543401D01*
X136172479Y-121552264D01*
X136943676Y-122324809D01*
X137521178Y-122564608D01*
X136750479Y-123335307D01*
X136350000Y-123335307D01*
X136072067Y-123387604D01*
X135816802Y-123551862D01*
X135645554Y-123802492D01*
X135585307Y-124100000D01*
X135585307Y-125900000D01*
X135637604Y-126177933D01*
X135801862Y-126433198D01*
X136052492Y-126604446D01*
X136350000Y-126664693D01*
X137921094Y-126664693D01*
X131711620Y-132874166D01*
X131750000Y-132681218D01*
X131750000Y-117318782D01*
X131616789Y-116649086D01*
X131237437Y-116081345D01*
X130669696Y-115701993D01*
X130000000Y-115568782D01*
X129330304Y-115701993D01*
X128762563Y-116081345D01*
X128383211Y-116649086D01*
X128250000Y-117318782D01*
X128250000Y-132681218D01*
X128383211Y-133350914D01*
X128482827Y-133500000D01*
X127414214Y-133500000D01*
X120564017Y-126649803D01*
X121116765Y-126650285D01*
X121723429Y-126399617D01*
X122187986Y-125935870D01*
X122439713Y-125329645D01*
X122440206Y-124764008D01*
X123207107Y-123997107D01*
X123343558Y-123792893D01*
X123423880Y-123672683D01*
X123500000Y-123290000D01*
X123500000Y-121184106D01*
X123671979Y-121356385D01*
X124260164Y-121600621D01*
X124897042Y-121601177D01*
X125485652Y-121357968D01*
X125936385Y-120908021D01*
X126180621Y-120319836D01*
X126181177Y-119682958D01*
X125937968Y-119094348D01*
X125488021Y-118643615D01*
X124899836Y-118399379D01*
X124262958Y-118398823D01*
X123674348Y-118642032D01*
X123500000Y-118816076D01*
X123500000Y-118500000D01*
X123423880Y-118117317D01*
X123423880Y-118117316D01*
X123207107Y-117792893D01*
X122227378Y-116813164D01*
X122414889Y-116813328D01*
X123110897Y-116525743D01*
X123643871Y-115993698D01*
X123932671Y-115298193D01*
X123933328Y-114545111D01*
X123645743Y-113849103D01*
X123113698Y-113316129D01*
X122418193Y-113027329D01*
X121665111Y-113026672D01*
X121000000Y-113301491D01*
X121000000Y-108414214D01*
X121497107Y-107917107D01*
X121713880Y-107592684D01*
X121759433Y-107363676D01*
X122187986Y-106935870D01*
X122439713Y-106329645D01*
X122440285Y-105673235D01*
X122189617Y-105066571D01*
X121963076Y-104839634D01*
X129450000Y-104839634D01*
X129450000Y-104900366D01*
X129567987Y-105493525D01*
X129903984Y-105996382D01*
X130406841Y-106332379D01*
X131000000Y-106450366D01*
X131593159Y-106332379D01*
X132096016Y-105996382D01*
X132432013Y-105493525D01*
X132550000Y-104900366D01*
X132550000Y-104839634D01*
X132432013Y-104246475D01*
X132096016Y-103743618D01*
X131593159Y-103407621D01*
X131000000Y-103289634D01*
X130406841Y-103407621D01*
X129903984Y-103743618D01*
X129567987Y-104246475D01*
X129450000Y-104839634D01*
X121963076Y-104839634D01*
X121727500Y-104603647D01*
X121727500Y-104590005D01*
X121727501Y-104590000D01*
X121667977Y-104290758D01*
X121656137Y-104231234D01*
X121452913Y-103927087D01*
X120911507Y-103385681D01*
X121052264Y-103327521D01*
X121824809Y-102556324D01*
X122243422Y-101548190D01*
X122243623Y-101317042D01*
X122978823Y-101317042D01*
X123222032Y-101905652D01*
X123671979Y-102356385D01*
X124260164Y-102600621D01*
X124897042Y-102601177D01*
X125485652Y-102357968D01*
X125936385Y-101908021D01*
X126180621Y-101319836D01*
X126181177Y-100682958D01*
X125937968Y-100094348D01*
X125488021Y-99643615D01*
X124899836Y-99399379D01*
X124262958Y-99398823D01*
X123674348Y-99642032D01*
X123223615Y-100091979D01*
X122979379Y-100680164D01*
X122978823Y-101317042D01*
X122243623Y-101317042D01*
X122244375Y-100456599D01*
X121827521Y-99447736D01*
X121056324Y-98675191D01*
X120048190Y-98256578D01*
X118956599Y-98255625D01*
X117947736Y-98672479D01*
X117441739Y-99177593D01*
X117582671Y-98838193D01*
X117583328Y-98085111D01*
X117295743Y-97389103D01*
X116763698Y-96856129D01*
X116068193Y-96567329D01*
X115315111Y-96566672D01*
X114619103Y-96854257D01*
X114086129Y-97386302D01*
X113797329Y-98081807D01*
X113796672Y-98834889D01*
X114040370Y-99424684D01*
X113514348Y-99642032D01*
X113063615Y-100091979D01*
X112819379Y-100680164D01*
X112818823Y-101317042D01*
X113062032Y-101905652D01*
X113511979Y-102356385D01*
X114100164Y-102600621D01*
X114737042Y-102601177D01*
X115325652Y-102357968D01*
X115776385Y-101908021D01*
X116020621Y-101319836D01*
X116021177Y-100682958D01*
X115884912Y-100353171D01*
X116064889Y-100353328D01*
X116760897Y-100065743D01*
X117027324Y-99799781D01*
X116756578Y-100451810D01*
X116755625Y-101543401D01*
X117172479Y-102552264D01*
X117681825Y-103062500D01*
X102788326Y-103062500D01*
X101637500Y-101911674D01*
X101637500Y-101349634D01*
X101950000Y-101349634D01*
X101950000Y-101410366D01*
X102067987Y-102003525D01*
X102403984Y-102506382D01*
X102906841Y-102842379D01*
X103500000Y-102960366D01*
X104093159Y-102842379D01*
X104596016Y-102506382D01*
X104932013Y-102003525D01*
X105050000Y-101410366D01*
X105050000Y-101349634D01*
X106450000Y-101349634D01*
X106450000Y-101410366D01*
X106567987Y-102003525D01*
X106903984Y-102506382D01*
X107406841Y-102842379D01*
X108000000Y-102960366D01*
X108593159Y-102842379D01*
X109096016Y-102506382D01*
X109432013Y-102003525D01*
X109550000Y-101410366D01*
X109550000Y-101349634D01*
X109432013Y-100756475D01*
X109096016Y-100253618D01*
X108593159Y-99917621D01*
X108000000Y-99799634D01*
X107406841Y-99917621D01*
X106903984Y-100253618D01*
X106567987Y-100756475D01*
X106450000Y-101349634D01*
X105050000Y-101349634D01*
X104932013Y-100756475D01*
X104596016Y-100253618D01*
X104093159Y-99917621D01*
X103500000Y-99799634D01*
X102906841Y-99917621D01*
X102403984Y-100253618D01*
X102067987Y-100756475D01*
X101950000Y-101349634D01*
X101637500Y-101349634D01*
X101637500Y-99700000D01*
X101566137Y-99341234D01*
X101362913Y-99037087D01*
X101362910Y-99037085D01*
X98137500Y-95811674D01*
X98137500Y-86763218D01*
X98480000Y-86831346D01*
X99092293Y-86709553D01*
X99611371Y-86362717D01*
X99750000Y-86155244D01*
X99888629Y-86362717D01*
X100407707Y-86709553D01*
X101020000Y-86831346D01*
X101632293Y-86709553D01*
X102151371Y-86362717D01*
X102290000Y-86155244D01*
X102428629Y-86362717D01*
X102428629Y-86362717D01*
G37*
X102428629Y-86362717D02*
X102560000Y-86450496D01*
X102560000Y-87060000D01*
X102636120Y-87442684D01*
X102852893Y-87767107D01*
X104822644Y-89736858D01*
X104475599Y-90256247D01*
X104350000Y-90887675D01*
X104350000Y-90952325D01*
X104475599Y-91583753D01*
X104833274Y-92119051D01*
X104939457Y-92190000D01*
X104833274Y-92260949D01*
X104475599Y-92796247D01*
X104350000Y-93427675D01*
X104350000Y-93492325D01*
X104475599Y-94123753D01*
X104703065Y-94464179D01*
X104566802Y-94551862D01*
X104395554Y-94802492D01*
X104335307Y-95100000D01*
X104335307Y-96900000D01*
X104387604Y-97177933D01*
X104551862Y-97433198D01*
X104802492Y-97604446D01*
X105100000Y-97664693D01*
X106900000Y-97664693D01*
X107177933Y-97612396D01*
X107433198Y-97448138D01*
X107604446Y-97197508D01*
X107664693Y-96900000D01*
X107664693Y-96294889D01*
X120146672Y-96294889D01*
X120434257Y-96990897D01*
X120966302Y-97523871D01*
X121661807Y-97812671D01*
X122414889Y-97813328D01*
X123035343Y-97556961D01*
X129449732Y-97556961D01*
X129685208Y-98126857D01*
X130120849Y-98563260D01*
X130690333Y-98799730D01*
X131306961Y-98800268D01*
X131876857Y-98564792D01*
X132313260Y-98129151D01*
X132549730Y-97559667D01*
X132550268Y-96943039D01*
X132314792Y-96373143D01*
X131879151Y-95936740D01*
X131309667Y-95700270D01*
X130693039Y-95699732D01*
X130123143Y-95935208D01*
X129686740Y-96370849D01*
X129450270Y-96940333D01*
X129449732Y-97556961D01*
X123035343Y-97556961D01*
X123110897Y-97525743D01*
X123643871Y-96993698D01*
X123932671Y-96298193D01*
X123933328Y-95545111D01*
X123645743Y-94849103D01*
X123113698Y-94316129D01*
X122418193Y-94027329D01*
X121665111Y-94026672D01*
X120969103Y-94314257D01*
X120436129Y-94846302D01*
X120147329Y-95541807D01*
X120146672Y-96294889D01*
X107664693Y-96294889D01*
X107664693Y-95100000D01*
X107612396Y-94822067D01*
X107448138Y-94566802D01*
X107297252Y-94463706D01*
X107524401Y-94123753D01*
X107650000Y-93492325D01*
X107650000Y-93427675D01*
X107616244Y-93257970D01*
X110374214Y-90500000D01*
X114689462Y-90500000D01*
X114753618Y-90596016D01*
X115256475Y-90932013D01*
X115849634Y-91050000D01*
X115910366Y-91050000D01*
X116503525Y-90932013D01*
X117006382Y-90596016D01*
X117342379Y-90093159D01*
X117460366Y-89500000D01*
X117360910Y-89000000D01*
X121585786Y-89000000D01*
X121950118Y-89364332D01*
X121949732Y-89806961D01*
X122185208Y-90376857D01*
X122620849Y-90813260D01*
X123190333Y-91049730D01*
X123806961Y-91050268D01*
X124376857Y-90814792D01*
X124813260Y-90379151D01*
X125049730Y-89809667D01*
X125050268Y-89193039D01*
X124814792Y-88623143D01*
X124379151Y-88186740D01*
X123809667Y-87950270D01*
X123364095Y-87949881D01*
X123201714Y-87787500D01*
X125261674Y-87787500D01*
X133752500Y-96278325D01*
X133752500Y-115799138D01*
X133619103Y-115854257D01*
X133086129Y-116386302D01*
X132797329Y-117081807D01*
X132796672Y-117834889D01*
X133040370Y-118424684D01*
X132514348Y-118642032D01*
X132063615Y-119091979D01*
X131819379Y-119680164D01*
X131818823Y-120317042D01*
X132062032Y-120905652D01*
X132511979Y-121356385D01*
X133100164Y-121600621D01*
X133737042Y-121601177D01*
X134325652Y-121357968D01*
X134776385Y-120908021D01*
X135020621Y-120319836D01*
X135021177Y-119682958D01*
X134884912Y-119353171D01*
X135064889Y-119353328D01*
X135760897Y-119065743D01*
X136027324Y-118799781D01*
X135756578Y-119451810D01*
X135755625Y-120543401D01*
X136172479Y-121552264D01*
X136943676Y-122324809D01*
X137521178Y-122564608D01*
X136750479Y-123335307D01*
X136350000Y-123335307D01*
X136072067Y-123387604D01*
X135816802Y-123551862D01*
X135645554Y-123802492D01*
X135585307Y-124100000D01*
X135585307Y-125900000D01*
X135637604Y-126177933D01*
X135801862Y-126433198D01*
X136052492Y-126604446D01*
X136350000Y-126664693D01*
X137921094Y-126664693D01*
X131711620Y-132874166D01*
X131750000Y-132681218D01*
X131750000Y-117318782D01*
X131616789Y-116649086D01*
X131237437Y-116081345D01*
X130669696Y-115701993D01*
X130000000Y-115568782D01*
X129330304Y-115701993D01*
X128762563Y-116081345D01*
X128383211Y-116649086D01*
X128250000Y-117318782D01*
X128250000Y-132681218D01*
X128383211Y-133350914D01*
X128482827Y-133500000D01*
X127414214Y-133500000D01*
X120564017Y-126649803D01*
X121116765Y-126650285D01*
X121723429Y-126399617D01*
X122187986Y-125935870D01*
X122439713Y-125329645D01*
X122440206Y-124764008D01*
X123207107Y-123997107D01*
X123343558Y-123792893D01*
X123423880Y-123672683D01*
X123500000Y-123290000D01*
X123500000Y-121184106D01*
X123671979Y-121356385D01*
X124260164Y-121600621D01*
X124897042Y-121601177D01*
X125485652Y-121357968D01*
X125936385Y-120908021D01*
X126180621Y-120319836D01*
X126181177Y-119682958D01*
X125937968Y-119094348D01*
X125488021Y-118643615D01*
X124899836Y-118399379D01*
X124262958Y-118398823D01*
X123674348Y-118642032D01*
X123500000Y-118816076D01*
X123500000Y-118500000D01*
X123423880Y-118117317D01*
X123423880Y-118117316D01*
X123207107Y-117792893D01*
X122227378Y-116813164D01*
X122414889Y-116813328D01*
X123110897Y-116525743D01*
X123643871Y-115993698D01*
X123932671Y-115298193D01*
X123933328Y-114545111D01*
X123645743Y-113849103D01*
X123113698Y-113316129D01*
X122418193Y-113027329D01*
X121665111Y-113026672D01*
X121000000Y-113301491D01*
X121000000Y-108414214D01*
X121497107Y-107917107D01*
X121713880Y-107592684D01*
X121759433Y-107363676D01*
X122187986Y-106935870D01*
X122439713Y-106329645D01*
X122440285Y-105673235D01*
X122189617Y-105066571D01*
X121963076Y-104839634D01*
X129450000Y-104839634D01*
X129450000Y-104900366D01*
X129567987Y-105493525D01*
X129903984Y-105996382D01*
X130406841Y-106332379D01*
X131000000Y-106450366D01*
X131593159Y-106332379D01*
X132096016Y-105996382D01*
X132432013Y-105493525D01*
X132550000Y-104900366D01*
X132550000Y-104839634D01*
X132432013Y-104246475D01*
X132096016Y-103743618D01*
X131593159Y-103407621D01*
X131000000Y-103289634D01*
X130406841Y-103407621D01*
X129903984Y-103743618D01*
X129567987Y-104246475D01*
X129450000Y-104839634D01*
X121963076Y-104839634D01*
X121727500Y-104603647D01*
X121727500Y-104590005D01*
X121727501Y-104590000D01*
X121667977Y-104290758D01*
X121656137Y-104231234D01*
X121452913Y-103927087D01*
X120911507Y-103385681D01*
X121052264Y-103327521D01*
X121824809Y-102556324D01*
X122243422Y-101548190D01*
X122243623Y-101317042D01*
X122978823Y-101317042D01*
X123222032Y-101905652D01*
X123671979Y-102356385D01*
X124260164Y-102600621D01*
X124897042Y-102601177D01*
X125485652Y-102357968D01*
X125936385Y-101908021D01*
X126180621Y-101319836D01*
X126181177Y-100682958D01*
X125937968Y-100094348D01*
X125488021Y-99643615D01*
X124899836Y-99399379D01*
X124262958Y-99398823D01*
X123674348Y-99642032D01*
X123223615Y-100091979D01*
X122979379Y-100680164D01*
X122978823Y-101317042D01*
X122243623Y-101317042D01*
X122244375Y-100456599D01*
X121827521Y-99447736D01*
X121056324Y-98675191D01*
X120048190Y-98256578D01*
X118956599Y-98255625D01*
X117947736Y-98672479D01*
X117441739Y-99177593D01*
X117582671Y-98838193D01*
X117583328Y-98085111D01*
X117295743Y-97389103D01*
X116763698Y-96856129D01*
X116068193Y-96567329D01*
X115315111Y-96566672D01*
X114619103Y-96854257D01*
X114086129Y-97386302D01*
X113797329Y-98081807D01*
X113796672Y-98834889D01*
X114040370Y-99424684D01*
X113514348Y-99642032D01*
X113063615Y-100091979D01*
X112819379Y-100680164D01*
X112818823Y-101317042D01*
X113062032Y-101905652D01*
X113511979Y-102356385D01*
X114100164Y-102600621D01*
X114737042Y-102601177D01*
X115325652Y-102357968D01*
X115776385Y-101908021D01*
X116020621Y-101319836D01*
X116021177Y-100682958D01*
X115884912Y-100353171D01*
X116064889Y-100353328D01*
X116760897Y-100065743D01*
X117027324Y-99799781D01*
X116756578Y-100451810D01*
X116755625Y-101543401D01*
X117172479Y-102552264D01*
X117681825Y-103062500D01*
X102788326Y-103062500D01*
X101637500Y-101911674D01*
X101637500Y-101349634D01*
X101950000Y-101349634D01*
X101950000Y-101410366D01*
X102067987Y-102003525D01*
X102403984Y-102506382D01*
X102906841Y-102842379D01*
X103500000Y-102960366D01*
X104093159Y-102842379D01*
X104596016Y-102506382D01*
X104932013Y-102003525D01*
X105050000Y-101410366D01*
X105050000Y-101349634D01*
X106450000Y-101349634D01*
X106450000Y-101410366D01*
X106567987Y-102003525D01*
X106903984Y-102506382D01*
X107406841Y-102842379D01*
X108000000Y-102960366D01*
X108593159Y-102842379D01*
X109096016Y-102506382D01*
X109432013Y-102003525D01*
X109550000Y-101410366D01*
X109550000Y-101349634D01*
X109432013Y-100756475D01*
X109096016Y-100253618D01*
X108593159Y-99917621D01*
X108000000Y-99799634D01*
X107406841Y-99917621D01*
X106903984Y-100253618D01*
X106567987Y-100756475D01*
X106450000Y-101349634D01*
X105050000Y-101349634D01*
X104932013Y-100756475D01*
X104596016Y-100253618D01*
X104093159Y-99917621D01*
X103500000Y-99799634D01*
X102906841Y-99917621D01*
X102403984Y-100253618D01*
X102067987Y-100756475D01*
X101950000Y-101349634D01*
X101637500Y-101349634D01*
X101637500Y-99700000D01*
X101566137Y-99341234D01*
X101362913Y-99037087D01*
X101362910Y-99037085D01*
X98137500Y-95811674D01*
X98137500Y-86763218D01*
X98480000Y-86831346D01*
X99092293Y-86709553D01*
X99611371Y-86362717D01*
X99750000Y-86155244D01*
X99888629Y-86362717D01*
X100407707Y-86709553D01*
X101020000Y-86831346D01*
X101632293Y-86709553D01*
X102151371Y-86362717D01*
X102290000Y-86155244D01*
X102428629Y-86362717D01*
G36*
X113796672Y-117834889D02*
X114040370Y-118424684D01*
X113514348Y-118642032D01*
X113500000Y-118656355D01*
X113500000Y-117914214D01*
X113796862Y-117617352D01*
X113796672Y-117834889D01*
X113796672Y-117834889D01*
G37*
X113796672Y-117834889D02*
X114040370Y-118424684D01*
X113514348Y-118642032D01*
X113500000Y-118656355D01*
X113500000Y-117914214D01*
X113796862Y-117617352D01*
X113796672Y-117834889D01*
G36*
X119000000Y-116000000D02*
X119076120Y-116382684D01*
X119292893Y-116707107D01*
X119842184Y-117256398D01*
X118956599Y-117255625D01*
X117947736Y-117672479D01*
X117441739Y-118177593D01*
X117582671Y-117838193D01*
X117583328Y-117085111D01*
X117295743Y-116389103D01*
X116763698Y-115856129D01*
X116068193Y-115567329D01*
X115847078Y-115567136D01*
X118957107Y-112457107D01*
X119000000Y-112392913D01*
X119000000Y-116000000D01*
X119000000Y-116000000D01*
G37*
X119000000Y-116000000D02*
X119076120Y-116382684D01*
X119292893Y-116707107D01*
X119842184Y-117256398D01*
X118956599Y-117255625D01*
X117947736Y-117672479D01*
X117441739Y-118177593D01*
X117582671Y-117838193D01*
X117583328Y-117085111D01*
X117295743Y-116389103D01*
X116763698Y-115856129D01*
X116068193Y-115567329D01*
X115847078Y-115567136D01*
X118957107Y-112457107D01*
X119000000Y-112392913D01*
X119000000Y-116000000D01*
G36*
X104968629Y-86362717D02*
X105487707Y-86709553D01*
X105559649Y-86723863D01*
X107542893Y-88707107D01*
X107867317Y-88923880D01*
X108250000Y-89000000D01*
X109045786Y-89000000D01*
X107568390Y-90477396D01*
X107524401Y-90256247D01*
X107166726Y-89720949D01*
X107000000Y-89609546D01*
X107000000Y-89500000D01*
X106923880Y-89117317D01*
X106707107Y-88792893D01*
X104560000Y-86645786D01*
X104560000Y-86450496D01*
X104691371Y-86362717D01*
X104830000Y-86155244D01*
X104968629Y-86362717D01*
X104968629Y-86362717D01*
G37*
X104968629Y-86362717D02*
X105487707Y-86709553D01*
X105559649Y-86723863D01*
X107542893Y-88707107D01*
X107867317Y-88923880D01*
X108250000Y-89000000D01*
X109045786Y-89000000D01*
X107568390Y-90477396D01*
X107524401Y-90256247D01*
X107166726Y-89720949D01*
X107000000Y-89609546D01*
X107000000Y-89500000D01*
X106923880Y-89117317D01*
X106707107Y-88792893D01*
X104560000Y-86645786D01*
X104560000Y-86450496D01*
X104691371Y-86362717D01*
X104830000Y-86155244D01*
X104968629Y-86362717D01*
G36*
X110048629Y-86362717D02*
X110567707Y-86709553D01*
X111180000Y-86831346D01*
X111785716Y-86710861D01*
X111787087Y-86712913D01*
X112074174Y-87000000D01*
X108664214Y-87000000D01*
X108459695Y-86795481D01*
X108640000Y-86831346D01*
X109252293Y-86709553D01*
X109771371Y-86362717D01*
X109910000Y-86155244D01*
X110048629Y-86362717D01*
X110048629Y-86362717D01*
G37*
X110048629Y-86362717D02*
X110567707Y-86709553D01*
X111180000Y-86831346D01*
X111785716Y-86710861D01*
X111787087Y-86712913D01*
X112074174Y-87000000D01*
X108664214Y-87000000D01*
X108459695Y-86795481D01*
X108640000Y-86831346D01*
X109252293Y-86709553D01*
X109771371Y-86362717D01*
X109910000Y-86155244D01*
X110048629Y-86362717D01*
G36*
X104968629Y-83822717D02*
X105129190Y-83930000D01*
X104968629Y-84037283D01*
X104830000Y-84244756D01*
X104691371Y-84037283D01*
X104530810Y-83930000D01*
X104691371Y-83822717D01*
X104830000Y-83615244D01*
X104968629Y-83822717D01*
X104968629Y-83822717D01*
G37*
X104968629Y-83822717D02*
X105129190Y-83930000D01*
X104968629Y-84037283D01*
X104830000Y-84244756D01*
X104691371Y-84037283D01*
X104530810Y-83930000D01*
X104691371Y-83822717D01*
X104830000Y-83615244D01*
X104968629Y-83822717D01*
G36*
X110048629Y-83822717D02*
X110209190Y-83930000D01*
X110048629Y-84037283D01*
X109910000Y-84244756D01*
X109771371Y-84037283D01*
X109610810Y-83930000D01*
X109771371Y-83822717D01*
X109910000Y-83615244D01*
X110048629Y-83822717D01*
X110048629Y-83822717D01*
G37*
X110048629Y-83822717D02*
X110209190Y-83930000D01*
X110048629Y-84037283D01*
X109910000Y-84244756D01*
X109771371Y-84037283D01*
X109610810Y-83930000D01*
X109771371Y-83822717D01*
X109910000Y-83615244D01*
X110048629Y-83822717D01*
G36*
X115128629Y-83822717D02*
X115289190Y-83930000D01*
X115128629Y-84037283D01*
X114990000Y-84244756D01*
X114851371Y-84037283D01*
X114690810Y-83930000D01*
X114851371Y-83822717D01*
X114990000Y-83615244D01*
X115128629Y-83822717D01*
X115128629Y-83822717D01*
G37*
X115128629Y-83822717D02*
X115289190Y-83930000D01*
X115128629Y-84037283D01*
X114990000Y-84244756D01*
X114851371Y-84037283D01*
X114690810Y-83930000D01*
X114851371Y-83822717D01*
X114990000Y-83615244D01*
X115128629Y-83822717D01*
G36*
X117668629Y-83822717D02*
X117829190Y-83930000D01*
X117668629Y-84037283D01*
X117530000Y-84244756D01*
X117391371Y-84037283D01*
X117230810Y-83930000D01*
X117391371Y-83822717D01*
X117530000Y-83615244D01*
X117668629Y-83822717D01*
X117668629Y-83822717D01*
G37*
X117668629Y-83822717D02*
X117829190Y-83930000D01*
X117668629Y-84037283D01*
X117530000Y-84244756D01*
X117391371Y-84037283D01*
X117230810Y-83930000D01*
X117391371Y-83822717D01*
X117530000Y-83615244D01*
X117668629Y-83822717D01*
G36*
X120208629Y-83822717D02*
X120369190Y-83930000D01*
X120208629Y-84037283D01*
X120070000Y-84244756D01*
X119931371Y-84037283D01*
X119770810Y-83930000D01*
X119931371Y-83822717D01*
X120070000Y-83615244D01*
X120208629Y-83822717D01*
X120208629Y-83822717D01*
G37*
X120208629Y-83822717D02*
X120369190Y-83930000D01*
X120208629Y-84037283D01*
X120070000Y-84244756D01*
X119931371Y-84037283D01*
X119770810Y-83930000D01*
X119931371Y-83822717D01*
X120070000Y-83615244D01*
X120208629Y-83822717D01*
G36*
X122748629Y-83822717D02*
X122909190Y-83930000D01*
X122748629Y-84037283D01*
X122610000Y-84244756D01*
X122471371Y-84037283D01*
X122310810Y-83930000D01*
X122471371Y-83822717D01*
X122610000Y-83615244D01*
X122748629Y-83822717D01*
X122748629Y-83822717D01*
G37*
X122748629Y-83822717D02*
X122909190Y-83930000D01*
X122748629Y-84037283D01*
X122610000Y-84244756D01*
X122471371Y-84037283D01*
X122310810Y-83930000D01*
X122471371Y-83822717D01*
X122610000Y-83615244D01*
X122748629Y-83822717D01*
G36*
X125288629Y-83822717D02*
X125449190Y-83930000D01*
X125288629Y-84037283D01*
X125150000Y-84244756D01*
X125011371Y-84037283D01*
X124850810Y-83930000D01*
X125011371Y-83822717D01*
X125150000Y-83615244D01*
X125288629Y-83822717D01*
X125288629Y-83822717D01*
G37*
X125288629Y-83822717D02*
X125449190Y-83930000D01*
X125288629Y-84037283D01*
X125150000Y-84244756D01*
X125011371Y-84037283D01*
X124850810Y-83930000D01*
X125011371Y-83822717D01*
X125150000Y-83615244D01*
X125288629Y-83822717D01*
G36*
X127828629Y-83822717D02*
X127989190Y-83930000D01*
X127828629Y-84037283D01*
X127690000Y-84244756D01*
X127551371Y-84037283D01*
X127390810Y-83930000D01*
X127551371Y-83822717D01*
X127690000Y-83615244D01*
X127828629Y-83822717D01*
X127828629Y-83822717D01*
G37*
X127828629Y-83822717D02*
X127989190Y-83930000D01*
X127828629Y-84037283D01*
X127690000Y-84244756D01*
X127551371Y-84037283D01*
X127390810Y-83930000D01*
X127551371Y-83822717D01*
X127690000Y-83615244D01*
X127828629Y-83822717D01*
G36*
X140528629Y-83822717D02*
X140689190Y-83930000D01*
X140528629Y-84037283D01*
X140390000Y-84244756D01*
X140251371Y-84037283D01*
X140090810Y-83930000D01*
X140251371Y-83822717D01*
X140390000Y-83615244D01*
X140528629Y-83822717D01*
X140528629Y-83822717D01*
G37*
X140528629Y-83822717D02*
X140689190Y-83930000D01*
X140528629Y-84037283D01*
X140390000Y-84244756D01*
X140251371Y-84037283D01*
X140090810Y-83930000D01*
X140251371Y-83822717D01*
X140390000Y-83615244D01*
X140528629Y-83822717D01*
G36*
X137988629Y-83822717D02*
X138149190Y-83930000D01*
X137988629Y-84037283D01*
X137850000Y-84244756D01*
X137711371Y-84037283D01*
X137550810Y-83930000D01*
X137711371Y-83822717D01*
X137850000Y-83615244D01*
X137988629Y-83822717D01*
X137988629Y-83822717D01*
G37*
X137988629Y-83822717D02*
X138149190Y-83930000D01*
X137988629Y-84037283D01*
X137850000Y-84244756D01*
X137711371Y-84037283D01*
X137550810Y-83930000D01*
X137711371Y-83822717D01*
X137850000Y-83615244D01*
X137988629Y-83822717D01*
G36*
X132908629Y-83822717D02*
X133069190Y-83930000D01*
X132908629Y-84037283D01*
X132770000Y-84244756D01*
X132631371Y-84037283D01*
X132470810Y-83930000D01*
X132631371Y-83822717D01*
X132770000Y-83615244D01*
X132908629Y-83822717D01*
X132908629Y-83822717D01*
G37*
X132908629Y-83822717D02*
X133069190Y-83930000D01*
X132908629Y-84037283D01*
X132770000Y-84244756D01*
X132631371Y-84037283D01*
X132470810Y-83930000D01*
X132631371Y-83822717D01*
X132770000Y-83615244D01*
X132908629Y-83822717D01*
G36*
X107508629Y-83822717D02*
X107669190Y-83930000D01*
X107508629Y-84037283D01*
X107370000Y-84244756D01*
X107231371Y-84037283D01*
X107070810Y-83930000D01*
X107231371Y-83822717D01*
X107370000Y-83615244D01*
X107508629Y-83822717D01*
X107508629Y-83822717D01*
G37*
X107508629Y-83822717D02*
X107669190Y-83930000D01*
X107508629Y-84037283D01*
X107370000Y-84244756D01*
X107231371Y-84037283D01*
X107070810Y-83930000D01*
X107231371Y-83822717D01*
X107370000Y-83615244D01*
X107508629Y-83822717D01*
G36*
X102428629Y-83822717D02*
X102589190Y-83930000D01*
X102428629Y-84037283D01*
X102290000Y-84244756D01*
X102151371Y-84037283D01*
X101990810Y-83930000D01*
X102151371Y-83822717D01*
X102290000Y-83615244D01*
X102428629Y-83822717D01*
X102428629Y-83822717D01*
G37*
X102428629Y-83822717D02*
X102589190Y-83930000D01*
X102428629Y-84037283D01*
X102290000Y-84244756D01*
X102151371Y-84037283D01*
X101990810Y-83930000D01*
X102151371Y-83822717D01*
X102290000Y-83615244D01*
X102428629Y-83822717D01*
G36*
X99888629Y-83822717D02*
X100049190Y-83930000D01*
X99888629Y-84037283D01*
X99750000Y-84244756D01*
X99611371Y-84037283D01*
X99450810Y-83930000D01*
X99611371Y-83822717D01*
X99750000Y-83615244D01*
X99888629Y-83822717D01*
X99888629Y-83822717D01*
G37*
X99888629Y-83822717D02*
X100049190Y-83930000D01*
X99888629Y-84037283D01*
X99750000Y-84244756D01*
X99611371Y-84037283D01*
X99450810Y-83930000D01*
X99611371Y-83822717D01*
X99750000Y-83615244D01*
X99888629Y-83822717D01*
G36*
X135448629Y-83822717D02*
X135609190Y-83930000D01*
X135448629Y-84037283D01*
X135310000Y-84244756D01*
X135171371Y-84037283D01*
X135010810Y-83930000D01*
X135171371Y-83822717D01*
X135310000Y-83615244D01*
X135448629Y-83822717D01*
X135448629Y-83822717D01*
G37*
X135448629Y-83822717D02*
X135609190Y-83930000D01*
X135448629Y-84037283D01*
X135310000Y-84244756D01*
X135171371Y-84037283D01*
X135010810Y-83930000D01*
X135171371Y-83822717D01*
X135310000Y-83615244D01*
X135448629Y-83822717D01*
G36*
X130368629Y-83822717D02*
X130529190Y-83930000D01*
X130368629Y-84037283D01*
X130230000Y-84244756D01*
X130091371Y-84037283D01*
X129930810Y-83930000D01*
X130091371Y-83822717D01*
X130230000Y-83615244D01*
X130368629Y-83822717D01*
X130368629Y-83822717D01*
G37*
X130368629Y-83822717D02*
X130529190Y-83930000D01*
X130368629Y-84037283D01*
X130230000Y-84244756D01*
X130091371Y-84037283D01*
X129930810Y-83930000D01*
X130091371Y-83822717D01*
X130230000Y-83615244D01*
X130368629Y-83822717D01*
G36*
X94808629Y-83822717D02*
X94969190Y-83930000D01*
X94900509Y-83975891D01*
X94798138Y-83816802D01*
X94617701Y-83693515D01*
X94670000Y-83615244D01*
X94808629Y-83822717D01*
X94808629Y-83822717D01*
G37*
X94808629Y-83822717D02*
X94969190Y-83930000D01*
X94900509Y-83975891D01*
X94798138Y-83816802D01*
X94617701Y-83693515D01*
X94670000Y-83615244D01*
X94808629Y-83822717D01*
G36*
X142650048Y-83942855D02*
X142630810Y-83930000D01*
X142650071Y-83917130D01*
X142650048Y-83942855D01*
X142650048Y-83942855D01*
G37*
X142650048Y-83942855D02*
X142630810Y-83930000D01*
X142650071Y-83917130D01*
X142650048Y-83942855D01*
G36*
X143238032Y-81816303D02*
X143143633Y-82043640D01*
X143138207Y-82016361D01*
X142791371Y-81497283D01*
X142272293Y-81150447D01*
X141660000Y-81028654D01*
X141047707Y-81150447D01*
X140528629Y-81497283D01*
X140390000Y-81704756D01*
X140251371Y-81497283D01*
X139732293Y-81150447D01*
X139120000Y-81028654D01*
X138507707Y-81150447D01*
X137988629Y-81497283D01*
X137850000Y-81704756D01*
X137711371Y-81497283D01*
X137192293Y-81150447D01*
X136580000Y-81028654D01*
X135967707Y-81150447D01*
X135448629Y-81497283D01*
X135310000Y-81704756D01*
X135171371Y-81497283D01*
X134652293Y-81150447D01*
X134040000Y-81028654D01*
X133427707Y-81150447D01*
X132908629Y-81497283D01*
X132770000Y-81704756D01*
X132631371Y-81497283D01*
X132112293Y-81150447D01*
X131500000Y-81028654D01*
X130887707Y-81150447D01*
X130368629Y-81497283D01*
X130230000Y-81704756D01*
X130091371Y-81497283D01*
X129572293Y-81150447D01*
X128960000Y-81028654D01*
X128347707Y-81150447D01*
X127828629Y-81497283D01*
X127690000Y-81704756D01*
X127551371Y-81497283D01*
X127032293Y-81150447D01*
X126420000Y-81028654D01*
X125807707Y-81150447D01*
X125288629Y-81497283D01*
X125150000Y-81704756D01*
X125011371Y-81497283D01*
X124492293Y-81150447D01*
X123880000Y-81028654D01*
X123267707Y-81150447D01*
X122748629Y-81497283D01*
X122610000Y-81704756D01*
X122471371Y-81497283D01*
X121952293Y-81150447D01*
X121340000Y-81028654D01*
X120727707Y-81150447D01*
X120208629Y-81497283D01*
X120070000Y-81704756D01*
X119931371Y-81497283D01*
X119412293Y-81150447D01*
X118800000Y-81028654D01*
X118187707Y-81150447D01*
X117668629Y-81497283D01*
X117530000Y-81704756D01*
X117391371Y-81497283D01*
X116872293Y-81150447D01*
X116260000Y-81028654D01*
X115647707Y-81150447D01*
X115128629Y-81497283D01*
X114990000Y-81704756D01*
X114851371Y-81497283D01*
X114332293Y-81150447D01*
X113720000Y-81028654D01*
X113107707Y-81150447D01*
X112588629Y-81497283D01*
X112450000Y-81704756D01*
X112311371Y-81497283D01*
X111792293Y-81150447D01*
X111180000Y-81028654D01*
X110567707Y-81150447D01*
X110048629Y-81497283D01*
X109910000Y-81704756D01*
X109771371Y-81497283D01*
X109252293Y-81150447D01*
X108640000Y-81028654D01*
X108027707Y-81150447D01*
X107508629Y-81497283D01*
X107370000Y-81704756D01*
X107231371Y-81497283D01*
X106712293Y-81150447D01*
X106100000Y-81028654D01*
X105487707Y-81150447D01*
X104968629Y-81497283D01*
X104830000Y-81704756D01*
X104691371Y-81497283D01*
X104172293Y-81150447D01*
X103560000Y-81028654D01*
X102947707Y-81150447D01*
X102428629Y-81497283D01*
X102290000Y-81704756D01*
X102151371Y-81497283D01*
X101632293Y-81150447D01*
X101020000Y-81028654D01*
X100407707Y-81150447D01*
X99888629Y-81497283D01*
X99750000Y-81704756D01*
X99611371Y-81497283D01*
X99092293Y-81150447D01*
X98480000Y-81028654D01*
X97867707Y-81150447D01*
X97348629Y-81497283D01*
X97210000Y-81704756D01*
X97071371Y-81497283D01*
X96552293Y-81150447D01*
X95940000Y-81028654D01*
X95327707Y-81150447D01*
X94808629Y-81497283D01*
X94670000Y-81704756D01*
X94531371Y-81497283D01*
X94012293Y-81150447D01*
X93400000Y-81028654D01*
X92787707Y-81150447D01*
X92268629Y-81497283D01*
X91921793Y-82016361D01*
X91897190Y-82140049D01*
X91765774Y-81821999D01*
X90745557Y-80800000D01*
X144256110Y-80800000D01*
X143238032Y-81816303D01*
X143238032Y-81816303D01*
G37*
X143238032Y-81816303D02*
X143143633Y-82043640D01*
X143138207Y-82016361D01*
X142791371Y-81497283D01*
X142272293Y-81150447D01*
X141660000Y-81028654D01*
X141047707Y-81150447D01*
X140528629Y-81497283D01*
X140390000Y-81704756D01*
X140251371Y-81497283D01*
X139732293Y-81150447D01*
X139120000Y-81028654D01*
X138507707Y-81150447D01*
X137988629Y-81497283D01*
X137850000Y-81704756D01*
X137711371Y-81497283D01*
X137192293Y-81150447D01*
X136580000Y-81028654D01*
X135967707Y-81150447D01*
X135448629Y-81497283D01*
X135310000Y-81704756D01*
X135171371Y-81497283D01*
X134652293Y-81150447D01*
X134040000Y-81028654D01*
X133427707Y-81150447D01*
X132908629Y-81497283D01*
X132770000Y-81704756D01*
X132631371Y-81497283D01*
X132112293Y-81150447D01*
X131500000Y-81028654D01*
X130887707Y-81150447D01*
X130368629Y-81497283D01*
X130230000Y-81704756D01*
X130091371Y-81497283D01*
X129572293Y-81150447D01*
X128960000Y-81028654D01*
X128347707Y-81150447D01*
X127828629Y-81497283D01*
X127690000Y-81704756D01*
X127551371Y-81497283D01*
X127032293Y-81150447D01*
X126420000Y-81028654D01*
X125807707Y-81150447D01*
X125288629Y-81497283D01*
X125150000Y-81704756D01*
X125011371Y-81497283D01*
X124492293Y-81150447D01*
X123880000Y-81028654D01*
X123267707Y-81150447D01*
X122748629Y-81497283D01*
X122610000Y-81704756D01*
X122471371Y-81497283D01*
X121952293Y-81150447D01*
X121340000Y-81028654D01*
X120727707Y-81150447D01*
X120208629Y-81497283D01*
X120070000Y-81704756D01*
X119931371Y-81497283D01*
X119412293Y-81150447D01*
X118800000Y-81028654D01*
X118187707Y-81150447D01*
X117668629Y-81497283D01*
X117530000Y-81704756D01*
X117391371Y-81497283D01*
X116872293Y-81150447D01*
X116260000Y-81028654D01*
X115647707Y-81150447D01*
X115128629Y-81497283D01*
X114990000Y-81704756D01*
X114851371Y-81497283D01*
X114332293Y-81150447D01*
X113720000Y-81028654D01*
X113107707Y-81150447D01*
X112588629Y-81497283D01*
X112450000Y-81704756D01*
X112311371Y-81497283D01*
X111792293Y-81150447D01*
X111180000Y-81028654D01*
X110567707Y-81150447D01*
X110048629Y-81497283D01*
X109910000Y-81704756D01*
X109771371Y-81497283D01*
X109252293Y-81150447D01*
X108640000Y-81028654D01*
X108027707Y-81150447D01*
X107508629Y-81497283D01*
X107370000Y-81704756D01*
X107231371Y-81497283D01*
X106712293Y-81150447D01*
X106100000Y-81028654D01*
X105487707Y-81150447D01*
X104968629Y-81497283D01*
X104830000Y-81704756D01*
X104691371Y-81497283D01*
X104172293Y-81150447D01*
X103560000Y-81028654D01*
X102947707Y-81150447D01*
X102428629Y-81497283D01*
X102290000Y-81704756D01*
X102151371Y-81497283D01*
X101632293Y-81150447D01*
X101020000Y-81028654D01*
X100407707Y-81150447D01*
X99888629Y-81497283D01*
X99750000Y-81704756D01*
X99611371Y-81497283D01*
X99092293Y-81150447D01*
X98480000Y-81028654D01*
X97867707Y-81150447D01*
X97348629Y-81497283D01*
X97210000Y-81704756D01*
X97071371Y-81497283D01*
X96552293Y-81150447D01*
X95940000Y-81028654D01*
X95327707Y-81150447D01*
X94808629Y-81497283D01*
X94670000Y-81704756D01*
X94531371Y-81497283D01*
X94012293Y-81150447D01*
X93400000Y-81028654D01*
X92787707Y-81150447D01*
X92268629Y-81497283D01*
X91921793Y-82016361D01*
X91897190Y-82140049D01*
X91765774Y-81821999D01*
X90745557Y-80800000D01*
X144256110Y-80800000D01*
X143238032Y-81816303D01*
M02*
