G04 #@! TF.FileFunction,Legend,Top*
%FSLAX46Y46*%
G04 Gerber Fmt 4.6, Leading zero omitted, Abs format (unit mm)*
G04 Created by KiCad (PCBNEW 4.0.6) date 07/21/17 15:12:10*
%MOMM*%
%LPD*%
G01*
G04 APERTURE LIST*
%ADD10C,0.100000*%
%ADD11C,0.150000*%
%ADD12C,0.400000*%
%ADD13C,0.120000*%
%ADD14C,0.381000*%
%ADD15O,2.000000X17.000000*%
%ADD16O,4.500000X4.500000*%
%ADD17R,1.800000X1.800000*%
%ADD18O,1.800000X1.800000*%
%ADD19C,6.200000*%
%ADD20C,1.800000*%
%ADD21R,1.700000X1.700000*%
%ADD22O,1.700000X1.700000*%
%ADD23C,2.286000*%
%ADD24C,1.600000*%
%ADD25O,1.600000X1.600000*%
G04 APERTURE END LIST*
D10*
D11*
X93052381Y-90388095D02*
X92619048Y-89769048D01*
X92309524Y-90388095D02*
X92309524Y-89088095D01*
X92804762Y-89088095D01*
X92928571Y-89150000D01*
X92990476Y-89211905D01*
X93052381Y-89335714D01*
X93052381Y-89521429D01*
X92990476Y-89645238D01*
X92928571Y-89707143D01*
X92804762Y-89769048D01*
X92309524Y-89769048D01*
X94166667Y-90388095D02*
X94166667Y-89707143D01*
X94104762Y-89583333D01*
X93980952Y-89521429D01*
X93733333Y-89521429D01*
X93609524Y-89583333D01*
X94166667Y-90326190D02*
X94042857Y-90388095D01*
X93733333Y-90388095D01*
X93609524Y-90326190D01*
X93547619Y-90202381D01*
X93547619Y-90078571D01*
X93609524Y-89954762D01*
X93733333Y-89892857D01*
X94042857Y-89892857D01*
X94166667Y-89830952D01*
X94723809Y-90326190D02*
X94847619Y-90388095D01*
X95095238Y-90388095D01*
X95219047Y-90326190D01*
X95280952Y-90202381D01*
X95280952Y-90140476D01*
X95219047Y-90016667D01*
X95095238Y-89954762D01*
X94909523Y-89954762D01*
X94785714Y-89892857D01*
X94723809Y-89769048D01*
X94723809Y-89707143D01*
X94785714Y-89583333D01*
X94909523Y-89521429D01*
X95095238Y-89521429D01*
X95219047Y-89583333D01*
X95838095Y-89521429D02*
X95838095Y-90821429D01*
X95838095Y-89583333D02*
X95961904Y-89521429D01*
X96209523Y-89521429D01*
X96333333Y-89583333D01*
X96395238Y-89645238D01*
X96457142Y-89769048D01*
X96457142Y-90140476D01*
X96395238Y-90264286D01*
X96333333Y-90326190D01*
X96209523Y-90388095D01*
X95961904Y-90388095D01*
X95838095Y-90326190D01*
X97014285Y-90388095D02*
X97014285Y-89088095D01*
X97014285Y-89583333D02*
X97138094Y-89521429D01*
X97385713Y-89521429D01*
X97509523Y-89583333D01*
X97571428Y-89645238D01*
X97633332Y-89769048D01*
X97633332Y-90140476D01*
X97571428Y-90264286D01*
X97509523Y-90326190D01*
X97385713Y-90388095D01*
X97138094Y-90388095D01*
X97014285Y-90326190D01*
X98685713Y-90326190D02*
X98561903Y-90388095D01*
X98314284Y-90388095D01*
X98190475Y-90326190D01*
X98128570Y-90202381D01*
X98128570Y-89707143D01*
X98190475Y-89583333D01*
X98314284Y-89521429D01*
X98561903Y-89521429D01*
X98685713Y-89583333D01*
X98747618Y-89707143D01*
X98747618Y-89830952D01*
X98128570Y-89954762D01*
X99304761Y-90388095D02*
X99304761Y-89521429D01*
X99304761Y-89769048D02*
X99366666Y-89645238D01*
X99428570Y-89583333D01*
X99552380Y-89521429D01*
X99676189Y-89521429D01*
X100109523Y-90388095D02*
X100109523Y-89521429D01*
X100109523Y-89769048D02*
X100171428Y-89645238D01*
X100233332Y-89583333D01*
X100357142Y-89521429D01*
X100480951Y-89521429D01*
X100790475Y-89521429D02*
X101099999Y-90388095D01*
X101409523Y-89521429D02*
X101099999Y-90388095D01*
X100976190Y-90697619D01*
X100914285Y-90759524D01*
X100790475Y-90821429D01*
X102895237Y-90388095D02*
X102895237Y-89088095D01*
X103390475Y-89088095D01*
X103514284Y-89150000D01*
X103576189Y-89211905D01*
X103638094Y-89335714D01*
X103638094Y-89521429D01*
X103576189Y-89645238D01*
X103514284Y-89707143D01*
X103390475Y-89769048D01*
X102895237Y-89769048D01*
X104195237Y-90388095D02*
X104195237Y-89521429D01*
X104195237Y-89088095D02*
X104133332Y-89150000D01*
X104195237Y-89211905D01*
X104257142Y-89150000D01*
X104195237Y-89088095D01*
X104195237Y-89211905D01*
X92866667Y-92488095D02*
X92866667Y-91807143D01*
X92804762Y-91683333D01*
X92680952Y-91621429D01*
X92433333Y-91621429D01*
X92309524Y-91683333D01*
X92866667Y-92426190D02*
X92742857Y-92488095D01*
X92433333Y-92488095D01*
X92309524Y-92426190D01*
X92247619Y-92302381D01*
X92247619Y-92178571D01*
X92309524Y-92054762D01*
X92433333Y-91992857D01*
X92742857Y-91992857D01*
X92866667Y-91930952D01*
X94042857Y-92488095D02*
X94042857Y-91188095D01*
X94042857Y-92426190D02*
X93919047Y-92488095D01*
X93671428Y-92488095D01*
X93547619Y-92426190D01*
X93485714Y-92364286D01*
X93423809Y-92240476D01*
X93423809Y-91869048D01*
X93485714Y-91745238D01*
X93547619Y-91683333D01*
X93671428Y-91621429D01*
X93919047Y-91621429D01*
X94042857Y-91683333D01*
X95219047Y-92488095D02*
X95219047Y-91188095D01*
X95219047Y-92426190D02*
X95095237Y-92488095D01*
X94847618Y-92488095D01*
X94723809Y-92426190D01*
X94661904Y-92364286D01*
X94599999Y-92240476D01*
X94599999Y-91869048D01*
X94661904Y-91745238D01*
X94723809Y-91683333D01*
X94847618Y-91621429D01*
X95095237Y-91621429D01*
X95219047Y-91683333D01*
X95838094Y-91992857D02*
X96828570Y-91992857D01*
X97633332Y-92488095D02*
X97509523Y-92426190D01*
X97447618Y-92364286D01*
X97385713Y-92240476D01*
X97385713Y-91869048D01*
X97447618Y-91745238D01*
X97509523Y-91683333D01*
X97633332Y-91621429D01*
X97819046Y-91621429D01*
X97942856Y-91683333D01*
X98004761Y-91745238D01*
X98066665Y-91869048D01*
X98066665Y-92240476D01*
X98004761Y-92364286D01*
X97942856Y-92426190D01*
X97819046Y-92488095D01*
X97633332Y-92488095D01*
X98623808Y-91621429D02*
X98623808Y-92488095D01*
X98623808Y-91745238D02*
X98685713Y-91683333D01*
X98809522Y-91621429D01*
X98995236Y-91621429D01*
X99119046Y-91683333D01*
X99180951Y-91807143D01*
X99180951Y-92488095D01*
X100790474Y-92488095D02*
X100790474Y-91188095D01*
X100790474Y-91683333D02*
X100914283Y-91621429D01*
X101161902Y-91621429D01*
X101285712Y-91683333D01*
X101347617Y-91745238D01*
X101409521Y-91869048D01*
X101409521Y-92240476D01*
X101347617Y-92364286D01*
X101285712Y-92426190D01*
X101161902Y-92488095D01*
X100914283Y-92488095D01*
X100790474Y-92426190D01*
X102152378Y-92488095D02*
X102028569Y-92426190D01*
X101966664Y-92364286D01*
X101904759Y-92240476D01*
X101904759Y-91869048D01*
X101966664Y-91745238D01*
X102028569Y-91683333D01*
X102152378Y-91621429D01*
X102338092Y-91621429D01*
X102461902Y-91683333D01*
X102523807Y-91745238D01*
X102585711Y-91869048D01*
X102585711Y-92240476D01*
X102523807Y-92364286D01*
X102461902Y-92426190D01*
X102338092Y-92488095D01*
X102152378Y-92488095D01*
X103699997Y-92488095D02*
X103699997Y-91807143D01*
X103638092Y-91683333D01*
X103514282Y-91621429D01*
X103266663Y-91621429D01*
X103142854Y-91683333D01*
X103699997Y-92426190D02*
X103576187Y-92488095D01*
X103266663Y-92488095D01*
X103142854Y-92426190D01*
X103080949Y-92302381D01*
X103080949Y-92178571D01*
X103142854Y-92054762D01*
X103266663Y-91992857D01*
X103576187Y-91992857D01*
X103699997Y-91930952D01*
X104319044Y-92488095D02*
X104319044Y-91621429D01*
X104319044Y-91869048D02*
X104380949Y-91745238D01*
X104442853Y-91683333D01*
X104566663Y-91621429D01*
X104690472Y-91621429D01*
X105680949Y-92488095D02*
X105680949Y-91188095D01*
X105680949Y-92426190D02*
X105557139Y-92488095D01*
X105309520Y-92488095D01*
X105185711Y-92426190D01*
X105123806Y-92364286D01*
X105061901Y-92240476D01*
X105061901Y-91869048D01*
X105123806Y-91745238D01*
X105185711Y-91683333D01*
X105309520Y-91621429D01*
X105557139Y-91621429D01*
X105680949Y-91683333D01*
X92123810Y-93721429D02*
X92619048Y-93721429D01*
X92309524Y-94588095D02*
X92309524Y-93473810D01*
X92371429Y-93350000D01*
X92495238Y-93288095D01*
X92619048Y-93288095D01*
X93238095Y-94588095D02*
X93114286Y-94526190D01*
X93052381Y-94464286D01*
X92990476Y-94340476D01*
X92990476Y-93969048D01*
X93052381Y-93845238D01*
X93114286Y-93783333D01*
X93238095Y-93721429D01*
X93423809Y-93721429D01*
X93547619Y-93783333D01*
X93609524Y-93845238D01*
X93671428Y-93969048D01*
X93671428Y-94340476D01*
X93609524Y-94464286D01*
X93547619Y-94526190D01*
X93423809Y-94588095D01*
X93238095Y-94588095D01*
X94228571Y-94588095D02*
X94228571Y-93721429D01*
X94228571Y-93969048D02*
X94290476Y-93845238D01*
X94352380Y-93783333D01*
X94476190Y-93721429D01*
X94599999Y-93721429D01*
X96023809Y-94588095D02*
X96023809Y-93721429D01*
X96023809Y-93845238D02*
X96085714Y-93783333D01*
X96209523Y-93721429D01*
X96395237Y-93721429D01*
X96519047Y-93783333D01*
X96580952Y-93907143D01*
X96580952Y-94588095D01*
X96580952Y-93907143D02*
X96642856Y-93783333D01*
X96766666Y-93721429D01*
X96952380Y-93721429D01*
X97076190Y-93783333D01*
X97138095Y-93907143D01*
X97138095Y-94588095D01*
X98252380Y-94526190D02*
X98128570Y-94588095D01*
X97880951Y-94588095D01*
X97757142Y-94526190D01*
X97695237Y-94402381D01*
X97695237Y-93907143D01*
X97757142Y-93783333D01*
X97880951Y-93721429D01*
X98128570Y-93721429D01*
X98252380Y-93783333D01*
X98314285Y-93907143D01*
X98314285Y-94030952D01*
X97695237Y-94154762D01*
X99428571Y-94526190D02*
X99304761Y-94588095D01*
X99057142Y-94588095D01*
X98933333Y-94526190D01*
X98871428Y-94464286D01*
X98809523Y-94340476D01*
X98809523Y-93969048D01*
X98871428Y-93845238D01*
X98933333Y-93783333D01*
X99057142Y-93721429D01*
X99304761Y-93721429D01*
X99428571Y-93783333D01*
X99985714Y-94588095D02*
X99985714Y-93288095D01*
X100542857Y-94588095D02*
X100542857Y-93907143D01*
X100480952Y-93783333D01*
X100357142Y-93721429D01*
X100171428Y-93721429D01*
X100047619Y-93783333D01*
X99985714Y-93845238D01*
X101719047Y-94588095D02*
X101719047Y-93907143D01*
X101657142Y-93783333D01*
X101533332Y-93721429D01*
X101285713Y-93721429D01*
X101161904Y-93783333D01*
X101719047Y-94526190D02*
X101595237Y-94588095D01*
X101285713Y-94588095D01*
X101161904Y-94526190D01*
X101099999Y-94402381D01*
X101099999Y-94278571D01*
X101161904Y-94154762D01*
X101285713Y-94092857D01*
X101595237Y-94092857D01*
X101719047Y-94030952D01*
X102338094Y-93721429D02*
X102338094Y-94588095D01*
X102338094Y-93845238D02*
X102399999Y-93783333D01*
X102523808Y-93721429D01*
X102709522Y-93721429D01*
X102833332Y-93783333D01*
X102895237Y-93907143D01*
X102895237Y-94588095D01*
X103514284Y-94588095D02*
X103514284Y-93721429D01*
X103514284Y-93288095D02*
X103452379Y-93350000D01*
X103514284Y-93411905D01*
X103576189Y-93350000D01*
X103514284Y-93288095D01*
X103514284Y-93411905D01*
X104690475Y-94526190D02*
X104566665Y-94588095D01*
X104319046Y-94588095D01*
X104195237Y-94526190D01*
X104133332Y-94464286D01*
X104071427Y-94340476D01*
X104071427Y-93969048D01*
X104133332Y-93845238D01*
X104195237Y-93783333D01*
X104319046Y-93721429D01*
X104566665Y-93721429D01*
X104690475Y-93783333D01*
X105804761Y-94588095D02*
X105804761Y-93907143D01*
X105742856Y-93783333D01*
X105619046Y-93721429D01*
X105371427Y-93721429D01*
X105247618Y-93783333D01*
X105804761Y-94526190D02*
X105680951Y-94588095D01*
X105371427Y-94588095D01*
X105247618Y-94526190D01*
X105185713Y-94402381D01*
X105185713Y-94278571D01*
X105247618Y-94154762D01*
X105371427Y-94092857D01*
X105680951Y-94092857D01*
X105804761Y-94030952D01*
X106609522Y-94588095D02*
X106485713Y-94526190D01*
X106423808Y-94402381D01*
X106423808Y-93288095D01*
X92309524Y-96688095D02*
X92309524Y-95388095D01*
X92433333Y-96192857D02*
X92804762Y-96688095D01*
X92804762Y-95821429D02*
X92309524Y-96316667D01*
X93857143Y-96626190D02*
X93733333Y-96688095D01*
X93485714Y-96688095D01*
X93361905Y-96626190D01*
X93300000Y-96502381D01*
X93300000Y-96007143D01*
X93361905Y-95883333D01*
X93485714Y-95821429D01*
X93733333Y-95821429D01*
X93857143Y-95883333D01*
X93919048Y-96007143D01*
X93919048Y-96130952D01*
X93300000Y-96254762D01*
X94352381Y-95821429D02*
X94661905Y-96688095D01*
X94971429Y-95821429D02*
X94661905Y-96688095D01*
X94538096Y-96997619D01*
X94476191Y-97059524D01*
X94352381Y-97121429D01*
X95466667Y-96688095D02*
X95466667Y-95388095D01*
X95466667Y-95883333D02*
X95590476Y-95821429D01*
X95838095Y-95821429D01*
X95961905Y-95883333D01*
X96023810Y-95945238D01*
X96085714Y-96069048D01*
X96085714Y-96440476D01*
X96023810Y-96564286D01*
X95961905Y-96626190D01*
X95838095Y-96688095D01*
X95590476Y-96688095D01*
X95466667Y-96626190D01*
X96828571Y-96688095D02*
X96704762Y-96626190D01*
X96642857Y-96564286D01*
X96580952Y-96440476D01*
X96580952Y-96069048D01*
X96642857Y-95945238D01*
X96704762Y-95883333D01*
X96828571Y-95821429D01*
X97014285Y-95821429D01*
X97138095Y-95883333D01*
X97200000Y-95945238D01*
X97261904Y-96069048D01*
X97261904Y-96440476D01*
X97200000Y-96564286D01*
X97138095Y-96626190D01*
X97014285Y-96688095D01*
X96828571Y-96688095D01*
X98376190Y-96688095D02*
X98376190Y-96007143D01*
X98314285Y-95883333D01*
X98190475Y-95821429D01*
X97942856Y-95821429D01*
X97819047Y-95883333D01*
X98376190Y-96626190D02*
X98252380Y-96688095D01*
X97942856Y-96688095D01*
X97819047Y-96626190D01*
X97757142Y-96502381D01*
X97757142Y-96378571D01*
X97819047Y-96254762D01*
X97942856Y-96192857D01*
X98252380Y-96192857D01*
X98376190Y-96130952D01*
X98995237Y-96688095D02*
X98995237Y-95821429D01*
X98995237Y-96069048D02*
X99057142Y-95945238D01*
X99119046Y-95883333D01*
X99242856Y-95821429D01*
X99366665Y-95821429D01*
X100357142Y-96688095D02*
X100357142Y-95388095D01*
X100357142Y-96626190D02*
X100233332Y-96688095D01*
X99985713Y-96688095D01*
X99861904Y-96626190D01*
X99799999Y-96564286D01*
X99738094Y-96440476D01*
X99738094Y-96069048D01*
X99799999Y-95945238D01*
X99861904Y-95883333D01*
X99985713Y-95821429D01*
X100233332Y-95821429D01*
X100357142Y-95883333D01*
X92247619Y-98726190D02*
X92371429Y-98788095D01*
X92619048Y-98788095D01*
X92742857Y-98726190D01*
X92804762Y-98602381D01*
X92804762Y-98540476D01*
X92742857Y-98416667D01*
X92619048Y-98354762D01*
X92433333Y-98354762D01*
X92309524Y-98292857D01*
X92247619Y-98169048D01*
X92247619Y-98107143D01*
X92309524Y-97983333D01*
X92433333Y-97921429D01*
X92619048Y-97921429D01*
X92742857Y-97983333D01*
X93238095Y-97921429D02*
X93485714Y-98788095D01*
X93733333Y-98169048D01*
X93980952Y-98788095D01*
X94228571Y-97921429D01*
X94723810Y-98788095D02*
X94723810Y-97921429D01*
X94723810Y-97488095D02*
X94661905Y-97550000D01*
X94723810Y-97611905D01*
X94785715Y-97550000D01*
X94723810Y-97488095D01*
X94723810Y-97611905D01*
X95157144Y-97921429D02*
X95652382Y-97921429D01*
X95342858Y-97488095D02*
X95342858Y-98602381D01*
X95404763Y-98726190D01*
X95528572Y-98788095D01*
X95652382Y-98788095D01*
X96642858Y-98726190D02*
X96519048Y-98788095D01*
X96271429Y-98788095D01*
X96147620Y-98726190D01*
X96085715Y-98664286D01*
X96023810Y-98540476D01*
X96023810Y-98169048D01*
X96085715Y-98045238D01*
X96147620Y-97983333D01*
X96271429Y-97921429D01*
X96519048Y-97921429D01*
X96642858Y-97983333D01*
X97200001Y-98788095D02*
X97200001Y-97488095D01*
X97757144Y-98788095D02*
X97757144Y-98107143D01*
X97695239Y-97983333D01*
X97571429Y-97921429D01*
X97385715Y-97921429D01*
X97261906Y-97983333D01*
X97200001Y-98045238D01*
X98871429Y-98726190D02*
X98747619Y-98788095D01*
X98500000Y-98788095D01*
X98376191Y-98726190D01*
X98314286Y-98602381D01*
X98314286Y-98107143D01*
X98376191Y-97983333D01*
X98500000Y-97921429D01*
X98747619Y-97921429D01*
X98871429Y-97983333D01*
X98933334Y-98107143D01*
X98933334Y-98230952D01*
X98314286Y-98354762D01*
X99428572Y-98726190D02*
X99552382Y-98788095D01*
X99800001Y-98788095D01*
X99923810Y-98726190D01*
X99985715Y-98602381D01*
X99985715Y-98540476D01*
X99923810Y-98416667D01*
X99800001Y-98354762D01*
X99614286Y-98354762D01*
X99490477Y-98292857D01*
X99428572Y-98169048D01*
X99428572Y-98107143D01*
X99490477Y-97983333D01*
X99614286Y-97921429D01*
X99800001Y-97921429D01*
X99923810Y-97983333D01*
D12*
X91333333Y-86011905D02*
X91142857Y-86130952D01*
X90761905Y-86130952D01*
X90571429Y-86011905D01*
X90476190Y-85892857D01*
X90380952Y-85654762D01*
X90380952Y-84940476D01*
X90476190Y-84702381D01*
X90571429Y-84583333D01*
X90761905Y-84464286D01*
X91142857Y-84464286D01*
X91333333Y-84583333D01*
X92476191Y-86130952D02*
X92285715Y-86011905D01*
X92190476Y-85773810D01*
X92190476Y-83630952D01*
X93238095Y-86130952D02*
X93238095Y-84464286D01*
X93238095Y-83630952D02*
X93142857Y-83750000D01*
X93238095Y-83869048D01*
X93333334Y-83750000D01*
X93238095Y-83630952D01*
X93238095Y-83869048D01*
X95047619Y-86011905D02*
X94857143Y-86130952D01*
X94476191Y-86130952D01*
X94285715Y-86011905D01*
X94190476Y-85892857D01*
X94095238Y-85654762D01*
X94095238Y-84940476D01*
X94190476Y-84702381D01*
X94285715Y-84583333D01*
X94476191Y-84464286D01*
X94857143Y-84464286D01*
X95047619Y-84583333D01*
X95904762Y-86130952D02*
X95904762Y-83630952D01*
X96095239Y-85178571D02*
X96666667Y-86130952D01*
X96666667Y-84464286D02*
X95904762Y-85416667D01*
X97333334Y-84464286D02*
X97809525Y-86130952D01*
X98285715Y-84464286D02*
X97809525Y-86130952D01*
X97619049Y-86726190D01*
X97523810Y-86845238D01*
X97333334Y-86964286D01*
X99714287Y-84821429D02*
X100000001Y-84940476D01*
X100095240Y-85059524D01*
X100190478Y-85297619D01*
X100190478Y-85654762D01*
X100095240Y-85892857D01*
X100000001Y-86011905D01*
X99809525Y-86130952D01*
X99047620Y-86130952D01*
X99047620Y-83630952D01*
X99714287Y-83630952D01*
X99904763Y-83750000D01*
X100000001Y-83869048D01*
X100095240Y-84107143D01*
X100095240Y-84345238D01*
X100000001Y-84583333D01*
X99904763Y-84702381D01*
X99714287Y-84821429D01*
X99047620Y-84821429D01*
X101333335Y-86130952D02*
X101142859Y-86011905D01*
X101047620Y-85892857D01*
X100952382Y-85654762D01*
X100952382Y-84940476D01*
X101047620Y-84702381D01*
X101142859Y-84583333D01*
X101333335Y-84464286D01*
X101619049Y-84464286D01*
X101809525Y-84583333D01*
X101904763Y-84702381D01*
X102000001Y-84940476D01*
X102000001Y-85654762D01*
X101904763Y-85892857D01*
X101809525Y-86011905D01*
X101619049Y-86130952D01*
X101333335Y-86130952D01*
X103714287Y-86130952D02*
X103714287Y-84821429D01*
X103619049Y-84583333D01*
X103428573Y-84464286D01*
X103047621Y-84464286D01*
X102857144Y-84583333D01*
X103714287Y-86011905D02*
X103523811Y-86130952D01*
X103047621Y-86130952D01*
X102857144Y-86011905D01*
X102761906Y-85773810D01*
X102761906Y-85535714D01*
X102857144Y-85297619D01*
X103047621Y-85178571D01*
X103523811Y-85178571D01*
X103714287Y-85059524D01*
X104666668Y-86130952D02*
X104666668Y-84464286D01*
X104666668Y-84940476D02*
X104761907Y-84702381D01*
X104857145Y-84583333D01*
X105047621Y-84464286D01*
X105238097Y-84464286D01*
X106761906Y-86130952D02*
X106761906Y-83630952D01*
X106761906Y-86011905D02*
X106571430Y-86130952D01*
X106190478Y-86130952D01*
X106000002Y-86011905D01*
X105904763Y-85892857D01*
X105809525Y-85654762D01*
X105809525Y-84940476D01*
X105904763Y-84702381D01*
X106000002Y-84583333D01*
X106190478Y-84464286D01*
X106571430Y-84464286D01*
X106761906Y-84583333D01*
D13*
X91286000Y-118000000D02*
G75*
G03X91286000Y-118000000I-2286000J0D01*
G01*
X61310000Y-91580000D02*
X61310000Y-81340000D01*
X45420000Y-91580000D02*
X45420000Y-81340000D01*
X45420000Y-91580000D02*
X61310000Y-91580000D01*
X45420000Y-81340000D02*
X61310000Y-81340000D01*
X61310000Y-89000000D02*
X63950000Y-89000000D01*
X61310000Y-86460000D02*
X63934000Y-86460000D01*
X61310000Y-83920000D02*
X63934000Y-83920000D01*
X49786000Y-126000000D02*
G75*
G03X49786000Y-126000000I-2286000J0D01*
G01*
X107786000Y-126000000D02*
G75*
G03X107786000Y-126000000I-2286000J0D01*
G01*
X107786000Y-77000000D02*
G75*
G03X107786000Y-77000000I-2286000J0D01*
G01*
X80192335Y-97921392D02*
G75*
G03X76960000Y-97764484I-1672335J-1078608D01*
G01*
X80192335Y-100078608D02*
G75*
G02X76960000Y-100235516I-1672335J1078608D01*
G01*
X79561130Y-97920163D02*
G75*
G03X77479039Y-97920000I-1041130J-1079837D01*
G01*
X79561130Y-100079837D02*
G75*
G02X77479039Y-100080000I-1041130J1079837D01*
G01*
X76960000Y-97764000D02*
X76960000Y-97920000D01*
X76960000Y-100080000D02*
X76960000Y-100236000D01*
X61192335Y-116921392D02*
G75*
G03X57960000Y-116764484I-1672335J-1078608D01*
G01*
X61192335Y-119078608D02*
G75*
G02X57960000Y-119235516I-1672335J1078608D01*
G01*
X60561130Y-116920163D02*
G75*
G03X58479039Y-116920000I-1041130J-1079837D01*
G01*
X60561130Y-119079837D02*
G75*
G02X58479039Y-119080000I-1041130J1079837D01*
G01*
X57960000Y-116764000D02*
X57960000Y-116920000D01*
X57960000Y-119080000D02*
X57960000Y-119236000D01*
X80192335Y-116921392D02*
G75*
G03X76960000Y-116764484I-1672335J-1078608D01*
G01*
X80192335Y-119078608D02*
G75*
G02X76960000Y-119235516I-1672335J1078608D01*
G01*
X79561130Y-116920163D02*
G75*
G03X77479039Y-116920000I-1041130J-1079837D01*
G01*
X79561130Y-119079837D02*
G75*
G02X77479039Y-119080000I-1041130J1079837D01*
G01*
X76960000Y-116764000D02*
X76960000Y-116920000D01*
X76960000Y-119080000D02*
X76960000Y-119236000D01*
X99192335Y-116921392D02*
G75*
G03X95960000Y-116764484I-1672335J-1078608D01*
G01*
X99192335Y-119078608D02*
G75*
G02X95960000Y-119235516I-1672335J1078608D01*
G01*
X98561130Y-116920163D02*
G75*
G03X96479039Y-116920000I-1041130J-1079837D01*
G01*
X98561130Y-119079837D02*
G75*
G02X96479039Y-119080000I-1041130J1079837D01*
G01*
X95960000Y-116764000D02*
X95960000Y-116920000D01*
X95960000Y-119080000D02*
X95960000Y-119236000D01*
X101990000Y-79530000D02*
X101990000Y-74330000D01*
X53670000Y-79530000D02*
X101990000Y-79530000D01*
X51070000Y-74330000D02*
X101990000Y-74330000D01*
X53670000Y-79530000D02*
X53670000Y-76930000D01*
X53670000Y-76930000D02*
X51070000Y-76930000D01*
X51070000Y-76930000D02*
X51070000Y-74330000D01*
X52400000Y-79530000D02*
X51070000Y-79530000D01*
X51070000Y-79530000D02*
X51070000Y-78200000D01*
D14*
X72150000Y-87650000D02*
X73928000Y-87650000D01*
X83072000Y-87650000D02*
X84850000Y-87650000D01*
X84850000Y-87650000D02*
X84850000Y-89428000D01*
X84850000Y-98572000D02*
X84850000Y-100350000D01*
X84850000Y-100350000D02*
X83072000Y-100350000D01*
X73928000Y-100350000D02*
X72150000Y-100350000D01*
X72150000Y-100350000D02*
X72150000Y-98572000D01*
X72150000Y-89428000D02*
X72150000Y-87650000D01*
X53150000Y-106650000D02*
X54928000Y-106650000D01*
X64072000Y-106650000D02*
X65850000Y-106650000D01*
X65850000Y-106650000D02*
X65850000Y-108428000D01*
X65850000Y-117572000D02*
X65850000Y-119350000D01*
X65850000Y-119350000D02*
X64072000Y-119350000D01*
X54928000Y-119350000D02*
X53150000Y-119350000D01*
X53150000Y-119350000D02*
X53150000Y-117572000D01*
X53150000Y-108428000D02*
X53150000Y-106650000D01*
X72150000Y-106650000D02*
X73928000Y-106650000D01*
X83072000Y-106650000D02*
X84850000Y-106650000D01*
X84850000Y-106650000D02*
X84850000Y-108428000D01*
X84850000Y-117572000D02*
X84850000Y-119350000D01*
X84850000Y-119350000D02*
X83072000Y-119350000D01*
X73928000Y-119350000D02*
X72150000Y-119350000D01*
X72150000Y-119350000D02*
X72150000Y-117572000D01*
X72150000Y-108428000D02*
X72150000Y-106650000D01*
X91150000Y-106650000D02*
X92928000Y-106650000D01*
X102072000Y-106650000D02*
X103850000Y-106650000D01*
X103850000Y-106650000D02*
X103850000Y-108428000D01*
X103850000Y-117572000D02*
X103850000Y-119350000D01*
X103850000Y-119350000D02*
X102072000Y-119350000D01*
X92928000Y-119350000D02*
X91150000Y-119350000D01*
X91150000Y-119350000D02*
X91150000Y-117572000D01*
X91150000Y-108428000D02*
X91150000Y-106650000D01*
D13*
X49786000Y-77000000D02*
G75*
G03X49786000Y-77000000I-2286000J0D01*
G01*
X90980000Y-90850000D02*
X91310000Y-90850000D01*
X91310000Y-90850000D02*
X91310000Y-97270000D01*
X91310000Y-97270000D02*
X90980000Y-97270000D01*
X89020000Y-90850000D02*
X88690000Y-90850000D01*
X88690000Y-90850000D02*
X88690000Y-97270000D01*
X88690000Y-97270000D02*
X89020000Y-97270000D01*
X81900000Y-83480000D02*
X81900000Y-83810000D01*
X81900000Y-83810000D02*
X75480000Y-83810000D01*
X75480000Y-83810000D02*
X75480000Y-83480000D01*
X81900000Y-81520000D02*
X81900000Y-81190000D01*
X81900000Y-81190000D02*
X75480000Y-81190000D01*
X75480000Y-81190000D02*
X75480000Y-81520000D01*
X61520000Y-101400000D02*
X61190000Y-101400000D01*
X61190000Y-101400000D02*
X61190000Y-94980000D01*
X61190000Y-94980000D02*
X61520000Y-94980000D01*
X63480000Y-101400000D02*
X63810000Y-101400000D01*
X63810000Y-101400000D02*
X63810000Y-94980000D01*
X63810000Y-94980000D02*
X63480000Y-94980000D01*
X66020000Y-101400000D02*
X65690000Y-101400000D01*
X65690000Y-101400000D02*
X65690000Y-94980000D01*
X65690000Y-94980000D02*
X66020000Y-94980000D01*
X67980000Y-101400000D02*
X68310000Y-101400000D01*
X68310000Y-101400000D02*
X68310000Y-94980000D01*
X68310000Y-94980000D02*
X67980000Y-94980000D01*
X51520000Y-101400000D02*
X51190000Y-101400000D01*
X51190000Y-101400000D02*
X51190000Y-94980000D01*
X51190000Y-94980000D02*
X51520000Y-94980000D01*
X53480000Y-101400000D02*
X53810000Y-101400000D01*
X53810000Y-101400000D02*
X53810000Y-94980000D01*
X53810000Y-94980000D02*
X53480000Y-94980000D01*
X56020000Y-101400000D02*
X55690000Y-101400000D01*
X55690000Y-101400000D02*
X55690000Y-94980000D01*
X55690000Y-94980000D02*
X56020000Y-94980000D01*
X57980000Y-101400000D02*
X58310000Y-101400000D01*
X58310000Y-101400000D02*
X58310000Y-94980000D01*
X58310000Y-94980000D02*
X57980000Y-94980000D01*
D11*
X62732762Y-91043619D02*
X62637524Y-90996000D01*
X62542286Y-90900762D01*
X62399429Y-90757905D01*
X62304190Y-90710286D01*
X62208952Y-90710286D01*
X62256571Y-90948381D02*
X62161333Y-90900762D01*
X62066095Y-90805524D01*
X62018476Y-90615048D01*
X62018476Y-90281714D01*
X62066095Y-90091238D01*
X62161333Y-89996000D01*
X62256571Y-89948381D01*
X62447048Y-89948381D01*
X62542286Y-89996000D01*
X62637524Y-90091238D01*
X62685143Y-90281714D01*
X62685143Y-90615048D01*
X62637524Y-90805524D01*
X62542286Y-90900762D01*
X62447048Y-90948381D01*
X62256571Y-90948381D01*
X63637524Y-90948381D02*
X63066095Y-90948381D01*
X63351809Y-90948381D02*
X63351809Y-89948381D01*
X63256571Y-90091238D01*
X63161333Y-90186476D01*
X63066095Y-90234095D01*
X77761905Y-102452381D02*
X77761905Y-101452381D01*
X78000000Y-101452381D01*
X78142858Y-101500000D01*
X78238096Y-101595238D01*
X78285715Y-101690476D01*
X78333334Y-101880952D01*
X78333334Y-102023810D01*
X78285715Y-102214286D01*
X78238096Y-102309524D01*
X78142858Y-102404762D01*
X78000000Y-102452381D01*
X77761905Y-102452381D01*
X79285715Y-102452381D02*
X78714286Y-102452381D01*
X79000000Y-102452381D02*
X79000000Y-101452381D01*
X78904762Y-101595238D01*
X78809524Y-101690476D01*
X78714286Y-101738095D01*
X58761905Y-121452381D02*
X58761905Y-120452381D01*
X59000000Y-120452381D01*
X59142858Y-120500000D01*
X59238096Y-120595238D01*
X59285715Y-120690476D01*
X59333334Y-120880952D01*
X59333334Y-121023810D01*
X59285715Y-121214286D01*
X59238096Y-121309524D01*
X59142858Y-121404762D01*
X59000000Y-121452381D01*
X58761905Y-121452381D01*
X59714286Y-120547619D02*
X59761905Y-120500000D01*
X59857143Y-120452381D01*
X60095239Y-120452381D01*
X60190477Y-120500000D01*
X60238096Y-120547619D01*
X60285715Y-120642857D01*
X60285715Y-120738095D01*
X60238096Y-120880952D01*
X59666667Y-121452381D01*
X60285715Y-121452381D01*
X77761905Y-121452381D02*
X77761905Y-120452381D01*
X78000000Y-120452381D01*
X78142858Y-120500000D01*
X78238096Y-120595238D01*
X78285715Y-120690476D01*
X78333334Y-120880952D01*
X78333334Y-121023810D01*
X78285715Y-121214286D01*
X78238096Y-121309524D01*
X78142858Y-121404762D01*
X78000000Y-121452381D01*
X77761905Y-121452381D01*
X78666667Y-120452381D02*
X79285715Y-120452381D01*
X78952381Y-120833333D01*
X79095239Y-120833333D01*
X79190477Y-120880952D01*
X79238096Y-120928571D01*
X79285715Y-121023810D01*
X79285715Y-121261905D01*
X79238096Y-121357143D01*
X79190477Y-121404762D01*
X79095239Y-121452381D01*
X78809524Y-121452381D01*
X78714286Y-121404762D01*
X78666667Y-121357143D01*
X96761905Y-121452381D02*
X96761905Y-120452381D01*
X97000000Y-120452381D01*
X97142858Y-120500000D01*
X97238096Y-120595238D01*
X97285715Y-120690476D01*
X97333334Y-120880952D01*
X97333334Y-121023810D01*
X97285715Y-121214286D01*
X97238096Y-121309524D01*
X97142858Y-121404762D01*
X97000000Y-121452381D01*
X96761905Y-121452381D01*
X98190477Y-120785714D02*
X98190477Y-121452381D01*
X97952381Y-120404762D02*
X97714286Y-121119048D01*
X98333334Y-121119048D01*
X100666667Y-79952381D02*
X100666667Y-80666667D01*
X100619047Y-80809524D01*
X100523809Y-80904762D01*
X100380952Y-80952381D01*
X100285714Y-80952381D01*
X101666667Y-80952381D02*
X101095238Y-80952381D01*
X101380952Y-80952381D02*
X101380952Y-79952381D01*
X101285714Y-80095238D01*
X101190476Y-80190476D01*
X101095238Y-80238095D01*
X76833334Y-87255952D02*
X77011906Y-87315476D01*
X77309525Y-87315476D01*
X77428572Y-87255952D01*
X77488096Y-87196429D01*
X77547620Y-87077381D01*
X77547620Y-86958333D01*
X77488096Y-86839286D01*
X77428572Y-86779762D01*
X77309525Y-86720238D01*
X77071429Y-86660714D01*
X76952382Y-86601190D01*
X76892858Y-86541667D01*
X76833334Y-86422619D01*
X76833334Y-86303571D01*
X76892858Y-86184524D01*
X76952382Y-86125000D01*
X77071429Y-86065476D01*
X77369049Y-86065476D01*
X77547620Y-86125000D01*
X77964286Y-86065476D02*
X78261905Y-87315476D01*
X78500001Y-86422619D01*
X78738096Y-87315476D01*
X79035715Y-86065476D01*
X80166667Y-87315476D02*
X79452381Y-87315476D01*
X79809524Y-87315476D02*
X79809524Y-86065476D01*
X79690476Y-86244048D01*
X79571429Y-86363095D01*
X79452381Y-86422619D01*
X57833334Y-106255952D02*
X58011906Y-106315476D01*
X58309525Y-106315476D01*
X58428572Y-106255952D01*
X58488096Y-106196429D01*
X58547620Y-106077381D01*
X58547620Y-105958333D01*
X58488096Y-105839286D01*
X58428572Y-105779762D01*
X58309525Y-105720238D01*
X58071429Y-105660714D01*
X57952382Y-105601190D01*
X57892858Y-105541667D01*
X57833334Y-105422619D01*
X57833334Y-105303571D01*
X57892858Y-105184524D01*
X57952382Y-105125000D01*
X58071429Y-105065476D01*
X58369049Y-105065476D01*
X58547620Y-105125000D01*
X58964286Y-105065476D02*
X59261905Y-106315476D01*
X59500001Y-105422619D01*
X59738096Y-106315476D01*
X60035715Y-105065476D01*
X60452381Y-105184524D02*
X60511905Y-105125000D01*
X60630953Y-105065476D01*
X60928572Y-105065476D01*
X61047619Y-105125000D01*
X61107143Y-105184524D01*
X61166667Y-105303571D01*
X61166667Y-105422619D01*
X61107143Y-105601190D01*
X60392857Y-106315476D01*
X61166667Y-106315476D01*
X76833334Y-106255952D02*
X77011906Y-106315476D01*
X77309525Y-106315476D01*
X77428572Y-106255952D01*
X77488096Y-106196429D01*
X77547620Y-106077381D01*
X77547620Y-105958333D01*
X77488096Y-105839286D01*
X77428572Y-105779762D01*
X77309525Y-105720238D01*
X77071429Y-105660714D01*
X76952382Y-105601190D01*
X76892858Y-105541667D01*
X76833334Y-105422619D01*
X76833334Y-105303571D01*
X76892858Y-105184524D01*
X76952382Y-105125000D01*
X77071429Y-105065476D01*
X77369049Y-105065476D01*
X77547620Y-105125000D01*
X77964286Y-105065476D02*
X78261905Y-106315476D01*
X78500001Y-105422619D01*
X78738096Y-106315476D01*
X79035715Y-105065476D01*
X79392857Y-105065476D02*
X80166667Y-105065476D01*
X79750000Y-105541667D01*
X79928572Y-105541667D01*
X80047619Y-105601190D01*
X80107143Y-105660714D01*
X80166667Y-105779762D01*
X80166667Y-106077381D01*
X80107143Y-106196429D01*
X80047619Y-106255952D01*
X79928572Y-106315476D01*
X79571429Y-106315476D01*
X79452381Y-106255952D01*
X79392857Y-106196429D01*
X95833334Y-106255952D02*
X96011906Y-106315476D01*
X96309525Y-106315476D01*
X96428572Y-106255952D01*
X96488096Y-106196429D01*
X96547620Y-106077381D01*
X96547620Y-105958333D01*
X96488096Y-105839286D01*
X96428572Y-105779762D01*
X96309525Y-105720238D01*
X96071429Y-105660714D01*
X95952382Y-105601190D01*
X95892858Y-105541667D01*
X95833334Y-105422619D01*
X95833334Y-105303571D01*
X95892858Y-105184524D01*
X95952382Y-105125000D01*
X96071429Y-105065476D01*
X96369049Y-105065476D01*
X96547620Y-105125000D01*
X96964286Y-105065476D02*
X97261905Y-106315476D01*
X97500001Y-105422619D01*
X97738096Y-106315476D01*
X98035715Y-105065476D01*
X99047619Y-105482143D02*
X99047619Y-106315476D01*
X98750000Y-105005952D02*
X98452381Y-105898810D01*
X99226191Y-105898810D01*
X88202381Y-94166666D02*
X87726190Y-94500000D01*
X88202381Y-94738095D02*
X87202381Y-94738095D01*
X87202381Y-94357142D01*
X87250000Y-94261904D01*
X87297619Y-94214285D01*
X87392857Y-94166666D01*
X87535714Y-94166666D01*
X87630952Y-94214285D01*
X87678571Y-94261904D01*
X87726190Y-94357142D01*
X87726190Y-94738095D01*
X88202381Y-93214285D02*
X88202381Y-93785714D01*
X88202381Y-93500000D02*
X87202381Y-93500000D01*
X87345238Y-93595238D01*
X87440476Y-93690476D01*
X87488095Y-93785714D01*
X78583334Y-85202381D02*
X78250000Y-84726190D01*
X78011905Y-85202381D02*
X78011905Y-84202381D01*
X78392858Y-84202381D01*
X78488096Y-84250000D01*
X78535715Y-84297619D01*
X78583334Y-84392857D01*
X78583334Y-84535714D01*
X78535715Y-84630952D01*
X78488096Y-84678571D01*
X78392858Y-84726190D01*
X78011905Y-84726190D01*
X78964286Y-84297619D02*
X79011905Y-84250000D01*
X79107143Y-84202381D01*
X79345239Y-84202381D01*
X79440477Y-84250000D01*
X79488096Y-84297619D01*
X79535715Y-84392857D01*
X79535715Y-84488095D01*
X79488096Y-84630952D01*
X78916667Y-85202381D01*
X79535715Y-85202381D01*
X60702381Y-98166666D02*
X60226190Y-98500000D01*
X60702381Y-98738095D02*
X59702381Y-98738095D01*
X59702381Y-98357142D01*
X59750000Y-98261904D01*
X59797619Y-98214285D01*
X59892857Y-98166666D01*
X60035714Y-98166666D01*
X60130952Y-98214285D01*
X60178571Y-98261904D01*
X60226190Y-98357142D01*
X60226190Y-98738095D01*
X59702381Y-97833333D02*
X59702381Y-97214285D01*
X60083333Y-97547619D01*
X60083333Y-97404761D01*
X60130952Y-97309523D01*
X60178571Y-97261904D01*
X60273810Y-97214285D01*
X60511905Y-97214285D01*
X60607143Y-97261904D01*
X60654762Y-97309523D01*
X60702381Y-97404761D01*
X60702381Y-97690476D01*
X60654762Y-97785714D01*
X60607143Y-97833333D01*
X65202381Y-98166666D02*
X64726190Y-98500000D01*
X65202381Y-98738095D02*
X64202381Y-98738095D01*
X64202381Y-98357142D01*
X64250000Y-98261904D01*
X64297619Y-98214285D01*
X64392857Y-98166666D01*
X64535714Y-98166666D01*
X64630952Y-98214285D01*
X64678571Y-98261904D01*
X64726190Y-98357142D01*
X64726190Y-98738095D01*
X64535714Y-97309523D02*
X65202381Y-97309523D01*
X64154762Y-97547619D02*
X64869048Y-97785714D01*
X64869048Y-97166666D01*
X50702381Y-98166666D02*
X50226190Y-98500000D01*
X50702381Y-98738095D02*
X49702381Y-98738095D01*
X49702381Y-98357142D01*
X49750000Y-98261904D01*
X49797619Y-98214285D01*
X49892857Y-98166666D01*
X50035714Y-98166666D01*
X50130952Y-98214285D01*
X50178571Y-98261904D01*
X50226190Y-98357142D01*
X50226190Y-98738095D01*
X49702381Y-97261904D02*
X49702381Y-97738095D01*
X50178571Y-97785714D01*
X50130952Y-97738095D01*
X50083333Y-97642857D01*
X50083333Y-97404761D01*
X50130952Y-97309523D01*
X50178571Y-97261904D01*
X50273810Y-97214285D01*
X50511905Y-97214285D01*
X50607143Y-97261904D01*
X50654762Y-97309523D01*
X50702381Y-97404761D01*
X50702381Y-97642857D01*
X50654762Y-97738095D01*
X50607143Y-97785714D01*
X55202381Y-98166666D02*
X54726190Y-98500000D01*
X55202381Y-98738095D02*
X54202381Y-98738095D01*
X54202381Y-98357142D01*
X54250000Y-98261904D01*
X54297619Y-98214285D01*
X54392857Y-98166666D01*
X54535714Y-98166666D01*
X54630952Y-98214285D01*
X54678571Y-98261904D01*
X54726190Y-98357142D01*
X54726190Y-98738095D01*
X54202381Y-97309523D02*
X54202381Y-97500000D01*
X54250000Y-97595238D01*
X54297619Y-97642857D01*
X54440476Y-97738095D01*
X54630952Y-97785714D01*
X55011905Y-97785714D01*
X55107143Y-97738095D01*
X55154762Y-97690476D01*
X55202381Y-97595238D01*
X55202381Y-97404761D01*
X55154762Y-97309523D01*
X55107143Y-97261904D01*
X55011905Y-97214285D01*
X54773810Y-97214285D01*
X54678571Y-97261904D01*
X54630952Y-97309523D01*
X54583333Y-97404761D01*
X54583333Y-97595238D01*
X54630952Y-97690476D01*
X54678571Y-97738095D01*
X54773810Y-97785714D01*
%LPC*%
D15*
X89000000Y-118000000D03*
D16*
X48340000Y-86460000D03*
D17*
X65000000Y-89000000D03*
D18*
X65000000Y-86460000D03*
X65000000Y-83920000D03*
D19*
X47500000Y-126000000D03*
X105500000Y-126000000D03*
X105500000Y-77000000D03*
D17*
X77250000Y-99000000D03*
D20*
X79790000Y-99000000D03*
D17*
X58250000Y-118000000D03*
D20*
X60790000Y-118000000D03*
D17*
X77250000Y-118000000D03*
D20*
X79790000Y-118000000D03*
D17*
X96250000Y-118000000D03*
D20*
X98790000Y-118000000D03*
D21*
X52400000Y-78200000D03*
D22*
X52400000Y-75660000D03*
X54940000Y-78200000D03*
X54940000Y-75660000D03*
X57480000Y-78200000D03*
X57480000Y-75660000D03*
X60020000Y-78200000D03*
X60020000Y-75660000D03*
X62560000Y-78200000D03*
X62560000Y-75660000D03*
X65100000Y-78200000D03*
X65100000Y-75660000D03*
X67640000Y-78200000D03*
X67640000Y-75660000D03*
X70180000Y-78200000D03*
X70180000Y-75660000D03*
X72720000Y-78200000D03*
X72720000Y-75660000D03*
X75260000Y-78200000D03*
X75260000Y-75660000D03*
X77800000Y-78200000D03*
X77800000Y-75660000D03*
X80340000Y-78200000D03*
X80340000Y-75660000D03*
X82880000Y-78200000D03*
X82880000Y-75660000D03*
X85420000Y-78200000D03*
X85420000Y-75660000D03*
X87960000Y-78200000D03*
X87960000Y-75660000D03*
X90500000Y-78200000D03*
X90500000Y-75660000D03*
X93040000Y-78200000D03*
X93040000Y-75660000D03*
X95580000Y-78200000D03*
X95580000Y-75660000D03*
X98120000Y-78200000D03*
X98120000Y-75660000D03*
X100660000Y-78200000D03*
X100660000Y-75660000D03*
D23*
X81040000Y-88920000D03*
X74690000Y-91460000D03*
X62040000Y-107920000D03*
X55690000Y-110460000D03*
X81040000Y-107920000D03*
X74690000Y-110460000D03*
X100040000Y-107920000D03*
X93690000Y-110460000D03*
D19*
X47500000Y-77000000D03*
D24*
X90000000Y-90250000D03*
D25*
X90000000Y-97870000D03*
D24*
X82500000Y-82500000D03*
D25*
X74880000Y-82500000D03*
D24*
X62500000Y-102000000D03*
D25*
X62500000Y-94380000D03*
D24*
X67000000Y-102000000D03*
D25*
X67000000Y-94380000D03*
D24*
X52500000Y-102000000D03*
D25*
X52500000Y-94380000D03*
D24*
X57000000Y-102000000D03*
D25*
X57000000Y-94380000D03*
M02*
