M48
;DRILL file {KiCad 4.0.6} date 07/20/17 17:27:31
;FORMAT={-:-/ absolute / inch / decimal}
FMAT,2
INCH,TZ
T1C0.031
T2C0.035
T3C0.039
T4C0.059
T5C0.138
%
G90
G05
M72
T1
X3.6811Y-3.9913
X3.6811Y-4.2913
X3.8583Y-3.9913
X3.8583Y-4.2913
X4.0748Y-3.9913
X4.0748Y-4.2913
X4.252Y-3.9913
X4.252Y-4.2913
X4.5622Y-3.5236
X4.8622Y-3.5236
X5.1575Y-3.8287
X5.1575Y-4.1287
T2
X3.9075Y-4.9213
X4.0075Y-4.9213
X4.6555Y-4.1732
X4.6555Y-4.9213
X4.7555Y-4.1732
X4.7555Y-4.9213
X5.4035Y-4.9213
X5.5035Y-4.9213
T3
X3.6772Y-3.2543
X3.6772Y-3.3543
X3.7772Y-3.2543
X3.7772Y-3.3543
X3.8772Y-3.2543
X3.8772Y-3.3543
X3.9772Y-3.2543
X3.9772Y-3.3543
X4.0772Y-3.2543
X4.0772Y-3.3543
X4.1732Y-3.5795
X4.1732Y-3.6795
X4.1732Y-3.7795
X4.1772Y-3.2543
X4.1772Y-3.3543
X4.2772Y-3.2543
X4.2772Y-3.3543
X4.3772Y-3.2543
X4.3772Y-3.3543
X4.4772Y-3.2543
X4.4772Y-3.3543
X4.5772Y-3.2543
X4.5772Y-3.3543
X4.6772Y-3.2543
X4.6772Y-3.3543
X4.7772Y-3.2543
X4.7772Y-3.3543
X4.8772Y-3.2543
X4.8772Y-3.3543
X4.9772Y-3.2543
X4.9772Y-3.3543
X5.0772Y-3.2543
X5.0772Y-3.3543
X5.1772Y-3.2543
X5.1772Y-3.3543
X5.2772Y-3.2543
X5.2772Y-3.3543
X5.3772Y-3.2543
X5.3772Y-3.3543
X5.4772Y-3.2543
X5.4772Y-3.3543
X5.5772Y-3.2543
X5.5772Y-3.3543
T4
X3.8067Y-4.6244
X4.0567Y-4.5244
X4.5547Y-3.8764
X4.5547Y-4.6244
X4.8047Y-3.7764
X4.8047Y-4.5244
X5.3028Y-4.6244
X5.5528Y-4.5244
T5
X3.5173Y-3.6795
T0
M30
