G04 #@! TF.FileFunction,Copper,L1,Top,Signal*
%FSLAX46Y46*%
G04 Gerber Fmt 4.6, Leading zero omitted, Abs format (unit mm)*
G04 Created by KiCad (PCBNEW 4.0.6) date 08/05/17 14:09:34*
%MOMM*%
%LPD*%
G01*
G04 APERTURE LIST*
%ADD10C,0.100000*%
%ADD11C,0.400000*%
%ADD12R,1.700000X1.700000*%
%ADD13O,1.700000X1.700000*%
%ADD14R,6.000000X9.500000*%
%ADD15C,1.800000*%
%ADD16O,1.800000X1.800000*%
%ADD17R,1.800000X1.800000*%
%ADD18C,2.286000*%
%ADD19C,0.500000*%
%ADD20C,0.375000*%
G04 APERTURE END LIST*
D10*
D11*
X81952381Y-126011905D02*
X81714285Y-126130952D01*
X81238095Y-126130952D01*
X81000000Y-126011905D01*
X80880952Y-125892857D01*
X80761904Y-125654762D01*
X80761904Y-124940476D01*
X80880952Y-124702381D01*
X81000000Y-124583333D01*
X81238095Y-124464286D01*
X81714285Y-124464286D01*
X81952381Y-124583333D01*
X83380952Y-126130952D02*
X83142857Y-126011905D01*
X83023809Y-125773810D01*
X83023809Y-123630952D01*
X84333333Y-126130952D02*
X84333333Y-124464286D01*
X84333333Y-123630952D02*
X84214285Y-123750000D01*
X84333333Y-123869048D01*
X84452381Y-123750000D01*
X84333333Y-123630952D01*
X84333333Y-123869048D01*
X86595238Y-126011905D02*
X86357142Y-126130952D01*
X85880952Y-126130952D01*
X85642857Y-126011905D01*
X85523809Y-125892857D01*
X85404761Y-125654762D01*
X85404761Y-124940476D01*
X85523809Y-124702381D01*
X85642857Y-124583333D01*
X85880952Y-124464286D01*
X86357142Y-124464286D01*
X86595238Y-124583333D01*
X87666666Y-126130952D02*
X87666666Y-123630952D01*
X87904761Y-125178571D02*
X88619047Y-126130952D01*
X88619047Y-124464286D02*
X87666666Y-125416667D01*
X89452381Y-124464286D02*
X90047619Y-126130952D01*
X90642857Y-124464286D02*
X90047619Y-126130952D01*
X89809524Y-126726190D01*
X89690476Y-126845238D01*
X89452381Y-126964286D01*
D12*
X52370000Y-78270000D03*
D13*
X52370000Y-75730000D03*
X54910000Y-78270000D03*
X54910000Y-75730000D03*
X57450000Y-78270000D03*
X57450000Y-75730000D03*
X59990000Y-78270000D03*
X59990000Y-75730000D03*
X62530000Y-78270000D03*
X62530000Y-75730000D03*
X65070000Y-78270000D03*
X65070000Y-75730000D03*
X67610000Y-78270000D03*
X67610000Y-75730000D03*
X70150000Y-78270000D03*
X70150000Y-75730000D03*
X72690000Y-78270000D03*
X72690000Y-75730000D03*
X75230000Y-78270000D03*
X75230000Y-75730000D03*
X77770000Y-78270000D03*
X77770000Y-75730000D03*
X80310000Y-78270000D03*
X80310000Y-75730000D03*
X82850000Y-78270000D03*
X82850000Y-75730000D03*
X85390000Y-78270000D03*
X85390000Y-75730000D03*
X87930000Y-78270000D03*
X87930000Y-75730000D03*
X90470000Y-78270000D03*
X90470000Y-75730000D03*
X93010000Y-78270000D03*
X93010000Y-75730000D03*
X95550000Y-78270000D03*
X95550000Y-75730000D03*
X98090000Y-78270000D03*
X98090000Y-75730000D03*
X100630000Y-78270000D03*
X100630000Y-75730000D03*
D14*
X48700000Y-86400000D03*
D15*
X65000000Y-89000000D03*
D16*
X65000000Y-86460000D03*
X65000000Y-83920000D03*
D15*
X77250000Y-99000000D03*
D17*
X79790000Y-99000000D03*
D15*
X58250000Y-118000000D03*
D17*
X60790000Y-118000000D03*
D15*
X77250000Y-118000000D03*
D17*
X79790000Y-118000000D03*
D15*
X96250000Y-118000000D03*
D17*
X98790000Y-118000000D03*
D18*
X81040000Y-88920000D03*
X74690000Y-91460000D03*
X62040000Y-107920000D03*
X55690000Y-110460000D03*
X81040000Y-107920000D03*
X74690000Y-110460000D03*
X100040000Y-107920000D03*
X93690000Y-110460000D03*
D15*
X90000000Y-90250000D03*
X90000000Y-97870000D03*
X82500000Y-82500000D03*
X74880000Y-82500000D03*
X62500000Y-102000000D03*
X62500000Y-94380000D03*
X67000000Y-102000000D03*
X67000000Y-94380000D03*
X52500000Y-102000000D03*
X52500000Y-94380000D03*
X57000000Y-102000000D03*
X57000000Y-94380000D03*
D19*
X77250000Y-99000000D02*
X74250000Y-102000000D01*
X74250000Y-102000000D02*
X67000000Y-102000000D01*
X79790000Y-118000000D02*
X93000000Y-118000000D01*
X96790000Y-116000000D02*
X98790000Y-118000000D01*
X95000000Y-116000000D02*
X96790000Y-116000000D01*
X93000000Y-118000000D02*
X95000000Y-116000000D01*
X79790000Y-118000000D02*
X79790000Y-117290000D01*
X79790000Y-117290000D02*
X78500000Y-116000000D01*
X62790000Y-116000000D02*
X60790000Y-118000000D01*
X78500000Y-116000000D02*
X62790000Y-116000000D01*
X91740000Y-79590000D02*
X91740000Y-88990000D01*
D20*
X91740000Y-74340000D02*
X91740000Y-79590000D01*
D19*
X56200000Y-74000000D02*
X91400000Y-74000000D01*
X54910000Y-75290000D02*
X56200000Y-74000000D01*
D20*
X91400000Y-74000000D02*
X91740000Y-74340000D01*
D19*
X84000000Y-99000000D02*
X79790000Y-99000000D01*
X92000000Y-91000000D02*
X84000000Y-99000000D01*
X92000000Y-89250000D02*
X92000000Y-91000000D01*
X91740000Y-88990000D02*
X92000000Y-89250000D01*
X54910000Y-75730000D02*
X54910000Y-75290000D01*
X58250000Y-118000000D02*
X56500000Y-118000000D01*
X58500000Y-106000000D02*
X62500000Y-102000000D01*
X56500000Y-106000000D02*
X58500000Y-106000000D01*
X52500000Y-110000000D02*
X56500000Y-106000000D01*
X52500000Y-114000000D02*
X52500000Y-110000000D01*
X56500000Y-118000000D02*
X52500000Y-114000000D01*
X96250000Y-118000000D02*
X95000000Y-118000000D01*
X52500000Y-107000000D02*
X52500000Y-102000000D01*
X50500000Y-109000000D02*
X52500000Y-107000000D01*
X50500000Y-115000000D02*
X50500000Y-109000000D01*
X56500000Y-121000000D02*
X50500000Y-115000000D01*
X92000000Y-121000000D02*
X56500000Y-121000000D01*
X95000000Y-118000000D02*
X92000000Y-121000000D01*
D20*
X96250000Y-118000000D02*
X96000000Y-118000000D01*
D19*
X52370000Y-78270000D02*
X52370000Y-78370000D01*
X52370000Y-78370000D02*
X62400000Y-88400000D01*
X62400000Y-88400000D02*
X62400000Y-90600000D01*
X62400000Y-90600000D02*
X63600000Y-91800000D01*
X63600000Y-91800000D02*
X69400000Y-91800000D01*
X69400000Y-91800000D02*
X75200000Y-86000000D01*
X75200000Y-86000000D02*
X85750000Y-86000000D01*
X85750000Y-86000000D02*
X90000000Y-90250000D01*
X65070000Y-78270000D02*
X65070000Y-79070000D01*
X65070000Y-79070000D02*
X66250000Y-80250000D01*
X66250000Y-80250000D02*
X80250000Y-80250000D01*
X80250000Y-80250000D02*
X82500000Y-82500000D01*
X65000000Y-83920000D02*
X64920000Y-83920000D01*
X64920000Y-83920000D02*
X62530000Y-81530000D01*
X62530000Y-81530000D02*
X62530000Y-78270000D01*
X81040000Y-107920000D02*
X62040000Y-107920000D01*
X90000000Y-102000000D02*
X84000000Y-108000000D01*
X84000000Y-108000000D02*
X81120000Y-108000000D01*
X81120000Y-108000000D02*
X81040000Y-107920000D01*
X90000000Y-97870000D02*
X90000000Y-102000000D01*
X95920000Y-107920000D02*
X100040000Y-107920000D01*
X90000000Y-102000000D02*
X95920000Y-107920000D01*
X74880000Y-82500000D02*
X73500000Y-82500000D01*
X67000000Y-89000000D02*
X65000000Y-89000000D01*
X73500000Y-82500000D02*
X67000000Y-89000000D01*
X74880000Y-82500000D02*
X74880000Y-82620000D01*
M02*
