G04 #@! TF.FileFunction,Copper,L2,Bot,Signal*
%FSLAX46Y46*%
G04 Gerber Fmt 4.6, Leading zero omitted, Abs format (unit mm)*
G04 Created by KiCad (PCBNEW 4.0.6) date 08/05/17 14:09:34*
%MOMM*%
%LPD*%
G01*
G04 APERTURE LIST*
%ADD10C,0.100000*%
%ADD11R,1.700000X1.700000*%
%ADD12O,1.700000X1.700000*%
%ADD13C,1.800000*%
%ADD14O,1.800000X1.800000*%
%ADD15R,1.800000X1.800000*%
%ADD16C,2.286000*%
%ADD17C,0.500000*%
%ADD18C,0.375000*%
G04 APERTURE END LIST*
D10*
D11*
X52370000Y-78270000D03*
D12*
X52370000Y-75730000D03*
X54910000Y-78270000D03*
X54910000Y-75730000D03*
X57450000Y-78270000D03*
X57450000Y-75730000D03*
X59990000Y-78270000D03*
X59990000Y-75730000D03*
X62530000Y-78270000D03*
X62530000Y-75730000D03*
X65070000Y-78270000D03*
X65070000Y-75730000D03*
X67610000Y-78270000D03*
X67610000Y-75730000D03*
X70150000Y-78270000D03*
X70150000Y-75730000D03*
X72690000Y-78270000D03*
X72690000Y-75730000D03*
X75230000Y-78270000D03*
X75230000Y-75730000D03*
X77770000Y-78270000D03*
X77770000Y-75730000D03*
X80310000Y-78270000D03*
X80310000Y-75730000D03*
X82850000Y-78270000D03*
X82850000Y-75730000D03*
X85390000Y-78270000D03*
X85390000Y-75730000D03*
X87930000Y-78270000D03*
X87930000Y-75730000D03*
X90470000Y-78270000D03*
X90470000Y-75730000D03*
X93010000Y-78270000D03*
X93010000Y-75730000D03*
X95550000Y-78270000D03*
X95550000Y-75730000D03*
X98090000Y-78270000D03*
X98090000Y-75730000D03*
X100630000Y-78270000D03*
X100630000Y-75730000D03*
D13*
X65000000Y-89000000D03*
D14*
X65000000Y-86460000D03*
X65000000Y-83920000D03*
D13*
X77250000Y-99000000D03*
D15*
X79790000Y-99000000D03*
D13*
X58250000Y-118000000D03*
D15*
X60790000Y-118000000D03*
D13*
X77250000Y-118000000D03*
D15*
X79790000Y-118000000D03*
D13*
X96250000Y-118000000D03*
D15*
X98790000Y-118000000D03*
D16*
X81040000Y-88920000D03*
X74690000Y-91460000D03*
X62040000Y-107920000D03*
X55690000Y-110460000D03*
X81040000Y-107920000D03*
X74690000Y-110460000D03*
X100040000Y-107920000D03*
X93690000Y-110460000D03*
D13*
X90000000Y-90250000D03*
X90000000Y-97870000D03*
X82500000Y-82500000D03*
X74880000Y-82500000D03*
X62500000Y-102000000D03*
X62500000Y-94380000D03*
X67000000Y-102000000D03*
X67000000Y-94380000D03*
X52500000Y-102000000D03*
X52500000Y-94380000D03*
X57000000Y-102000000D03*
X57000000Y-94380000D03*
D17*
X79790000Y-99000000D02*
X79790000Y-100790000D01*
X81750000Y-116040000D02*
X79790000Y-118000000D01*
X81750000Y-111500000D02*
X81750000Y-116040000D01*
X83500000Y-109750000D02*
X81750000Y-111500000D01*
X83500000Y-104500000D02*
X83500000Y-109750000D01*
X79790000Y-100790000D02*
X83500000Y-104500000D01*
X77250000Y-118000000D02*
X75000000Y-118000000D01*
X54500000Y-104500000D02*
X57000000Y-102000000D01*
X54500000Y-106500000D02*
X54500000Y-104500000D01*
X51500000Y-109500000D02*
X54500000Y-106500000D01*
X51500000Y-114500000D02*
X51500000Y-109500000D01*
X57000000Y-120000000D02*
X51500000Y-114500000D01*
X73000000Y-120000000D02*
X57000000Y-120000000D01*
X75000000Y-118000000D02*
X73000000Y-120000000D01*
D18*
X74690000Y-91460000D02*
X73960000Y-91460000D01*
X73960000Y-91460000D02*
X73000000Y-90500000D01*
X73000000Y-90500000D02*
X73000000Y-80600000D01*
X73000000Y-80600000D02*
X73960000Y-79640000D01*
X73960000Y-79640000D02*
X73960000Y-74900000D01*
X73960000Y-74900000D02*
X73400000Y-74340000D01*
X73400000Y-74340000D02*
X66460000Y-74340000D01*
X66460000Y-74340000D02*
X65070000Y-75730000D01*
X55690000Y-110460000D02*
X55690000Y-108810000D01*
X68750000Y-79410000D02*
X67610000Y-78270000D01*
X68750000Y-96000000D02*
X68750000Y-79410000D01*
X66750000Y-98000000D02*
X68750000Y-96000000D01*
X62500000Y-98000000D02*
X66750000Y-98000000D01*
X59500000Y-101000000D02*
X62500000Y-98000000D01*
X59500000Y-105000000D02*
X59500000Y-101000000D01*
X55690000Y-108810000D02*
X59500000Y-105000000D01*
X74690000Y-110460000D02*
X73460000Y-110460000D01*
X70150000Y-107150000D02*
X70150000Y-78270000D01*
X73460000Y-110460000D02*
X70150000Y-107150000D01*
X71420000Y-77000000D02*
X70150000Y-75730000D01*
X71420000Y-79620000D02*
X71420000Y-77000000D01*
X71500000Y-79700000D02*
X71420000Y-79620000D01*
X71500000Y-95000000D02*
X71500000Y-79700000D01*
X73500000Y-97000000D02*
X71500000Y-95000000D01*
X81500000Y-97000000D02*
X73500000Y-97000000D01*
X93690000Y-109190000D02*
X81500000Y-97000000D01*
X93690000Y-110460000D02*
X93690000Y-109190000D01*
D17*
X67000000Y-94380000D02*
X67000000Y-87500000D01*
X65960000Y-86460000D02*
X65000000Y-86460000D01*
X67000000Y-87500000D02*
X65960000Y-86460000D01*
X62500000Y-94380000D02*
X67000000Y-94380000D01*
X57000000Y-94380000D02*
X62500000Y-94380000D01*
X52500000Y-94380000D02*
X57000000Y-94380000D01*
X81040000Y-88920000D02*
X84320000Y-88920000D01*
X90000000Y-94600000D02*
X90000000Y-97870000D01*
X84320000Y-88920000D02*
X90000000Y-94600000D01*
M02*
